<svg xmlns="http://www.w3.org/2000/svg" xmlns:xlink="http://www.w3.org/1999/xlink" width="46.069" height="49.722" viewBox="0 0 46.069 49.722">
  <defs>
    <clipPath id="clip-path">
      <rect id="Rectangle_1375" data-name="Rectangle 1375" width="34.851" height="40.571" fill="#005fa6" stroke="#005fa6" stroke-width="0.2"/>
    </clipPath>
  </defs>
  <g id="Group_3399" data-name="Group 3399" transform="translate(-155.556 -1154.728)">
    <circle id="Ellipse_10" data-name="Ellipse 10" cx="23.034" cy="23.034" r="23.034" transform="translate(155.556 1158.382)" fill="#f4f7f8"/>
    <g id="Group_3313" data-name="Group 3313" transform="translate(161.556 1154.728)">
      <g id="Group_3312" data-name="Group 3312" clip-path="url(#clip-path)">
        <path id="Path_11541" data-name="Path 11541" d="M17.226,4.587a.1.1,0,0,0,.173-.023,4.809,4.809,0,0,0-.074-1.2c-.033-.439-.047-.879-.054-1.32a.114.114,0,0,0-.227,0c-.007.464-.024.929-.007,1.393a2.55,2.55,0,0,0,.191,1.147M3.614,32.131c-.057-.063-.173.022-.12.093.236.317.145.729.175,1.094a6.84,6.84,0,0,0,.29,1.3.057.057,0,0,0,.108,0,4.883,4.883,0,0,0-.169-1.5,1.574,1.574,0,0,0-.284-.983m14.5-28.117a.083.083,0,0,0,.1-.058c.027-.148-.042-.237-.085-.38a2.386,2.386,0,0,1-.077-.656c0-.393.047-.784.046-1.176a.115.115,0,0,0-.23,0c-.015.463-.1.922-.09,1.386.007.264.019.8.334.884m2.619-.927a.126.126,0,0,0,.2-.152,3.893,3.893,0,0,1-.1-1.644.124.124,0,0,0-.248,0c-.009.336-.053.671-.052,1.008,0,.249-.006.614.205.789m-1.512.545c-.016-.357-.153-.7-.151-1.067s.047-.75.083-1.124c.014-.144-.2-.138-.221,0a9.846,9.846,0,0,0-.128,1.306,1.362,1.362,0,0,0,.242.958.1.1,0,0,0,.176-.073m.832-.425a2.684,2.684,0,0,0,.034-.8q-.005-.444-.01-.888a.127.127,0,0,0-.254,0q-.005.444-.01.888a2.687,2.687,0,0,0,.034.8.109.109,0,0,0,.208,0M34.8,12.836A14.927,14.927,0,0,0,31.509,5.52c-.214-.281-.444-.549-.653-.833s-.359-.3-.707-.3a.414.414,0,0,0-.1.012.354.354,0,0,0-.367.191c-.177.307-.407.573-.613.863a4.243,4.243,0,0,0-.746,1.161.446.446,0,0,0-.129.722.442.442,0,0,0,.113.12c.348.853.778,1.669,1.112,2.528a13.263,13.263,0,0,1,.784,2.857,9.076,9.076,0,0,1-1.127,5.667c-1.573,2.863-4.432,5.7-7.87,5.924a10.094,10.094,0,0,1-8.492-4.479,9.073,9.073,0,0,1-.538-9.739,13.509,13.509,0,0,1,4.364-4.28,16.834,16.834,0,0,1,5.751-2.329.267.267,0,0,0,.2-.288.352.352,0,0,0,.029-.024c.208-.2.142-.428.119-.681a6.9,6.9,0,0,0-.145-.927A6.65,6.65,0,0,0,22.3.6a.366.366,0,0,0,.009-.066l0-.076a.319.319,0,0,0-.234-.307A10.455,10.455,0,0,0,20.019.009a12.172,12.172,0,0,0-2.013.285,14.789,14.789,0,0,0-3.655,1.417A14.724,14.724,0,0,0,8.787,6.619C6.181,10.7,6.736,15.89,8.932,20.025a14.93,14.93,0,0,0,1.271,2,4.825,4.825,0,0,0-.663.652c-.423.478-.841.962-1.248,1.454-.62.748-1.263,1.484-1.848,2.259a3.368,3.368,0,0,0-1.927-.227,5.044,5.044,0,0,0-2.689,2.084c-.426.516-.819,1.058-1.211,1.6-.145.2-.28.4-.409.615-.038.062-.083.124-.115.19s-.1.133-.012.075a.173.173,0,0,0,.086.319c.208.023.435-.229.565-.357.335-.332.621-.717.927-1.075a12.819,12.819,0,0,1,2.264-2.319c1.158-.8,2.642-.119,3.451.88a3.538,3.538,0,0,1,.767,1.477.133.133,0,0,0-.257.042,4.614,4.614,0,0,0,.1.992c-.022.038-.043.076-.065.114l-.039.061-.005-.026a6.852,6.852,0,0,1-.1-1.066.139.139,0,0,0-.277,0,8.325,8.325,0,0,0,.056,1.109c.016.129.028.271.056.4-.041.062-.082.124-.124.185q-.163.238-.329.474c-.217-.541-.111-1.2-.305-1.753-.053-.151-.291-.089-.242.067.2.633.023,1.394.334,1.985q-.134.186-.271.37c-.038-.167-.07-.336-.108-.506a5.672,5.672,0,0,1-.312-1.58c.01-.165-.237-.16-.254,0a6.237,6.237,0,0,0,.262,1.724c.041.235.075.486.14.723q-.178.233-.361.463c-.032-.146-.061-.293-.1-.438a8.4,8.4,0,0,1-.3-1.716.12.12,0,0,0-.239,0,7.837,7.837,0,0,0,.224,1.733c.053.236.089.5.146.754-.067.082-.133.163-.2.244-.06-.255-.119-.51-.175-.766a7.907,7.907,0,0,1-.2-1.512.127.127,0,0,0-.254,0,8.793,8.793,0,0,0,.14,1.5c.054.326.122.649.195.971.009.041.018.084.027.127q-.143.166-.29.33c-.048-.229-.1-.458-.14-.686-.1-.61-.23-1.212-.372-1.815-.034-.147-.255-.084-.225.062.135.644.226,1.289.341,1.936.048.272.085.593.16.891a.483.483,0,0,0,.131.385,1.366,1.366,0,0,0,.1.189.065.065,0,0,0,.121-.033c0-.005,0-.01,0-.015a.436.436,0,0,0,.439-.122,21.949,21.949,0,0,0,2.6-3.282,8.685,8.685,0,0,0,.763-1.228,2.831,2.831,0,0,0-.3-2.562l-.019-.03c.551-.658,1.13-1.294,1.706-1.93.408-.451.826-.9,1.21-1.372.149-.182.3-.363.446-.548.034-.044.068-.081.1-.126.06-.084.11-.109.023-.066a.183.183,0,0,0,.1-.159,12.379,12.379,0,0,0,1.246.927,13.862,13.862,0,0,0,3.726,1.689,4.273,4.273,0,0,0-.126,1.086c-.016.626-.028,1.253-.026,1.88,0,.97-.022,1.947.029,2.917a3.3,3.3,0,0,0-1.512.942A4.746,4.746,0,0,0,14.7,36.9c0,.7.045,1.391.094,2.086.019.266.047.53.088.793.012.078.017.162.037.238s.008.135.03.055a.173.173,0,0,0,.251.193c.2-.132.21-.47.229-.679.042-.472.017-.952.022-1.425a11.5,11.5,0,0,1,.293-3.349,2.5,2.5,0,0,1,2.712-1.444c-.32.406-.674.93-.411.985a.054.054,0,0,0,.067-.051,1.865,1.865,0,0,1,.373-.648c.061-.088.125-.176.189-.264a3.53,3.53,0,0,1,.4.074l.1.026c-.164.191-.348.364-.518.552s-.46.476-.376.735a.081.081,0,0,0,.117.048c.131-.068.16-.187.237-.308a3.856,3.856,0,0,1,.351-.455c.144-.166.292-.329.424-.5a4.193,4.193,0,0,1,.42.151,8.82,8.82,0,0,1-.669.819c-.189.227-.46.518-.42.833a.072.072,0,0,0,.121.05,1.672,1.672,0,0,0,.269-.39,4.52,4.52,0,0,1,.383-.5,5.577,5.577,0,0,0,.537-.7,2.24,2.24,0,0,1,.465.318c-.277.366-.574.715-.857,1.077a2.314,2.314,0,0,0-.631,1.06.088.088,0,0,0,.131.075,1.459,1.459,0,0,0,.349-.442c.159-.24.332-.469.509-.7.229-.293.463-.581.685-.879a1.63,1.63,0,0,1,.173.257,1.272,1.272,0,0,1,.092.228c-.292.391-.615.759-.917,1.144a2.76,2.76,0,0,0-.783,1.445.076.076,0,0,0,.128.053,3.968,3.968,0,0,0,.472-.725,9.4,9.4,0,0,1,.58-.8c.2-.251.4-.5.6-.753.027.2.037.4.056.585,0,.041.007.081.011.122A15.041,15.041,0,0,0,20.1,37.116c-.279.369-.867.917-.837,1.414a.085.085,0,0,0,.144.059A2.608,2.608,0,0,0,19.834,38c.158-.229.329-.449.5-.672.265-.357.533-.709.824-1.043.024.277.043.554.06.831-.3.407-.653.767-.982,1.149-.264.307-.7.747-.707,1.171a.127.127,0,0,0,.214.089,3.266,3.266,0,0,0,.389-.6,7.356,7.356,0,0,1,.523-.658c.2-.229.4-.454.588-.69q.02.421.03.843c-.167.2-.343.393-.518.594a2.82,2.82,0,0,0-.512.776.1.1,0,0,0,.091.12c.353-.044.483-.457.689-.7.086-.1.172-.2.256-.3,0,.4,0,.8-.018,1.2-.023.617.884.593.944,0a21.515,21.515,0,0,0-.12-4.236,6.626,6.626,0,0,0-.222-1.453,2.846,2.846,0,0,0-1.693-1.605c-.059-.023-.119-.045-.18-.067,0-.858.036-1.716.069-2.573.023-.608.056-1.223.05-1.831,0-.219,0-.439-.007-.658,0-.068,0-.138-.007-.206-.011-.152.014-.159-.041-.035a.226.226,0,0,0,0-.184,13.917,13.917,0,0,0,6.988-1.507,15,15,0,0,0,5.643-5.1A11.946,11.946,0,0,0,34.8,12.836M7.164,26.783c.186-.219.368-.441.549-.665.035.305.1.609.141.913.015.123.028.254.052.382a4.782,4.782,0,0,0-.741-.63M8.15,29.7a1.844,1.844,0,0,1,.025.262A2.413,2.413,0,0,1,8.15,29.7m.1-2.171a10.06,10.06,0,0,1-.328-1.672l.353-.446c.028.129.059.258.084.389A2.323,2.323,0,0,0,8.69,26.98a.119.119,0,0,0,.022.02q-.232.261-.459.525m.622-.707c-.042-.2-.126-.384-.158-.588-.027-.174-.039-.336-.083-.508-.049-.193-.109-.382-.151-.574l.292-.368c.04.332.108.663.177.985a2.329,2.329,0,0,0,.217.73l-.293.324m2.39-2.462a16.869,16.869,0,0,0-1.343,1.323q-.263.28-.524.563c-.053-.189-.132-.379-.177-.553a8.482,8.482,0,0,1-.24-1.173q.336-.423.664-.852a.11.11,0,0,0,0,.015,7.718,7.718,0,0,1,.1,1.154c.024.193.062.527.306.549a.072.072,0,0,0,.071-.071,1.007,1.007,0,0,0-.093-.321,2.5,2.5,0,0,1-.068-.5,3.956,3.956,0,0,0-.106-.873.106.106,0,0,0-.125-.075c.115-.151.231-.3.345-.453a5.579,5.579,0,0,0,.443-.66,13.036,13.036,0,0,0,1.428,1.493c-.254.011-.526.3-.686.431m6.472,3.49a5.218,5.218,0,0,0-.113-.966q.583.146,1.176.242c-.242.28-.509.541-.748.824-.092.109-.2.232-.293.363q-.011-.231-.022-.463m.072,1.88q-.01-.461-.028-.923a2.9,2.9,0,0,1,.168-.317,5.475,5.475,0,0,1,.488-.628c.2-.23.4-.459.585-.7q.226.033.452.058c-.353.461-.651.959-.962,1.452-.16.254-.3.519-.444.779a3.319,3.319,0,0,1-.257.368c0-.029,0-.058,0-.087m1.359,2.815a4.89,4.89,0,0,0-1.3-.057c0-.053,0-.107,0-.16.153-.2.282-.435.425-.633a5.1,5.1,0,0,1,.94-1.052c-.031.633-.053,1.268-.061,1.9m.1-2.631c-.01.168-.019.335-.027.5a4.357,4.357,0,0,0-1.055.969c-.1.124-.215.257-.324.4q0-.254-.01-.508c.189-.232.406-.435.606-.656.279-.308.549-.627.825-.939q-.007.117-.014.234M19.453,28c-.074.438-.116.882-.147,1.326-.083.085-.161.178-.243.259-.289.285-.549.592-.826.887-.108.115-.251.249-.4.4q-.01-.328-.019-.656c.382-.226.583-.843.781-1.186.3-.519.6-1.053.952-1.548a3.355,3.355,0,0,0-.1.523m13.116-8.868a14.3,14.3,0,0,1-2.192,2.939,14.232,14.232,0,0,1-2.7,2.274,13.357,13.357,0,0,1-6.41,1.992,12.6,12.6,0,0,1-10.871-5.607c-2.3-3.515-3.468-8.373-1.646-12.342A12.472,12.472,0,0,1,13.2,3.345,13.893,13.893,0,0,1,20.019.8C20.562.77,21.1.744,21.647.762c0,.053,0,.107,0,.162a.134.134,0,0,0-.016.065q0,.392,0,.784a1.2,1.2,0,0,0,.063.62.086.086,0,0,0,.069.042,2.79,2.79,0,0,0,.09.654,14.167,14.167,0,0,0-5.242,1.964l-.122.076c-.072-.392-.2-.776-.259-1.174a10.1,10.1,0,0,1-.153-1.3.123.123,0,0,0-.245,0A11.373,11.373,0,0,0,15.94,4.1c.036.283.041.963.3,1.181q-.391.248-.773.518l-.011-.06a.035.035,0,0,0-.021-.026,8.839,8.839,0,0,1-.277-2.153.121.121,0,0,0-.242,0A8.394,8.394,0,0,0,15,5.277a2.1,2.1,0,0,0,.173.732q-.241.178-.476.365a.093.093,0,0,0,0-.023,6,6,0,0,0-.282-1.016,6.637,6.637,0,0,1-.176-1.25.109.109,0,0,0-.218,0,6.138,6.138,0,0,0,.092,1.265,2.166,2.166,0,0,0,.391,1.081.1.1,0,0,0,.08.031c-.3.245-.6.5-.884.767a3.757,3.757,0,0,1-.21-.721,9.051,9.051,0,0,1-.075-1.139.115.115,0,0,0-.23,0,8.562,8.562,0,0,0,.039,1.282,2.241,2.241,0,0,0,.221.823q-.32.315-.618.647c-.044-.155-.1-.308-.141-.471a5.637,5.637,0,0,1-.114-1.3.1.1,0,0,0-.2,0,7.082,7.082,0,0,0,.038,1.217c.042.278.139.539.2.813-.137.161-.27.324-.4.49-.037.048-.071.1-.107.145-.019-.071-.042-.137-.057-.189-.126-.422-.133-.865-.218-1.3-.028-.141-.235-.079-.213.059a12.181,12.181,0,0,0,.161,1.283,2.267,2.267,0,0,0,.1.462c-.083.124-.164.248-.241.375a3.634,3.634,0,0,1-.123-.5,4.211,4.211,0,0,0-.145-1c-.046-.127-.246-.076-.2.057a5.248,5.248,0,0,1,.106,1.065,5.718,5.718,0,0,0,.15.754q-.2.364-.361.742c-.013-.079-.032-.16-.049-.241a6.23,6.23,0,0,1-.169-.989.1.1,0,0,0-.207,0,4.671,4.671,0,0,0,.107.823,2.863,2.863,0,0,0,.161.79q-.091.238-.169.48a1.644,1.644,0,0,0-.083-.291,3.9,3.9,0,0,1-.136-.971.078.078,0,0,0-.156,0,3.465,3.465,0,0,0,.111,1.046c.04.115.025.364.171.407a.061.061,0,0,0,.034,0,9.924,9.924,0,0,0,.744,7.424,11.34,11.34,0,0,0,8.435,5.955l.11.012c.031.134.056.269.078.4a.913.913,0,0,0,.093.415.054.054,0,0,0,.092,0,.539.539,0,0,0,.02-.412,2,2,0,0,0-.119-.393q.237.019.471.024c0,.114.008.228.021.341a.692.692,0,0,0,.154.46.1.1,0,0,0,.161-.094,3.043,3.043,0,0,1-.108-.706q.221,0,.439-.017c-.027.312-.039.7.2.837A.1.1,0,0,0,21.6,26a1.528,1.528,0,0,1-.115-.718q.231-.022.46-.058a1.245,1.245,0,0,0,.107.76c.058.091.166.164.263.081a.128.128,0,0,0,.021-.186.053.053,0,0,0-.057-.013.979.979,0,0,1-.1-.386c0-.1,0-.2,0-.294q.258-.048.511-.113c-.016.334.006.708.252.857.1.062.305,0,.266-.146-.019-.072-.051-.071-.09-.064a1.161,1.161,0,0,1-.174-.487c-.007-.075-.009-.151-.01-.227q.266-.076.526-.17a.924.924,0,0,0,.361.89c.087.047.225-.033.183-.141a1.043,1.043,0,0,0-.065-.15.063.063,0,0,0-.078-.025,1.137,1.137,0,0,1-.177-.658q.329-.128.648-.281c.005.073.013.145.023.218.028.2.088.6.336.643a.1.1,0,0,0,.116-.111.363.363,0,0,0-.03-.1c0-.014-.008-.029-.013-.044a.05.05,0,0,0-.023-.029c-.012-.023-.025-.047-.037-.073a1.935,1.935,0,0,1-.126-.414c-.013-.065-.024-.13-.033-.2q.356-.182.7-.392c0,.37.035.77.319.918a.121.121,0,0,0,.164-.164,1.3,1.3,0,0,0-.059-.116.047.047,0,0,0-.023-.02,2.074,2.074,0,0,1-.173-.761q.373-.242.728-.515c0,.076.009.153.018.228.023.2.062.464.276.54.137.048.2-.127.127-.219-.012-.015-.034-.075-.042-.088a.057.057,0,0,0-.057-.027,1.712,1.712,0,0,1-.08-.45c-.006-.054-.011-.109-.016-.163q.226-.182.444-.375a1.141,1.141,0,0,0,.241.614c.088.108.272-.009.231-.134q-.055.063-.01.009a.07.07,0,0,0,0-.1.171.171,0,0,0-.063-.046,1.464,1.464,0,0,1-.162-.563q.241-.225.471-.461c.014.051.029.1.047.153.061.173.183.537.414.51a.076.076,0,0,0,.071-.054c.037-.182-.156-.36-.228-.521a2.02,2.02,0,0,1-.105-.3q.192-.206.376-.42l.009.022c.092.205.3.648.58.6a.085.085,0,0,0,.062-.081c.006-.208-.265-.408-.364-.584a1.987,1.987,0,0,1-.092-.186q.188-.229.366-.465c.068.113.127.232.184.352a1.977,1.977,0,0,0,.28.574.1.1,0,0,0,.169-.07,1.546,1.546,0,0,0-.264-.657,2.816,2.816,0,0,0-.241-.371q.172-.234.334-.474l.066-.1c.132.311.232.65.543.81a.134.134,0,0,0,.182-.182c-.022-.039-.038-.078-.06-.116a.063.063,0,0,0-.078-.025,4.9,4.9,0,0,1-.443-.708q.163-.256.314-.519c.057.088.116.172.173.254s.377.516.5.262a.1.1,0,0,0-.027-.123c-.008-.012-.016-.025-.025-.037a1.1,1.1,0,0,0-.076-.08,3.533,3.533,0,0,1-.23-.272c-.059-.078-.123-.16-.181-.245q.177-.324.334-.658c.029.04.057.08.088.119.1.128.425.448.555.165a.088.088,0,0,0-.022-.118c-.025-.016-.1,0-.091,0a.418.418,0,0,1-.238-.163,2.277,2.277,0,0,1-.185-.237q.179-.4.327-.816a1.2,1.2,0,0,0,.447.506.1.1,0,0,0,.1,0c.16-.118-.141-.309-.21-.4-.09-.121-.164-.252-.249-.376q.124-.38.219-.768a3.379,3.379,0,0,0,.349.485c.1.083.265-.024.187-.144-.09-.139-.194-.276-.3-.406a1.343,1.343,0,0,0-.179-.19q.074-.344.124-.693c.091.1.2.231.342.221a.064.064,0,0,0,.061-.08c-.043-.158-.24-.308-.369-.415q.036-.321.05-.646a.628.628,0,0,0,.221.31.073.073,0,0,0,.106-.043.8.8,0,0,0-.18-.473q-.065-.112-.14-.217c0-.1,0-.21-.006-.315-.1-2.456-1.207-4.585-2.16-6.79a.315.315,0,0,0-.1-.122,4.013,4.013,0,0,0,.365-.346c.221-.245.405-.519.62-.768a5.554,5.554,0,0,0,.39-.444,21.322,21.322,0,0,1,3.41,6.411,10.374,10.374,0,0,1-1.132,7.511" transform="translate(0 0)" fill="#005fa6" stroke="#005fa6" stroke-width="0.2"/>
      </g>
    </g>
  </g>
</svg>
