<svg xmlns="http://www.w3.org/2000/svg" xmlns:xlink="http://www.w3.org/1999/xlink" width="46.069" height="55.641" viewBox="0 0 46.069 55.641">
  <defs>
    <clipPath id="clip-path">
      <rect id="Rectangle_1453" data-name="Rectangle 1453" width="42.331" height="44.265" fill="#005fa6" stroke="#005fa6" stroke-width="0.2"/>
    </clipPath>
  </defs>
  <g id="Group_3409" data-name="Group 3409" transform="translate(-155.556 -1148.81)">
    <circle id="Ellipse_10" data-name="Ellipse 10" cx="23.034" cy="23.034" r="23.034" transform="translate(155.556 1158.382)" fill="#f4f7f8"/>
    <g id="Group_3411" data-name="Group 3411" transform="translate(157.556 1148.81)">
      <g id="Group_3410" data-name="Group 3410" clip-path="url(#clip-path)">
        <path id="Path_11575" data-name="Path 11575" d="M19.225,30.382v0h0a.058.058,0,0,0-.111,0c-.116.327-.473.564-.477.929h0a.118.118,0,0,0,.235,0,.463.463,0,0,1,.01-.058.054.054,0,0,0,.006-.02c.079-.292.407-.514.34-.839a.049.049,0,0,0,0-.008M8.689,32.166a10.86,10.86,0,0,0-.982,1.782,3.167,3.167,0,0,0-.414,1.867.081.081,0,0,0,.145.019,3.735,3.735,0,0,0,.2-.841,6.816,6.816,0,0,1,.285-.908,10,10,0,0,1,.951-1.809c.077-.118-.11-.225-.188-.11M8.575,36.3a12.074,12.074,0,0,0-.848,2.288,4.053,4.053,0,0,0-.275,1.82.175.175,0,0,0,.256.1.37.37,0,0,0,.155-.189.09.09,0,0,0-.032-.122l-.039-.015a6.212,6.212,0,0,1,.283-1.574,10.7,10.7,0,0,1,.749-2.166c.086-.164-.161-.31-.249-.146M6.3,16.026a4.01,4.01,0,0,0-.742,1.381c-.126.388-.368,1.087-.168,1.48a.085.085,0,0,0,.146,0,1.293,1.293,0,0,0,.1-.517,5.467,5.467,0,0,1,.139-.771,3.684,3.684,0,0,1,.679-1.42c.087-.107-.062-.261-.154-.154M27.77,36.137a8.4,8.4,0,0,0-.8,1.474c-.15.367-.409.915-.235,1.3.031.07.123.049.16,0a1.329,1.329,0,0,0,.173-.531,5.642,5.642,0,0,1,.232-.734,7.829,7.829,0,0,1,.718-1.369c.1-.155-.145-.3-.247-.144m-.335-.687c.1-.153-.141-.292-.247-.144a6.09,6.09,0,0,0-.689,1.251c-.129.319-.38.865-.182,1.195a.094.094,0,0,0,.16,0A1.144,1.144,0,0,0,26.6,37.3a4.037,4.037,0,0,1,.2-.658,5.978,5.978,0,0,1,.634-1.19m-20,2.793a.1.1,0,0,0,.007-.06c.031-.1.105-.217.132-.3.054-.171.093-.348.132-.523.071-.321.122-.648.209-.965.208-.762.571-1.478.82-2.227.052-.156-.19-.22-.244-.067-.277.782-.695,1.529-.907,2.332-.091.344-.153.694-.239,1.039-.056.224-.26.582-.2.809.036.128.249.144.275,0l.011-.035m.222-16.775c-.247.624-.783,1.454-.654,2.143a.12.12,0,0,0,.217.028,7.865,7.865,0,0,0,.288-1.021c.119-.366.267-.721.4-1.082.058-.158-.19-.222-.25-.069M7.185,34.418a6.625,6.625,0,0,0,.3-.931,11.35,11.35,0,0,1,.448-1.122,17.328,17.328,0,0,0,.8-1.94c.046-.148-.182-.209-.232-.064-.255.754-.639,1.451-.966,2.175A3.369,3.369,0,0,0,7.051,34.4a.074.074,0,0,0,.133.017M41.112.991c-1.451-1.191-3.384-1.1-5.135-.8a24.547,24.547,0,0,0-5.51,1.657,14.357,14.357,0,0,0-5.279,3.489.184.184,0,0,0,.181.3.2.2,0,0,0,.165.041,14.437,14.437,0,0,0,2.143-.82c.712-.283,1.432-.545,2.157-.8a18.2,18.2,0,0,1,4.382-1.1,4.231,4.231,0,0,1,3.661,1.255,2.409,2.409,0,0,1,.689,1.763,2.966,2.966,0,0,1-.256.9,2.94,2.94,0,0,1-.428.81.481.481,0,0,0,.679.679,1.667,1.667,0,0,0,.136-.155A6.734,6.734,0,0,0,41.92,5.253,3.412,3.412,0,0,0,41.112.991M31.9,2.573c-.8.209-1.579.472-2.344.757-.27.1-.538.208-.8.317.346-.188.7-.369,1.057-.536a22.356,22.356,0,0,1,2.138-.861.724.724,0,0,0-.048.322m.323-.082,0-.019a2.887,2.887,0,0,1,.091-.346q.34-.112.683-.214a.394.394,0,0,0,.06.386.092.092,0,0,0,.015.01q-.428.079-.852.183m1.313-.261c-.107.016-.214.034-.321.053.113-.121.091-.314.128-.472q.346-.1.7-.188a.448.448,0,0,0,.127.506.2.2,0,0,0,.038.024c-.222.018-.445.045-.668.079m1.38-.106c-.191,0-.383,0-.576.018.064-.045.054-.107.039-.178a.691.691,0,0,1-.01-.381c0-.016.009-.032.014-.048l.109-.028q.293-.071.587-.138a1.129,1.129,0,0,0-.163.754m1.039.1a5.557,5.557,0,0,0-.714-.088,1.427,1.427,0,0,1,.193-.843c.309-.064.619-.12.932-.164a3.8,3.8,0,0,0-.279.64,2.661,2.661,0,0,0-.131.457m.3.068a2.272,2.272,0,0,1,.138-.556,2.265,2.265,0,0,1,.287-.648c.134-.015.268-.028.4-.037.167-.012.338-.021.511-.026a4.414,4.414,0,0,0-.551,1.549,4.6,4.6,0,0,0-.788-.281m1.584.749a4.9,4.9,0,0,0-.477-.306c.069-.249.076-.523.153-.772.1-.32.229-.63.347-.944a5.613,5.613,0,0,1,.94.071,11.338,11.338,0,0,0-.662,1.269,5.292,5.292,0,0,0-.3.682m.772.7a4.69,4.69,0,0,0-.444-.438c.116-.284.185-.608.3-.885a9.361,9.361,0,0,1,.61-1.27,3.166,3.166,0,0,1,.472.153c.091.038.179.081.266.128a.142.142,0,0,0-.165.061,9.85,9.85,0,0,0-.8,1.337,1.878,1.878,0,0,0-.239.914m2.518.524A4.837,4.837,0,0,1,39.477,6.4a2.7,2.7,0,0,0-.067-1.284,3.331,3.331,0,0,0-.173-.438c.005.009.009.018.015.026a.126.126,0,0,0,.194.025c.143-.112.145-.282.194-.449a5.23,5.23,0,0,1,.257-.693,5.734,5.734,0,0,1,.745-1.235c.134-.166-.1-.405-.239-.239a6.108,6.108,0,0,0-.868,1.335c-.133.277-.452.841-.326,1.173A3.9,3.9,0,0,0,38.823,4a.121.121,0,0,0,.057-.047,1.3,1.3,0,0,0,.132-.469,3.422,3.422,0,0,1,.258-.73A12.368,12.368,0,0,1,39.9,1.637a.131.131,0,0,0-.025-.174A2.8,2.8,0,0,1,41.028,2.68a4.931,4.931,0,0,0-.606,1.111c-.144.288-.276.577-.437.858a1.968,1.968,0,0,0-.3.735c-.01.082.1.107.15.062a4.029,4.029,0,0,0,.848-1.386,7.752,7.752,0,0,1,.468-1.056,2.082,2.082,0,0,1-.023,1.258m-3.988,7.12a5.725,5.725,0,0,0-2.113-2.072,8.579,8.579,0,0,0-2.913-1,4.651,4.651,0,0,0-2.821.185c-.081-.209-.167-.416-.26-.619-.13-.282-.311-.633-.638-.708-.5-.115-.734.409-.841.8-.1.359-.191.722-.28,1.088a1.893,1.893,0,0,0-.778.1c-.5.088-.991.228-1.5.316-1.015.178-2.025.387-3.042.553-.146.024-.293.046-.44.066a7.725,7.725,0,0,1-2.083-.078A17.425,17.425,0,0,1,16.208,9C14.3,8.229,12.3,7.316,10.194,7.615a7.256,7.256,0,0,0-4.626,2.867,8.648,8.648,0,0,0-1.725,6.053c.231,2.631,1.493,5.006,2.05,7.566A4,4,0,0,1,3.5,23.116c-.828-.843-.377-2.061.247-2.882.128-.168-.081-.383-.258-.339a.183.183,0,0,0-.121.029l-.058.035a1.21,1.21,0,0,0-.19.11,5.774,5.774,0,0,0-.637.389,8.5,8.5,0,0,0-.868.72,5.868,5.868,0,0,0-1.342,1.9,2.831,2.831,0,0,0,1.058,3.677,7.017,7.017,0,0,0,3.945.638c.32-.02.64-.053.957-.1.094,3.1-.471,6.168-.415,9.268.039,2.139.351,4.677,1.887,6.3a4.47,4.47,0,0,0,3.158,1.392,4.423,4.423,0,0,0,3.192-1.489c1.877-2.051,2.015-5.083,3.1-7.531a10.362,10.362,0,0,1,2.441-3.519,7.1,7.1,0,0,1,1.692-1.146l.035-.016,0,.005a23.833,23.833,0,0,1,1.932,2.552,14.717,14.717,0,0,1,1.455,2.977,23.113,23.113,0,0,0,2.513,5.73,5.227,5.227,0,0,0,4.32,2.44,4.664,4.664,0,0,0,3.854-2.94c.9-1.972.753-4.172.69-6.288a42.535,42.535,0,0,1,.4-7.035c.314-2.312.59-4.623.864-6.94.138-1.168.256-2.338.393-3.505a19.785,19.785,0,0,0,.194-2.941,7.027,7.027,0,0,0-.8-3.229m-7.963-.011c.017.1,0,.033.005.037a.8.8,0,0,0,.046.225.348.348,0,0,0,.081.134.406.406,0,0,0,.071.07.45.45,0,0,0,.357.2l.022.009c.06.024.131.033.194.051.2.057.392.126.586.2l.189.07c-.022.048-.046.1-.068.142a3.415,3.415,0,0,0-.152.6c-.076.273-.22.522-.295.794a2.535,2.535,0,0,1-.186.636.121.121,0,0,0-.014.041.394.394,0,0,0-.356-.024,8.9,8.9,0,0,0,.519-2.113c.013-.161-.227-.153-.247,0a18.578,18.578,0,0,1-.84,2.73c-.1.333-.169.676-.243,1.017-.081.253-.159.506-.237.76-.154.5-.3,1-.449,1.5l-.014-.048c.043-.238.048-.494.1-.716.152-.6.321-1.195.468-1.8.3-1.249.573-2.5.838-3.76a.088.088,0,0,0-.169-.047c-.373,1.171-.642,2.373-.948,3.562-.142.552-.29,1.1-.44,1.65-.026.1-.056.194-.084.292-.088-.327-.172-.656-.256-.985.07-.3.135-.608.2-.912.134-.593.316-1.177.494-1.759.265-.866.54-1.728.816-2.591,0,.008,0,.015,0,.023m3.147,1.646c.431.189.86.386,1.281.6l.083.042c-.523.114-1.044.236-1.564.36a2.125,2.125,0,0,1,.059-.2,2.162,2.162,0,0,0,.172-.7.132.132,0,0,0-.031-.093m-.254.093a2.447,2.447,0,0,1-.235.727,1.635,1.635,0,0,0-.089.265c-.136.03-.278.061-.421.094a5.245,5.245,0,0,1,.172-.538A6.187,6.187,0,0,1,31.8,12.8l.273.115.145.063a.145.145,0,0,0-.152.137m-.929.594c-.074.181-.221.386-.157.577a4.881,4.881,0,0,0-.582.191c.014-.044.026-.09.038-.138.085-.355.2-.671.316-1.018.084-.261.081-.528.179-.78q.016-.04.03-.081c.2.075.39.153.583.232-.139.339-.271.681-.407,1.016M28.773,9.823q.076.252.148.5c.049.171.1.344.14.517-.358,1.032-.714,2.065-1.041,3.108-.181.576-.369,1.155-.5,1.744-.015.07-.032.139-.048.209-.028-.1-.056-.208-.086-.312a3.058,3.058,0,0,0-.108-.336c.031-.19.078-.375.126-.563.038-.15.076-.3.117-.45.166-.59.348-1.175.517-1.764.187-.649.374-1.3.545-1.954.059-.226.135-.464.188-.7M27.2,11.854a9.763,9.763,0,0,0,.983-2.831c.049-.167.1-.334.144-.5.1.259.2.523.283.789a.123.123,0,0,0,0,.023,5.313,5.313,0,0,1-.3,1.239c-.2.669-.414,1.332-.624,2-.174.553-.35,1.107-.512,1.664-.063.217-.131.446-.186.679a2.043,2.043,0,0,0-.306-.141,1.152,1.152,0,0,1,0-.153c.01-.175.043-.353.067-.527a11.16,11.16,0,0,0,.194-1.559.12.12,0,0,0-.24,0c-.037.623-.24,1.224-.338,1.839-.011.068-.028.161-.037.259q-.261-.1-.524-.2a2.982,2.982,0,0,1,.3-1.831.135.135,0,0,0,.015-.034l.063-.018a7.44,7.44,0,0,1,.811-.224.3.3,0,0,0,.223-.463M26.426,15.6c-.046-.044-.014-.09,0,0M1.217,25.338l0,.012a1.78,1.78,0,0,1-.248-1.393A4.774,4.774,0,0,1,2,21.9q.12-.151.245-.3a2.637,2.637,0,0,0-.061.67,2.258,2.258,0,0,0,.075.464,14.219,14.219,0,0,0-.805,1.586c-.1.331-.151.68-.238,1.016m.658.573a2.149,2.149,0,0,1-.4-.272L1.5,25.55c.1-.357.157-.724.242-1.084A5.3,5.3,0,0,1,2.2,23.429c.062-.129.115-.26.164-.392a2.459,2.459,0,0,0,.331.557A5.8,5.8,0,0,0,2.2,24.606a4.111,4.111,0,0,0-.33,1.305m.752.286a3.932,3.932,0,0,1-.4-.126c.025-.132.03-.268.052-.407a6.139,6.139,0,0,1,.2-.841,7.977,7.977,0,0,1,.4-1.016,3.228,3.228,0,0,0,.451.387,6.041,6.041,0,0,0-.5,1.162,4.529,4.529,0,0,0-.2.841m.409.088a8.24,8.24,0,0,1,.134-.835,7.383,7.383,0,0,1,.4-1.1c.083.05.168.1.254.141.121.061.245.117.369.169a4.374,4.374,0,0,0-.528,1.705c-.213-.017-.423-.042-.627-.078m1.635.1c-.191.005-.386.005-.581,0a4.191,4.191,0,0,1,.365-1.625,6.217,6.217,0,0,0,.655.2,6.3,6.3,0,0,0-.321.809,1.926,1.926,0,0,0-.118.619m.395-.017a1.413,1.413,0,0,1,.029-.385,5.5,5.5,0,0,1,.313-.96,7.41,7.41,0,0,0,.856.114.169.169,0,0,0-.018.028A4.732,4.732,0,0,0,5.831,26.3c-.235.029-.493.054-.765.071m1.091-.116,0-.021a3.656,3.656,0,0,1,.342-.916.148.148,0,0,0-.02-.164c.25.013.5.014.755.006a2.389,2.389,0,0,0-.294.945q-.3.067-.608.12l-.177.029m15.891,4.015.021-.007c0,.01,0,.02,0,.029l-.022-.023m14.7-13.234c-.116,1.021-.224,2.043-.343,3.064-.255,2.193-.484,4.391-.8,6.577a47.71,47.71,0,0,0-.617,6.51c0,1.1.06,2.2.08,3.3a12.6,12.6,0,0,1-.172,3.129,4.778,4.778,0,0,1-2.655,3.55,1.049,1.049,0,0,0,.064-.308c.009-.23-.348-.229-.357,0a2.79,2.79,0,0,1-.125.421,2.856,2.856,0,0,1-.647.049.144.144,0,0,0,.026-.059,1.164,1.164,0,0,1,.377-.626.166.166,0,0,0-.234-.234,1.261,1.261,0,0,0-.457.818.143.143,0,0,0,.022.08,3.222,3.222,0,0,1-.6-.137.136.136,0,0,0,.012-.114c-.043-.113.157-.408.2-.484.149-.246.322-.479.492-.711.126-.172-.157-.33-.283-.166s-.806.933-.773,1.339a4.264,4.264,0,0,1-.729-.421.225.225,0,0,0,.072-.017c.108-.048.107-.093.162-.186a.1.1,0,0,0-.059-.145h-.005a3.685,3.685,0,0,1,.7-1.4c.105-.174-.163-.329-.272-.159-.336.528-.877,1.1-.785,1.769a5.285,5.285,0,0,1-.546-.5.227.227,0,0,0,.1-.034.091.091,0,0,0,.032-.122c-.169-.278.041-.724.157-1.008a7,7,0,0,1,.564-1.113c.107-.168-.157-.32-.266-.156a7.132,7.132,0,0,0-.768,1.52,1.526,1.526,0,0,0-.121.568q-.046-.057-.09-.114c-.118-.154-.229-.312-.336-.473a.077.077,0,0,0,.026-.019,1.016,1.016,0,0,0,.18-.453,5.094,5.094,0,0,1,.275-.784,10.832,10.832,0,0,1,.678-1.256c.1-.161-.152-.306-.252-.147a11.306,11.306,0,0,0-.8,1.424,2.47,2.47,0,0,0-.3.936q-.154-.252-.294-.513a.1.1,0,0,0,.047-.048,4.639,4.639,0,0,0,.179-.7,5.456,5.456,0,0,1,.3-.8c.214-.475.47-.929.685-1.4.065-.143-.144-.269-.213-.124-.254.531-.568,1.032-.818,1.565a3.416,3.416,0,0,0-.379,1.124,30.367,30.367,0,0,1-1.3-3.349c.011-.05.022-.1.037-.154a4.419,4.419,0,0,1,.307-.784,8.963,8.963,0,0,1,.793-1.266c.1-.136-.125-.262-.224-.131a8.92,8.92,0,0,0-.924,1.429c-.052.106-.118.232-.179.367q-.067-.186-.135-.37c-.038-.1-.079-.2-.12-.306,0-.017.007-.035.011-.053a4.131,4.131,0,0,1,.242-.711,10.41,10.41,0,0,1,.649-1.232c.073-.123-.114-.23-.191-.111a9.5,9.5,0,0,0-.788,1.4c-.034.078-.073.167-.111.261q-.181-.405-.388-.8a5.036,5.036,0,0,1,.322-.769c.255-.5.559-.981.825-1.48a.112.112,0,0,0-.193-.113c-.34.587-.74,1.141-1.037,1.752-.033.068-.074.151-.117.244q-.115-.2-.237-.4c.035-.1.064-.214.1-.325q.176-.517.394-1.017c.264-.608.552-1.2.833-1.805.056-.119-.115-.224-.179-.1-.336.626-.681,1.248-.974,1.9-.121.268-.311.613-.429.955-.062-.095-.124-.19-.189-.284s-.132-.193-.2-.289c.084-.251.12-.517.214-.768a7.764,7.764,0,0,1,.424-.929c.312-.583.615-1.181.943-1.755.026-.045-.038-.079-.067-.039A14.533,14.533,0,0,0,24,30.661a4.2,4.2,0,0,0-.541,1.3,14.317,14.317,0,0,0-1.226-1.5l.014,0a.065.065,0,0,0,.065-.065c0,.042.022-.032.031-.067.013-.051.016-.105.025-.158.284-.087.571-.165.857-.243a3.436,3.436,0,0,0-.384,1.03.074.074,0,0,0,.107.083c.37-.211.42-.71.592-1.067.025-.052.051-.1.077-.154l.027-.007a.273.273,0,0,0,.161-.359c.147-.278.3-.554.453-.826a.117.117,0,0,0-.2-.118c-.163.264-.322.531-.479.8h0c-.3.036-.608.065-.912.106a8.214,8.214,0,0,1,.428-.79c.078-.126-.114-.234-.2-.115a9.531,9.531,0,0,0-.556.954,4.934,4.934,0,0,0-.579.137c.12-.252.268-.49.408-.732a.1.1,0,0,0-.179-.1,8.765,8.765,0,0,0-.534.877l-.038.08q-.33.128-.647.288a2.068,2.068,0,0,1,.1-.22,1.664,1.664,0,0,1,.434-.629.109.109,0,0,0-.11-.188,1.817,1.817,0,0,0-.534.662,1.415,1.415,0,0,0-.222.554q-.218.125-.427.264c-.092.062-.181.126-.27.192.067-.12.122-.249.179-.348a6.715,6.715,0,0,0,.393-.8c.028-.069-.079-.107-.116-.049-.175.274-.375.531-.558.8-.133.195-.336.418-.288.664a.057.057,0,0,0,.012.023,9.972,9.972,0,0,0-1.784,1.952,14.19,14.19,0,0,0-1.7,3.389c-.453,1.25-.792,2.545-1.322,3.766a5.337,5.337,0,0,1-2.253,2.8,3.161,3.161,0,0,1-.487.2c.016-.23.035-.46.035-.691a.159.159,0,0,0-.318,0c-.008.258-.041.511-.071.767l0,.017a3.05,3.05,0,0,1-1.267-.023c.015-.4.129-.78.136-1.177a.132.132,0,0,0-.263,0c-.017.362-.132.727-.182,1.093a3.552,3.552,0,0,1-.432-.176.089.089,0,0,0-.11-.089l-.015,0c-.157-.772.323-1.55.341-2.326,0-.176-.264-.174-.273,0-.035.694-.481,1.4-.479,2.1a3.36,3.36,0,0,1-.435-.373.312.312,0,0,0,.139-.2.09.09,0,0,0-.107-.11c.009-.067-.01-.175-.006-.231.01-.174.033-.347.047-.52a5.121,5.121,0,0,1,.426-2.171.132.132,0,0,0-.227-.133,6.383,6.383,0,0,0-.572,2.628c-.01.09-.033.219-.038.346a8.529,8.529,0,0,1-1.244-4.4,32.506,32.506,0,0,1,.128-4.822.093.093,0,0,0,.084-.039,5.7,5.7,0,0,0,.415-1.148,11.6,11.6,0,0,1,.617-1.333c.428-.808.9-1.594,1.319-2.407.066-.128-.124-.24-.193-.113-.474.866-1.021,1.69-1.484,2.562a11.609,11.609,0,0,0-.562,1.207c-.037.095-.077.195-.116.3.053-.649.1-1.3.14-1.949.015-.04.03-.081.047-.12.181-.436.4-.854.6-1.283a9.864,9.864,0,0,1,.741-1.2c.065-.1.152-.213.229-.332.57-.183,1.131-.4,1.68-.632A28.06,28.06,0,0,0,13.461,24.6,6.28,6.28,0,0,0,16,22.555a.275.275,0,0,0-.185-.4.3.3,0,0,0-.107-.061,3.859,3.859,0,0,0-2.181.48q-1.139.417-2.3.782a16.813,16.813,0,0,1-3.33.752c.048-.18.066-.379.121-.547.095-.289.217-.568.314-.857.056-.166-.2-.233-.26-.072-.117.322-.271.63-.386.953a1.542,1.542,0,0,0-.129.552c-.2.013-.391.022-.588.023,0-.017,0-.035-.007-.052-.087-.452-.2-.9-.323-1.339a.119.119,0,0,0,.056-.051.5.5,0,0,0,.024-.163,4.879,4.879,0,0,1,.146-.509c.151-.533.3-1.058.471-1.586.054-.166-.2-.233-.26-.072-.192.541-.366,1.089-.554,1.63-.016.047-.038.1-.059.158q-.109-.354-.223-.707c.013-.085.021-.172.037-.256.043-.234.1-.466.156-.7a6.709,6.709,0,0,1,.541-1.446c.069-.131-.127-.247-.2-.116a7.814,7.814,0,0,0-.613,1.488c-.035.116-.083.252-.128.4l-.06-.184c-.025-.077-.052-.154-.078-.231a.085.085,0,0,0,.055-.039,1.841,1.841,0,0,0,.149-.622,5.746,5.746,0,0,1,.205-.721,10.168,10.168,0,0,0,.436-1.41c.029-.152-.2-.219-.235-.065a11.77,11.77,0,0,1-.532,1.525,3.436,3.436,0,0,0-.244.853,19.715,19.715,0,0,1-.709-2.329c.155-.468.3-.94.459-1.409a4.25,4.25,0,0,1,.726-1.6c.1-.11-.06-.271-.163-.163a4.192,4.192,0,0,0-.8,1.578c-.1.286-.246.583-.347.885a8.73,8.73,0,0,1-.078-1.226c.129-.354.26-.714.4-1.061.293-.7.687-1.363.983-2.066.037-.088-.112-.151-.154-.065-.356.729-.84,1.41-1.137,2.167l-.035.089a7.784,7.784,0,0,1,.3-1.381c.035-.068.07-.137.106-.2a10.6,10.6,0,0,0,1.061-2.026.049.049,0,0,0,0-.03,6.3,6.3,0,0,1,4-2.514c1.976-.288,3.949.7,5.751,1.371a14.615,14.615,0,0,0,3.552.941,7.879,7.879,0,0,0,1.258.028c.246-.009.494-.027.745-.052,1.029-.1,2.044-.3,3.065-.465.562-.089,1.106-.221,1.662-.34.191-.041.464-.063.7-.136-.128.59-.239,1.183-.332,1.771a2.5,2.5,0,0,0-.615.09c-.442.106-.878.238-1.313.369a24.617,24.617,0,0,1-2.51.729.4.4,0,0,0-.291.383c.056.564.811.841,1.247,1.057.772.383,1.587.678,2.386,1,.266.106.514.2.766.321l.029.014c.011.034.024.068.034.1.217.755.371,1.527.575,2.286q.018.067.036.138c0,.036.011.072.018.107a.116.116,0,0,0,.019.043,3.28,3.28,0,0,0,.86,1.834c.273.208.608-.035.708-.288.32-.809.539-1.663.793-2.495.142-.465.284-.93.439-1.391.056-.167.113-.333.176-.5.014-.036.143-.255.047-.142a.489.489,0,0,0,.089-.153,18.191,18.191,0,0,0,2.039-.4c.873-.195,1.749-.388,2.63-.544a.423.423,0,0,0,.252-.618,2.76,2.76,0,0,0-.985-.7c-.564-.3-1.148-.562-1.735-.814s-1.164-.491-1.758-.7c-.181-.065-.376-.144-.575-.194a5.648,5.648,0,0,0-.237-.991c-.117-.407-.24-.817-.379-1.221A5.384,5.384,0,0,1,32,9.173a8.819,8.819,0,0,1,2.3.881,5.033,5.033,0,0,1,2.558,4.289,15.551,15.551,0,0,1-.12,2.692M8.414,26.827c-.059.084-.117.167-.174.251a9.829,9.829,0,0,0-.732,1.246c-.067.139-.145.287-.225.441.017-.55.018-1.1,0-1.651.381-.081.759-.178,1.134-.287m-1.068-.819a2.706,2.706,0,0,1,.065-.376c.048-.166.108-.327.166-.49q.29-.019.58-.053a5.256,5.256,0,0,0-.164.611c-.009.043-.019.089-.029.137q-.306.091-.617.17m1.021-.3V25.7a5.284,5.284,0,0,1,.15-.658,19.308,19.308,0,0,0,2.9-.689q.3-.094.6-.2c-.274.141-.55.279-.83.409a25.669,25.669,0,0,1-2.828,1.145M25.759,12.66a3.7,3.7,0,0,0-.3,1.118,3.8,3.8,0,0,0-.051.5l-.467-.176a1.732,1.732,0,0,1,.041-.683c.028-.178.076-.36.1-.542.226-.074.453-.146.681-.215m-.94.3a4.3,4.3,0,0,0-.22,1.01l-.127-.049-.207-.081a1.588,1.588,0,0,1-.069-.669c.208-.071.416-.142.623-.211m-.855.762c-.215-.085-.429-.172-.639-.267.226-.067.451-.142.675-.218a1.9,1.9,0,0,0-.036.485" transform="translate(0 0)" fill="#005fa6" stroke="#005fa6" stroke-width="0.2"/>
      </g>
    </g>
  </g>
</svg>
