<svg xmlns="http://www.w3.org/2000/svg" xmlns:xlink="http://www.w3.org/1999/xlink" width="46.069" height="47.498" viewBox="0 0 46.069 47.498">
  <defs>
    <clipPath id="clip-path">
      <rect id="Rectangle_1454" data-name="Rectangle 1454" width="33.444" height="35.017" fill="#005fa6" stroke="#005fa6" stroke-width="0.2"/>
    </clipPath>
  </defs>
  <g id="Group_3400" data-name="Group 3400" transform="translate(-156 -1156.953)">
    <circle id="Ellipse_10" data-name="Ellipse 10" cx="23.034" cy="23.034" r="23.034" transform="translate(156 1158.382)" fill="#f4f7f8"/>
    <g id="Group_3413" data-name="Group 3413" transform="translate(162.014 1156.953)">
      <g id="Group_3412" data-name="Group 3412" clip-path="url(#clip-path)">
        <path id="Path_11576" data-name="Path 11576" d="M8.419,33.064a1.432,1.432,0,0,1-.2.579.713.713,0,0,0-.13.41.092.092,0,0,0,0,.019s0,0,0,.005h0a.1.1,0,0,0,.174.046,2.086,2.086,0,0,0,.227-.509,1.405,1.405,0,0,0,.132-.551.1.1,0,0,0-.208,0m8.525-12.988a4.747,4.747,0,0,0-.273.539c-.03.077-.113.4.084.335a.053.053,0,0,0,.038-.05,1.84,1.84,0,0,1,.273-.753c.038-.081-.078-.152-.122-.071M7.757,32.837a3.411,3.411,0,0,1-.327.691.848.848,0,0,0-.124.308.118.118,0,0,0,.06.1.164.164,0,0,0,.105.016.091.091,0,0,0,.065-.065,1.4,1.4,0,0,0,.115-.25,3.926,3.926,0,0,0,.321-.745.112.112,0,0,0-.215-.059M27.5.954a2.685,2.685,0,0,0-.639.973c-.045.127.107.21.209.16a.39.39,0,0,0,.116-.066.08.08,0,0,0,0-.113l0,0a2.938,2.938,0,0,1,.5-.772.127.127,0,0,0-.18-.18M6.767,31.354a3.311,3.311,0,0,1-.45,1.075,4.666,4.666,0,0,0-.268.7.134.134,0,0,0,.223.13,3.24,3.24,0,0,0,.356-.859,2.844,2.844,0,0,0,.363-1.047c.007-.145-.213-.142-.223,0M26.652.9a3.277,3.277,0,0,0-.908,1.163c-.04.109.077.193.174.174s.142-.084.161-.184A.077.077,0,0,0,26.073,2a3.92,3.92,0,0,1,.744-.941A.117.117,0,0,0,26.652.9M11.27,1.687c-.294.289-.571.593-.837.907a2.378,2.378,0,0,0-.6.863.074.074,0,0,0,.107.083c.3-.15.51-.543.717-.8.245-.307.5-.6.772-.889a.113.113,0,0,0-.16-.16m-.892-.169a.113.113,0,0,0-.16-.16,10.882,10.882,0,0,0-.863.839c-.18.213-.466.547-.393.843a.091.091,0,0,0,.15.04,1.159,1.159,0,0,0,.226-.372,2.923,2.923,0,0,1,.332-.46c.221-.257.472-.487.708-.73m2.271.1c-.407.4-.784.834-1.158,1.268-.22.254-.663.614-.628.984a.094.094,0,0,0,.158.065,4.912,4.912,0,0,0,.369-.512c.133-.16.269-.317.4-.477.329-.4.662-.793,1.021-1.164a.116.116,0,0,0-.163-.163m.994.27c-.334.322-.679.635-.986.984a1.942,1.942,0,0,0-.6,1,.086.086,0,0,0,.145.06,2.07,2.07,0,0,0,.306-.436,5.687,5.687,0,0,1,.439-.562c.269-.311.562-.6.848-.894a.105.105,0,0,0-.149-.149M25.448,30.9a6.994,6.994,0,0,0-.568.938c-.107.224-.3.588-.149.823a.115.115,0,0,0,.2,0,.83.83,0,0,0,.106-.35,2.814,2.814,0,0,1,.181-.507,6.422,6.422,0,0,1,.442-.783c.083-.131-.12-.246-.206-.121M33.432,5.962A6.229,6.229,0,0,0,32.248,2.08,5.9,5.9,0,0,0,28.939.239,11.826,11.826,0,0,0,25.045.094a32.939,32.939,0,0,0-4.125.887A.112.112,0,0,0,20.767.92a9.053,9.053,0,0,1-2.788.5A15.18,15.18,0,0,1,15.4,1.284c-.88-.112-1.751-.285-2.621-.455-.9-.176-1.8-.318-2.708-.468C7.293-.1,4.079.026,1.932,2.086a6.115,6.115,0,0,0-1.9,3.857,10.226,10.226,0,0,0,.52,3.78,28.216,28.216,0,0,1,.615,3.721c.555,4.171,1,8.356,1.6,12.521a45.438,45.438,0,0,0,.876,4.865,5.256,5.256,0,0,0,.493,1.334A5.675,5.675,0,0,0,7.408,34.88a4.32,4.32,0,0,0,3.966-1.031,7.341,7.341,0,0,0,2.059-3.439,19.419,19.419,0,0,0,.7-4.081,7.034,7.034,0,0,1,.611-2.573,4.168,4.168,0,0,1,1.568-1.671,8.136,8.136,0,0,1,.839-.46,1.655,1.655,0,0,1,.785.153,2.654,2.654,0,0,1,1.237,1.4,23.324,23.324,0,0,1,1.432,4.293,13.759,13.759,0,0,0,1.359,3.788,5.908,5.908,0,0,0,2.765,2.478,4.646,4.646,0,0,0,3.69-.11,4.539,4.539,0,0,0,2.087-2.468,17.247,17.247,0,0,0,.822-4.475c.444-3.689.9-7.378,1.324-11.069a67.391,67.391,0,0,0,.78-9.652M3.135,22.823c.131.012.261.017.4.018l.2,0a5.029,5.029,0,0,0-.344.715c-.035.094-.074.189-.113.283q-.07-.509-.137-1.019M3.4,24.779q-.032-.226-.063-.453c.084-.192.136-.412.193-.581.1-.312.291-.6.42-.9l.619.009c-.225.352-.506.676-.7,1.041-.152.279-.309.556-.445.843l-.019.039m.17,1.174c-.033-.224-.066-.449-.1-.673.085-.2.148-.426.243-.615.146-.292.3-.578.456-.866.171-.323.429-.614.6-.94l.483,0a11.827,11.827,0,0,0-.9,1.592c-.179.331-.384.646-.547.986-.077.16-.168.335-.241.514m27.105-.173c-.072.58-.147,1.159-.223,1.738l-.037.281-.008.061-.014.106c-.069.509-.115,1.016-.222,1.52a5.647,5.647,0,0,1-1.321,2.84,3.3,3.3,0,0,1-2.223.929c.05-.1.082-.227.114-.31a3.315,3.315,0,0,1,.24-.534c.092-.149-.139-.281-.233-.136a3.9,3.9,0,0,0-.254.516,1.728,1.728,0,0,0-.2.464,3.839,3.839,0,0,1-.582-.07l-.062-.014c.067-.168.085-.366.142-.534a3.82,3.82,0,0,1,.4-.82c.09-.142-.132-.269-.224-.131a4.563,4.563,0,0,0-.413.781,1.984,1.984,0,0,0-.2.628,4.177,4.177,0,0,1-1.31-.679.136.136,0,0,0,.012-.031c.013-.051.036-.1.053-.153a.077.077,0,0,0-.053-.094c.036-.63.551-1.15.755-1.735.052-.15-.18-.209-.235-.065-.233.611-.831,1.148-.841,1.824A5.379,5.379,0,0,1,23.2,31.6a4.226,4.226,0,0,1,.278-.912,7.846,7.846,0,0,0,.674-1.47.116.116,0,0,0-.223-.061,16.992,16.992,0,0,1-.842,1.678c-.036.092-.107.245-.162.408-.021-.029-.042-.058-.062-.087a6.367,6.367,0,0,1-.332-.547,4.1,4.1,0,0,1,.055-.452,3.29,3.29,0,0,1,.218-.47,10.2,10.2,0,0,1,.687-1.489c.091-.134-.124-.256-.215-.126a14.544,14.544,0,0,0-.843,1.665,2.047,2.047,0,0,0-.15.37c-.109-.242-.205-.489-.294-.739a4.1,4.1,0,0,0,.149-.54,5.337,5.337,0,0,1,.295-.767c.2-.445.435-.877.656-1.314.068-.134-.134-.252-.2-.118-.246.485-.547.939-.779,1.431a5.126,5.126,0,0,0-.308.729c-.1-.338-.2-.681-.286-1.024.183-.333.318-.714.49-1.056.2-.405.426-.8.625-1.211.066-.135-.132-.255-.2-.119a17.456,17.456,0,0,0-1.046,1.873q-.116-.441-.238-.879a.114.114,0,0,0,.027-.028,1.325,1.325,0,0,0,.141-.43,3.531,3.531,0,0,1,.216-.551c.145-.308.31-.605.447-.917.061-.138-.139-.261-.206-.121-.169.354-.391.679-.56,1.032a3.48,3.48,0,0,0-.213.5c-.093-.313-.191-.623-.3-.932a14.165,14.165,0,0,1,.81-1.538c.062-.13-.125-.243-.2-.114-.192.353-.418.684-.628,1.026-.04.065-.087.14-.132.219q-.136-.368-.291-.731a4.644,4.644,0,0,1,.715-1.192c.077-.118-.107-.22-.186-.109a8.288,8.288,0,0,0-.685.948c-.069-.15-.142-.3-.218-.449.227-.352.465-.7.692-1.049.074-.114-.1-.213-.18-.1-.211.3-.451.581-.659.882a5.527,5.527,0,0,0-.319-.5,2.687,2.687,0,0,1,.616-.911.105.105,0,0,0-.149-.149,3.336,3.336,0,0,0-.664.807,3.146,3.146,0,0,0-.339-.344c.013-.03.025-.06.04-.088.045-.087.1-.171.152-.254a2.9,2.9,0,0,0,.513-.877.091.091,0,0,0-.176-.048c-.133.421-.557.695-.761,1.087a2.244,2.244,0,0,0-.457-.244q.163-.058.328-.113a.346.346,0,0,0,.091-.6l.1-.106a.093.093,0,0,0-.131-.131c-.063.061-.13.126-.2.194l-.034.009c-.291.1-.586.2-.881.316a6.714,6.714,0,0,1,.4-.608c.059-.079-.074-.182-.137-.106a6.681,6.681,0,0,0-.63.866,6.273,6.273,0,0,0-2.634,1.924c-.973,1.326-1,2.95-1.217,4.511-.338,2.434-1,5.623-3.59,6.637a3.208,3.208,0,0,1-.631.176c.049-.136.091-.274.136-.41s-.186-.213-.235-.065c-.056.169-.118.337-.165.509a3.466,3.466,0,0,1-1.844-.375,1.348,1.348,0,0,0,.245-.522c.144-.382.318-.751.468-1.13.043-.107-.142-.186-.188-.079-.23.544-.487,1.084-.754,1.608a4.442,4.442,0,0,1-.8-.593c-.106-.1-.208-.2-.308-.309a1.243,1.243,0,0,0,.121-.2c.12-.208.23-.421.334-.638a8.363,8.363,0,0,0,.537-1.365.1.1,0,0,0-.2-.054,7.156,7.156,0,0,1-.6,1.384q-.157.29-.325.575c-.019.032-.038.061-.056.089-.118-.141-.229-.288-.332-.439a.118.118,0,0,0,.077-.078l.012-.041a.055.055,0,0,0,0-.02c0-.007,0-.015,0-.026l.03-.087c.028-.093.053-.186.083-.278.067-.2.143-.409.223-.608.181-.448.4-.877.554-1.336.042-.127-.153-.177-.2-.055-.183.5-.453.961-.656,1.452a4.2,4.2,0,0,0-.289.832c-.056-.093-.11-.187-.16-.283-.017-.032-.032-.065-.047-.1L4.695,31.5l-.014-.039q-.031-.086-.062-.172c.047-.161.079-.328.138-.484a5.969,5.969,0,0,1,.357-.754c.26-.473.555-.924.794-1.408.054-.109-.107-.2-.164-.1-.278.526-.623,1.011-.915,1.528a5.779,5.779,0,0,0-.364.722q-.055-.192-.105-.385a.09.09,0,0,0,.016-.024,30.174,30.174,0,0,1,1.344-3.317.105.105,0,0,0-.182-.106,14.976,14.976,0,0,0-1,2.235c-.043.106-.207.391-.305.662-.06-.272-.115-.546-.165-.82.019-.06.033-.123.053-.187a3.133,3.133,0,0,1,.24-.532c.176-.33.326-.667.481-1.007.307-.677.635-1.345.944-2.021.053-.116-.118-.218-.173-.1-.353.745-.754,1.467-1.1,2.216-.162.35-.351.682-.518,1.029l-.025.051c-.051-.3-.1-.607-.145-.909.09-.236.171-.478.281-.707.165-.342.325-.686.485-1.03s.333-.7.5-1.053a4.966,4.966,0,0,0,.433-.9.09.09,0,0,0-.173-.048,5.91,5.91,0,0,1-.525,1c-.184.362-.372.72-.543,1.088-.154.332-.378.692-.547,1.063V26.98c-.027-.175-.053-.349-.08-.524a9.788,9.788,0,0,0,.406-.945c.155-.322.35-.62.512-.938a13.1,13.1,0,0,1,.876-1.713c1.371-.007,2.741-.026,4.109-.105a3.732,3.732,0,0,0,1.285-.2,2.088,2.088,0,0,0,1.1-1.85,6.316,6.316,0,0,0,.748-.87c.322-.409.63-.829.939-1.248.089-.12-.111-.233-.2-.117-.327.429-.663.849-1.013,1.26-.134.158-.285.312-.431.473q.032-.423.054-.848c.019-.028.038-.055.059-.082.127-.158.281-.293.4-.457a16.483,16.483,0,0,0,1.266-1.872c.068-.133-.131-.251-.2-.118a7.917,7.917,0,0,1-.795,1.143,10.185,10.185,0,0,1-.645.848l-.059.063q.012-.311.021-.622c.162-.193.235-.456.381-.667.172-.249.362-.483.529-.735.377-.57.783-1.12,1.155-1.693.075-.115-.105-.216-.182-.106-.414.595-.86,1.166-1.279,1.758-.137.193-.405.466-.587.751q.009-.491.014-.982a4.36,4.36,0,0,0,.307-.55,9.648,9.648,0,0,1,.518-.825A12.421,12.421,0,0,1,14.046,13.6c.082-.088-.047-.218-.133-.133a10.858,10.858,0,0,0-1.15,1.524,9.341,9.341,0,0,0-.537.808c-.036.065-.076.131-.117.2q0-.093,0-.187c0-.218,0-.436-.008-.654a1.789,1.789,0,0,0,.244-.426c.174-.317.388-.606.562-.922a11.159,11.159,0,0,1,1.2-1.855c.074-.087-.049-.214-.127-.127a10.207,10.207,0,0,0-1.2,1.706c-.174.3-.365.579-.544.873-.044.073-.1.155-.151.241-.014-.348-.029-.7-.032-1.045a.439.439,0,0,0,.031.145.057.057,0,0,0,.1.013c.126-.216.189-.46.324-.676.12-.192.248-.38.369-.572.285-.453.5-.947.814-1.385.034-.048-.042-.105-.081-.062a13.106,13.106,0,0,0-.975,1.43c-.179.261-.574.692-.586,1.064,0-.261.005-.522.025-.781a2.28,2.28,0,0,1,.395-1.334,1.044,1.044,0,0,1,.455-.316,1.172,1.172,0,0,1,.13-.029.521.521,0,0,1,.111-.017,36.58,36.58,0,0,1,4.659-.054c.667.006,1.332-.039,2-.037a2.177,2.177,0,0,1,1.293.32,1.979,1.979,0,0,1,.645,1.29,12.675,12.675,0,0,1,.125,2.274v2.506q0,1.149,0,2.3a4.154,4.154,0,0,0,.37,2.253c.635,1.018,1.957,1.047,3.028,1.047,1.322,0,2.629,0,3.947-.12.6-.054,1.209-.085,1.814-.124q-.184,1.522-.372,3.044M10.254,21.81l.012,0-.012,0M32.648,8.48c-.021.433-.071.866-.113,1.3-.157,1.582-.337,3.163-.517,4.742q-.425,3.719-.874,7.436a34.989,34.989,0,0,0-3.875.153q-.99,0-1.98,0a5.232,5.232,0,0,1-1.644-.168c-.9-.3-.875-1.234-.875-2.03q0-1.1,0-2.2a45.98,45.98,0,0,0-.07-4.728,2.935,2.935,0,0,0-1.442-2.6,5.5,5.5,0,0,0-2.435-.232c-1.588.022-3.176-.057-4.764,0a3.393,3.393,0,0,0-1.871.387,3.312,3.312,0,0,0-1,2.909c.008.9.063,1.8.05,2.707q-.018,1.232-.059,2.463c-.023.682-.045,1.369-.122,2.048,0,.021-.024.182-.029.211a2.035,2.035,0,0,1-.086.336.96.96,0,0,1-.345.478.909.909,0,0,1-.3.119l-.014,0-.11.013c-1.255.124-2.522.125-3.78.183-.709.033-1.418.068-2.126.11a9.351,9.351,0,0,0-1.2.1c-.319-2.467-.607-4.939-.922-7.406-.194-1.517-.375-3.042-.659-4.546-.121-.641-.338-1.248-.483-1.883a6.348,6.348,0,0,1,.275-4.1A5.733,5.733,0,0,1,4.335,1.464a7.316,7.316,0,0,1,.972-.3c-.065.071-.132.139-.189.207A3.233,3.233,0,0,0,4.658,2a.06.06,0,0,0,.081.081,2.639,2.639,0,0,0,.666-.737A2.6,2.6,0,0,0,5.594,1.1c.291-.059.586-.1.883-.132a3.984,3.984,0,0,0-.408.419c-.126.148-.245.3-.37.448a1.081,1.081,0,0,0-.267.378.069.069,0,0,0,.084.084c.272-.084.459-.451.626-.666A4.5,4.5,0,0,1,6.756.94,11.708,11.708,0,0,1,8,.918c-.237.223-.511.407-.743.636-.171.169-.5.514-.37.775A.073.073,0,0,0,7,2.344c.1-.1.115-.251.193-.37a2.266,2.266,0,0,1,.357-.4,9.3,9.3,0,0,0,.7-.642l.286.017c.226.016.451.037.676.061a12.552,12.552,0,0,0-.9.917,2.093,2.093,0,0,0-.593.961c-.01.082.1.1.145.06A6.453,6.453,0,0,0,8.6,1.981c.251-.3.516-.585.785-.866a.094.094,0,0,0,.027-.085c1.85.216,3.687.661,5.535.876-.189.282-.418.541-.62.813-.251.338-.83.824-.809,1.284,0,.054.078.1.118.049.131-.16.2-.36.326-.53.14-.195.3-.374.443-.568q.249-.338.493-.68c.073-.1.139-.231.215-.349.351.038.7.068,1.053.085a10.981,10.981,0,0,0-.982,1.12c-.263.325-.782.753-.635,1.227.022.07.134.1.169.022a3.922,3.922,0,0,1,.292-.644c.129-.185.292-.339.422-.523a8.12,8.12,0,0,1,.975-1.192c.347.012.695.011,1.043,0a7.366,7.366,0,0,1-.959,1.292c-.3.373-.814.852-.833,1.353a.1.1,0,0,0,.167.069c.178-.222.295-.491.465-.722.184-.249.374-.5.566-.74A5.24,5.24,0,0,0,17.7,2q.3-.02.608-.057c.131,0,.262,0,.393-.008a10.726,10.726,0,0,0-1.267,1.656c-.154.222-.7.907-.348,1.15.065.045.136-.017.143-.082a2.578,2.578,0,0,1,.572-1.1A9.81,9.81,0,0,1,18.992,1.98a.107.107,0,0,0,.035-.062c.371-.028.741-.078,1.109-.141-.465.58-.95,1.148-1.386,1.748-.13.178-.648.7-.4.93a.117.117,0,0,0,.182-.023,20,20,0,0,1,1.857-2.6.092.092,0,0,0,.01-.1c.324-.06.647-.129.967-.2-.341.4-.661.826-.968,1.257-.2.281-.662.661-.592,1.044.014.074.1.077.15.04a1.883,1.883,0,0,0,.311-.426c.126-.172.264-.333.384-.509.31-.457.626-.913.967-1.348a.121.121,0,0,0,.02-.117c.248-.055.495-.111.74-.165q.242-.053.486-.1a10.4,10.4,0,0,0-.92,1.154c-.22.31-.537.583-.547.99a.142.142,0,0,0,.211.121.243.243,0,0,0,.131-.167.072.072,0,0,0-.027-.077,4.055,4.055,0,0,1,.5-.778A7.831,7.831,0,0,1,23.2,1.191a.113.113,0,0,0,.032-.063C23.59,1.059,23.95,1,24.31.943a7.81,7.81,0,0,0-.674.831,4.522,4.522,0,0,0-.685,1.017.106.106,0,0,0,.155.119,2.776,2.776,0,0,0,.668-.863A7.731,7.731,0,0,1,24.582,1a.11.11,0,0,0,.031-.1q.468-.062.939-.1a.146.146,0,0,0-.027.021,3.155,3.155,0,0,0-1.107,1.6c-.013.121.132.169.221.127a.389.389,0,0,0,.1-.056.083.083,0,0,0,0-.14A3.973,3.973,0,0,1,25.709,1a.129.129,0,0,0-.052-.212c.382-.027.764-.039,1.147-.033a9.562,9.562,0,0,1,2.149.259c-.16.251-.368.594-.167.8a.076.076,0,0,0,.105,0c.117-.105.116-.25.17-.391a3.715,3.715,0,0,1,.16-.338,5.976,5.976,0,0,1,1.282.532,4.172,4.172,0,0,1,2.07,3.144,18.37,18.37,0,0,1,.074,3.714" transform="translate(0 0)" fill="#005fa6" stroke="#005fa6" stroke-width="0.2"/>
      </g>
    </g>
  </g>
</svg>
