<svg xmlns="http://www.w3.org/2000/svg" xmlns:xlink="http://www.w3.org/1999/xlink" width="46.069" height="47.498" viewBox="0 0 46.069 47.498">
  <defs>
    <clipPath id="clip-path">
      <rect id="Rectangle_1372" data-name="Rectangle 1372" width="33.444" height="36.122" fill="#005fa6" stroke="#005fa6" stroke-width="0.2"/>
    </clipPath>
  </defs>
  <g id="Group_3402" data-name="Group 3402" transform="translate(-156 -1156.953)">
    <circle id="Ellipse_10" data-name="Ellipse 10" cx="23.034" cy="23.034" r="23.034" transform="translate(156 1158.382)" fill="#f4f7f8"/>
    <g id="Group_3305" data-name="Group 3305" transform="translate(162.014 1156.953)">
      <g id="Group_3304" data-name="Group 3304" transform="translate(0 0)" clip-path="url(#clip-path)">
        <path id="Path_11540" data-name="Path 11540" d="M13.319,26.4a3.873,3.873,0,0,1-.318.611c-.079.157-.161.346-.041.5a.1.1,0,0,0,.141,0,.342.342,0,0,0,.084-.21,1.1,1.1,0,0,1,.121-.3,2.428,2.428,0,0,0,.24-.536.118.118,0,0,0-.227-.063m9.345,3.215a5.95,5.95,0,0,1-.225.75c-.092.248-.236.495-.307.749a2.062,2.062,0,0,0-.071.582h0a.115.115,0,0,0,.146.113c.2-.072.17-.39.2-.56.1-.531.366-1.034.474-1.572.029-.144-.189-.207-.222-.061M24.718,3.658l-.1.106a.546.546,0,0,0-.088.13.063.063,0,0,0,.086.086.55.55,0,0,0,.13-.088l.106-.1c.088-.084-.05-.221-.133-.133m-11.7-1.673c-.069.217-1.237,1.655-.488,1.721a.084.084,0,0,0,.082-.082c.008-.134-.067-.232-.034-.372a1.579,1.579,0,0,1,.234-.461,3.078,3.078,0,0,0,.435-.743.119.119,0,0,0-.23-.063M23.867,3.292a2.708,2.708,0,0,1-.384.616c-.085.139-.206.368-.045.489a.079.079,0,0,0,.081,0c.081-.049.078-.1.1-.189a.984.984,0,0,1,.162-.3,1.791,1.791,0,0,0,.311-.554.118.118,0,0,0-.227-.063M11.348,1.54a2.954,2.954,0,0,0-.638.921,1.582,1.582,0,0,0-.175,1.087c.025.062.128.1.163.021.124-.277.105-.6.206-.891a2.8,2.8,0,0,1,.6-.987c.093-.1-.053-.25-.152-.152m18.691,16.5a14.244,14.244,0,0,0,1.472-1.563c.123-.125-.07-.318-.192-.192a14.368,14.368,0,0,0-1.362,1.673c-.034.048.035.118.082.082M14.33,26.6c-.1.269-.588.8-.345,1.085a.073.073,0,0,0,.1,0,.368.368,0,0,0,.089-.2,1.541,1.541,0,0,1,.126-.329,3.923,3.923,0,0,0,.243-.5c.048-.136-.164-.191-.214-.059M29.661,4.946a4.153,4.153,0,0,1,.466-1.071A6.684,6.684,0,0,1,30.891,3a.111.111,0,0,0-.157-.157c-.514.505-1.392,1.293-1.181,2.1a.057.057,0,0,0,.108,0M27.44,1.281c-.089.16-.207.3-.295.461a.077.077,0,0,0,0,.079.073.073,0,0,0,.068.039.077.077,0,0,0,.068-.039c.087-.161.194-.309.272-.474.036-.075-.071-.141-.113-.066m-19,15.839a1.522,1.522,0,0,0-.322.592c-.039.117-.072.235-.118.349-.038.093-.082.149-.062.249a.07.07,0,0,0,.085.048c.162-.044.2-.27.243-.412a1.71,1.71,0,0,1,.307-.694c.08-.09-.049-.222-.133-.133m11.709,9.208c-.033.464-.41.828-.537,1.266a.153.153,0,0,0,.186.186c.159-.059.179-.177.228-.329a.061.061,0,0,0-.017-.065,3.01,3.01,0,0,0,.363-1.058c0-.144-.212-.142-.222,0m-1.2.173c-.142.355-.562.757-.434,1.17a.14.14,0,0,0,.274-.037.885.885,0,0,1,.116-.27.063.063,0,0,0-.086-.086l-.007,0c.08-.25.266-.5.341-.725.044-.132-.155-.18-.2-.056m-1.108,0a11.317,11.317,0,0,0-.534,1.2.144.144,0,0,0,.208.16.184.184,0,0,0,.108-.227c.123-.367.335-.7.427-1.072a.109.109,0,0,0-.209-.058M6.1,16.627a4.13,4.13,0,0,0-.337.622.935.935,0,0,0-.14.561.077.077,0,0,0,.127.033,1.851,1.851,0,0,0,.243-.55,4.079,4.079,0,0,1,.3-.551c.08-.123-.117-.237-.2-.115m-.788-1.4a12.7,12.7,0,0,0-.654,1.116,2.951,2.951,0,0,0-.447,1.042.079.079,0,0,0,.134.055A4.309,4.309,0,0,0,4.871,16.4a10.591,10.591,0,0,1,.608-1.075c.067-.1-.1-.2-.165-.1M7.3,17.058c-.094.269-.371.654-.261.949.017.045.09.069.115.015.066-.141.093-.3.153-.444s.138-.306.195-.464c.045-.127-.158-.182-.2-.056M32.948,3.916A5.193,5.193,0,0,0,30.816,1.34C28.569-.079,25.849.032,23.336.484c-1.4.252-2.786.568-4.175.861a12.608,12.608,0,0,1-3.368.3c-.926-.212-1.846-.448-2.766-.684C10.043.2,6.769-.675,3.85.8A6.976,6.976,0,0,0,1.037,3.456,7.9,7.9,0,0,0,0,7.57a26.768,26.768,0,0,0,.587,4.844A16.593,16.593,0,0,0,1.628,16.2a4.946,4.946,0,0,0,2.761,2.68,6.47,6.47,0,0,0,.918.283,3.559,3.559,0,0,0-.139,1.056,1.947,1.947,0,0,0,.609,1.11,4.342,4.342,0,0,0,.817.623,5.464,5.464,0,0,0-.522,2.52,3.15,3.15,0,0,0,1.3,2.358,5.5,5.5,0,0,0,.993.586,4.132,4.132,0,0,0-.119,2.261,3.4,3.4,0,0,0,1.335,1.879,6.108,6.108,0,0,0,1.957.9c0,.059.005.115.01.162a3.213,3.213,0,0,0,.374,1.241,4.121,4.121,0,0,0,2.564,1.7,13.079,13.079,0,0,0,3.69.557A4.954,4.954,0,0,0,21.442,35a3.7,3.7,0,0,0,.976-1.469,1.949,1.949,0,0,0,.1-.886l.2-.025a3.838,3.838,0,0,0,2.25-.933,3.432,3.432,0,0,0,.568-3.737,4.294,4.294,0,0,0,1.234-.5,3.344,3.344,0,0,0,1.588-2.629,4.846,4.846,0,0,0-.195-1.535,6.152,6.152,0,0,0-.388-1.128,2.552,2.552,0,0,0,.765-.54,3.268,3.268,0,0,0,.737-2.447,4.719,4.719,0,0,0,.664-.073c.121-.006.242-.013.362-.022a.883.883,0,0,0,.091-.012c-.027.009.026,0,.08,0a.407.407,0,0,0,.4-.267,3.774,3.774,0,0,0,1.78-2.583,21.578,21.578,0,0,0,.542-4.143c.113-1.426.176-2.857.237-4.286a9.577,9.577,0,0,0-.478-3.87M20.779,1.875c-.11.175-.222.349-.335.524-.524-.039-1.047-.1-1.564-.175.636-.1,1.268-.221,1.9-.349M5.86,20.172a4.3,4.3,0,0,1-.131-.925c.229.04.46.07.692.093a4.747,4.747,0,0,0-.486,1,1.174,1.174,0,0,1-.076-.169m.581.722a2.343,2.343,0,0,1-.285-.254.329.329,0,0,0,.008-.039.06.06,0,0,0-.028-.052,6.268,6.268,0,0,1,.518-1.19c.144.011.288.02.432.026a6.924,6.924,0,0,1-.4.932c-.081.19-.172.381-.244.577m.522,4.234-.024.064a2.11,2.11,0,0,1-.122-.313,2.7,2.7,0,0,1-.1-.558c.062-.175.134-.347.2-.517a14.6,14.6,0,0,0,.586-1.414c.14.054.281.1.423.15.068.022.136.041.2.061-.271.557-.561,1.105-.815,1.671-.127.282-.247.567-.355.856m-.24-1.445c.046-.51.17-1.021.255-1.524.122.061.247.116.373.168-.189.458-.428.9-.628,1.356m2.32,6.066c-.008-.017-.017-.034-.024-.052a4.718,4.718,0,0,1-.189-2.083c.248.1.5.188.754.274-.086.318-.205.625-.3.943s-.162.612-.245.917m.57.8a2.8,2.8,0,0,1-.419-.515c.114-.4.2-.8.312-1.2.08-.294.191-.584.242-.883l.311.1.189.06,0,.008a16.537,16.537,0,0,0-.482,1.667c-.051.236-.113.5-.149.762m2.98,2.6c-.016.074-.035.152-.05.231a2.088,2.088,0,0,1-.205-.471c-.027-.091-.056-.181-.086-.271q.224.049.448.093c-.039.139-.076.278-.107.419m.744.4a2.655,2.655,0,0,0-.035.6c-.078-.051-.154-.106-.227-.165a2.381,2.381,0,0,1-.306-.294c.051-.207.047-.443.088-.643q.028-.138.054-.277c.207.039.412.075.616.111-.063.223-.137.444-.189.672m1.279.29c-.042.285-.081.562-.1.843a4.965,4.965,0,0,1-.942-.377,3.246,3.246,0,0,1,.047-.871c.043-.172.089-.345.127-.519l.281.049q.369.066.742.118c-.051.252-.115.5-.152.756m6.924-.5a2.747,2.747,0,0,1-.608.908,7.925,7.925,0,0,0,.342-1.284c0-.137-.2-.135-.212,0-.033.533-.408.97-.433,1.507a.14.14,0,0,0,0,.042,2.947,2.947,0,0,1-.62.354.52.52,0,0,0,.016-.18c.053-.3.162-.59.235-.891a.1.1,0,0,0-.2-.056,5.355,5.355,0,0,0-.337,1.233s0,0,0,0a4.534,4.534,0,0,1-.582.148A1.132,1.132,0,0,0,19.213,35a.063.063,0,0,0-.086-.086,2.093,2.093,0,0,0-.2.137,3.476,3.476,0,0,0,.143-.686.111.111,0,0,0-.222,0c-.021.289-.182.542-.223.827-.074.007-.148.013-.221.018-.139.009-.277.013-.416.014L18,35.2a.055.055,0,0,0-.075-.075l-.108.061c-.019-.2.141-.4.148-.617.005-.145-.216-.144-.225,0a2.117,2.117,0,0,1-.154.446.506.506,0,0,0-.017.2c-.254-.011-.507-.032-.759-.063a7.1,7.1,0,0,1,.147-.858.113.113,0,0,0-.217-.06,7.207,7.207,0,0,0-.2.882c-.269-.039-.537-.088-.8-.142.075-.427.143-.855.221-1.282.026-.142-.189-.205-.22-.061-.091.428-.173.858-.26,1.287l-.008,0c-.218-.048-.439-.1-.658-.155.02-.309.046-.615.066-.925a7.353,7.353,0,0,1,.106-.728,15.724,15.724,0,0,0,1.877.133,20.925,20.925,0,0,0,2.939-.262c.61-.082,1.222-.151,1.833-.224,0,.01,0,.02,0,.03a1.241,1.241,0,0,1-.092.549M16.158,32.2c-.035.03-.013-.013,0,0m7.155-.58a.14.14,0,0,0,.015-.071c0-.035,0-.069,0-.1a1.375,1.375,0,0,0,.01-.148,5.393,5.393,0,0,1,.736-2.1.111.111,0,0,0-.192-.112,5.146,5.146,0,0,0-.858,2.467.132.132,0,0,0,.07.125c-.184.041-.37.071-.554.095-.4.051-.8.1-1.193.144a.322.322,0,0,0-.015-.08.068.068,0,0,0-.027-.037,5.92,5.92,0,0,1,.374-1.119c.047-.142-.172-.2-.222-.061-.1.26-.218.509-.314.769a1.509,1.509,0,0,0-.137.57q-.341.04-.681.083a.071.071,0,0,0-.011-.023,1.823,1.823,0,0,1,.249-.808c.079-.129-.119-.242-.2-.118a2.135,2.135,0,0,0-.331.985l-.615.084a.048.048,0,0,0-.01-.039,2.578,2.578,0,0,1,.248-.614c.075-.124-.113-.23-.192-.112a3.39,3.39,0,0,0-.372.809c-.262.035-.524.067-.787.093l.005-.01a.066.066,0,0,0-.09-.089l-.055.03c0-.292.071-.58.064-.877a.076.076,0,0,0-.152,0c-.031.334-.173.652-.181.983-.16.012-.32.022-.481.027q-.163.006-.327.007c.04-.061.077-.123.112-.184a.059.059,0,0,0-.081-.081l-.078.046c.055-.227.146-.446.216-.668.044-.14-.167-.193-.217-.06a4.117,4.117,0,0,0-.333.944q-.221,0-.442-.015a.326.326,0,0,0,.046-.077.07.07,0,0,0-.067-.088.369.369,0,0,0-.08.012,1.148,1.148,0,0,1,.039-.351,4.168,4.168,0,0,0,.142-.7c0-.131-.191-.128-.2,0-.026.328-.219.636-.258.966a.483.483,0,0,0,.014.212q-.316-.024-.63-.06c.012-.034.022-.067.029-.1.012-.047-.044-.1-.088-.068q-.038.025-.074.053l-.03.014,0,0a.548.548,0,0,1,.039-.343,4.8,4.8,0,0,1,.3-.715c.063-.131-.129-.246-.2-.115-.091.177-.178.356-.258.538a1.511,1.511,0,0,0-.186.6.39.39,0,0,0,.012.074c-.248-.035-.5-.075-.743-.117a1.4,1.4,0,0,0,.008-.307,7.842,7.842,0,0,1,.362-1.209.1.1,0,0,0-.2-.056,9.023,9.023,0,0,0-.441,1.242.921.921,0,0,0,0,.283c-.334-.059-.666-.121-1-.186a.311.311,0,0,0-.013-.034,4.689,4.689,0,0,1,.356-1.148c.045-.113-.15-.2-.2-.084a4.907,4.907,0,0,0-.421,1.212c-.211-.042-.424-.086-.635-.137a2.79,2.79,0,0,1,.435-1.872c.07-.114-.106-.215-.178-.1a5,5,0,0,0-.567,1.9,6.221,6.221,0,0,1-.7-.236,3.908,3.908,0,0,1,.029-.632,6.8,6.8,0,0,1,.39-1.838c.041-.095-.093-.18-.142-.083a9.156,9.156,0,0,0-.579,2.415,4.023,4.023,0,0,1-.677-.422c.039-.355.056-.716.126-1.066.105-.527.234-1.049.374-1.568,0,0,0,0,0-.005a13.892,13.892,0,0,0,2.933.477,38.831,38.831,0,0,0,6.985.023c1.158-.128,2.318-.255,3.472-.413.324-.045.657-.085.989-.138a5.453,5.453,0,0,1,.138.531.109.109,0,0,0-.138.077c-.238.818-.866,1.544-.841,2.43a.137.137,0,0,0,.139.152,2.7,2.7,0,0,1-.759.333m1.32-1.19c-.018.062.064.088.1.041a2.323,2.323,0,0,0,.128-.2,2.062,2.062,0,0,1-.393.673,1.876,1.876,0,0,1-.24.228.188.188,0,0,0,.005-.028,11.751,11.751,0,0,1,.73-2.246,3.637,3.637,0,0,1,.038.513c-.117.34-.265.669-.365,1.015m2.834-5.806a4.308,4.308,0,0,0-.528,1.184c-.022.055.06.1.1.057a2.233,2.233,0,0,0,.365-.722,2.429,2.429,0,0,1-.912,1.408,2.522,2.522,0,0,1-.284.185c.03-.1.05-.2.078-.3q.087-.3.186-.6A7.955,7.955,0,0,1,27,24.581a.12.12,0,0,0-.208-.121,8.265,8.265,0,0,0-.584,1.244,3.236,3.236,0,0,0-.332,1.194,4.28,4.28,0,0,1-.657.2c.007-.013.014-.026.022-.039a.063.063,0,0,0-.045-.092,7.274,7.274,0,0,1,.885-2.5.1.1,0,0,0-.178-.1,6.938,6.938,0,0,0-1.054,2.809c-.251.044-.5.079-.747.114a15.183,15.183,0,0,1,.875-2.316c.058-.12-.119-.226-.181-.106a10.545,10.545,0,0,0-1.02,2.467q-.282.039-.564.075c.008-.015.015-.03.022-.045a.065.065,0,0,0-.074-.094,10.018,10.018,0,0,0,.521-1.747c0-.132-.2-.13-.2,0-.04.7-.587,1.238-.645,1.933-.3.035-.6.069-.9.1a.072.072,0,0,0,0-.008,5.177,5.177,0,0,1,.262-.84c.126-.285.283-.561.385-.856.048-.14-.169-.2-.219-.061-.069.183-.875,1.574-.577,1.78l-.767.087a.17.17,0,0,0,0-.028c0-.012,0-.023,0-.035a.063.063,0,0,1,.008-.027.069.069,0,0,0,0-.074,3.556,3.556,0,0,1,.447-1.1c.073-.148-.145-.279-.224-.131a3.237,3.237,0,0,0-.546,1.371.151.151,0,0,0,.01.062,34.816,34.816,0,0,1-4.143.21.138.138,0,0,0,.019-.071h0a2.138,2.138,0,0,1,.534-1.324c.1-.111-.058-.272-.165-.165a2.269,2.269,0,0,0-.672,1.489.154.154,0,0,0,.014.068q-.626-.009-1.254-.038a.11.11,0,0,0,.02,0,.345.345,0,0,0,.218-.2.06.06,0,0,0-.059-.088c.116-.306.263-.59.41-.887.067-.135-.133-.254-.2-.119a4.8,4.8,0,0,0-.527,1.13.146.146,0,0,0,.088.163l-.454-.024c-.879-.051-1.766-.092-2.637-.223a.235.235,0,0,1,.047-.028c.055-.025.029-.1-.015-.115a.289.289,0,0,0-.052-.016c.087-.355.32-.653.44-1,.046-.132-.158-.183-.207-.057-.152.391-.494.732-.531,1.163l-.051-.008c-.242-.044-.485-.1-.728-.156.049-.13.114-.253.156-.385.121-.383.255-.77.35-1.161a.1.1,0,0,0-.194-.054,13.157,13.157,0,0,1-.557,1.423.934.934,0,0,0-.038.1c-.334-.089-.666-.191-.992-.305a3.182,3.182,0,0,1,.206-.609c.113-.291.264-.568.365-.863.04-.118-.141-.164-.184-.051a9.26,9.26,0,0,0-.645,1.429c-.134-.05-.268-.1-.4-.155-.072-.03-.145-.061-.217-.094.013-.075.023-.151.042-.225a5.793,5.793,0,0,1,.216-.635,3.2,3.2,0,0,0,.28-1.1.089.089,0,0,0-.178,0,3.985,3.985,0,0,1-.419,1.261,2.889,2.889,0,0,0-.2.575,4.765,4.765,0,0,1-.432-.251,2.233,2.233,0,0,0,.405-.963,8.355,8.355,0,0,1,.475-1.6.052.052,0,0,0-.09-.053,6.2,6.2,0,0,0-.512,1.382A6.88,6.88,0,0,1,8,25.8c-.053.123-.153.248-.212.377a2.933,2.933,0,0,1-.666-.666c.019-.067.039-.134.062-.2.127-.364.277-.717.432-1.07.232-.53.471-1.055.681-1.593a24.409,24.409,0,0,0,4.744.54,57.54,57.54,0,0,0,6.583.052c1.088-.05,2.179-.106,3.261-.233,1.063-.125,2.112-.342,3.179-.442a6.977,6.977,0,0,0,.915-.141,11.487,11.487,0,0,1,.483,2.01c0,.064,0,.128,0,.191m.337-3.552-.029.024a3.581,3.581,0,0,1,.108-.5,8.187,8.187,0,0,1,.425-.937c.07-.143-.14-.268-.215-.125-.241.463-.734,1.2-.618,1.771a3.261,3.261,0,0,1-1.124.326c.013-.045-.02-.11-.076-.088l-.018.008a5.273,5.273,0,0,1,.647-1.186c.075-.145-.141-.272-.219-.128-.256.47-.7.881-.733,1.442l-.129.014c-.149.016-.3.035-.447.054a.568.568,0,0,1,0-.2,1.562,1.562,0,0,1,.172-.363,4.213,4.213,0,0,0,.358-.648c.051-.145-.172-.2-.227-.063-.128.322-.391.58-.53.9a.8.8,0,0,0-.046.415c-.223.032-.446.067-.669.1a.127.127,0,0,0,.055-.1c.01-.4.33-.682.5-1.023.072-.14-.135-.263-.212-.124-.132.236-.865.993-.473,1.251a.107.107,0,0,0,.024.011c-.437.069-.874.138-1.314.193a.109.109,0,0,0,.023-.024.09.09,0,0,0,.005-.116c.078-.215.278-.4.354-.616.054-.152-.183-.213-.24-.066-.113.293-.38.484-.414.808a.22.22,0,0,0,0,.028.148.148,0,0,0,0,.018q-.448.05-.9.085c.079-.268.252-.513.342-.776.05-.145-.174-.2-.227-.063a7.265,7.265,0,0,0-.4.86c-.4.029-.791.052-1.186.073l.008-.025a.383.383,0,0,1,.215-.262c.136-.054.082-.274-.062-.225a.62.62,0,0,0-.383.38c-.019.048-.035.1-.053.145l-.143.007-.415.019c.039-.094.08-.187.124-.279.066-.138-.135-.26-.208-.121s-.14.273-.2.414q-.374.015-.748.027a2.385,2.385,0,0,1,.333-.4.118.118,0,0,0-.167-.167,2.264,2.264,0,0,0-.476.571q-.357.009-.713.014c.02-.045.039-.09.061-.132.07-.136.144-.271.211-.409s-.134-.259-.208-.121-.166.289-.248.434c-.039.069-.093.149-.13.232q-.423,0-.847,0c.035-.071.073-.143.1-.2a1.371,1.371,0,0,1,.38-.506.118.118,0,0,0-.119-.2,1.7,1.7,0,0,0-.539.647,1.465,1.465,0,0,0-.116.26q-.4,0-.8-.015s.009,0,.024-.023a1.053,1.053,0,0,0,.163-.285,5.532,5.532,0,0,1,.41-.631c.075-.114-.1-.214-.181-.106a5.225,5.225,0,0,0-.47.67c-.052.106-.206.237-.2.366q-.371-.011-.742-.028c.035-.066.068-.134.105-.194a2.524,2.524,0,0,1,.263-.386c.09-.1-.053-.244-.148-.148a2.774,2.774,0,0,0-.3.4,1.886,1.886,0,0,0-.2.314q-.363-.018-.725-.041a2.155,2.155,0,0,1,.108-.219c.128-.211.265-.414.372-.636.052-.108-.1-.2-.163-.1-.126.227-.284.431-.431.644-.059.085-.137.183-.2.287l-1.054-.068a1.482,1.482,0,0,1,.078-.165c.2-.351.436-.672.657-1.007.065-.1-.09-.185-.156-.091-.2.29-.429.561-.628.854a3.412,3.412,0,0,0-.248.39l-.185-.012-.547-.034a3.968,3.968,0,0,1,.18-.377,5.6,5.6,0,0,0,.4-.749c.042-.1-.136-.179-.182-.077a5.6,5.6,0,0,1-.467.781,4.167,4.167,0,0,0-.251.4q-.323-.025-.646-.061a.077.077,0,0,0-.044-.03,11.091,11.091,0,0,1,.773-1.391.1.1,0,0,0-.167-.1,10.9,10.9,0,0,0-.9,1.476c-.139-.019-.278-.041-.417-.066q-.136-.025-.271-.053l.008-.017c.084-.169.177-.332.269-.5.194-.348.394-.693.568-1.052.049-.1-.1-.192-.154-.09-.2.367-.432.711-.653,1.065a3.407,3.407,0,0,0-.321.527c-.193-.046-.384-.1-.572-.16l0-.007a1.27,1.27,0,0,0,.04-.168,3.774,3.774,0,0,1,.23-.554c.143-.308.324-.611.436-.933.041-.117-.141-.164-.184-.051-.157.41-.434.772-.619,1.17a1.4,1.4,0,0,0-.154.458,5.514,5.514,0,0,1-.511-.219c0-.035.009-.071.016-.109a3.063,3.063,0,0,1,.154-.525,4.181,4.181,0,0,1,.479-.906c.066-.094-.085-.177-.151-.088a4.173,4.173,0,0,0-.527.94,2.9,2.9,0,0,0-.192.574q-.135-.075-.266-.16l-.123-.082a5.393,5.393,0,0,0,.347-.817,4.021,4.021,0,0,0,.294-.819c.389.011.777.006,1.159-.007,1.216-.042,2.425-.117,3.641-.137,3.489-.057,6.979-.08,10.469-.1q2.49-.016,4.981-.027c.222,0,.444,0,.666,0q.106.014.214.024a2.457,2.457,0,0,1-.591,1.932M32.372,8.23a6.086,6.086,0,0,0-1.279,1.6c-.225.348-.488.669-.71,1.019-.234.368-.463.735-.724,1.085-.041.055.043.1.088.068a3.586,3.586,0,0,0,.711-.849c.226-.345.47-.676.7-1.016a8.219,8.219,0,0,1,1.2-1.634c-.029.552-.068,1.1-.1,1.651a.125.125,0,0,0-.024.018,12.421,12.421,0,0,0-1.3,1.627c-.413.585-.886,1.142-1.277,1.74-.032.048.032.114.081.081a5.523,5.523,0,0,0,1.292-1.5A15.187,15.187,0,0,1,32.24,10.51c-.031.55-.062,1.1-.1,1.652a16.086,16.086,0,0,0-1.166,1.39,14.917,14.917,0,0,0-1.23,1.589.072.072,0,0,0,.1.1,4.921,4.921,0,0,0,1.237-1.357c.334-.443.666-.888,1.032-1.3-.039.548-.083,1.095-.137,1.64q-.013.135-.031.27a8.614,8.614,0,0,1-.874,1.076A6.494,6.494,0,0,0,30.05,16.75c-.03.055.035.135.093.093a8.121,8.121,0,0,0,1.184-1.188c.187-.207.368-.42.537-.641-.073.413-.164.822-.257,1.234a2.939,2.939,0,0,1-.691,1.411,2.271,2.271,0,0,1-.711.5l-.29-.016c-.454-.021-.912,0-1.366,0q-2.2.01-4.4.022l-2.28.014c.009-.012.018-.024.027-.035.051-.059.1-.115.16-.171a.113.113,0,0,0-.159-.159,1.6,1.6,0,0,0-.18.206.71.71,0,0,0-.093.161l-1.109.008a.914.914,0,0,0,.088-.152.625.625,0,0,0,.072-.243c.006-.135-.2-.135-.209,0a.424.424,0,0,1-.059.17,1.19,1.19,0,0,0-.114.192.094.094,0,0,0,0,.035l-.942.007a2.825,2.825,0,0,1,.321-.544c.071-.136-.133-.256-.206-.12-.063.118-.413.487-.324.666l-1.405.012a.894.894,0,0,0,.136-.417.113.113,0,0,0-.225,0,.981.981,0,0,1-.169.41l0,.009-1.147.01a1.442,1.442,0,0,1,.308-.448c.1-.107-.059-.269-.163-.163a1.748,1.748,0,0,0-.332.463.741.741,0,0,0-.056.151l-1.215.014a2.177,2.177,0,0,1,.07-.214,4.043,4.043,0,0,1,.307-.576c.079-.125-.115-.236-.2-.115a4.086,4.086,0,0,0-.345.617,2.9,2.9,0,0,0-.126.292l-1.029.012-.36,0a.937.937,0,0,1,.231-.485c.1-.109-.059-.27-.163-.163a1.271,1.271,0,0,0-.279.485.515.515,0,0,0-.023.166q-.661.009-1.321.022a1.57,1.57,0,0,1,.085-.194c.094-.186.212-.359.3-.545.061-.121-.118-.228-.183-.107-.131.243-.3.462-.413.717a.646.646,0,0,0-.036.135c-.385.009-.77.019-1.155.035h-.019c.07-.288.3-.534.311-.834.006-.134-.195-.131-.207,0-.01.116-.31.563-.359.845-.292.015-.589.033-.889.05,0,0,0,0,0-.007a.948.948,0,0,1,.1-.44c.066-.172.15-.335.228-.5.051-.108-.1-.2-.163-.1a4.79,4.79,0,0,0-.348.7.52.52,0,0,0-.013.357c-1.748.1-3.576.128-5.056-.871a3.234,3.234,0,0,1-.666-.607,3.729,3.729,0,0,0,.354-.882,6.839,6.839,0,0,1,.577-1.106c.073-.114-.107-.217-.181-.106a6.977,6.977,0,0,0-.582,1.07,2.939,2.939,0,0,0-.3.851,5.1,5.1,0,0,1-.552-.955,5.381,5.381,0,0,0,.322-.844,10.378,10.378,0,0,1,.491-.922.1.1,0,0,0-.176-.1,9.645,9.645,0,0,0-.557,1.01,3.34,3.34,0,0,0-.22.527A10.944,10.944,0,0,1,1.973,14.4c-.009-.031-.016-.062-.025-.093.01-.033.02-.065.032-.1a7.15,7.15,0,0,1,.34-.718,5.535,5.535,0,0,0,.555-1.307.094.094,0,0,0-.182-.05,6.738,6.738,0,0,1-.7,1.465c-.046.084-.1.182-.156.288-.112-.435-.212-.874-.3-1.316q.152-.369.333-.724a5.684,5.684,0,0,1,.885-1.33c.082-.087-.047-.216-.131-.131a5.619,5.619,0,0,0-.924,1.3q-.129.238-.245.483-.076-.385-.144-.77a8.995,8.995,0,0,0,.421-.829c.239-.462.476-.925.745-1.371a.1.1,0,0,0-.178-.1c-.267.423-.507.861-.746,1.3-.1.192-.209.385-.315.576q-.059-.352-.114-.7c-.02-.131-.04-.263-.059-.4a3.963,3.963,0,0,0,.3-.7,7.329,7.329,0,0,1,.457-.828A9.033,9.033,0,0,1,2.948,6.9a.089.089,0,0,0-.126-.126A9.278,9.278,0,0,0,1.648,8.183a6.661,6.661,0,0,0-.5.867c-.048.1-.106.212-.155.327C.956,9.093.925,8.806.9,8.516a.078.078,0,0,0,.039-.031c.137-.224.182-.488.333-.715.167-.25.37-.473.541-.72a12.79,12.79,0,0,1,1.227-1.56.082.082,0,0,0-.117-.117A16.342,16.342,0,0,0,1.5,7.07,5.379,5.379,0,0,0,.87,7.9q-.011-.374,0-.746a12.093,12.093,0,0,0,.775-1.208c.335-.527.664-1.058,1.008-1.579.06-.091-.082-.17-.145-.084-.371.5-.725,1.02-1.071,1.542-.159.239-.347.483-.522.734a6.807,6.807,0,0,1,.155-.881L1.1,5.637a8.87,8.87,0,0,1,.536-.912,7.517,7.517,0,0,1,.987-1.467c.043-.037-.015-.115-.062-.08a5.388,5.388,0,0,0-.993,1.3l-.181.256a6.412,6.412,0,0,1,1.6-2.278,5.681,5.681,0,0,1,1.038-.748l-.059.119a.824.824,0,0,0-.119.291c0,.043.051.056.078.032a.874.874,0,0,0,.163-.28L4.22,1.6a5.953,5.953,0,0,1,.922-.378c-.062.112-.117.227-.179.339a4.941,4.941,0,0,1-.309.432.045.045,0,0,0,.05.065c.355-.1.476-.618.652-.9A6.973,6.973,0,0,1,6.145.99c-.1.154-.215.3-.324.444-.094.129-.252.334-.185.5.014.034.057.065.094.038.14-.1.183-.315.284-.459A4.645,4.645,0,0,0,6.38.959v0A8.718,8.718,0,0,1,7.3.894c-.2.355-.677.966-.468,1.368a.086.086,0,0,0,.147,0,4.855,4.855,0,0,0,.2-.649c.094-.222.217-.431.322-.648A.1.1,0,0,0,7.5.891c.379,0,.762.023,1.143.061a4.686,4.686,0,0,0-.559.852c-.13.251-.438.785-.253,1.059a.086.086,0,0,0,.134.017,1.021,1.021,0,0,0,.126-.394,3.456,3.456,0,0,1,.229-.6A4.149,4.149,0,0,1,8.9.981c.352.042.7.1,1.05.161a3.829,3.829,0,0,0-.606.92c-.12.25-.374.734-.206,1a.089.089,0,0,0,.151,0A1.165,1.165,0,0,0,9.4,2.649,3.217,3.217,0,0,1,9.6,2.1a3.452,3.452,0,0,1,.588-.911c.354.07.7.149,1.048.233,1.12.274,2.241.565,3.367.829-.365.546-1.233,1.916-.687,2.045A.07.07,0,0,0,14,4.227a3.686,3.686,0,0,1,.854-1.919q.623.143,1.249.272c-.21.379-.4.765-.579,1.165-.113.246-.513.686-.254.951a.1.1,0,0,0,.16-.042,5.42,5.42,0,0,1,.394-.961,7.024,7.024,0,0,1,.511-1.066q.527.1,1.057.192A11.812,11.812,0,0,0,16.731,3.9c-.15.285-.521.9-.249,1.2a.092.092,0,0,0,.144-.018,2.418,2.418,0,0,0,.133-.5,4.1,4.1,0,0,1,.324-.734c.181-.338.385-.661.594-.982q.5.077,1,.136c-.168.285-.314.584-.483.872-.136.231-.261.463-.392.7a.858.858,0,0,0-.162.694.122.122,0,0,0,.22.029c.114-.217.168-.458.288-.679s.225-.422.337-.633c.168-.314.309-.642.487-.947q.509.053,1.02.083a9.411,9.411,0,0,0-.89,1.77c-.068.19.2.27.3.128a.811.811,0,0,0,.146-.261.087.087,0,0,0-.009-.069,14.9,14.9,0,0,1,.8-1.552q.333.013.668.014.237,0,.467-.012a5.506,5.506,0,0,0-.963,1.853.162.162,0,0,0,.235.181.684.684,0,0,0,.282-.3.071.071,0,0,0-.088-.1A12.851,12.851,0,0,1,21.858,3.1a5.609,5.609,0,0,0,1-.2,4.977,4.977,0,0,0-.822,1.588c-.018.084.041.2.141.185.166-.018.291-.137.181-.284a5.868,5.868,0,0,1,.721-1.412.1.1,0,0,0-.025-.14c.081-.028.161-.057.242-.09a.212.212,0,0,0-.113-.409c-.308.044-.619.072-.931.088.044-.082.087-.165.129-.249.068-.138-.134-.259-.208-.122s-.145.257-.224.383c-.394.01-.79,0-1.186-.02q.16-.269.319-.538A.125.125,0,0,0,21.1,1.81l.419-.086c2.346-.477,4.851-1.037,7.2-.3a5.849,5.849,0,0,1-.487.781.122.122,0,0,0,0,.122c.108.215.311-.149.358-.221a3.552,3.552,0,0,0,.326-.616,6.669,6.669,0,0,1,.83.35l-.007.007c-.264.336-1.023,1.022-.787,1.507a.062.062,0,0,0,.106,0c.138-.221.181-.491.33-.717s.338-.447.505-.671a.079.079,0,0,0,.015-.04A4.608,4.608,0,0,1,31.4,3.169a4.016,4.016,0,0,1,.332.52c-.52.979-1.378,1.731-1.866,2.722-.025.05.04.11.082.063A13.053,13.053,0,0,0,31.834,3.9a5.214,5.214,0,0,1,.283.747c-.91,1.131-1.5,2.5-2.352,3.677-.034.048.038.1.078.06,1.054-.945,1.545-2.32,2.348-3.466a7.076,7.076,0,0,1,.176,1.09c-.448.644-.877,1.3-1.345,1.93-.538.722-.987,1.528-1.467,2.29-.038.06.045.116.095.073a11.932,11.932,0,0,0,1.557-2.189c.414-.573.8-1.164,1.183-1.753.026.622.012,1.249-.017,1.875M22.183,4.4c-.024.023-.007,0-.007-.009l.007.009" transform="translate(0 0)" fill="#005fa6" stroke="#005fa6" stroke-width="0.2"/>
      </g>
    </g>
  </g>
</svg>
