<svg xmlns="http://www.w3.org/2000/svg" xmlns:xlink="http://www.w3.org/1999/xlink" width="46.069" height="47.498" viewBox="0 0 46.069 47.498">
  <defs>
    <clipPath id="clip-path">
      <rect id="Rectangle_1451" data-name="Rectangle 1451" width="33.273" height="35.564" fill="#005fa6" stroke="#005fa6" stroke-width="0.2"/>
    </clipPath>
  </defs>
  <g id="Group_3415" data-name="Group 3415" transform="translate(-166 -622.751)">
    <g id="Group_3311" data-name="Group 3311" transform="translate(10 -534.202)">
      <circle id="Ellipse_10" data-name="Ellipse 10" cx="23.034" cy="23.034" r="23.034" transform="translate(156 1158.382)" fill="#f4f7f8"/>
    </g>
    <g id="Group_3408" data-name="Group 3408" transform="translate(173 622.751)">
      <g id="Group_3406" data-name="Group 3406" clip-path="url(#clip-path)">
        <path id="Path_11573" data-name="Path 11573" d="M6.094,16.882a3.835,3.835,0,0,0-.8,1.256,13.864,13.864,0,0,0-.88,1.679c-.245.6-.524,1.191-.75,1.8a5.627,5.627,0,0,0-.5,1.92.068.068,0,0,0,.126.034A8.63,8.63,0,0,0,3.9,21.858c.21-.6.492-1.161.714-1.752A9.285,9.285,0,0,1,5.436,18.4c.286-.452.39-1,.819-1.355.113-.094-.048-.251-.161-.161M13.765,2.006c-.2.361-.443.695-.618,1.067a1.115,1.115,0,0,0-.155.867.062.062,0,0,0,.106,0,1.573,1.573,0,0,0,.106-.4,2.783,2.783,0,0,1,.21-.547c.15-.308.33-.6.482-.908.042-.086-.084-.162-.13-.076m-2.187-.453a1.2,1.2,0,0,1-.224.438,4.087,4.087,0,0,0-.285.5c-.053.119-.166.588.128.5a.066.066,0,0,0,.047-.062,1.422,1.422,0,0,1,.014-.233,1.872,1.872,0,0,1,.2-.435,1.815,1.815,0,0,0,.3-.705c.005-.122-.174-.117-.187,0m-9.05,8.682c.2-.411.447-.789.677-1.181a.084.084,0,0,0-.146-.085,10.856,10.856,0,0,0-.868,1.453c-.122.283-.407,1.043.04,1.2a.063.063,0,0,0,.079-.06,2.609,2.609,0,0,1-.05-.579,2.766,2.766,0,0,1,.266-.75m.879,10.305a11.6,11.6,0,0,0,.539-1.512c.184-.488.414-.946.632-1.418a8.807,8.807,0,0,1,1.481-2.53c.1-.107-.059-.269-.163-.163a9.147,9.147,0,0,0-1.551,2.557c-.221.456-.448.895-.632,1.367A4.883,4.883,0,0,0,3.238,20.5a.091.091,0,0,0,.169.046M32.309,7.47a4.013,4.013,0,0,0-.872,1.33.062.062,0,0,0,.1.06,7.391,7.391,0,0,0,.926-1.269c.065-.091-.086-.21-.157-.121M3.736,10.24A13.733,13.733,0,0,0,3,11.477a4.207,4.207,0,0,0-.382.828c-.043.155-.154.461-.07.619.05.094.153.14.237.06a.067.067,0,0,0,0-.1.339.339,0,0,0,0-.075c.015-.091.017-.182.036-.273A2.38,2.38,0,0,1,3,12.013,14.678,14.678,0,0,1,3.9,10.337c.067-.1-.1-.2-.166-.1M16.395,2.191c-.21.388-.477.739-.7,1.121-.138.24-.41.654-.264.929a.075.075,0,0,0,.116.015c.114-.1.115-.215.164-.36a3.892,3.892,0,0,1,.278-.6c.185-.338.4-.659.572-1,.056-.113-.109-.212-.17-.1M23.15,1.2a4.05,4.05,0,0,0-.591.888,1.121,1.121,0,0,0-.1.511.105.105,0,0,0,.082.1l.012,0a.141.141,0,0,0,.137-.036c.127-.146.1-.366.16-.541a4.125,4.125,0,0,1,.5-.808c.084-.129-.116-.239-.2-.119m2.166,30.527a9.575,9.575,0,0,0-.478,1.05.7.7,0,0,0-.079.443c.031.08.113.149.2.1a.075.075,0,0,0,.027-.1c.02.027,0,.054.029-.022.015-.048.023-.1.036-.148.04-.152.09-.3.144-.449.094-.257.2-.512.313-.76.059-.126-.124-.238-.19-.111M26.2.813a2.393,2.393,0,0,0-.643,1.231c0,.176.229.184.287.039a.312.312,0,0,0,.035-.217,3.3,3.3,0,0,1,.5-.946C26.461.8,26.28.7,26.2.813m.771,31.823c-.069.187-.166.363-.236.55-.046.125-.128.316-.007.417a.079.079,0,0,0,.093.012c.12-.085.106-.262.153-.394.063-.178.148-.347.209-.527.045-.135-.164-.189-.212-.058M17.29,2.56c-.181.187-1.313,2.02-.712,2.006a.069.069,0,0,0,.065-.086,1.808,1.808,0,0,1,.28-.916,3.71,3.71,0,0,1,.513-.858c.089-.1-.053-.243-.146-.146m2.732,17.2a8.08,8.08,0,0,0-.592,1.324c-.159.332-.441.747-.265,1.121a.073.073,0,0,0,.126,0,3.618,3.618,0,0,0,.154-.532c.069-.2.175-.376.252-.568a6.229,6.229,0,0,1,.5-1.24c.076-.112-.1-.211-.179-.1m-5-17.665c-.2.379-.438.74-.613,1.133-.113.254-.311.657-.148.917a.074.074,0,0,0,.126,0,.994.994,0,0,0,.117-.413,3.036,3.036,0,0,1,.206-.581c.148-.325.33-.633.487-.954.057-.116-.113-.217-.174-.1m-.439,18.993a4.9,4.9,0,0,1-.277,1.035c-.03.1-.074.2-.1.3-.007.026-.039.078-.026.1a.1.1,0,0,0,.013.021l0,0,0,.009a.046.046,0,0,0,.043.057c.155.007.193-.3.22-.395a4.5,4.5,0,0,0,.206-1.133.036.036,0,0,0-.072,0m-.368,1.435c.007-.011.017-.016.039.009a.035.035,0,0,0-.039-.009M19.286,3.747a.087.087,0,0,0,.007-.041.644.644,0,0,0,.059-.145c.054-.129.1-.264.16-.389a7.041,7.041,0,0,0,.614-1.195.118.118,0,0,0-.227-.062c-.167.535-.579.962-.792,1.479-.045.11-.135.277-.03.38a.122.122,0,0,0,.209-.027M32.058,2.075C30.75.5,28.529.017,26.577,0a15.069,15.069,0,0,0-3.371.386C22.4.564,21.615.8,20.819,1a.123.123,0,0,0-.156-.071,9.86,9.86,0,0,1-4.175.488A32.352,32.352,0,0,1,12.415.788,17.794,17.794,0,0,0,5.342.359,6.665,6.665,0,0,0,.367,4.472c-.85,2.333-.056,4.675.679,6.911a30.848,30.848,0,0,1,1.078,3.907,21.718,21.718,0,0,1,.241,4.342,53.205,53.205,0,0,0,.248,8.4C2.953,30.37,3.752,33,5.676,34.528a4.364,4.364,0,0,0,3.012,1.026,4.6,4.6,0,0,0,2.868-1.408,9.852,9.852,0,0,0,2.322-5.687,23.79,23.79,0,0,1,.491-3.563,4.265,4.265,0,0,1,.91-1.691,5.79,5.79,0,0,1,1.393-1.048c.126-.073.256-.14.387-.2a1.6,1.6,0,0,1,.414.034,2.089,2.089,0,0,1,1.171.769,6.487,6.487,0,0,1,.779,1.57,17.266,17.266,0,0,1,.564,1.646c.579,2,.855,4.2,2,5.983a5.129,5.129,0,0,0,4.942,2.585,3.862,3.862,0,0,0,2.332-1.118A5.648,5.648,0,0,0,30.517,31.2a12.074,12.074,0,0,0,.477-2.577c.132-1.366.241-2.733.354-4.1.226-2.729.748-5.425,1.242-8.115a47.393,47.393,0,0,0,.659-8.121c.019-2.1.245-4.482-1.192-6.211M6.709,34.282,6.7,34.274l.015.012-.006,0M18.225,21.6c-.051-.023-.1-.046-.156-.065l.158-.056a.938.938,0,0,0,0,.121M32.509,7.351q-.011.6-.029,1.191a1.125,1.125,0,0,0-.474.511c-.067.126-.121.258-.192.382a1.423,1.423,0,0,0-.193.343.074.074,0,0,0,.07.092c.235-.006.364-.291.451-.473a1.806,1.806,0,0,1,.329-.567q-.013.439-.028.877a9.7,9.7,0,0,0-.9,1.142.055.055,0,0,0,.075.075,3.086,3.086,0,0,0,.807-.763q-.015.407-.03.813,0,.113-.009.226-.213.278-.443.545a4.741,4.741,0,0,0-.6.769.063.063,0,0,0,.086.086,3.227,3.227,0,0,0,.942-.919c-.015.376-.032.753-.056,1.129-.334.365-.825.614-.983,1.092-.022.067.066.11.113.066.261-.242.576-.485.843-.761q-.026.345-.061.689a4.562,4.562,0,0,0-.469.57,7.759,7.759,0,0,0-.611.894.063.063,0,0,0,.086.086,3.419,3.419,0,0,0,.942-1.1c-.03.235-.065.47-.105.7l-.015.087c-.1.1-.186.2-.274.312a3.179,3.179,0,0,0-.435.6.061.061,0,0,0,.082.082,1.654,1.654,0,0,0,.523-.515l.023-.029q-.11.62-.223,1.239a5.311,5.311,0,0,0-.615,1c-.022.053.052.107.1.075a2.21,2.21,0,0,0,.386-.357c-.317,1.745-.627,3.491-.853,5.251-.174,1.358-.241,2.726-.362,4.089a26.626,26.626,0,0,1-.387,3.086c-.321,1.531-1.031,3.249-2.695,3.682a3.733,3.733,0,0,1-1.6.069,4.749,4.749,0,0,0,.245-.6c.114-.239.235-.473.334-.719.046-.116-.153-.2-.2-.086-.119.276-.271.535-.4.805a1.166,1.166,0,0,0-.184.558,4.137,4.137,0,0,1-1.427-.653,2.961,2.961,0,0,0,.277-.8,2.68,2.68,0,0,1,.535-1.054c.094-.1-.056-.255-.154-.154a2.644,2.644,0,0,0-.539.906c-.073.188-.136.38-.2.571-.042.121-.1.244-.132.369q-.127-.1-.247-.209a.093.093,0,0,0,.109-.113,2.609,2.609,0,0,1,.2-1.089,11.338,11.338,0,0,1,.694-1.677c.061-.128-.126-.24-.192-.112a8.977,8.977,0,0,0-.832,1.921c-.053.215-.251.656-.143.912a5.6,5.6,0,0,1-.636-.749.111.111,0,0,0,.029-.04,2.145,2.145,0,0,0,.093-.574,6.947,6.947,0,0,1,.15-.823,3.088,3.088,0,0,1,.632-1.394c.1-.107-.058-.266-.161-.161a3.283,3.283,0,0,0-.715,1.393,6.255,6.255,0,0,0-.181.864,2.691,2.691,0,0,0-.043.439,7.281,7.281,0,0,1-.467-.882.077.077,0,0,0,.073-.03,5.825,5.825,0,0,0,.6-1.642,11.3,11.3,0,0,1,.712-1.774c.062-.121-.117-.227-.183-.107a11.427,11.427,0,0,0-.747,1.7,6.379,6.379,0,0,0-.5,1.734,11.771,11.771,0,0,1-.486-1.4.067.067,0,0,0,.12.013,2.123,2.123,0,0,0,.179-.659,7.278,7.278,0,0,1,.276-.84,9.681,9.681,0,0,1,.759-1.522c.073-.12-.114-.228-.188-.11a10.008,10.008,0,0,0-.772,1.521,7.526,7.526,0,0,0-.288.839,1.635,1.635,0,0,0-.108.68c-.152-.538-.281-1.085-.414-1.629a6.13,6.13,0,0,0,.659-1.36c.217-.543.422-1.09.635-1.635.053-.136-.163-.192-.217-.06-.205.505-.4,1.014-.612,1.518-.172.417-.386.832-.533,1.263-.1-.386-.2-.769-.311-1.146A.9.9,0,0,0,21,25.466a8.882,8.882,0,0,1,.235-.869c.212-.622.54-1.194.752-1.816.046-.135-.165-.19-.212-.058-.21.584-.54,1.115-.751,1.7a6.388,6.388,0,0,0-.244.787c-.025.11-.062.223-.1.335q-.125-.376-.266-.746a2.147,2.147,0,0,0,.258-.6c.106-.282.212-.564.328-.842a9.4,9.4,0,0,1,.87-1.634c.077-.114-.106-.218-.183-.107a9.676,9.676,0,0,0-.909,1.63q-.17.383-.321.775c-.052.137-.126.287-.175.439q-.086-.214-.178-.426c-.085-.2-.17-.4-.262-.594.047-.2.072-.415.124-.62a5.169,5.169,0,0,1,.292-.813c.221-.5.486-.975.724-1.464.056-.116-.113-.218-.174-.1-.285.543-.62,1.062-.865,1.626a4.234,4.234,0,0,0-.316.941,4.366,4.366,0,0,0-.338-.538,2.861,2.861,0,0,0-.836-.757,2.686,2.686,0,0,0,.067-.359.343.343,0,0,0,.11-.407c.053-.149.113-.3.175-.442a6.859,6.859,0,0,0,.4-1.169.084.084,0,0,0-.163-.045,9.767,9.767,0,0,1-.555,1.344l-.053.124a.3.3,0,0,0-.182.008q-.357.12-.708.257c.009-.044.018-.087.03-.129a5.6,5.6,0,0,1,.276-.726,5.468,5.468,0,0,0,.47-1.227c.039-.1-.12-.142-.157-.043-.185.5-.44.961-.651,1.448a2.843,2.843,0,0,0-.262.8,9.8,9.8,0,0,0-1.042.512c0-.016,0-.031.009-.048a4.151,4.151,0,0,1,.279-.767,4.976,4.976,0,0,0,.474-1.206c.021-.133-.179-.192-.2-.056a6.935,6.935,0,0,1-.644,1.447,2.623,2.623,0,0,0-.251.836,7.065,7.065,0,0,0-.751.548l-.025.022a6.225,6.225,0,0,1,.151-.632,9.173,9.173,0,0,1,.526-1.36c.052-.109-.108-.2-.163-.1a9.478,9.478,0,0,0-.585,1.394,4.191,4.191,0,0,0-.24.99,5.448,5.448,0,0,0-1.313,2.74c-.214,1.106-.259,2.24-.45,3.351a12.372,12.372,0,0,1-.794,2.867,4.8,4.8,0,0,1-3.473,3.052c.019-.2.076-.4.08-.606a.11.11,0,0,0-.22,0,5.5,5.5,0,0,1-.11.625,3.05,3.05,0,0,1-.694-.062c.022-.22.045-.44.046-.662a.114.114,0,0,0-.227,0c-.005.2-.028.4-.052.606l-.05-.013a3.89,3.89,0,0,1-.8-.335.107.107,0,0,1-.005-.066,1.168,1.168,0,0,0,.007-.172c.009-.172.029-.344.054-.514a3.411,3.411,0,0,1,.173-.82c.059-.137-.14-.257-.2-.119a4.433,4.433,0,0,0-.275,1.287c-.007.062-.022.15-.024.236a4.49,4.49,0,0,1-.629-.508.1.1,0,0,0-.025-.157c.071.041.031,0,.041-.094a2.534,2.534,0,0,1,.05-.283c.039-.173.1-.336.15-.506.176-.641.261-1.3.435-1.946a.118.118,0,0,0-.227-.062c-.212.745-.344,1.507-.588,2.242a2.363,2.363,0,0,0-.117.514,6.307,6.307,0,0,1-.65-.885.074.074,0,0,0,.068-.054c.041-.2-.019-.419.01-.624.031-.223.105-.434.149-.654a15.756,15.756,0,0,1,.565-2.343c.05-.137-.166-.194-.217-.06a11.67,11.67,0,0,0-.421,1.351c-.094.387-.132.788-.243,1.17a3.462,3.462,0,0,0-.152.792,9.745,9.745,0,0,1-.517-1.156.1.1,0,0,0,.16-.041c.121-.381.128-.8.228-1.193.105-.412.23-.82.349-1.229.244-.836.5-1.667.815-2.48.054-.139-.167-.2-.222-.061-.343.846-.63,1.713-.9,2.584-.131.422-.265.847-.369,1.277a2.477,2.477,0,0,0-.1,1.031,13.156,13.156,0,0,1-.415-1.388q-.053-.219-.1-.44a.1.1,0,0,0,.129-.063c.077-.263.086-.542.14-.811s.129-.552.2-.825c.133-.487.251-.979.384-1.466a10.765,10.765,0,0,1,1.137-2.856c.074-.12-.113-.228-.188-.11A10.96,10.96,0,0,0,4.18,25.688c-.149.525-.285,1.054-.432,1.579a5.384,5.384,0,0,0-.257,1.176c-.123-.67-.209-1.347-.268-2.027a6.394,6.394,0,0,0,.646-1.6c.194-.6.364-1.207.546-1.811a14.586,14.586,0,0,1,1.462-3.536c.075-.121-.114-.23-.19-.111a14.41,14.41,0,0,0-1.5,3.412c-.185.584-.359,1.171-.542,1.755-.137.439-.323.878-.466,1.321-.094-1.446-.079-2.9-.055-4.34.019-1.112.051-2.225.039-3.338a.073.073,0,0,0,.1.033,1.619,1.619,0,0,0,.5-.749c.153-.354.283-.717.439-1.07A13.783,13.783,0,0,1,5.479,14.07c.076-.11-.1-.211-.179-.1a11.131,11.131,0,0,0-1.271,2.168c-.146.342-.29.684-.431,1.028-.131.319-.326.623-.434.948,0-.338-.012-.676-.026-1.013-.008-.194-.022-.389-.04-.583.094-.249.159-.523.258-.75a11.581,11.581,0,0,1,.533-1.056c.393-.694.846-1.351,1.3-2.009.077-.113-.106-.218-.183-.107-.49.7-.988,1.4-1.414,2.137a9.428,9.428,0,0,0-.518,1.037l-.048.111c-.05-.356-.115-.711-.189-1.063a1.516,1.516,0,0,0,.217-.514,4.739,4.739,0,0,1,.382-.978A17.206,17.206,0,0,0,4.4,11.394c.045-.119-.144-.168-.19-.052a16.422,16.422,0,0,1-1.026,1.9,3.5,3.5,0,0,0-.328.747c-.036.124-.081.248-.125.372-.086-.367-.181-.731-.282-1.091-.272-.973-.6-1.93-.915-2.889a.52.52,0,0,0,.048.075.1.1,0,0,0,.175-.073.043.043,0,0,1,.023-.051.055.055,0,0,0-.028-.1.236.236,0,0,0-.043,0,1.368,1.368,0,0,1,.266-.824c.14-.253.307-.491.437-.748.047-.093-.091-.176-.141-.083-.206.38-.871,1.1-.794,1.632q-.116-.354-.23-.71l-.007-.023A.205.205,0,0,0,1.4,9.457a.061.061,0,0,0,0-.1c-.244-.165.192-.852.283-1.024.169-.32.377-.622.54-.945.046-.09-.087-.17-.137-.08-.257.465-.585.883-.814,1.366a2.212,2.212,0,0,0-.152.371c-.069-.252-.13-.506-.18-.762l0-.013A2.611,2.611,0,0,1,1.193,7.7c.173-.305.377-.592.535-.906.045-.089-.087-.168-.135-.079-.192.354-.447.668-.648,1.016-.025.043-.052.09-.079.14a8.112,8.112,0,0,1-.082-.826q.029-.074.06-.147c.143-.34.314-.666.472-1,.031-.064-.062-.121-.1-.057-.146.269-.3.534-.443.807q0-.189.014-.379A3.129,3.129,0,0,1,1.114,5.6c.037-.054-.049-.1-.086-.05a2.464,2.464,0,0,0-.2.319,5.641,5.641,0,0,1,3.763-4.5A10.317,10.317,0,0,1,9.28,1.041c-.034.068-.066.137-.1.207a2.183,2.183,0,0,0-.216.487c-.008.043.038.094.083.064A.845.845,0,0,0,9.3,1.4c.048-.114.094-.229.143-.342q.254.032.507.068c-.093.118-.178.242-.259.365s-.323.428-.226.58a.06.06,0,0,0,.066.027c.148-.048.239-.359.312-.483a4.153,4.153,0,0,1,.3-.46q.28.042.558.087c-.13.238-.282.462-.413.7-.085.154-.217.348-.138.521a.056.056,0,0,0,.077.02c.156-.105.191-.349.274-.514.114-.226.245-.444.357-.671a.085.085,0,0,0,.008-.03l.277.045c.54.089,1.084.189,1.631.286a2.2,2.2,0,0,1-.5,1.042c-.113.186-.343.531-.16.728a.074.074,0,0,0,.1,0c.118-.1.124-.309.189-.448.082-.175.189-.338.286-.506a1.467,1.467,0,0,0,.242-.788,17.2,17.2,0,0,0,5.331.334c.18,0,.36-.007.541-.018a.116.116,0,0,0-.062.042,8.34,8.34,0,0,0-.834,1.392c-.088.179-.231.472-.111.662a.07.07,0,0,0,.094.025c.168-.116.2-.4.281-.579A7.7,7.7,0,0,1,18.931,2.1c.055-.077-.008-.149-.082-.158a15.929,15.929,0,0,0,2.367-.385l.114-.026c-.294.6-.509,1.235-.856,1.812-.1.168.16.3.255.148v0a12.719,12.719,0,0,0,.847-1.984.113.113,0,0,0,.009-.035c1.018-.23,2.034-.455,3.07-.586a7.292,7.292,0,0,0-.74,1.381c-.084.159.159.3.241.141A9.258,9.258,0,0,1,24.9.943a.106.106,0,0,0,.028-.089l.038,0A13.191,13.191,0,0,1,27.479.8c-.051.416-.531.694-.545,1.148-.006.188.277.185.29,0,0-.013,0-.026.005-.039a.942.942,0,0,1,.1-.225.063.063,0,0,0-.009-.07,2.177,2.177,0,0,0,.346-.8A8.1,8.1,0,0,1,28.753,1l0,0c-.2.289-.423.572-.607.872a.134.134,0,0,0,.15.195c.1-.023.166-.092.157-.174.173-.253.329-.522.493-.781a.106.106,0,0,0,.018-.061,6.31,6.31,0,0,1,.79.278c-.068.109-.133.22-.2.328-.094.144-.274.283-.308.452a.1.1,0,0,0,.124.124c.178-.043.283-.253.368-.4s.144-.276.22-.411a5.434,5.434,0,0,1,.671.378l0,0a3.367,3.367,0,0,0-.514.733.181.181,0,0,0-.025.058.14.14,0,0,0,.27.074,3.288,3.288,0,0,1,.46-.729,3.731,3.731,0,0,1,.43.377,2.548,2.548,0,0,1-.346.508c-.106.144-.3.369-.186.55a.115.115,0,0,0,.152.04c.106-.049.121-.144.17-.243.065-.13.146-.251.223-.374a2.365,2.365,0,0,0,.159-.292,3.751,3.751,0,0,1,.38.538,3.516,3.516,0,0,0-.724,1.082c-.056.127.065.29.2.2a.223.223,0,0,0,.114-.164,5.1,5.1,0,0,1,.528-.895,4.616,4.616,0,0,1,.271.674,2.341,2.341,0,0,0-.518.555c-.106.159-.341.429-.245.625a.082.082,0,0,0,.091.037c.187-.035.252-.331.336-.479a2.181,2.181,0,0,1,.4-.515,6.851,6.851,0,0,1,.175.9.124.124,0,0,0-.036.025,3.756,3.756,0,0,0-.418.523,2.4,2.4,0,0,0-.352.622.072.072,0,0,0,.105.081,4.028,4.028,0,0,0,.735-.942c.019.206.032.413.041.621a7.268,7.268,0,0,0-.5.611c-.229.274-.574.534-.564.924a.059.059,0,0,0,.11.03c.2-.281.414-.547.63-.819.114-.144.218-.336.335-.508.009.372,0,.744,0,1.108" transform="translate(0 0)" fill="#005fa6" stroke="#005fa6" stroke-width="0.2"/>
      </g>
    </g>
  </g>
</svg>
