<svg xmlns="http://www.w3.org/2000/svg" xmlns:xlink="http://www.w3.org/1999/xlink" width="46.069" height="47.498" viewBox="0 0 46.069 47.498">
  <defs>
    <clipPath id="clip-path">
      <rect id="Rectangle_1450" data-name="Rectangle 1450" width="33.138" height="35.402" fill="#005fa6" stroke="#005fa6" stroke-width="0.2"/>
    </clipPath>
  </defs>
  <g id="Group_3405" data-name="Group 3405" transform="translate(-169.444 -1597)">
    <g id="Group_3398" data-name="Group 3398" transform="translate(13.444 440.047)">
      <circle id="Ellipse_10" data-name="Ellipse 10" cx="23.034" cy="23.034" r="23.034" transform="translate(156 1158.382)" fill="#f4f7f8"/>
    </g>
    <g id="Group_3404" data-name="Group 3404" transform="translate(175.909 1597)">
      <g id="Group_3403" data-name="Group 3403" clip-path="url(#clip-path)">
        <path id="Path_11572" data-name="Path 11572" d="M8.035,33.694a.122.122,0,0,0,.082-.009c-.039.011.03-.021.052-.052.048-.065.087-.139.136-.2a5.026,5.026,0,0,1,.445-.521c.11-.112-.062-.285-.173-.173a5.435,5.435,0,0,0-.393.45c-.078.1-.244.26-.234.4a.12.12,0,0,0,.084.11m-.4-4.178c.166-.165.338-.326.512-.482.389-.348.721-.749,1.083-1.123a.1.1,0,0,0-.146-.146c-.406.4-.793.812-1.22,1.193-.3.266-.783.6-.829,1.029-.007.067.078.083.119.05a6.859,6.859,0,0,0,.48-.521m.947,4.392a2.063,2.063,0,0,0-.186.234,1.188,1.188,0,0,0-.076.114.185.185,0,0,0-.018.135.089.089,0,0,0,.108.061c.091-.019.134-.1.186-.172a1.712,1.712,0,0,1,.159-.2c.11-.113-.063-.286-.173-.173m-1.24-1.992a3.341,3.341,0,0,0,.713-.808,4.7,4.7,0,0,1,.864-.83c.114-.08.006-.269-.11-.189a4.811,4.811,0,0,0-.882.812,3.269,3.269,0,0,0-.706.922.084.084,0,0,0,.122.093M27.853,8.742c.091-.13-.123-.254-.213-.125a7.532,7.532,0,0,1-.882.942,6.181,6.181,0,0,0-.627.784c-.029.041.02.107.068.088.351-.142.517-.477.773-.735a7.52,7.52,0,0,0,.881-.954m-.859,19.684c-.535.793-.986,1.631-1.446,2.468-.4.731-.707,1.492-1.042,2.253-.021.047.024.109.077.077a1.6,1.6,0,0,0,.491-.73c.212-.462.4-.922.647-1.368.478-.869.936-1.749,1.476-2.582.082-.127-.119-.242-.2-.118M11.955,16.252a6.494,6.494,0,0,0-1.287.994c-.4.371-.825.729-1.21,1.118a15.477,15.477,0,0,0-1.181,1.322c-.272.346-.757.847-.753,1.312a.065.065,0,0,0,.1.056,1.765,1.765,0,0,0,.413-.551c.156-.247.327-.485.507-.715a15.651,15.651,0,0,1,1.1-1.243,21.427,21.427,0,0,1,2.38-2.182.064.064,0,0,0-.064-.11m17.892,2.777a1.96,1.96,0,0,0,.569-.494c.108-.1.2-.23.3-.335s.236-.218.35-.332c.086-.086-.045-.217-.133-.133a10.63,10.63,0,0,0-1.156,1.21c-.03.039.02.1.065.084m-15.191,2.71c-.094.185-.187.37-.267.562-.059.142-.162.321-.1.472a.041.041,0,0,0,.064.008c.109-.1.127-.3.179-.43.072-.184.158-.362.245-.54.04-.082-.081-.154-.123-.072M33.133,6.213a6.633,6.633,0,0,0-1.088-4A5.72,5.72,0,0,0,28.813.274a11.261,11.261,0,0,0-4-.177,32.75,32.75,0,0,0-4.086.9.121.121,0,0,0-.152-.066,8.856,8.856,0,0,1-2.762.511,14.614,14.614,0,0,1-2.7-.157C13.364,1.036,11.634.637,9.888.352c-2.823-.46-6-.261-8.113,1.9A6.183,6.183,0,0,0,.013,6.244,8.632,8.632,0,0,0,.194,8.5c.1.473.252.927.37,1.394A32.56,32.56,0,0,1,1.171,13.7q.136,1.051.265,2.1s0,.009,0,.013c.433,3.522.821,7.051,1.322,10.564a45.678,45.678,0,0,0,.854,4.81,5.6,5.6,0,0,0,3.764,4.083,4.264,4.264,0,0,0,4.009-1.156,7.625,7.625,0,0,0,1.947-3.443,20.568,20.568,0,0,0,.676-4.091,7.16,7.16,0,0,1,.6-2.57,4.2,4.2,0,0,1,1.572-1.7,8.091,8.091,0,0,1,.8-.45,1.627,1.627,0,0,1,.861.19,2.864,2.864,0,0,1,1.2,1.488A24.268,24.268,0,0,1,20.426,27.8,13.726,13.726,0,0,0,21.8,31.661a5.845,5.845,0,0,0,2.728,2.455,4.519,4.519,0,0,0,3.691-.149,4.616,4.616,0,0,0,2.022-2.492,17.828,17.828,0,0,0,.8-4.5c.436-3.7.882-7.4,1.3-11.106a74.809,74.809,0,0,0,.787-9.658M7.218,31.036c.416-.062.8-.595,1.053-.894.3-.353.577-.726.893-1.064-.006.057-.013.114-.019.17-.062.6-.113,1.2-.146,1.8a.108.108,0,0,0-.126.024,9.792,9.792,0,0,0-.909.987c-.2.257-.516.635-.464.978a.092.092,0,0,0,.153.04,1.806,1.806,0,0,0,.239-.442,3.6,3.6,0,0,1,.338-.505,9.769,9.769,0,0,1,.756-.835q-.016.347-.024.694a13.557,13.557,0,0,0,.113,2.537A3.137,3.137,0,0,1,7.639,34.5a5.643,5.643,0,0,1-.7-2.944c0-.954.075-1.908.163-2.86.01-.013.02-.026.031-.039a5.547,5.547,0,0,1,.621-.6,11.309,11.309,0,0,0,1.262-1.14c.073-.085-.046-.208-.124-.124a16.68,16.68,0,0,1-1.448,1.216c-.091.078-.2.167-.3.265l.07-.724a2.042,2.042,0,0,1,.188-.219c.257-.257.54-.486.806-.735A21.4,21.4,0,0,0,9.8,25.087a35.538,35.538,0,0,0-.6,3.713.11.11,0,0,0-.128.026c-.338.344-.626.733-.939,1.1a6.936,6.936,0,0,1-.484.522,2.914,2.914,0,0,0-.509.479c-.038.06.024.117.083.108m2.794-7.474a2.341,2.341,0,0,0-.828.579c-.382.365-.747.752-1.14,1.1-.23.206-.465.4-.681.624q.035-.466.061-.933l.041-.049a4.016,4.016,0,0,1,.425-.409c.319-.268.66-.508.978-.777a12.16,12.16,0,0,0,1.825-1.752,25.2,25.2,0,0,0-.775,2.614c-.021.085-.039.171-.059.256a.074.074,0,0,0-.085.024,20.075,20.075,0,0,1-1.872,1.7c-.217.189-.439.373-.646.574q.038-.406.072-.813c.049-.061.1-.122.149-.177a8.264,8.264,0,0,1,.622-.6c.341-.3.649-.64.966-.967a3.248,3.248,0,0,1,.987-.854c.088-.036.054-.181-.041-.147m-2.567.949q.012-.272.019-.544l0,0c.215-.239.436-.473.658-.7.41-.428.829-.848,1.238-1.277.381-.4.722-.826,1.141-1.188a6.131,6.131,0,0,0,.624-.58,2.092,2.092,0,0,1,.527-.5,18.919,18.919,0,0,0-.841,1.91.047.047,0,0,0-.043.019,13.693,13.693,0,0,1-2.166,1.948c-.316.26-.657.488-.966.755-.059.051-.126.108-.194.17m10.8-2.974c-.049-.026-.1-.05-.149-.072,0-.008-.005-.016-.008-.024L18.1,21.4h0c.082-.03.165-.06.248-.088a.852.852,0,0,0-.1.225M22.69,31.556a11.193,11.193,0,0,1-1.407-3.624c-.168-.654-.336-1.3-.527-1.946l0-.011c.036-.133.082-.262.125-.392s-.167-.192-.214-.059c-.009.025-.019.052-.03.08q-.051-.163-.105-.324l0-.006c.069-.17.132-.342.209-.508.061-.133-.13-.251-.2-.117-.047.09-.091.182-.135.274q-.072-.2-.149-.405c0-.015.008-.03.013-.045a2.4,2.4,0,0,1,.266-.494c.073-.117-.105-.216-.182-.107s-.153.216-.222.329c-.051-.126-.1-.251-.159-.376l-.055-.124a1.916,1.916,0,0,1,.347-.543c.1-.107-.057-.264-.16-.16a2.424,2.424,0,0,0-.321.413q-.038-.079-.078-.158c.136-.295.335-.559.454-.862.045-.115-.148-.2-.2-.084a6.854,6.854,0,0,1-.422.629c-.068-.122-.14-.241-.217-.356l0-.008a2.4,2.4,0,0,1,.121-.237c.118-.238.262-.461.376-.7.057-.121-.114-.227-.182-.107-.152.268-.362.51-.511.781-.058-.074-.118-.146-.18-.215a.062.062,0,0,0-.031-.049l-.007,0a3.085,3.085,0,0,1,.529-.925c.076-.128-.116-.237-.2-.116a4.924,4.924,0,0,0-.588.81q-.071-.059-.147-.112s0-.007,0-.01c.047-.361.347-.6.483-.926.047-.114-.148-.2-.2-.084a1.6,1.6,0,0,1-.21.318.306.306,0,0,0-.331-.331,2.979,2.979,0,0,0,.213-.491.1.1,0,0,0-.2-.054,7.186,7.186,0,0,1-.349.652c-.19.067-.38.138-.571.214a4.718,4.718,0,0,1,.32-.464c.067-.088-.082-.2-.154-.119a3.51,3.51,0,0,0-.524.733c-.233.1-.463.211-.687.332a1.817,1.817,0,0,1,.365-.607c.076-.083-.044-.205-.124-.124a2.076,2.076,0,0,0-.52.889,6.659,6.659,0,0,0-.714.482c.1-.253.214-.5.331-.743.049-.1-.1-.193-.154-.09-.133.255-.266.511-.378.777a2.516,2.516,0,0,0-.139.343,4.669,4.669,0,0,0-.643.717c-.959,1.335-.984,2.972-1.194,4.534-.327,2.427-.951,5.576-3.456,6.688-.09.04-.18.074-.27.105.039-.708.032-1.418.075-2.126.046-.767.124-1.533.208-2.3a40.655,40.655,0,0,1,.65-4.068,21.265,21.265,0,0,1,2.823-7.337c1.1-1.679,3.483-4.291,5.515-2.32a5.741,5.741,0,0,1,.962,1.358,11.29,11.29,0,0,1,.82,1.85,39.727,39.727,0,0,1,1.129,4.061c.379,1.632.777,3.259,1.1,4.9.26,1.346.525,2.69.8,4.031a5.581,5.581,0,0,1-.8-.938m3.986,1.757a.347.347,0,0,0-.183.313q-.112.008-.224.01a3.688,3.688,0,0,0,.3-.62c.112-.254.233-.5.359-.746-.077.35-.168.695-.256,1.043m.387-1.754c-.229.394-.463.787-.662,1.2-.138.285-.311.571-.422.871a3.7,3.7,0,0,1-.4-.045c-.085-.015-.168-.033-.25-.054.113-.211.2-.44.311-.649.182-.343.385-.674.6-1,.32-.5.65-.992.953-1.5-.028.4-.068.79-.127,1.183m.157-1.706c-.384.666-.842,1.283-1.263,1.925-.213.325-.418.655-.6,1a3.8,3.8,0,0,0-.313.669,3.991,3.991,0,0,1-.806-.38q-.042-.305-.085-.61c.178-.132.25-.515.324-.68.257-.57.584-1.1.891-1.638s.577-1.071.9-1.587a10.205,10.205,0,0,0,.868-1.468c.046-.111-.145-.192-.2-.082a11.425,11.425,0,0,1-.88,1.359c-.321.492-.608,1.006-.893,1.52-.273.492-.573.964-.822,1.47-.089.181-.178.362-.249.551-.006.015-.011.034-.017.055q-.065-.446-.133-.892l.012-.031c.114-.287.239-.57.37-.85.248-.529.522-1.045.774-1.572a26.306,26.306,0,0,1,1.756-3.134c.072-.109-.1-.206-.174-.1a21.932,21.932,0,0,0-1.849,3.146c-.254.527-.528,1.043-.775,1.573q-.1.217-.2.438-.06-.376-.123-.752c.337-.195.4-.8.517-1.128a15.591,15.591,0,0,1,.876-1.96c.3-.588.589-1.183.887-1.772a6.319,6.319,0,0,1,.891-1.5c.092-.1-.054-.247-.149-.149a5.28,5.28,0,0,0-.815,1.249c-.321.6-.63,1.209-.94,1.816-.292.571-.594,1.131-.833,1.727-.178.445-.271.969-.488,1.405q-.084-.484-.176-.967-.055-.288-.113-.575a.107.107,0,0,0,.14-.035,14.519,14.519,0,0,0,.621-1.558c.21-.484.441-.959.664-1.437s.469-.964.714-1.441.559-.894.795-1.367c.053-.106-.1-.2-.16-.094-.253.464-.587.876-.843,1.339-.277.5-.534,1.017-.781,1.536-.237.5-.48.988-.695,1.495a5.8,5.8,0,0,0-.493,1.377q-.138-.668-.287-1.332l.012-.031a16.494,16.494,0,0,1,.908-1.825c.339-.614.652-1.242.977-1.864.333-.638.75-1.243,1.037-1.9.047-.108-.11-.2-.16-.094-.255.55-.625,1.032-.916,1.561-.279.508-.543,1.025-.817,1.536s-.579,1.037-.85,1.566c-.1.2-.2.4-.293.6q-.12-.524-.241-1.049a1.077,1.077,0,0,0,.1-.217c.087-.212.174-.423.263-.634.176-.417.341-.837.544-1.242.25-.5.5-1,.761-1.5a2.909,2.909,0,0,1,.658-1.1c.081-.059.007-.193-.08-.136a2.31,2.31,0,0,0-.659.915c-.274.5-.559,1-.821,1.511-.237.463-.431.933-.634,1.411-.078.182-.156.363-.231.546l0,0q-.073-.313-.145-.626l-.065-.278a7.392,7.392,0,0,1,.34-.865,9.389,9.389,0,0,0,.446-.9,11.411,11.411,0,0,1,.517-1.135c.179-.341.407-.655.581-1,.046-.092-.089-.172-.138-.081-.194.355-.451.67-.644,1.025a10.981,10.981,0,0,0-.506,1.078c-.155.376-.373.714-.551,1.079-.05.1-.105.213-.154.327q-.148-.623-.308-1.244a3.981,3.981,0,0,0,.331-.805c.13-.339.279-.668.421-1a4.633,4.633,0,0,1,.876-1.607c.063-.061-.031-.153-.1-.1a4.251,4.251,0,0,0-.94,1.555c-.126.289-.263.573-.383.865-.092.225-.224.477-.306.73q-.137-.513-.288-1.021a1.011,1.011,0,0,0,.24-.434c.1-.258.215-.506.326-.759a7.427,7.427,0,0,1,.774-1.485c.082-.111-.1-.215-.185-.108a7.423,7.423,0,0,0-.8,1.472c-.095.207-.2.409-.289.62-.05.123-.114.248-.166.375-.067-.216-.135-.432-.207-.646q-.04-.119-.081-.239a2.476,2.476,0,0,0,.24-.507c.116-.251.249-.494.383-.737.258-.468.532-.927.767-1.407.055-.112-.11-.211-.169-.1-.267.506-.586.98-.877,1.472a8.217,8.217,0,0,0-.389.732c-.029.062-.058.124-.085.186-.083-.224-.171-.448-.266-.671a3.514,3.514,0,0,0,.212-.47,4.593,4.593,0,0,1,.315-.617,9.819,9.819,0,0,0,.8-1.185c.049-.11-.109-.208-.165-.1a11.8,11.8,0,0,1-.887,1.2,4.5,4.5,0,0,0-.438.809q-.116-.249-.245-.49c.025-.065.046-.133.073-.2a3.725,3.725,0,0,1,.29-.594,5.675,5.675,0,0,0,.6-.968c.044-.12-.142-.166-.189-.052a11.313,11.313,0,0,1-.732,1.07,4.187,4.187,0,0,0-.221.433q-.1-.164-.2-.322c.012-.038.02-.078.032-.125a2.453,2.453,0,0,1,.2-.519,5.026,5.026,0,0,1,.512-.788c.066-.085-.079-.2-.15-.116a4.621,4.621,0,0,0-.62.863,2.315,2.315,0,0,0-.177.393c-.107-.145-.218-.286-.337-.421a2.339,2.339,0,0,1,.152-.384,2.9,2.9,0,0,1,.59-.778c.085-.077-.039-.2-.124-.124a3.163,3.163,0,0,0-.711.869c-.035.062-.073.13-.108.2a3.8,3.8,0,0,0-.378-.328,2.79,2.79,0,0,1,.137-.28,3.757,3.757,0,0,1,.471-.661.093.093,0,0,0-.131-.131,3.7,3.7,0,0,0-.583.735c-.034.057-.072.121-.107.187a3.385,3.385,0,0,0-.4-.221c.035-.088.066-.177.1-.249.122-.234.267-.446.408-.668.062-.1-.086-.177-.152-.089a6.05,6.05,0,0,0-.457.639c-.043.077-.1.169-.144.265-.1-.036-.193-.067-.292-.093.132-.282.44-.571.393-.891A.077.077,0,0,0,18.032,14c-.1.316-.345.56-.456.869a2.886,2.886,0,0,0-1.319.059,6.086,6.086,0,0,0-2.937,2.185,14.915,14.915,0,0,0-1.6,2.468.043.043,0,0,0-.041-.006c-.429.157-.719.583-1.068.863a13.815,13.815,0,0,0-1.306,1.234c-.439.455-.886.9-1.326,1.355-.157.161-.332.326-.506.5,0-.1,0-.2,0-.3,0-.234,0-.467-.014-.7a1.276,1.276,0,0,1,.18-.255c.173-.19.371-.349.554-.528.469-.457.883-.971,1.353-1.43s.965-.928,1.467-1.365c.3-.258.6-.5.923-.734.242-.174.433-.448.742-.505.044-.008.033-.078-.01-.077a1.167,1.167,0,0,0-.663.285c-.292.212-.594.409-.876.635-.613.491-1.193,1.041-1.759,1.586-.508.488-.953,1.05-1.476,1.52-.121.109-.3.253-.458.418a19.9,19.9,0,0,0-.245-2.038c.382-.36.7-.807,1.063-1.185.381-.4.77-.791,1.172-1.168.425-.4.861-.786,1.267-1.2a3.959,3.959,0,0,1,1.143-.971c.116-.052.015-.218-.1-.169a3.814,3.814,0,0,0-1.145.927c-.415.419-.864.8-1.3,1.2s-.824.793-1.22,1.205a8.5,8.5,0,0,0-.94,1.057Q7.075,19.38,7,19.024q-.036-.167-.072-.333c.017-.022.034-.044.051-.065a4.957,4.957,0,0,1,.537-.529,13.492,13.492,0,0,0,1.04-.942c.847-.907,1.8-1.71,2.715-2.541.088-.079-.042-.208-.13-.13-.97.864-1.982,1.683-2.873,2.63-.325.345-.718.616-1.07.932-.1.091-.225.2-.342.323q-.092-.408-.186-.816l.048-.069c.161-.227.328-.451.5-.667a16.963,16.963,0,0,1,1.173-1.228c.425-.429.852-.855,1.3-1.263a5.11,5.11,0,0,1,1.247-1.054c.11-.046.066-.228-.051-.184a3.964,3.964,0,0,0-1.082.819c-.51.435-.991.9-1.468,1.374-.422.416-.857.807-1.237,1.264-.178.214-.347.435-.511.66q-.089-.387-.176-.774a5.33,5.33,0,0,1,.481-.608c.317-.35.663-.676,1-1.008.846-.837,1.722-1.642,2.6-2.443.095-.086-.045-.225-.14-.14-.935.831-1.875,1.657-2.767,2.535-.342.337-.7.663-1.011,1.026-.076.088-.16.184-.241.286-.078-.359-.152-.718-.22-1.078a5.769,5.769,0,0,1,.5-.626c.349-.388.729-.747,1.1-1.118q.6-.6,1.191-1.212a5.858,5.858,0,0,1,1.186-1.124c.11-.062.012-.228-.1-.169A5.584,5.584,0,0,0,8.8,11.8q-.666.651-1.329,1.306c-.393.389-.8.764-1.168,1.182-.082.094-.173.2-.263.308-.048-.279-.093-.558-.131-.839l.036-.053a6.628,6.628,0,0,1,.516-.622c.314-.346.611-.712.934-1.048.349-.363.771-.648,1.119-1.007A6.666,6.666,0,0,1,9.588,9.933c.094-.061.008-.212-.089-.152a5.6,5.6,0,0,0-1.056,1.027c-.378.406-.867.7-1.254,1.1-.358.373-.7.769-1.046,1.155-.087.1-.186.2-.282.316-.038-.324-.067-.649-.086-.976.016-.03.032-.06.05-.088a5.532,5.532,0,0,1,.5-.667c.3-.347.62-.669.939-1a23.676,23.676,0,0,1,2.146-2.1c.076-.06-.026-.194-.1-.136a21.728,21.728,0,0,0-2.328,2.169,12.336,12.336,0,0,0-1.048,1.135c-.051.065-.111.137-.172.216q0-.121,0-.242c0-.288,0-.587.014-.891.079-.1.163-.2.25-.293.3-.323.618-.629.938-.928.373-.349.767-.684,1.151-1.021a6.163,6.163,0,0,0,1.011-.912c.047-.065-.062-.15-.112-.086a2.973,2.973,0,0,1-.6.5c-.2.15-.386.314-.576.472-.406.338-.818.679-1.2,1.041-.282.265-.573.522-.834.808q.019-.256.049-.513c.054-.1.106-.2.16-.285a12.624,12.624,0,0,1,.84-1.15A9.76,9.76,0,0,1,8.793,6.588c.064-.044.006-.147-.062-.105A8.871,8.871,0,0,0,6.678,8.274c-.262.306-.509.626-.74.956q.041-.215.093-.426a2.9,2.9,0,0,1,.422-.686c.254-.3.541-.559.821-.83.192-.185.36-.385.538-.583.2-.219.463-.564.77-.607.06-.008.045-.107-.014-.105-.6.016-1.018.747-1.413,1.116-.284.265-.578.523-.84.811a4.466,4.466,0,0,1,.753-1.252A3.327,3.327,0,0,1,9.831,5.561a12.032,12.032,0,0,1,1.994.4c.664.152,1.323.328,1.991.465a11.313,11.313,0,0,0,3.169.2c-.064.067-.129.133-.192.2-.114.124-.309.314-.246.5a.062.062,0,0,0,.09.037.5.5,0,0,0,.163-.2,3.161,3.161,0,0,1,.253-.328,2.335,2.335,0,0,0,.172-.23c.2-.019.4-.042.6-.071.14-.02.279-.043.418-.066-.043.045-.084.091-.122.14a2.385,2.385,0,0,0-.525.752.06.06,0,0,0,.074.074c.256-.078.444-.455.6-.656.1-.125.207-.245.313-.369.307-.057.613-.121.919-.186-.077.073-.153.141-.221.2a1.989,1.989,0,0,0-.635.855c-.039.113.092.179.181.139a.416.416,0,0,0,.1-.053.063.063,0,0,0,0-.108l0,0a6.847,6.847,0,0,1,.945-1.113c.389-.085.778-.172,1.167-.252-.078.08-.153.163-.224.248-.171.205-.491.5-.5.782a.078.078,0,0,0,.1.075c.239-.089.391-.42.541-.612a4.01,4.01,0,0,1,.52-.58l.2-.038c.226-.041.456-.08.688-.113-.19.219-.358.452-.565.667-.133.138-.479.433-.395.66a.094.094,0,0,0,.088.067c.066,0,.092-.069.126-.113.109-.141.207-.285.33-.417.268-.287.466-.619.731-.907.281-.035.565-.062.849-.075q-.258.262-.5.54a2.481,2.481,0,0,0-.559.761.072.072,0,0,0,.1.08,2.343,2.343,0,0,0,.671-.7c.188-.232.374-.465.572-.688a7.29,7.29,0,0,1,.918.04c-.182.194-.386.367-.585.548a2.369,2.369,0,0,0-.7.919.066.066,0,0,0,.1.073c.36-.214.583-.632.887-.914A6.281,6.281,0,0,0,25.01,5.6c.124.02.247.042.368.07.094.022.186.048.276.076a6.349,6.349,0,0,1-.642.655,2.076,2.076,0,0,0-.66.886.075.075,0,0,0,.108.083c.334-.182.566-.61.835-.878a4.808,4.808,0,0,0,.588-.666,3.588,3.588,0,0,1,.564.276,9.631,9.631,0,0,1-.825,1.012,1.889,1.889,0,0,0-.559.909.077.077,0,0,0,.115.066,5.771,5.771,0,0,0,.775-.938,8.045,8.045,0,0,0,.7-.915,3.653,3.653,0,0,1,.518.44,6.206,6.206,0,0,0-.762.878A3.8,3.8,0,0,0,25.721,8.6a.075.075,0,0,0,.108.083,2.684,2.684,0,0,0,.7-.86,6.468,6.468,0,0,1,.8-.97,4.016,4.016,0,0,1,.366.5.122.122,0,0,0-.046.038,13.538,13.538,0,0,1-1.039,1.2c-.273.286-.665.583-.753.99-.011.053.05.119.1.079a6.621,6.621,0,0,0,.949-1c.306-.365.626-.716.906-1.1q.056.1.106.2a5.591,5.591,0,0,1,.488,1.668.129.129,0,0,0-.028.021c-.391.385-.817.754-1.182,1.164-.2.222-.545.492-.562.811a.07.07,0,0,0,.105.06,4.734,4.734,0,0,0,.735-.774c.314-.335.643-.657.967-.984a8.539,8.539,0,0,1,.037,1.024,5.672,5.672,0,0,1-.762.925,4.339,4.339,0,0,0-.875.951.067.067,0,0,0,.09.091,4.176,4.176,0,0,0,1.044-.934,6.833,6.833,0,0,0,.48-.563q-.009.126-.02.25c-.019.207-.048.411-.082.614a.14.14,0,0,0-.074.051q-.324.428-.679.831a3.4,3.4,0,0,0-.568.7.071.071,0,0,0,.1.1,2.646,2.646,0,0,0,.735-.69q.2-.228.386-.464c-.1.431-.216.856-.341,1.281q-.115.125-.234.247a3.316,3.316,0,0,0-.641.7.069.069,0,0,0,.094.094,2.485,2.485,0,0,0,.631-.539c-.082.278-.163.556-.238.837a.1.1,0,0,0-.044.027,3.375,3.375,0,0,0-.555.765.049.049,0,0,0,.076.059c.148-.147.284-.305.423-.46a16.541,16.541,0,0,0-.545,3.88c-.01,1.39.108,2.777.195,4.163.085,1.352.137,2.711.162,4.065.013.708.017,1.42-.013,2.13M32.35,8.6c-.025.451-.073.9-.117,1.351-.15,1.535-.32,3.068-.492,4.6a5.154,5.154,0,0,0-1.557,1.469.045.045,0,0,0,.061.061,5.342,5.342,0,0,0,.818-.749,7.513,7.513,0,0,1,.657-.586v0q-.038.338-.077.676a5.314,5.314,0,0,1-.82.764,3.333,3.333,0,0,0-.781.933c-.022.048.026.116.08.08a7.554,7.554,0,0,0,1.029-1.012c.142-.141.311-.273.453-.424l-.074.656c-.247.256-.518.482-.783.72a2.211,2.211,0,0,0-.649.775.062.062,0,0,0,.09.069,6.6,6.6,0,0,0,.766-.708c.182-.171.364-.342.538-.521q-.1.923-.211,1.845c-.185.14-.383.264-.555.421-.2.186-.413.371-.613.56a.063.063,0,0,0,.044.106c.279.037.488-.231.656-.415a4.066,4.066,0,0,1,.434-.391q-.04.346-.08.692a3.812,3.812,0,0,0-1.326,1.257.064.064,0,0,0,.087.087,4.037,4.037,0,0,0,.781-.677c.134-.119.277-.226.42-.333l-.1.83h0a2.631,2.631,0,0,1-.629.627,1.231,1.231,0,0,0-.495.591.055.055,0,0,0,.08.062,6.437,6.437,0,0,0,.669-.548,4.1,4.1,0,0,0,.322-.289l-.09.761a.088.088,0,0,0-.085.025,3.154,3.154,0,0,0-.561.565.05.05,0,0,0,.068.068,2.984,2.984,0,0,0,.55-.42q-.064.54-.127,1.08c-.126.117-.274.218-.393.335a2.845,2.845,0,0,0-.554.631.05.05,0,0,0,.068.068,3.165,3.165,0,0,0,.676-.6c.053-.053.111-.1.17-.157l-.068.565a2.546,2.546,0,0,1-.489.576c-.149.137-.367.27-.434.469a.058.058,0,0,0,.055.073,1.118,1.118,0,0,0,.572-.4c.085-.086.166-.175.242-.268l-.07.58a.088.088,0,0,0-.047.044,2.522,2.522,0,0,1-.354.5c-.135.152-.317.266-.445.422a.053.053,0,0,0,.037.089c.215.012.4-.2.533-.349a3.206,3.206,0,0,0,.226-.283q-.028.235-.056.469c-.011.088-.022.177-.033.265a.122.122,0,0,0-.119.047,2.666,2.666,0,0,1-.4.421c-.126.106-.318.179-.4.322a.067.067,0,0,0,.04.1c.191.041.371-.123.508-.236a2.712,2.712,0,0,0,.335-.335q-.037.294-.074.587a.123.123,0,0,0-.03.013,3.263,3.263,0,0,0-.5.405,1.4,1.4,0,0,0-.4.463c-.018.046.033.079.072.072a.958.958,0,0,0,.457-.32,4.1,4.1,0,0,1,.371-.327l-.039.3q-.034.267-.07.534c0,.028-.013.108,0-.023,0,.034-.008.069-.012.1a.136.136,0,0,0-.144.13c-.023.437-.629.58-.776.96a.067.067,0,0,0,.081.081,1.847,1.847,0,0,0,.618-.426A1.644,1.644,0,0,0,30.037,29q-.047.362-.118.721a5.909,5.909,0,0,1-1.293,2.934,3.047,3.047,0,0,1-1.226.787,10.372,10.372,0,0,0,.407-1.571,18.149,18.149,0,0,0,.189-2.1c.049-1.422-.046-2.842-.137-4.26-.092-1.436-.29-2.862-.407-4.3a11.862,11.862,0,0,1,.267-4.414c.42-1.358,1.013-2.646,1.3-4.045a9.724,9.724,0,0,0,.036-4.021,5.2,5.2,0,0,0-1.884-3.09,5.439,5.439,0,0,0-3.363-.866c-2.763.027-5.382,1.269-8.154,1.13a11.7,11.7,0,0,1-2.1-.35c-.7-.165-1.406-.312-2.1-.5a5.174,5.174,0,0,0-3.872.182c-1.721.906-2.341,2.951-2.55,4.751a19.846,19.846,0,0,0,.644,6.888c.333,1.393.7,2.78.909,4.2a19.208,19.208,0,0,1,.144,3.373l-.009.017a.106.106,0,0,0,.005.1c-.011.335-.027.668-.045,1-.081,1.518-.218,3.033-.266,4.553a9.545,9.545,0,0,0,.322,3.525,3.751,3.751,0,0,0,.308.656,4.251,4.251,0,0,1-1.188-.8,5.849,5.849,0,0,1-.539-.585c.011-.022.023-.044.035-.063.094-.153.191-.3.273-.465.067-.131-.13-.247-.2-.116-.079.153-.171.3-.262.445q-.142-.194-.267-.4c.118-.226.279-.423.4-.65.064-.125-.122-.235-.189-.11-.1.18-.239.341-.345.519-.017-.033-.036-.065-.052-.1s-.031-.064-.046-.1l-.006-.013-.009-.024q-.052-.137-.1-.276a1.156,1.156,0,0,1,.069-.171,2.889,2.889,0,0,1,.463-.62.11.11,0,0,0-.155-.155,3.391,3.391,0,0,0-.483.6q-.08-.279-.149-.561a1.1,1.1,0,0,1,.053-.1,4.1,4.1,0,0,1,.546-.69c.107-.11-.061-.279-.169-.169a4.514,4.514,0,0,0-.51.615q-.063-.279-.117-.561c.05-.1.087-.2.129-.3a1.657,1.657,0,0,1,.405-.629c.114-.1-.052-.263-.166-.166a1.66,1.66,0,0,0-.409.592l-.038.082q-.071-.395-.133-.791c.057-.107.1-.228.157-.32a3.393,3.393,0,0,1,.448-.579c.093-.1-.053-.244-.147-.148a3.661,3.661,0,0,0-.467.587l-.051.078c-.039-.256-.078-.511-.117-.765a4.73,4.73,0,0,1,.588-.924c.1-.092-.048-.238-.149-.149a2.284,2.284,0,0,0-.461.611L3.654,27q-.063-.418-.124-.836c.075-.1.157-.188.237-.281a1.675,1.675,0,0,0,.443-.774.048.048,0,0,0-.093-.026,2.454,2.454,0,0,1-.625.817q-.063-.439-.124-.878a2.982,2.982,0,0,0,.452-.539c.228-.312.443-.632.69-.93.1-.118-.067-.289-.171-.171-.223.252-.424.52-.627.788-.122.161-.265.319-.395.484q-.058-.425-.114-.849a2.858,2.858,0,0,1,.313-.466,6.129,6.129,0,0,0,.6-.731c.071-.111-.1-.21-.176-.1-.174.257-.54.547-.8.864l-.055-.422c.177-.179.333-.385.5-.571a3.83,3.83,0,0,0,.543-.739c.068-.129-.126-.243-.2-.114a4.34,4.34,0,0,1-.648.832c-.08.088-.163.175-.238.267q-.042-.331-.084-.663l.008-.006a1.452,1.452,0,0,0,.222-.3,2.839,2.839,0,0,1,.311-.358,2.357,2.357,0,0,0,.5-.634c.064-.14-.14-.263-.209-.122a3.081,3.081,0,0,1-.623.718,1.714,1.714,0,0,0-.258.318q-.054-.435-.107-.87a1.751,1.751,0,0,1,.259-.328c.184-.193.392-.362.58-.551a.1.1,0,0,0-.146-.146,10.07,10.07,0,0,0-.734.691q-.044-.363-.088-.725c.089-.112.166-.239.244-.348a8.171,8.171,0,0,0,.477-.732.1.1,0,0,0-.174-.1,7.938,7.938,0,0,1-.468.683c-.037.049-.079.1-.121.15l-.124-1.031c.023-.041.046-.082.073-.12a3.188,3.188,0,0,1,.838-.856c.1-.064.008-.219-.091-.156a3.438,3.438,0,0,0-.859.8l-.085-.709a2.764,2.764,0,0,1,.194-.273,2.081,2.081,0,0,0,.537-.828.07.07,0,0,0-.135-.037,2.83,2.83,0,0,1-.634.832q-.041-.336-.082-.672l.029-.043a5.534,5.534,0,0,1,.767-1c.108-.1-.048-.246-.157-.157a4.233,4.233,0,0,0-.686.811q-.049-.4-.1-.8L2.119,15c.172-.24.351-.476.508-.727.073-.118-.109-.222-.185-.108-.114.172-.239.335-.365.5L2.019,14.2c.073-.116.143-.233.216-.336a3.584,3.584,0,0,0,.456-.791c.038-.1-.131-.173-.174-.073a4.2,4.2,0,0,1-.543.826h0q-.05-.395-.1-.789l.06-.072a2.3,2.3,0,0,0,.526-.881c.015-.058-.075-.1-.1-.042a2.7,2.7,0,0,1-.522.723c-.106-.784-.222-1.566-.365-2.343-.109-.594-.295-1.154-.438-1.74a6.82,6.82,0,0,1,.156-4.2A5.687,5.687,0,0,1,4.23,1.494,9.124,9.124,0,0,1,8.375.937c.132.009.264.02.4.032L8.758.987a.751.751,0,0,0-.218.461.054.054,0,0,0,.091.038,2.87,2.87,0,0,0,.364-.464l.022-.03q.242.025.484.056L9.347,1.2c-.116.118-.288.265-.289.442a.057.057,0,0,0,.084.048.7.7,0,0,0,.209-.2c.076-.087.156-.17.232-.258.044-.052.087-.1.127-.157q.24.033.48.069c-.029.048-.058.1-.09.143-.148.213-.376.419-.33.7a.064.064,0,0,0,.106.028,4.882,4.882,0,0,0,.407-.578,1.756,1.756,0,0,0,.138-.255q.339.054.677.114c-.109.15-.259.283-.358.422a2.762,2.762,0,0,0-.386.821.067.067,0,0,0,.1.075c.305-.207.367-.576.578-.861a3.644,3.644,0,0,0,.292-.418l.569.1a6.634,6.634,0,0,1-.573.783c-.15.176-.342.365-.244.613a.065.065,0,0,0,.116.015c.3-.461.667-.884.926-1.37l.678.123a.108.108,0,0,0-.063.05c-.149.246-.318.478-.474.72a1.283,1.283,0,0,0-.266.64.057.057,0,0,0,.1.04,3.086,3.086,0,0,0,.41-.591c.148-.229.3-.457.43-.695a.107.107,0,0,0-.036-.147c.3.053.6.1.9.152-.163.206-.333.406-.477.627s-.329.511-.214.778a.065.065,0,0,0,.112,0c.15-.264.227-.548.4-.8.133-.193.281-.374.42-.562.246.037.491.071.737.1-.094.147-.193.292-.291.437a1.507,1.507,0,0,0-.367.731.084.084,0,0,0,.126.073,2.407,2.407,0,0,0,.472-.668c.116-.179.23-.358.338-.541q.42.045.842.071c-.085.117-.166.237-.242.356a1.577,1.577,0,0,0-.237.479.285.285,0,0,0,.073.279.1.1,0,0,0,.161-.067c0,.077.01,0,.027-.044s.028-.1.047-.153a2.9,2.9,0,0,1,.244-.463c.077-.125.157-.25.243-.372q.406.016.812.007c-.28.353-.728.815-.477,1.109a.094.094,0,0,0,.131,0c.086-.082.081-.176.12-.284a1.574,1.574,0,0,1,.25-.4,3.364,3.364,0,0,0,.3-.434c.265-.013.531-.035.8-.068h.108a4.85,4.85,0,0,0-.394.507c-.077.127-.264.349-.2.509a.141.141,0,0,0,.169.1l.016,0a.1.1,0,0,0,.077-.1.052.052,0,0,0,0,.018.794.794,0,0,0,.051-.118c.05-.094.1-.19.154-.282.13-.226.316-.415.456-.636.318-.016.635-.049.951-.095-.225.3-.587.564-.656.931a.145.145,0,0,0,.21.161.24.24,0,0,0,.129-.169.07.07,0,0,0,0-.021,3.317,3.317,0,0,1,.27-.406,3.032,3.032,0,0,0,.352-.506.137.137,0,0,0,.013-.04c.322-.054.642-.119.961-.188a.149.149,0,0,0-.028.031c-.25.377-.662.628-.818,1.069-.038.107.085.241.2.2a.345.345,0,0,0,.224-.264.073.073,0,0,0-.007-.055c.182-.289.461-.515.64-.808a.128.128,0,0,0-.085-.195c.365-.08.728-.165,1.089-.246a6.368,6.368,0,0,0-.782.907c-.107.11,0,.336.16.275l.039-.017h0l0,0a.231.231,0,0,0,.093-.078c.286-.273.381-.716.735-.923a.129.129,0,0,0,.009-.218l.011,0q.4-.086.8-.165c-.359.287-.977.976-.554,1.086a.126.126,0,0,0,.124-.033.724.724,0,0,0,.087-.2,1.436,1.436,0,0,1,.191-.3,1.33,1.33,0,0,1,.439-.425.125.125,0,0,0,.042-.188q.467-.085.937-.15c-.178.273-.459.484-.623.763a.152.152,0,0,0,.207.207,1.96,1.96,0,0,0,.5-.543A1.994,1.994,0,0,0,24.7.857q.4-.047.8-.075-.165.206-.325.415c-.113.148.121.3.247.19A2.751,2.751,0,0,0,25.9.761q.39-.015.781-.005a1.58,1.58,0,0,0-.338.449.146.146,0,0,0,.253.148,5.994,5.994,0,0,1,.462-.581c.243.014.486.037.728.07-.071.187-.166.443-.018.59a.071.071,0,0,0,.1,0,.494.494,0,0,0,.119-.263c.023-.1.049-.191.078-.286a6.333,6.333,0,0,1,2.323.836A4.279,4.279,0,0,1,32.3,4.966,20.26,20.26,0,0,1,32.35,8.6" transform="translate(0.001 0.001)" fill="#005fa6" stroke="#005fa6" stroke-width="0.2"/>
      </g>
    </g>
  </g>
</svg>
