<svg xmlns="http://www.w3.org/2000/svg" xmlns:xlink="http://www.w3.org/1999/xlink" width="580" height="465" viewBox="0 0 580 465">
  <defs>
    <clipPath id="clip-Špičkové_vybavenie">
      <rect width="580" height="465"/>
    </clipPath>
  </defs>
  <g id="Špičkové_vybavenie" data-name="Špičkové vybavenie" clip-path="url(#clip-Špičkové_vybavenie)">
    <rect width="580" height="465" fill="#fff"/>
    <g id="Group_3457" data-name="Group 3457" transform="translate(-84.759 738.667)">
      <g id="Layer_7" data-name="Layer 7">
        <rect id="Rectangle_1477" data-name="Rectangle 1477" width="667.758" height="428.543" transform="translate(61.759 -738.667)" fill="#ffea80"/>
      </g>
      <g id="Layer_8" data-name="Layer 8">
        <path id="Path_11815" data-name="Path 11815" d="M64.51-362.389l187.743-18.568,161.61-2.751H560.343l189.806,6.189L738.937-270.573,61.759-253.838Z" fill="#ffda3e"/>
      </g>
      <g id="Layer_9" data-name="Layer 9">
        <path id="Path_11816" data-name="Path 11816" d="M237.811-367.662s18.11-15.588,18.568-17.422S266.7-396.775,266.7-396.775s10.086,7.565,17.421,5.273,16.964-8.023,16.734-10.086,35.532,9.857,40.575,13.3,18.568,10.545,18.568,10.545l19.255,10.315-88.942,1.147S241.02-365.14,237.811-367.662Z" fill="#ffeea6"/>
      </g>
      <g id="Layer_10" data-name="Layer 10">
        <path id="Path_11817" data-name="Path 11817" d="M300.85-402.047s34.615,8.482,39.429,13.525c8.481,3.438,38.052,20.631,38.052,20.631h33.7s.229-.688,1.146-8.252S375.81-404.568,371-408.924s-57.308-24.986-62.122-24.757-6.419,1.6-6.419,1.6,5.272,9.628,2.292,18.8S300.85-402.047,300.85-402.047Z" fill="#ffda3e"/>
      </g>
      <g id="Layer_11" data-name="Layer 11">
        <path id="Path_11818" data-name="Path 11818" d="M371.569-408.122l-.344-59.142,7.565-1.375s-18.568-12.723-19.6-18.568,4.814-13.41,24.07-13.754,22.35,6.877,22.35,6.877-.344,24.069-5.157,25.1,8.252-.688,8.252-.688l-1.032-35.76-23.381,2.75-1.032-3.094,1.719-.688-3.438-16.161,9.284-1.719,2.063,16.161,14.442-2.063s-4.814-9.972-7.565-13.067-11.347-9.971-11.347-9.971l2.407-1.376s17.192,8.253,21.318,20.975-2.406,113.471,1.376,142.011c-.688,3.094,4.126-6.534-17.537-22.351C377.071-407.09,371.569-408.122,371.569-408.122Z" fill="#ffeea6"/>
        <path id="Path_11819" data-name="Path 11819" d="M362.49-483.91S349.6-495.773,378.478-499.9s27.335,7.737,27.335,7.737S383.12-478.237,362.49-483.91Z" fill="#ffda3e"/>
      </g>
      <g id="Layer_14" data-name="Layer 14">
        <path id="Path_11820" data-name="Path 11820" d="M442.239-460.04c-3.261-48.233-4.965-97.107-4.965-97.107l3.61-60.859-2.063-9.283h-5.158c2.063,4.642-2.063,70.142-2.063,70.142v13.41c-.47,1.143-11.832-11.882-18.567-23.725-6.329-11.131-5.1-66.55-4.641-66.532,0,0,2.949-10.124-6.22-10.124-27.508-3.668-85.734,16.963-92.611,22.007a25.38,25.38,0,0,0-3.438,13.754c-12.378,2.578-14.807,15.623-14.807,15.623s-7.658.652-11.784,5.925c-4.814,6.418-.917,9.054,3.209,10.086-5.043,6.418-3.439,11,3.418,10.293,4.147,2.315,4.147,10.109,5.981,10.8s3.438.459,5.96-4.355c16.046-2.522,12.451-19.637,10.752-20.882,0,0,1-1.01,4.606-8.231,2.522-8.481-3.209-17.192-3.209-17.192s-.366-11.2,2.729-14.29c28.9-12.76,78.878-16.657,87.162-11.863-3.928,6.439-2.651,68.737-1.548,68.08,9.412,13.814,20.721,26.12,33.008,37.649l-.515,159.367s21.145,3.1,23.724,0C453.52-375.685,446.414-416.947,442.239-460.04ZM310.364-593.228s-2.866,10.659-4.241,6.648-9.17-6.19-9.17-6.19a80.069,80.069,0,0,1,2.522-7.908c1.261-3.1,6.762-4.929,6.762-4.929s.23,4.47.8,4.47S310.364-593.228,310.364-593.228Z" fill="#ffeea6"/>
      </g>
      <g id="Layer_4" data-name="Layer 4">
        <path id="Path_11821" data-name="Path 11821" d="M432.978-526.146c-6.3-5.983-12.559-11.911-18.329-18.426-2.788-3.147-5.47-6.381-8.1-9.66-2.35-2.93-4.469-6.143-6.912-9.01a.6.6,0,0,0,0-.094c-.605-5.9-1.529-11.749-1.953-17.672q-.65-9.084-.406-18.2c.156-5.925.6-11.838,1.293-17.725q.5-4.25,1.188-8.474c.364-2.231,1.017-4.573,1.21-6.87a5.566,5.566,0,0,0,5.5-.129c3.476-2.233,3.642-7.544,1.294-10.641a4.877,4.877,0,0,0-5.06-2.085,4.144,4.144,0,0,0-.4.14c-.259-.663-.891-.451-1.392-.033a62.565,62.565,0,0,0-9.134.369q-5.041.353-10.058.964-10.185,1.239-20.238,3.364a234.11,234.11,0,0,0-38.789,11.8c-3.514,1.412-6.984,2.938-10.417,4.539-1.251.583-4.1,1.795-4.124,3.461-1.8,2.7-2.248,6.686-2.491,9.841-.072.925-.117,1.878-.132,2.839a16.8,16.8,0,0,0-7.581,3.279c-3.315,2.535-5.963,6.483-6.119,10.746a.689.689,0,0,0,.088.38c-7.616.751-15.713,5.468-14.862,13.638.04.39.706.382.7-.021-.086-9.911,13.14-14.277,21.162-11.588a12.745,12.745,0,0,1,6.7,5.544,51.8,51.8,0,0,1-4.832,3.772c-.236.173.008.491.252.409a17.108,17.108,0,0,0,5.3-2.934q.426.8.789,1.641c.289.673.546,1.359.791,2.048a11.224,11.224,0,0,1-6.358,3.24c-.575.078-.413.907.145.875a11.347,11.347,0,0,0,6.686-2.7q.339,1.065.643,2.141a27.24,27.24,0,0,1,1.015,4.476.4.4,0,0,0-.124.258,11.934,11.934,0,0,1-1.72,5.816,17.625,17.625,0,0,1-3.5,4.121c-2.345,1.937-7.19,2.859-8.74-.388.456-4.578-1.322-9.794-5-12.67-3.883-3.039-8.946-1.222-12.923-3.775a.251.251,0,0,0-.342.359c2.189,3.3,7.272,1.938,10.435,3.333,5.328,2.35,5.876,8.108,6.984,13.079a.423.423,0,0,0,.534.314c1.543,2.887,5.56,3.376,8.4,1.761a16.111,16.111,0,0,0,5.214-5.348,11.637,11.637,0,0,0,1.77-3.924.6.6,0,0,0,.163-.223c1.038-2.439.107-5.043-.608-7.449-.3-1.02-.619-2.038-.968-3.044a21.661,21.661,0,0,0,5.123-10.571c.7-3.621.635-7.678-1.119-11.006-.6-1.145-1.5-2.694-2.778-3.245a41.018,41.018,0,0,1,.338-6.634c.419-2.675,1.5-5.06,2.2-7.623,5.445-1.531,10.705-3.762,16.14-5.365,5.476-1.614,11.013-3.014,16.609-4.148A187.5,187.5,0,0,1,380.275-633c6.433-.1,12.874.607,19.29.462a48.123,48.123,0,0,0-1.367,6.962q-.781,4.543-1.339,9.121c-.717,5.881-1.116,11.8-1.251,17.727q-.2,8.668.389,17.332a124.525,124.525,0,0,0,2,16.908.384.384,0,0,0-.159.545q.219.405.452.8l.005.023a.7.7,0,0,0,.248.4,89.664,89.664,0,0,0,6.786,9.068c2.739,3.453,5.628,6.793,8.585,10.06a190.018,190.018,0,0,0,18.459,18.256C432.889-524.9,433.438-525.709,432.978-526.146ZM400.615-640.8a.542.542,0,0,0,.417-.561,2.657,2.657,0,0,1,3.732-2.336,5.307,5.307,0,0,1,2.687,3.1c.838,2.257.5,5.345-1.526,6.886a4.306,4.306,0,0,1-4.906.008c0-.087,0-.173,0-.26-.011-.334-.338-.4-.589-.3a3.049,3.049,0,0,1-.408-.639c-.666-1.429.025-3.329.344-4.759Zm-107.6,47.283a.745.745,0,0,0,.057-.167,15.574,15.574,0,0,1,5.9-9.607,15.766,15.766,0,0,1,3.994-2.176,18.578,18.578,0,0,0-3.042,2.9,14.892,14.892,0,0,0-3.572,9.159A19.822,19.822,0,0,0,293.016-593.522Zm13.637,6.6a14.268,14.268,0,0,0-8.283-6.117c-.336-.086-.683-.159-1.036-.224a17.075,17.075,0,0,1,3.657-8.222,15.6,15.6,0,0,1,3.283-2.972,13.914,13.914,0,0,1,1.308-.766,23.156,23.156,0,0,0,.522,3.764.706.706,0,0,0,.238.974l.024.019c.018.062.034.125.053.187a.413.413,0,0,0,.544.292,8.346,8.346,0,0,1,2.07,9.27A11.677,11.677,0,0,1,306.653-586.919Zm4.974-15.6a11.174,11.174,0,0,1,1.036,2.076,13.907,13.907,0,0,1,.846,3.767,20.578,20.578,0,0,1-1.143,8.462,19.863,19.863,0,0,1-3.295,6.016c-.246-.628-.508-1.249-.8-1.86-.254-.539-.527-1.067-.82-1.579a12.755,12.755,0,0,0,3.4-5.592c1.032-3.714.006-8.517-3.549-10.545-.126-1.408-.26-2.795-.342-4.186.182-.1.361-.205.538-.315.666-.024,1.334-.039,2.013-.072h.008c.025.219.05.438.083.655a1.915,1.915,0,0,0-1.573,1.609c-.157.782,1.119,1.09,1.365.333.112-.342.3-.444.525-.4.012.047.023.1.036.142a.521.521,0,0,0,.691.317A7.76,7.76,0,0,1,311.627-602.516ZM398.542-635.9a4.168,4.168,0,0,0,.88,2.35c-5.54-1.048-11.485-.9-17.1-.862q-8.5.061-16.968.881a185.643,185.643,0,0,0-34.216,6.561c-5.865,1.72-12.135,3.475-17.587,6.315a.567.567,0,0,0-1.025-.263c-1.677,2.2-2.333,5.336-2.772,8.021a25.468,25.468,0,0,0-.333,5.261,9,9,0,0,0-2.525-.311,28.12,28.12,0,0,1,.107-2.9,37.612,37.612,0,0,1,.765-4.869c.276-1.211.67-2.369.911-3.57a.249.249,0,0,0,.34-.268c-.436-1.9,2.453-2.815,3.722-3.381q2.305-1.029,4.635-2.009,4.22-1.774,8.5-3.406,8.913-3.4,18.083-6.063a238.475,238.475,0,0,1,36.751-7.6q5.168-.646,10.359-1.1c2.952-.26,6.037-.239,9-.625a33.139,33.139,0,0,0-.728,3.327A16.026,16.026,0,0,0,398.542-635.9Z" fill="#477c91"/>
        <path id="Path_11822" data-name="Path 11822" d="M434.824-542.252c-1.292-1.779-3.463-3.126-5.085-4.616q-2.829-2.6-5.444-5.418-2.481-2.67-4.784-5.505-1.056-1.3-2.066-2.628c-.173-.228-.852-.993-1.384-1.729a10.918,10.918,0,0,0-1.1-3.293q-.765-1.98-1.425-4a89.035,89.035,0,0,1-2.445-9.138,120.82,120.82,0,0,1-2.363-18.371c-.357-6.286-.307-12.583-.112-18.873.1-3.086.236-6.17.4-9.253a60.075,60.075,0,0,0,.235-9.024c-.046-.463-.661-.358-.751.022a58.567,58.567,0,0,0-.956,9.776c-.189,3.08-.352,6.163-.467,9.247-.232,6.217-.23,12.453.124,18.666a119.381,119.381,0,0,0,2.439,18.662q.922,4.236,2.236,8.374.735,2.313,1.6,4.579c.2.522.379,1.071.6,1.594-.13,1.033.9,2.256,1.507,3.091a90.4,90.4,0,0,0,5.7,7.11q2.91,3.255,6.1,6.246c1.974,1.858,4.194,4.408,6.7,5.485A.65.65,0,0,0,434.824-542.252Z" fill="#477c91"/>
        <path id="Path_11823" data-name="Path 11823" d="M297.074-560.033c-.863,1.254-1.336,2.929-2.789,3.663-2.325,1.173-3.152-1.024-3.408-2.819-.315-2.209-.813-4.077-2.5-5.674a8.329,8.329,0,0,0-5.544-2.189c-1.1-.074-2.087-.049-2.4-1.5a7.164,7.164,0,0,1,.21-2.587,15.58,15.58,0,0,1,2.195-4.875c.238-.4-.257-1.011-.648-.618a10.412,10.412,0,0,0-2.515,4.673c-.359,1.339-.815,3.355-.108,4.677.616,1.153,1.964,1.36,3.138,1.5a7.129,7.129,0,0,1,5.323,2.705c1.718,2.309.7,6.742,3.644,8.086,3.1,1.413,5.76-2.029,6.392-4.66C298.192-560.2,297.364-560.454,297.074-560.033Z" fill="#477c91"/>
      </g>
      <g id="Layer_15" data-name="Layer 15">
        <path id="Path_11824" data-name="Path 11824" d="M392.2-613.4c.843-.138,20.347,60.776,20.459,59.143,22.351-6.361,77.2-3.611,87.338-.344a232.077,232.077,0,0,1,3.1-61.893s-41.606-4.642-64.3-1.891A259.242,259.242,0,0,0,392.2-613.4Z" fill="#ffda3e"/>
      </g>
      <g id="Layer_3" data-name="Layer 3">
        <path id="Path_11825" data-name="Path 11825" d="M503.85-616.888c.065-.509.124-1.018.183-1.528a4.068,4.068,0,0,1-1.145-.363q-.213.848-.4,1.7c-3.77-.513-7.551-.917-11.3-1.26-9.54-.873-19.124-1.176-28.7-1.128-7.062.035-14.121.259-21.174.592a61.115,61.115,0,0,0-1.565-7.994.6.6,0,0,0-.192-.96c-2.132-.887-5.288-.16-7.522,0-.6.043-.578.964-.033,1.074.241,1.208.787,2.354,1.069,3.556.328,1.4.485,2.818.74,4.228a.4.4,0,0,0,.783-.024,11.857,11.857,0,0,0-1.426-7.64,17.5,17.5,0,0,0,5.625.126,60.835,60.835,0,0,0,1.146,7.7q-2.719.134-5.437.285c-9.474.534-18.989,1.013-28.424,2.052-2.635.291-5.266.627-7.887,1.029-1.3.2-2.64.366-3.92.679a2.45,2.45,0,0,0-1.395.634,1.78,1.78,0,0,0-.3.487c-.268-.252-.765.06-.634.479,3.1,9.979,6.708,19.8,10.014,29.711,1.633,4.9,3.23,9.806,4.861,14.7q1.221,3.671,2.418,7.348a64.421,64.421,0,0,0,2.623,7.615.485.485,0,0,0,.921-.229c6.136-.553,12.229-1.548,18.366-2.124-.054,4.715.075,9.447.1,14.152.038,6.287.109,12.573.16,18.86q.153,19.033.181,38.068.055,37.727-.379,75.45-.123,10.631-.284,21.262c-.106,7.023-.365,14.065-.092,21.085.023.572.921.55,1.027.029a.45.45,0,0,0,.149.1c4.1,1.62,9,1.8,13.356,1.7a46.3,46.3,0,0,0,8.454-.816.362.362,0,0,0,.537.117,1.443,1.443,0,0,0,.36-.325,18.5,18.5,0,0,0,3.467-1.22.47.47,0,0,0-.269-.887c-.874.1-1.742.264-2.609.443a6.867,6.867,0,0,0,.038-1,4.839,4.839,0,0,0-.455-1.892.824.824,0,0,0,.246-.783c-4.281-24-7.838-48.112-10.5-72.344s-4.47-48.544-5.477-72.9c-.547-13.211-.557-26.436-1.04-39.645q6.418-.423,12.854-.527a268.289,268.289,0,0,1,38.1,2.124c4.075.52,8.111,1.266,12.148,2a4.2,4.2,0,0,1-.012-1.958c-.356-.059-.713-.118-1.07-.174.144-2.4-.081-4.891-.141-7.282-.067-2.665-.114-5.329-.109-7.994.011-5.446.144-10.889.471-16.326.321-5.327.829-10.636,1.456-15.936.505-4.277,1.269-8.524,1.861-12.788l.511.084a4.293,4.293,0,0,1,.308-1.324C504.274-616.824,504.062-616.858,503.85-616.888ZM439.072-485.31q2.568,36.639,7.684,73.039,2.874,20.446,6.558,40.771a.863.863,0,0,0,.86.734,6.357,6.357,0,0,1,.143,1.777,4.625,4.625,0,0,1-.258,1.122c-.8.17-1.6.334-2.4.458a51.176,51.176,0,0,1-6.791.617c-4.313.083-8.4-.78-12.654-1.2a.425.425,0,0,0-.3.084c.914-12.3.667-24.752.826-37.077q.246-19.032.367-38.065.238-37.722-.012-75.446c-.047-7.087-.082-14.176-.192-21.262-.086-5.489-.058-11.017-.282-16.515q2.034-.177,4.071-.321c-.351,11.464.075,22.979.463,34.434Q437.774-503.718,439.072-485.31ZM500.36-603.252c-.668,5.4-1.114,10.84-1.409,16.276s-.441,10.891-.361,16.337q.054,3.75.216,7.5a56.6,56.6,0,0,0,.622,7.8c-2.426-.375-4.854-.7-7.251-1.032q-9.624-1.333-19.33-1.916a258.384,258.384,0,0,0-34.788.231c0-.078-.005-.156-.008-.233-.029-.741-1.281-.7-1.309.039,0,.1-.006.2-.01.293q-1.287.1-2.572.216l-1.6.145c-.053-1.087-.113-2.173-.192-3.257-.045-.623-1.074-.592-1.1.033-.05,1.115-.079,2.233-.1,3.352a123.651,123.651,0,0,0-18.5,2.8,68.464,68.464,0,0,0-2.038-7.158q-1.053-3.478-2.129-6.951c-1.561-5.04-3.22-10.049-4.917-15.045-3.311-9.743-6.617-19.526-10.629-29.007.459.152,1.086-.031.872-.471-.034-.07-.161-.04-.137.042-.241-.846,2.131-.875,2.688-.955.875-.125,1.751-.249,2.627-.367q3.286-.441,6.588-.763,5.945-.59,11.9-.986,11.38-.777,22.779-1.322c.092.282.189.561.3.835a.422.422,0,0,0,.8-.129c.008-.252.007-.505,0-.759l.605-.029c16.463-.734,32.986-.919,49.413.606,3.638.338,7.242.8,10.83,1.343C501.376-611.647,500.874-607.409,500.36-603.252Z" fill="#477c91"/>
      </g>
      <g id="pitie">
        <path id="Path_11826" data-name="Path 11826" d="M409.046-465.63a.262.262,0,0,0,.361-.2,22.563,22.563,0,0,0,.117-5.4q-.042-2.71-.107-5.419c-.084-3.556-.153-7.106-.31-10.659-.317-7.169-.545-14.425-1.347-21.561.313-.086.622-.181.924-.291a.779.779,0,0,0-.238-1.475,30.577,30.577,0,0,0-6.2.845q-3.476.607-6.939,1.284c-.452.087-.909.171-1.369.255a.6.6,0,0,0,0-.06c-.594-5.124-.849-10.529-2.133-15.544.61-.421.355-1.535-.491-1.364-1.728.35-3.367,1.013-5.113,1.329-1.729.314-3.478.489-5.21.779a.422.422,0,0,0,.024.831l.116.019a81.4,81.4,0,0,0,1.508,8.482q.418,2.005.841,4.01c.253,1.206.279,2.577,1.168,3.481l.01.009c-.339.1-.674.215-1.007.33a.42.42,0,0,0-.429.155c-.277.1-.554.2-.826.312-.61.247-.259,1.052.311,1.025.194-.01.387-.024.581-.037.04.224.083.448.123.672a7.878,7.878,0,0,0,.333,1.505l-.162.016c-.406.039-.3.645.1.621a170.238,170.238,0,0,0,21.109-2.741.4.4,0,0,0-.132-.8c-6.682,1.285-13.417,2.17-20.187,2.827a.224.224,0,0,0,.009-.039,7.8,7.8,0,0,0-.2-1.539c-.034-.2-.067-.4-.1-.6,3.931-.391,7.89-1.515,11.746-2.227q3.139-.579,6.286-1.113c1.387-.236,2.861-.384,4.282-.664.334,7.045,1.015,14.081,1.369,21.129.181,3.607.391,7.216.529,10.825q.1,2.707.183,5.417c.016.547.009,1.117,0,1.692a.5.5,0,0,0-.29-.038c-2,.3-4,.59-5.993.91-.536.086-1.09.156-1.648.232a.779.779,0,0,0-.423-1,30.554,30.554,0,0,0,5.074-10.092,35.977,35.977,0,0,0,1.45-6.705c.26-2.223.6-4.943-.043-7.122a.632.632,0,0,0-.079-.163,4.443,4.443,0,0,0-.166-.834c-1.365-4.554-7.858-4.586-11.652-4.977a59.133,59.133,0,0,0-16.922.51.443.443,0,0,0,.145.874A86.34,86.34,0,0,1,390.62-498q2.687.174,5.36.509a25.073,25.073,0,0,1,6.253,1.186c2.137.87,3.765,3.286,1.65,5.164a17.8,17.8,0,0,1-4.688,2.5,61.317,61.317,0,0,1-10.488,3.518,61.182,61.182,0,0,1-21.913,1.252,14.011,14.011,0,0,1-5.143-1.511,30.936,30.936,0,0,1-2.422-4.487c.385-2.7,3.46-4.834,5.767-5.827a72.849,72.849,0,0,1,11.822-3.506,43.5,43.5,0,0,1,13.491-1.374.29.29,0,0,0,.061-.577,40.55,40.55,0,0,0-14.383.962,64.441,64.441,0,0,0-11.995,3.505c-3.065,1.368-6.252,4.021-6.188,7.694a5.566,5.566,0,0,0,2.492,4.42c3.053,5.663,8.43,10.129,13.747,13.512a50.737,50.737,0,0,0,4.415,2.525c-.594.053-1.186.108-1.771.146-1.61.107-3.255.135-4.866.322-.121-.505-1.014-.475-1.009.09v.05l-.124.019c-.236.041-.239.419.012.431l.119,0c.114,9.881.739,19.752.749,29.643.01,10.064-.348,20.11-.828,30.161-.045.927,1.387,1.088,1.442.152.594-10.154.765-20.342.723-30.512-.041-9.755-.024-19.71-1.017-29.428,1.413-.015,2.834-.156,4.239-.234,1.238-.068,2.515-.069,3.775-.152a29.91,29.91,0,0,0,7.373,2.329c3.731.633,8.917.521,12.247-1.813.99-.1,1.982-.281,2.93-.4,2.007-.246,4.01-.521,6.013-.787a.611.611,0,0,0,.121-.03c.006.429.025.856.064,1.277a.453.453,0,0,0-.691.211,5.666,5.666,0,0,0,.077,3.331c-11.569.494-23.109-.323-34.669-.51-.582-.01-.7.855-.1.913,11.777,1.158,23.706.738,35.518.8a.634.634,0,0,0,.633-.876A10.772,10.772,0,0,1,409.046-465.63ZM385.425-506.5c.387-1.165-.1-2.346-.355-3.529q-.468-2.169-.938-4.339c-.564-2.586-1.1-5.207-1.906-7.734a17.835,17.835,0,0,0,8.656-1.281c-.1,5.092.807,10.319,1.339,15.361,0,.028.011.052.016.078C389.959-507.544,387.644-507.126,385.425-506.5Zm13.016,37.559a23.71,23.71,0,0,1-4.574,1.259,22.274,22.274,0,0,1-6.642-.126,35.358,35.358,0,0,1-12.7-5.432,44,44,0,0,1-11.219-9.84c3.73,1.223,7.984,1.258,11.854,1.213a64.189,64.189,0,0,0,12.924-1.451A63.486,63.486,0,0,0,401-487.615a14.744,14.744,0,0,0,4.461-2.753,31.871,31.871,0,0,1-.052,3.748,33.949,33.949,0,0,1-1.337,6.642,35.006,35.006,0,0,1-2.434,5.921C400.7-472.266,399.492-470.657,398.441-468.945Z" fill="#477c91"/>
        <path id="Path_11827" data-name="Path 11827" d="M414.064-462.91a.629.629,0,0,0,.076-.254c.535-5.993.206-12.156.255-18.171.048-5.877.218-11.768.074-17.643a46.634,46.634,0,0,0-2.312-14.8,30.05,30.05,0,0,0-7.7-11.445,67.182,67.182,0,0,0-13.357-9.5l.03-.042a.34.34,0,0,0-.486-.463,9.294,9.294,0,0,0-1.19.963c-.211.2-.444.4-.659.617-.079-.051-.157-.1-.236-.155a.46.46,0,0,0-.544.74l.306.237a.49.49,0,0,0,.506.39,61.034,61.034,0,0,1,9.852,9.113,53.217,53.217,0,0,1,4.061,5.557c.671,1.057,1.292,2.142,1.9,3.236a7.7,7.7,0,0,0,1.53,2.386.105.105,0,0,0,.166-.073c-.014-1.873-1.7-4.044-2.662-5.6a53.7,53.7,0,0,0-4.315-6.054,49.248,49.248,0,0,0-9.672-9.178c.166-.177.325-.363.484-.53.094-.1.183-.2.27-.3,7.591,5.331,15.955,10.469,19.712,19.387,2.074,4.924,2.614,10.355,2.742,15.649.132,5.433-.029,10.878-.083,16.311-.063,6.424-.531,13-.077,19.41a.587.587,0,0,0,.19.4q-1.356,34.567-.564,69.179c.157,7.166-.018,14.514.729,21.644a.639.639,0,0,0,1.261-.038c.161-6.445-.406-12.969-.562-19.416q-.237-9.714-.316-19.431-.159-19.266.23-38.529Q413.848-456.11,414.064-462.91Z" fill="#477c91"/>
      </g>
      <g id="Layer_12" data-name="Layer 12">
        <path id="Path_11828" data-name="Path 11828" d="M392.1-438.8c1.1-.8,2.39-.3,3.637-.39a8.418,8.418,0,0,0,5.31-2.706,4.184,4.184,0,0,0,.378-5.569,7.608,7.608,0,0,1-1.616-2.9c-24.841-11.722-47.724-21.952-48.184-21.028-26,1.18-50.978,4.2-74.616,9.628,0,0-22.006,9.284-24.757,15.817s-4.814,8.6-4.126,11.691a727.459,727.459,0,0,1,98.341-20.631s27.131,9.161,45.453,16.26A.858.858,0,0,1,392.1-438.8Z" fill="#ffda3e"/>
      </g>
      <g id="Layer_13" data-name="Layer 13">
        <path id="Path_11829" data-name="Path 11829" d="M248.47-434.6c1.368-.061-5.146,15.771-3.782,18.912,1.562,3.6,38.511-9.972,38.511-9.972l56.736-18.224,33.009.688,1.032-2.751-27.852-9.972Z" fill="#ffeea6"/>
        <path id="Path_11830" data-name="Path 11830" d="M249.158-442.163s-3.438-6.189-1.719-7.221-45.045,4.814-51.578-59.142c6.877-25.789,27.508.344,37.48,2.063,4.814-5.5,4.126-19.943,6.533-21.319,0,0,5.158-5.157,16.161,11.691s14.1,49.515,14.1,49.515l-.688,7.908S250.534-446.289,249.158-442.163Z" fill="#ffda3e"/>
        <path id="Path_11831" data-name="Path 11831" d="M225.662-516.435a13.779,13.779,0,0,1-9.17-6.647c-3.667-5.96-11.232-5.5-9.857-13.067s9.628-10.544,13.525-10.086,14.9,2.522,15.13,16.963S225.662-516.435,225.662-516.435Z" fill="#ffda3e"/>
        <path id="Path_11832" data-name="Path 11832" d="M223.6-510.7s-8.253,9.857,3.209,23.841,13.525,15.129,13.525,15.129-20.173-32.551-11.233-35.76A22.963,22.963,0,0,1,223.6-510.7Z" fill="#ffeea6"/>
        <path id="Path_11833" data-name="Path 11833" d="M234.831-508.411l1.146-4.814s10.545,5.731,13.754,23.152A64.959,64.959,0,0,0,234.831-508.411Z" fill="#ffeea6"/>
        <path id="Path_11834" data-name="Path 11834" d="M253.628-416.374s11,29.915,32.322,24.585,18.568-31.634,18.568-31.634l-1.891-8.08Z" fill="#ffeea6"/>
      </g>
      <g id="kreslo">
        <path id="Path_11835" data-name="Path 11835" d="M258.129-378.49c-.022,0-.026.034,0,.034S258.151-378.49,258.129-378.49Z" fill="#477c91"/>
        <path id="Path_11836" data-name="Path 11836" d="M257.651-378.553c-.1,0-.12.16-.016.16S257.755-378.553,257.651-378.553Z" fill="#477c91"/>
        <path id="Path_11837" data-name="Path 11837" d="M414.116-368.272c-5.693-.241-11.418-.05-17.115-.031q-8.734.03-17.47.093c-11.425.08-22.849.229-34.273.355-22.946.254-45.891.626-68.838.847-12.4.12-24.833-.013-37.166-1.453a127.927,127.927,0,0,0,13.22-11.85,129.346,129.346,0,0,0,13.4-14.76c.4-.533-.374-1.326-.868-.827-4.7,4.739-9.126,9.729-13.877,14.42-4.53,4.474-9.478,8.538-13.967,13.045l-.008.008c-.224.225-.452.445-.674.673a.508.508,0,0,0,.639.789l.084-.058a.9.9,0,0,0,.446.188,244.749,244.749,0,0,0,34.162,1.748c11.5-.05,23.009-.257,34.513-.4,23.083-.286,46.17-.5,69.252-.911,6.4-.115,12.807-.215,19.21-.362,6.445-.149,12.928-.076,19.361-.508C414.714-367.3,414.686-368.247,414.116-368.272Z" fill="#477c91"/>
        <path id="Path_11838" data-name="Path 11838" d="M372.962-443.869a52.829,52.829,0,0,0-8.792-.3c-2.939-.021-5.879-.024-8.819-.035s-5.88-.039-8.82-.03c-2.149.007-4.745-.313-6.911.192a.491.491,0,0,0-.293-.024c-5.946,1.2-11.8,3.561-17.571,5.407L303.422-432.8q-18.008,5.758-36.017,11.508l-10.148,3.248c-2.188.7-4.447,1.332-6.65,2.079a.563.563,0,0,0-.232-.061c-1.092-.014-2.218.65-3.315.448-1.779-.327-1.183-2.9-1.038-4.247a30.466,30.466,0,0,1,2.536-9.18c.232-.517-.582-.982-.882-.486-2.237,3.7-4.008,8.488-3.664,12.9.244,3.13,4.11,3.819,6.336,2.185a6.9,6.9,0,0,1,.993-.58c1.481-.457,2.951-.959,4.409-1.418l8.858-2.786q9.186-2.889,18.37-5.785,18.039-5.687,36.081-11.368l10.169-3.2a100.5,100.5,0,0,0,10.414-3.488.512.512,0,0,0,.2-.151c2.273.525,4.981.226,7.232.27,2.937.057,5.874.084,8.81.126s5.874.1,8.81.122a50.333,50.333,0,0,0,8.3-.152A.535.535,0,0,0,372.962-443.869Z" fill="#477c91"/>
        <path id="Path_11839" data-name="Path 11839" d="M250.37-425.943c1.669,12.348,7.64,25.809,18.9,32.106a26.759,26.759,0,0,0,17.27,3.386,21.313,21.313,0,0,0,14.07-9.308c.317-.474.612-.961.9-1.454a255.152,255.152,0,0,1,29.539,9.411q7.453,3,14.654,6.6c2.394,1.2,4.759,2.458,7.117,3.725,2.414,1.3,4.792,2.875,7.311,3.942.517.219.853-.491.455-.826a49.208,49.208,0,0,0-7.3-4.605c-2.206-1.262-4.457-2.442-6.727-3.584q-7.321-3.681-14.947-6.7a152.25,152.25,0,0,0-29.677-8.725,30.739,30.739,0,0,0,2.648-6.856,25.748,25.748,0,0,0,.971-9.5,27.573,27.573,0,0,0-.493-6.105,28.671,28.671,0,0,0-2.112-7.433c-.116-.245-.551-.139-.475.144a62.281,62.281,0,0,1,1.409,7.209,30.254,30.254,0,0,1-.129,5.751c-.517,2.617-.6,5.271-1.212,7.89a31.209,31.209,0,0,1-2.791,7.584,19.325,19.325,0,0,1-12.429,10.05c-11.588,2.691-22.629-4.6-28.5-14.167-3.636-5.925-5.567-12.587-7.47-19.208A1.854,1.854,0,0,0,250.37-425.943Z" fill="#477c91"/>
        <path id="Path_11840" data-name="Path 11840" d="M413.678-377.889c-.92-3.218-3.591-5.531-6.089-7.571A218.788,218.788,0,0,0,388.4-399.48a230.926,230.926,0,0,0-41.325-21.331,160.224,160.224,0,0,0-25.043-7.87c-.356-.076-.493.506-.152.62,13.739,4.613,27.325,9.338,40.364,15.728a235.523,235.523,0,0,1,37.261,22.821,114.315,114.315,0,0,1,9.157,7.27c2.736,2.52,5.648,7.433,2.023,10.556-.793.683.222,1.944,1.024,1.265A7.079,7.079,0,0,0,413.678-377.889Z" fill="#477c91"/>
        <path id="Path_11841" data-name="Path 11841" d="M397.747-452.567q-6.029-2.834-12.112-5.549-8.9-3.96-17.974-7.525c-5.906-2.311-12.033-4.957-18.269-6.205-.494-.1-.59.611-.2.807,4.815,2.395,10.075,4.058,15.074,6.042,4.831,1.917,9.618,3.939,14.389,6q7.053,3.045,14.016,6.293c2.811,1.961,8.272,3.845,8.21,7.736-.081,5-7.244,6.566-11.059,4.593-.7-.29-10.756-4.389-16.19-6.45-4.639-1.759-9.3-3.465-14-5.052a114.552,114.552,0,0,0-14.111-4.267.532.532,0,0,0-.56.742,654.511,654.511,0,0,0-76.49,15.029c-6.681,1.746-13.467,3.4-20.017,5.615a21.076,21.076,0,0,1,1.207-4.849,20.443,20.443,0,0,1,2.814-4.279,42.707,42.707,0,0,1,7.632-7.086,81.609,81.609,0,0,1,8.671-5.451c2.848-1.6,5.891-3,8.6-4.831a.471.471,0,0,0,.205-.585c5.865-.714,11.674-1.959,17.513-2.87q8.965-1.4,17.99-2.375t18.086-1.51q4.7-.276,9.4-.437c1.718-.059,3.437-.093,5.155-.145a10.545,10.545,0,0,0,3.658-.42.521.521,0,0,0-.023-.95,11.351,11.351,0,0,0-4.134-.259c-1.417.037-2.833.093-4.249.151q-4.7.193-9.391.5-9.386.618-18.737,1.675T294.213-465.9a131.5,131.5,0,0,0-17.838,3.718.2.2,0,0,0-.136.124,63.579,63.579,0,0,0-9.745,4.72,67.523,67.523,0,0,0-9.133,6.1,39.725,39.725,0,0,0-7.4,7.6c-1.735,2.415-3.85,6.211-2.557,9.237a.456.456,0,0,0,.307.834c6.389-1.45,12.689-3.343,19.049-4.925s12.761-3.085,19.166-4.517q19.058-4.262,38.331-7.5,11.031-1.852,22.117-3.348a.754.754,0,0,0,.65-.513c3.634,1.386,7.409,2.461,11.08,3.734q6.114,2.119,12.185,4.368c6.556,2.446,13.056,5.043,19.512,7.744,1.8.918,9.534,2.723,12.422-5.381C403.547-450.007,399.335-451.554,397.747-452.567Z" fill="#477c91"/>
        <path id="Path_11842" data-name="Path 11842" d="M267.757-486.769a93.018,93.018,0,0,0-6.047-19.554,62.327,62.327,0,0,0-10.063-15.951c-2.577-2.914-8.869-10.251-12.7-5.024-1.7,2.32-1.676,5.693-2.13,8.4-.7,4.2-1.836,8.252-2.866,12.366-4.818-1.007-8.453-3.643-12.157-6.785-3.444-2.923-7.032-5.845-11.521-6.943a10.162,10.162,0,0,0-10.3,2.942c-3,3.375-3.941,8.257-3.938,12.64.007,9,3.135,18.5,6.944,26.583,3.6,7.646,8.683,14.784,15.492,19.888,8.154,6.112,18.469,8.4,28.524,8.944-.416,3.2.947,6.7,2.437,9.426,1.64,3,4.361,6.647,7.723,7.806.3.1.605-.256.377-.516-1.13-1.291-2.517-2.318-3.65-3.619a22.777,22.777,0,0,1-3.106-4.564c-1.4-2.724-1.786-5.6-2.536-8.473.42.017.839.033,1.257.044a.33.33,0,0,0,.069-.657q-.775-.1-1.551-.205c-.051-.177-.1-.354-.159-.531a.325.325,0,0,0-.594.015c-.04.133-.069.269-.1.4-8.8-1.15-17.57-2.295-25.263-7.171-6.851-4.343-12.118-10.76-15.953-17.843a75.119,75.119,0,0,1-8.126-23.912c-.756-4.854-.815-10.184,1.386-14.7a9.189,9.189,0,0,1,11.6-4.964c4.785,1.514,8.257,5.05,12.016,8.171,3.2,2.657,7,5.393,11.346,5.226a.481.481,0,0,0,.364-.162.494.494,0,0,0,.127-.188,44.486,44.486,0,0,0,1.9-6.3,32.452,32.452,0,0,1,10.309,12.827c.111.237.535.134.459-.14a22.334,22.334,0,0,0-10.664-13.142c.816-3.639,1.344-7.34,2.111-11.014a6.779,6.779,0,0,1,1.6-3.6c1.594-1.48,3.688-.518,5.174.612a38.593,38.593,0,0,1,6.162,6.243c7.778,9.436,12.071,21.159,14.559,33,.776,3.692,1.388,7.416,1.9,11.153s.786,7.525,1.5,11.219c.092.475.9.5.894-.027C270.5-472.118,269.191-479.642,267.757-486.769Z" fill="#477c91"/>
        <path id="Path_11843" data-name="Path 11843" d="M236.176-529.7a19.148,19.148,0,0,0-4.375-11.852,16.209,16.209,0,0,0-11.253-5c-6.481-.336-13.052,3.372-13.75,9.721a.182.182,0,0,0-.224.112c-1.307,3.2.6,6.215,2.871,8.534.019.023.036.047.055.07a9.045,9.045,0,0,0,1.57,1.444c.1.09.209.179.312.266a54.012,54.012,0,0,1,5.366,5.048,24.286,24.286,0,0,0,4.421,4.139c.041.027.084.049.125.076a6.5,6.5,0,0,0,3.1,1.61.259.259,0,0,0,.288-.291,9.119,9.119,0,0,0,7.155-1.963C235.391-520.565,236.376-525.417,236.176-529.7Zm-2.983,7.154c-1.7,3.7-5.839,6.625-9.953,4.978a11.456,11.456,0,0,1-3.093-1.925c-.847-1.11-1.621-2.306-2.524-3.348a16.808,16.808,0,0,0-3.989-3.049,32.613,32.613,0,0,1-4.643-4.468,10.614,10.614,0,0,1-.412-9.02c1.455-3.281,4.776-5.167,8.2-5.742a16.709,16.709,0,0,1,10.693,1.824c3.532,1.961,5.589,5.577,6.445,9.436C234.726-530.2,234.783-526,233.193-522.542Z" fill="#477c91"/>
        <path id="Path_11844" data-name="Path 11844" d="M223.371-508.2c-.022,0-.026.034,0,.034S223.393-508.2,223.371-508.2Z" fill="#477c91"/>
        <path id="Path_11845" data-name="Path 11845" d="M223.417-508.591l-.363-.318c-.041-.036-.1.029-.066.07l.319.364A.08.08,0,1,0,223.417-508.591Z" fill="#477c91"/>
        <path id="Path_11846" data-name="Path 11846" d="M222.606-510.188a10.371,10.371,0,0,0-1.459,7.879c.042.211.4.225.4-.012a18.825,18.825,0,0,1,1.662-7.535A.348.348,0,0,0,222.606-510.188Z" fill="#477c91"/>
        <path id="Path_11847" data-name="Path 11847" d="M233.673-479.273a56.387,56.387,0,0,1-11.932-17.6.145.145,0,0,0-.265.119,52.509,52.509,0,0,0,12.1,17.589C233.633-479.113,233.73-479.215,233.673-479.273Z" fill="#477c91"/>
      </g>
      <path id="Path_11848" data-name="Path 11848" d="M572.266-506.922c-1.915,2.323-3.15,5.373-4.453,8.066q-2.19,4.528-4.2,9.141c-2.471,5.678-4.791,11.47-6.744,17.353a.631.631,0,0,0-.592.234l-.055.071a.451.451,0,0,0-.242.132h0c-2.12-.329-4.231-.762-6.339-1.143-.545-.1-1.1-.219-1.667-.343a.561.561,0,0,0-.345-.89c-3.129-.617-6.833.283-9.975.654-.644.076-1.288.16-1.932.239q1.063-4.125,2.392-8.113a18.421,18.421,0,0,1,2.371-.488c-.392,1.041-.762,2.091-1.067,3.152-.048.014-.1.027-.146.043-.279.091-.241.464-.036.6-.084.323-.163.646-.232.971a.171.171,0,0,0,.3.118c.193-.327.377-.661.555-1,1,.072,1.99.107,2.975.162-.013.092-.028.183-.036.276a.171.171,0,0,0,.3.118c.1-.117.19-.238.276-.362a22.816,22.816,0,0,1,3.36.437c-.071.213-.14.428-.213.641-.223.66.8,1.055,1.006.394.081-.256.166-.513.248-.77a49.015,49.015,0,0,1,6.546,2.938c.688.315,1.076-.637.6-1.078a16.069,16.069,0,0,0-6.717-3.171q.4-1.217.81-2.436c.535.171,1.075.336,1.631.478a.373.373,0,0,0,.355-.644,8.113,8.113,0,0,0-1.6-.992c.426-1.277.849-2.556,1.255-3.838q.811.12,1.638.239a.35.35,0,0,0,.2-.032c-.014.038-.031.074-.043.113-.176.589.006,1.627.718,1.8.751.183,1.553-.688,1.834-1.277.317-.663.428-1.777-.272-2.241a.408.408,0,0,0-.636.39,2.683,2.683,0,0,1,.076,1.313,1.372,1.372,0,0,1-.768.844.97.97,0,0,1,.468-1.387c.246-.063.278-.466-.014-.479a1.328,1.328,0,0,0-1.134.511.354.354,0,0,0-.24-.317,15.412,15.412,0,0,0-1.52-.454c.328-1.067.642-2.136.93-3.21.448.1.9.207,1.338.324.371.1.6-.429.224-.57-.46-.171-.921-.316-1.383-.442.11-.426.22-.852.321-1.28.078-.328-.436-.425-.559-.136-.172.408-.337.82-.5,1.232a16.305,16.305,0,0,0-2.316-.344c.13-.386.255-.773.368-1.164a.258.258,0,0,0-.48-.188c-.235.429-.454.868-.667,1.31a18.655,18.655,0,0,0-3.022.157,11.854,11.854,0,0,0,.372-1.917.179.179,0,0,0-.319-.124,12.844,12.844,0,0,0-1.315,2.244,24.229,24.229,0,0,0-2.588.656c1.371-3.415,2.857-6.8,4.433-10.177.382-.818.768-1.635,1.151-2.453a.417.417,0,0,0,.266.061,57.343,57.343,0,0,0,5.98-1.289c2-.419,4.02-.752,6.049-1.02,1.921-.255,3.847-.461,5.781-.585,2.122-.136,4.33.033,6.427-.307a.51.51,0,0,0-.03-1.006,25.042,25.042,0,0,0-5.977-.078c-2.149.11-4.3.3-6.43.6-3.742.525-8.185,1.064-11.648,2.737q2.49-5.307,4.991-10.608c2.275-4.834,5-9.679,6.737-14.74.346-.051.693-.1,1.038-.156.615-.1.629-1.122-.034-1.134a99.867,99.867,0,0,0-11.7.832c-4.047.4-8.086.9-12.116,1.446-2.393.326-4.782.684-7.168,1.057a20.254,20.254,0,0,0,.08-2.133.472.472,0,0,0-.654-.472,3.338,3.338,0,0,0-1.853,1.829q.006-.625,0-1.25a.44.44,0,0,0-.784-.3,8.772,8.772,0,0,0-1.652,3.116q-4.122.7-8.23,1.472a4.2,4.2,0,0,0-.673-2.29.473.473,0,0,0-.656-.069,4.38,4.38,0,0,0-.665.608.456.456,0,0,0-.732-.214,6.954,6.954,0,0,0-1.61,2.815q-5.946,1.206-11.852,2.6a7.326,7.326,0,0,0-.726-3.095.574.574,0,0,0-.975-.1,11.56,11.56,0,0,0-1.376,2.674c-.018-.362-.039-.723-.066-1.085a.5.5,0,0,0-.886-.211,16.282,16.282,0,0,0-1.5,3.171q-6.518,1.642-12.977,3.507c.12-.936.224-1.874.293-2.816.015-.2-.211-.42-.415-.3a4.918,4.918,0,0,0-1.895,1.827c-.06-.847-.354-1.559-1.259-1.261-.7.229-1.028,1.337-1.278,1.881-.345.752-.656,1.52-.941,2.3q-4.846,1.48-9.653,3.086c-.535.179-1.069.363-1.6.545.309-.994.624-1.986.952-2.974a.475.475,0,0,0-.267-.61,2.126,2.126,0,0,0-1.819.207c.059-.637.094-1.28.1-1.931a.526.526,0,0,0-.6-.566c-2.364.383-3,3.482-3.666,5.375q-.467,1.322-.884,2.658-2.463.884-4.916,1.8c-4.1,1.535-8.777,2.847-12.456,5.256-.157.1-.026.361.147.327.288-.058.575-.123.862-.193a97.127,97.127,0,0,0-.641,12.671,39.307,39.307,0,0,0,.2,5.752,27.661,27.661,0,0,0,.674,3.087.272.272,0,0,0,.131.495c.231.866.461,1.732.635,2.61,1.642,8.236-.141,16.848,2.395,24.934.028.087.172.043.153-.046-1.723-8.15-.542-16.506-1.819-24.692-.164-1.053-.408-2.089-.648-3.126,3.8-1.837,7.626-3.6,11.482-5.262q.009,1.314.074,2.623a8.009,8.009,0,0,0-1.57,1.127.476.476,0,0,0-.446.379,95.56,95.56,0,0,0-2.282,18.133c-.166,3.074-.285,6.206-.227,9.329-1.648.61-3.28,1.256-4.89,1.952-.318.138-.171.689.181.6,1.588-.413,3.167-.857,4.741-1.318a43.094,43.094,0,0,0,.652,5.58,17.381,17.381,0,0,0,1.374,2.737c1.032,2.138.521,4.513.365,6.8a6.963,6.963,0,0,1-.7-1.435.292.292,0,0,0-.551.167c.013.056.03.108.045.162a.261.261,0,0,0-.294.232,9.158,9.158,0,0,0,.411,3.685c.226.838.452,1.783,1.336,2.109a.434.434,0,0,0,.566-.4,23.1,23.1,0,0,0,2.587-1.938.446.446,0,0,0,.159-.419c-.038-.207-.087-.248-.277-.342a.34.34,0,0,0-.1-.029,27.5,27.5,0,0,0,.7-5.968,40.4,40.4,0,0,0,0-5.126c.265.028.42-3.089.336-4.655q-.084-1.562-.124-3.125c2.83-.881,5.659-1.767,8.505-2.591q2.184-.633,4.377-1.241.041,1.2.106,2.4c-.448,2.623-.532,5.582.817,7.883.345.588.978,1.032,1.292,1.6.442.8.033,2.207-.06,3.073-.222,2.046-.472,4.088-.709,6.132a.494.494,0,0,0,.689.5c3.727-1.8,2.153-6.616,3.454-9.734.744-1.783-.348-3.9-.511-5.758a18.4,18.4,0,0,1,.255-4.042,28.184,28.184,0,0,0,.4-3.521l.006-.083q4.9-1.295,9.821-2.479c.669-.16,1.341-.311,2.011-.469-.079,1.978.132,5.868.164,5.838.1,1.548.25,3.1.312,4.648a24.417,24.417,0,0,0,.433,4.714,31.309,31.309,0,0,0-2.72,3.4c-1.058,1.357-2.107,2.721-3.163,4.08-1.161,1.495-3.885,3.76-3.2,5.9.04.126.2.094.254,0a.237.237,0,0,0,.132-.02,15.732,15.732,0,0,0,3.647-2.81q2.072-1.825,4.183-3.6,1.987-1.674,4-3.32a35.155,35.155,0,0,0,3.861-3.18.514.514,0,0,0-.345-.806c-.01-.774.009-1.565-.039-2.34.216-1.811.386-3.622.432-5.453a18.941,18.941,0,0,0,.226-3.312c.123.02.037-3.958.028-5.569q4.678-1,9.378-1.9c.041.895.208,2.624.265,3.412a36.061,36.061,0,0,0,1.517,11.913,37.207,37.207,0,0,0,1.894,5.765c.588,1.245,1.277,2.856,2.848,2.9a.456.456,0,0,0,.487-.394,46.958,46.958,0,0,1,1.379-6.309c.1-.336.49-1.67.917-1.641.15.009.375.427.564.534.327.186.455.286.836.17a.379.379,0,0,0,.3-.425,30.759,30.759,0,0,0-.8-4.134.214.214,0,0,0-.348-.1.249.249,0,0,0-.058-.1c-.323-.337-.651-.668-.98-1a.411.411,0,0,0-.692.107c-.658,1.878-1.174,3.789-1.846,5.66-.992-2.264-.336-5.289-.1-7.606a83.486,83.486,0,0,0,.737-8.488.5.5,0,0,0-.044-.2l.042-1.326q3.575-.624,7.16-1.19-.031,2.4.014,4.8c.025-.008.051-.013.076-.02a35.1,35.1,0,0,0-.054,4.641q.03,1.23.086,2.461a6.214,6.214,0,0,0,.239,2.44c.246.429.824.657,1.2.962.752.6,1.459,1.278,2.157,1.941a43.033,43.033,0,0,1,3.9,4.4c.478.6,1.315-.119.907-.734a11.924,11.924,0,0,1-1.551-4.2l.019.012a.355.355,0,0,0,.552-.339c-.019-.176-.043-.35-.066-.524.894.728,1.781,1.462,2.692,2.172.551.429,1.344-.37.856-.9a25.15,25.15,0,0,1-4.232-6.034c-.312-.636-.534-1.723-1.132-2.1a32.186,32.186,0,0,1,.2-3.3c.041-.356.1-.714.151-1.075l.021.006.01-.213a8.963,8.963,0,0,0,.119-2.164.153.153,0,0,0-.012-.043q.089-1.577.194-3.15l.18-.027q4.662-.659,9.338-1.21c-1.086,4.979,4.1,9.17,8.719,9.293,5.438.144,10.566-3.583,13.4-8.126.13.03.262.055.392.086a.754.754,0,0,0,.781-.475c2.208-6.109,4.44-12.185,6.98-18.166q1.9-4.479,3.976-8.882c1.354-2.876,3.146-5.776,4.007-8.84A.348.348,0,0,0,572.266-506.922ZM543.2-479.312a12.7,12.7,0,0,0-2.844.218c.473-.991.9-2.014,1.3-3.04a17.046,17.046,0,0,1,2.712.014q-.18.439-.362.88C543.747-480.6,543.44-479.965,543.2-479.312Zm-1.183-3.733c.257-.66.511-1.319.768-1.967.221-.561.468-1.136.719-1.719.9.026,1.794.091,2.683.179-.21.526-.42,1.051-.635,1.571q-.375.9-.745,1.808A17.234,17.234,0,0,0,542.015-483.045Zm5.16,4.264a22.527,22.527,0,0,0-3.085-.483c.189-.45.359-.912.547-1.367s.382-.923.573-1.385a19.342,19.342,0,0,1,2.776.715Q547.582-480.038,547.175-478.781Zm1.208-3.763a12.068,12.068,0,0,0-2.718-.571q.324-.783.648-1.567c.243-.592.495-1.184.749-1.776.827.1,1.655.21,2.49.33C549.152-484.938,548.766-483.741,548.383-482.544Zm.391-8.121q1.148.121,2.285.341c-.4,1.043-.784,2.1-1.152,3.16a21.028,21.028,0,0,0-2.42-.291C547.939-488.516,548.382-489.584,548.774-490.665Zm-3.7-.1a22.178,22.178,0,0,1,2.847.023c-.487,1.064-.929,2.154-1.363,3.244-.922-.023-1.846,0-2.76.069A33.3,33.3,0,0,0,545.077-490.764Zm-1.3.117c-.481,1.081-.883,2.225-1.273,3.335-.712.077-1.413.174-2.094.287a.186.186,0,0,0,.06.366c.62-.049,1.228-.073,1.831-.08-.163.459-.325.91-.493,1.343-.325.842-.664,1.69-1,2.545a18.327,18.327,0,0,0-2.468.655q1.354-4.027,2.936-7.967A18.218,18.218,0,0,1,543.773-490.647ZM528.258-528.6q-.03.766-.112,1.532c-.356.056-.712.109-1.068.166A4.145,4.145,0,0,1,528.258-528.6Zm-1.641,3.247c.444-.072.889-.139,1.333-.21-.269,1.8-.648,3.589-.894,5.367q-.593,4.27-.944,8.57-.415,5.094-.495,10.208a.173.173,0,0,1,.053.131c0,.478-.054.954-.057,1.432a.156.156,0,0,1-.016.072q-.015,2.22.025,4.44c-.137,0-.274-.005-.41,0a.512.512,0,0,0,.012-.114q-.009-2.23.02-4.459a.177.177,0,0,1-.087-.153,8.675,8.675,0,0,1,.115-1.892l.005-.011q.092-5.271.361-10.538C525.863-516.773,526.413-521.067,526.617-525.35Zm-2.09.757a11.445,11.445,0,0,1,.7-2l-.035.006a9.847,9.847,0,0,1,.626-1.321c0,.333-.013.667-.023,1,.012.146.024.292.036.44a.131.131,0,0,1,.009.042v.068a4.739,4.739,0,0,1-.177,2.161c-.252,3.87-.736,7.743-.96,11.6-.216,3.741-.341,7.487-.4,11.233h-.073a2.66,2.66,0,0,1,.052,1.335q-.027,2.241-.023,4.481a.5.5,0,0,0,.094.295,7.963,7.963,0,0,0-1.118.235,25.991,25.991,0,0,0-.144-5c-.021-.4-.23-.807-.113-1.2a.743.743,0,0,1,.055-.123h-.067c-.057-.646-.106-1.285-.128-1.91-.1-2.961-.1-5.928.04-8.888a63.941,63.941,0,0,1,.9-8.247c.22-1.227.433-2.671.774-4.083A.132.132,0,0,1,524.527-524.593Zm-8.965,3.269c.107-.7.262-1.431.363-2.162q3.941-.744,7.9-1.407c-.211.866-.382,1.73-.559,2.531a59.6,59.6,0,0,0-1.247,9.159,84.253,84.253,0,0,0-.044,8.791c.043,1.028.1,2.055.168,3.081-.4.009-.807.016-1.209.026q-3.8.093-7.6.354c.344-3.937.58-7.894,1.054-11.809Q514.906-517.05,515.562-521.324Zm-3.447-1.435.366-.073c-.614,4.254-.905,8.6-1.234,12.85-.237,3.043-.53,6.142-.706,9.237l-.057.005v.917h.005c0,.049,0,.1-.005.147v.456a.127.127,0,0,1-.02.066c-.046,1.108-.078,2.214-.076,3.315q-.58.228-1.151.484.041-2.031.122-4.071a.165.165,0,0,1-.019-.065,11.179,11.179,0,0,1,.085-1.156h-.015c.157-3.4.411-6.81.8-10.179.3-2.606.71-5.2,1.2-7.777C511.627-519.743,511.771-521.3,512.115-522.759ZM499.5-517.936c.12-.726.231-1.449.293-2.166q5.725-1.332,11.491-2.487c-.1.434-.19.874-.286,1.316-.63,2.883-1.12,5.8-1.5,8.723a90.034,90.034,0,0,0-.755,11.961q-3.714.346-7.413.848c-1.435.194-2.866.414-4.295.644.286-3.187.578-6.374,1.016-9.547C498.481-511.75,498.984-514.843,499.5-517.936Zm-3.575,10.47c.361-3.577.773-7.16.868-10.751.045-.047.229-.9.308-1.255l.034-.008a7.519,7.519,0,0,1,.388-1.471l-.012,0a11.974,11.974,0,0,1,.952-2.141,7.341,7.341,0,0,1,.24,1.855c-.031.008-.008.94-.092,1.408l.014,0c-.14,1.268-.436,2.54-.641,3.756-.483,2.87-.9,5.751-1.281,8.637-.351,2.685-.727,5.41-1.032,8.142a11.3,11.3,0,0,1-.186,2.071c-.007.044-.307,3.235-.373,4.79q-.357.051-.714.105c.206-1.551.383-4.834.4-4.979.094-.634.348-1.94.361-1.963C495.418-502.005,495.648-504.743,495.922-507.466Zm-9.414-9.314q3.652-.984,7.325-1.895a55.564,55.564,0,0,0-1.495,9.923c-.257,2.831-.421,5.679-.468,8.521-.011.664-.04,1.354-.069,2.055q-7.7,1.482-15.242,3.639c.132-.837.273-1.671.45-2.5.574-2.672,1.262-5.317,1.932-7.966.858-3.4,1.669-6.819,2.195-10.285Q483.817-516.049,486.508-516.78Zm-7.563,2.124.1-.03a10.243,10.243,0,0,1,.14-1.343l-.008,0c.035-.222.09-.594.12-1.007a5.559,5.559,0,0,1,1.66-1.884q-.131,1.191-.308,2.37h0c0,.029-.006.059-.007.088h.008c0,.023-.01.045-.014.068a8.18,8.18,0,0,1-.26,1.111c-.018.076-.038.152-.056.228l.1-.028c-.654,3.825-1.6,7.588-2.535,11.366-.665,2.676-1.518,5.525-2.065,8.377.094-.972.19-1.944.3-2.912.354-3.111.908-6.175,1.467-9.253C478.022-509.887,478.525-512.266,478.945-514.656Zm-2.329.686.114-.034a5.932,5.932,0,0,1,.684-2.085.324.324,0,0,1,.068-.089c.064-.15.124-.3.191-.451.776-1.716.548.064.407.928l-.014,0c-.045.871-.322,1.7-.421,2.571a.34.34,0,0,1-.055.15q-.1.546-.189,1.092c-.419,2.525-.79,5.065-1.089,7.607-.4,3.415-1.038,6.82-1.5,10.238l-.14.043c-.038.325-.06.653-.072.981l.084-.026c-.147,1.206-.265,2.414-.338,3.625-.411.154-.817.326-1.212.52a19.3,19.3,0,0,0,.4-3.789l.035-.01c0-.328.019-.655.045-.98l-.048.015c.014-.4.032-.8.059-1.179.185-2.582.355-5.167.635-7.742A51.5,51.5,0,0,1,476.616-513.97Zm-1.281.382-.01.03a47.238,47.238,0,0,0-1.715,7.726c-.433,3.051-.623,6.136-.786,9.212q-.086,1.62-.17,3.24-4.975,1.547-9.856,3.384c-1.157.436-2.311.888-3.463,1.347.017-.123.032-.248.051-.37q.644-4.216,1.527-8.39,1.35-6.377,3.241-12.62Q469.718-511.892,475.335-513.588Zm-12.034,0c.007-.007.015-.01.021-.018l1.065-.328c-.277.816-.544,1.636-.807,2.456a9.842,9.842,0,0,1-.608,1.846l.029-.01q-1.74,5.674-3.025,11.478-.917,4.167-1.6,8.38c-.086.536-.5,2.78-.484,2.774-.01.062-.009.941-.17,1.026-.1.629-.189,1.261-.255,1.89-.126.035-.25.071-.371.107.017-.674.029-1.347.042-2.021-.109-.068.209-5.151.293-5.929a42.138,42.138,0,0,1,2.015-8.8c.65-1.955,1.63-6.179,1.73-6.487a22.759,22.759,0,0,1,1.555-4.357A12.472,12.472,0,0,0,463.3-513.588Zm-4.171,5.411.006-.019a10.828,10.828,0,0,1,.473-1.474c.3-.919.61-1.834.942-2.742.4-1.093.8-2.933,1.929-3.6a28.082,28.082,0,0,1-.844,5.631c-.093.565-.264.908-.348,1.324-.891,3.167-2.114,6.262-3.128,9.4-1.042,3.224-2.037,12.709-2.064,13.942v.062a.478.478,0,0,1-.048.213c0,.6,0,1.2.009,1.8-.243.092-.485.189-.721.3.024-.641.055-1.281.086-1.92a23.456,23.456,0,0,1,.272-4.362,89.42,89.42,0,0,1,1.2-9.391A83.546,83.546,0,0,1,459.13-508.177Zm-4.544,21.5a123.029,123.029,0,0,0-11.618,5.738c-.144-.638-.281-1.276-.39-1.921a42.024,42.024,0,0,1-.373-6.747,83.619,83.619,0,0,1,.69-12.665q.729-.207,1.453-.452c.182-.047.533-.176.755-.264,2.369-.854,4.7-1.925,7.005-2.783q2.93-1.091,5.877-2.132c-.585,1.97-1.107,3.959-1.549,5.967A75.129,75.129,0,0,0,454.586-486.68Zm1.666,11.432a78.871,78.871,0,0,0-1.21,11c-.16,2.852-.2,5.706-.154,8.56a6.418,6.418,0,0,0,.037,1.445c.008.295.011.589.022.883.073,2,.409,6.228.48,6.238-.1,1.814.028,3.665-.043,5.474-.077,1.977-.225,3.951-.113,5.929a22.306,22.306,0,0,0-2.391,1.8,10.452,10.452,0,0,1-1.114-3.883,6.87,6.87,0,0,0,.817,1.071c.131.146.445.152.5-.078a14.546,14.546,0,0,0,.592-6.468,8.629,8.629,0,0,0-1.079-2.5,15.4,15.4,0,0,1-.862-1.826c.026-1.893.022-3.786.017-5.679a7.861,7.861,0,0,0,0-1.347c-.005-2.858.009-5.716.158-8.577.311-5.987,1.269-11.862,1.874-17.813q.487-.23.971-.457c.006.073.521-.091.525-.24q.426-.191.862-.362a3.056,3.056,0,0,0,.9-.317c.071-.023.14-.05.212-.071.033-.01.068-.015.1-.024-.013.433.3,1.69.544,1.664A22.144,22.144,0,0,0,456.252-475.248Zm13.234,7.548c-.06,2.542-.069,5.1-.01,7.656-.786.222-1.574.44-2.36.667-3.5,1.012-7.017,2.026-10.505,3.135q-.053-3.416.071-6.828c.129-3.442.385-6.89.826-10.307a29.273,29.273,0,0,1,.988-4.873c.472-1.529,1.342-2.934,1.745-4.47a.38.38,0,0,0-.024-.259,3.374,3.374,0,0,0,.5-.19.579.579,0,0,0-.027-1.054,3.511,3.511,0,0,0-1.832-.174c.126-1.047.221-2.1.339-3.144,4.4-1.78,8.861-3.41,13.4-4.85-.01.165-.018.331-.028.5a25.271,25.271,0,0,0-.163,3.388,10,10,0,0,0-1.278.873.417.417,0,0,0,.074.7A47.689,47.689,0,0,0,470-477.717Q469.6-472.716,469.486-467.7Zm5.384-11.074c-.565,3.81-.982,7.654-1.235,11.5-.126,1.915-.233,3.85-.313,5.793a20.192,20.192,0,0,1-.019,2.728.326.326,0,0,1-.038.142,64.926,64.926,0,0,0,.749,9.374,4.325,4.325,0,0,1-.132,2.871,9.648,9.648,0,0,0-.389,2.357c-.116,1.882.1,4.324-1.439,5.609.173-1.5.341-3,.528-4.5.139-1.118.74-2.916.26-4.014-.219-.5-.738-.82-1.1-1.2a6.315,6.315,0,0,1-1.523-3c-.408-1.852-.155-2.053.138-3.844a19.8,19.8,0,0,0,.55-4.023l.034-.01c0-.393.013-.786.042-1.176,0-.1,0-.2,0-.3l-.093.025c-.02-2.476-.007-4.953.065-7.434q.14-4.846.534-9.679a87.083,87.083,0,0,0,.737-9.47.422.422,0,0,0-.027-.11,34.718,34.718,0,0,1,3.468-1.245c.366-.1.742-.165,1.117-.233A61.5,61.5,0,0,0,474.87-478.774Zm12.738,8.806c-.172,1.745-.333,3.52-.439,5.307q-5.97,1.425-11.9,3.017c.033-1.81.1-3.622.211-5.439.228-3.63.538-7.249.969-10.861s1.246-7.285,1.444-10.927a3.437,3.437,0,0,0,.923-.428.48.48,0,0,0-.126-.813,4.557,4.557,0,0,0-2.934.222c.27-1.2.461-2.426.649-3.652,1.07-.311,2.144-.615,3.225-.9q6.02-1.594,12.134-2.777a21.607,21.607,0,0,0,.254,4.965.235.235,0,0,0,.463-.014,23.373,23.373,0,0,0,.373-5.028c-.03-.358.005-1.074,0-1.073,0-.6.005-1.183.028-1.754.1-2.515.2-5.028.41-7.538a62.043,62.043,0,0,1,1.3-10.255.17.17,0,0,1-.047-.128,12.1,12.1,0,0,1,.954-2.825l0-.011h0c.007-.013.012-.027.019-.04a.131.131,0,0,1,.139-.074c.035-.076.065-.155.1-.23,0,.1,0,.191,0,.287a.2.2,0,0,1,.056.183l-.01.04a.178.178,0,0,1,.021.089c-.013.507-.108,1.485-.07,1.476-.109,6.882-1.161,13.743-1.931,20.6-.008.168-.093.754-.1.96-.2,1.812-.365,3.624-.49,5.436-.622.093-1.242.183-1.858.257a.294.294,0,0,0-.2.1.427.427,0,0,0-.707.118,23.2,23.2,0,0,0-.884,5.016q-.376,2.791-.725,5.586Q488.159-475.529,487.608-469.968Zm7.28-13.675a119.934,119.934,0,0,0-1.257,12.589c-.078,1.644-.12,3.29-.138,4.936l-.009,0a12.341,12.341,0,0,1-.039,1.573l.039-.009a27.4,27.4,0,0,0,.238,4.581c-.2,1.5.315,2.647.29,4.134-.023,1.365-.005,2.729.017,4.094a10.363,10.363,0,0,0-.222,3.857,39.524,39.524,0,0,0-3.15,2.5q-2.165,1.716-4.266,3.507-1.981,1.68-3.929,3.4a20.522,20.522,0,0,0-3.022,2.922c.817-2.211,3.277-4.075,4.686-5.8a33.959,33.959,0,0,0,4.166-5.669c.3.377.993.035.951-.481-.161-1.978-.473-3.94-.609-5.927-.1-1.489.372-2.951-.07-4.392.194-.162,0-3.952.07-5.643l.021-.005a5.219,5.219,0,0,1,.086-2.045q.164-2.62.462-5.266c.393-3.488.852-6.967,1.229-10.456q.283-2.635.544-5.272a26.329,26.329,0,0,0,.318-4.77.347.347,0,0,0,.1.039,15.6,15.6,0,0,0,1.761.237c0,.011,1.049.073,1.052.051.243,0,.486-.007.729-.018l.116-.017a8.741,8.741,0,0,1,1.192-.1c.281-.041.56-.089.834-.151a11.505,11.505,0,0,0-1.122,2.053.329.329,0,0,1-.058.153A31.525,31.525,0,0,0,494.888-483.643Zm9.731,15.187q-4.675.922-9.33,1.945.009-1.514.052-3.026c.106-3.775.386-7.543.774-11.3.194-1.878.439-3.748.689-5.618a10.763,10.763,0,0,1,1.542-5,.36.36,0,0,0,.063-.183c.616-.285.231-1.166-.393-1.125-.531.035-1.064.09-1.6.154.2-1.841.367-3.685.532-5.53q5.873-.96,11.8-1.526.036,2.215.192,4.442c-.061.028-.123.054-.183.083a.4.4,0,0,0-.228.362.576.576,0,0,0-.68.387A83.777,83.777,0,0,0,504.619-468.456Zm5.609-6.725q-.131,2.853-.234,5.709l-.034.006c-.006.286-.053.582-.071.829-.02.284-.049.568-.077.852l.126-.023c-.024.7.146,2.865.232,3.782-.043,2.593-.214,4.506-.481,7.47-.239,2.663-.254,4.978.914,7.434a.5.5,0,0,0,.9-.022,41.98,41.98,0,0,0,1.956-6.162c.217.149.432.3.651.445a.269.269,0,0,0,.284.005,22.482,22.482,0,0,0,.3,2.31,8.116,8.116,0,0,1,.177,1.171c-.125.064-.085-.1-.252-.151-.579-.173-.766-.738-1.427-.233-.727.555-.868,2.176-1.07,2.98-.409,1.621-.771,3.253-1.178,4.874-1.366-.8-2.122-3.068-2.728-4.4a19.541,19.541,0,0,1-1.457-5.686c-.513-3.863-.512-7.708-.826-11.58-.005-.391-.008-.782-.011-1.172a5.868,5.868,0,0,1,.015-2.3c.033-2.478.132-4.954.333-7.424a148.539,148.539,0,0,1,2.818-17.618.524.524,0,0,0-.021-.289c.451-.091.9-.2,1.339-.32.006.288.006.577.016.863.017.472.766.424.815-.024.039-.367.071-.735.106-1.1l.217-.063C510.835-488.443,510.529-481.786,510.228-475.181Zm1.235-21.069c.09-1.107.164-2.216.229-3.327a.159.159,0,0,1-.06-.144c.055-.534.06-1.071.115-1.6a.152.152,0,0,1,.047-.1c.153-2.931.284-5.866.546-8.781.377-4.189.977-8.374,1.4-12.563a3.007,3.007,0,0,1,.191-2.006v-.007a4.024,4.024,0,0,1,.951-1.453,2.978,2.978,0,0,1,.288,1.2.122.122,0,0,1,.009.034c0,.589.05,1.176,0,1.764a.148.148,0,0,1-.13.142,1.614,1.614,0,0,1-.179.594h0c-.2,1.236-.4,2.472-.594,3.709q-.6,3.946-1.087,7.908c-.4,3.285-.865,6.656-1.127,10.016h-.007q-.03.461-.066.921H512c-.078,1.185-.126,2.366-.137,3.542Zm7.607,19.243q-.218,3-.289,6.012-3.573.582-7.137,1.219.1-2.789.218-5.576c.3-6.825.82-13.646,1.059-20.471a.7.7,0,0,0-.087-.366q.24-1.914.415-3.84c1.652-.117,3.3-.219,4.96-.287,1.335-.054,2.664-.077,3.991-.086.011.164.02.329.032.493a25.586,25.586,0,0,0,.537,5.035c-.2.074-.408.156-.609.25a.453.453,0,0,0-.267.415.478.478,0,0,0-.476.374A91.56,91.56,0,0,0,519.07-477.007Zm5,.892c-.112,1.3-.212,2.6-.308,3.9-.024.731-.087,1.461-.181,2.187l.031-.005c-.069,1.022-.139,2.044-.2,3.066-.04.705-.069,1.411-.1,2.117.094-.007-.076,3.587-.094,5.132a.623.623,0,0,0,.612.64l.124.3a6.278,6.278,0,0,0,.61,1.319q.488.982,1.062,1.916c.21.341.429.675.654,1-.121-.08-.242-.159-.362-.24a.418.418,0,0,0-.652.4c.03.148.062.3.093.444a.349.349,0,0,0-.562.318,24.819,24.819,0,0,0,.838,3.355c-.518-.559-1.045-1.111-1.574-1.663-1.019-1.067-2.6-2.194-3.308-3.48s-.505-3.368-.6-4.836-.172-4.46-.112-4.461q.03-2.328.12-4.654a5.646,5.646,0,0,1,.082-1.884h0q.135-2.81.349-5.616c.429-5.6,1.431-11.124,1.977-16.707a.544.544,0,0,0-.015-.187,15.355,15.355,0,0,1,3.1-.3c0,.1,0,.2.006.305a.57.57,0,0,0,.37.556C525.155-487.524,524.564-481.812,524.073-476.115Zm10.275,2.878c-2.255.284-4.508.578-6.758.9-.793.112-1.584.231-2.376.348.094-1.324.192-2.648.3-3.971.518-6.216,1.309-12.389,2.075-18.577a.68.68,0,0,0-.6-.737c-.1-.01-.189-.012-.283-.02q-.074-2.533-.062-5.065c4.769.11,9.518.417,14.312.733a.564.564,0,0,0,.118-1.122,122.261,122.261,0,0,0-14.418-.643q.063-5.232.49-10.454.355-4.3.95-8.568c.245-1.758.606-3.526.848-5.3,1.465-.228,2.931-.451,4.4-.659,4.453-.63,8.915-1.171,13.386-1.655,3.667-.4,7.394-.588,11.063-1.053-2.51,4.245-4.388,8.973-6.494,13.413-2.3,4.851-4.613,9.695-6.9,14.553C540.247-492.268,535.9-482.971,534.348-473.237Zm10.6,9.585c-5.071.729-9.489-2.8-9.278-7.956l.287-.035a5.257,5.257,0,0,0,1.809,5.276,8.82,8.82,0,0,0,6.431,1.948,20.957,20.957,0,0,0,5.526-1.022A11.944,11.944,0,0,1,544.949-463.652Zm7.023-4.647a17.414,17.414,0,0,1-5.526,2.061c-4.07.832-9.975-.148-9.514-5.52q2.785-.318,5.574-.616c.643-.069,1.293-.121,1.942-.189,1.661.4,3.455.561,5.051.861,1.767.332,3.55.628,5.318.978A13.992,13.992,0,0,1,551.972-468.3Z" fill="#477c91"/>
      <g id="ryby">
        <g id="Layer_39" data-name="Layer 39">
          <path id="Path_11849" data-name="Path 11849" d="M141.787-529.471c-.018-1.843-.072-3.685-.142-5.526a23.5,23.5,0,0,0-.541-5.823,2.385,2.385,0,0,0-.758-1.165,20.74,20.74,0,0,0-2.582-7.625c-2.607-4.415-5.008-8.961-7.7-13.324-2.616-4.235-5.721-8.407-9.87-11.249-1.858-6.861-3.876-13.684-5.472-20.613q-.084-.366-.166-.734c.053-3.628.05-7.263-.19-10.884a51.587,51.587,0,0,0-2.175-11.646c-.517-1.726-3.394-2.076-3.492.1a91.273,91.273,0,0,0,1.833,21.46q-.018,1.246-.04,2.483c-.069,3.864-.078,7.736.067,11.6.071,1.883.233,3.761.466,5.631a17.336,17.336,0,0,0,.832,3.483,12.016,12.016,0,0,0-3.5,5.43,41.527,41.527,0,0,0-4.869,21.176,86.365,86.365,0,0,0,2.248,17.079c1.109,5,2.032,10.49,4.788,14.887a25.42,25.42,0,0,0,5.82,6.159c1.852,1.488,4.121,3.859,6.588,4.338a24.572,24.572,0,0,0,3.775,2.7c2.039,1.237,4.848,3.166,7.178,1.5a5.192,5.192,0,0,0,1.848-2.937,14.339,14.339,0,0,0,3.167-5.521,47.279,47.279,0,0,0,2.311-10.272A79.95,79.95,0,0,0,141.787-529.471Zm-11.735,25.2c-.136-.073-.252-.136-.328-.172-.84-.4-1.673-.809-2.5-1.223a38.225,38.225,0,0,0-4.1-1.954,44.6,44.6,0,0,0-4.393-4.269,22.269,22.269,0,0,1-5.207-6.7,52.673,52.673,0,0,1-2.686-9.222c-.755-3.183-1.438-6.385-1.945-9.618-1.311-8.371-1.258-17.528,1.9-25.455a1.726,1.726,0,0,0,.7-1.157c.037-.254.082-.5.132-.751a29.788,29.788,0,0,1,1.7-3.091,2.9,2.9,0,0,0,1.226-.787,5.016,5.016,0,0,1,3.93-1.664,2.183,2.183,0,0,0,1.029-.213,43.135,43.135,0,0,1,9.412,11.74c3.126,5.313,5.9,10.735,6.87,16.9,1,6.356-.113,13.132-.886,19.475-.237,1.944-.525,3.875-.889,5.784a2.46,2.46,0,0,0-.07.256q-.245,1.146-.469,2.3A46.367,46.367,0,0,1,130.052-504.267Z" fill="#ffec9c"/>
          <g id="Group_3454" data-name="Group 3454">
            <path id="Path_11850" data-name="Path 11850" d="M159.3-513.8l.1-.061.072-.076A1.251,1.251,0,0,1,159.3-513.8Z" fill="#ffec9c"/>
            <path id="Path_11851" data-name="Path 11851" d="M159.418-513.875l-.019.012-.006.006.019-.012Z" fill="#ffec9c"/>
            <path id="Path_11852" data-name="Path 11852" d="M175.613-391.254a171.3,171.3,0,0,0-2.6-20.272c-1.144-6.045-2.39-12.407-4.987-18.047a9.218,9.218,0,0,0,2.985-3.42c1.861-3.738,2.679-9.781-.443-13.056a5.435,5.435,0,0,0-4.757-1.757,2.228,2.228,0,0,0-1.183-1.857c-.13-1.352-.282-2.7-.452-4.048-.521-4.123-1-8.251-1.473-12.38-.94-8.254-1.56-16.538-2.453-24.8-.757-6.995-1.16-14.022-1.488-21.05a1.38,1.38,0,0,0,.268.283,1.889,1.889,0,0,0,.858.369,1.978,1.978,0,0,0,1.022-.162,1.971,1.971,0,0,0,1.144-1.272,1.512,1.512,0,0,0-.028-1.107,1.479,1.479,0,0,0-.617-.652,1.368,1.368,0,0,0-.916-.168,1.372,1.372,0,0,0-.916.562,1.006,1.006,0,0,1-.134.182l-.026.027.012-.008,0,0-.016.01c-.066.067-.133.131-.2.2l.179-.187c-.081.053-.161.107-.239.162a1.331,1.331,0,0,0-.451.444q-.05-1.086-.1-2.172-.276-6.236-.482-12.475c-.025-.729-.061-1.456-.1-2.183a1.346,1.346,0,0,0,1.56-.079,5.823,5.823,0,0,0,.989-.989,1.352,1.352,0,0,0-.164-1.771,1.356,1.356,0,0,0-1.777-.08,5.319,5.319,0,0,0-.725.7c-.147-2.563-.32-5.123-.437-7.693-.2-4.519-.335-9.051-.519-13.58a1.091,1.091,0,0,0,.611.513l.607.2a1.166,1.166,0,0,0,1.426-.523,1.153,1.153,0,0,0-.32-1.484l-.517-.363a1.252,1.252,0,0,0-1.825.409c-.013.024-.02.052-.032.077-.193-4.49-.45-8.976-.9-13.44a.594.594,0,0,0-1.171.035c-.516,8.27-.333,16.591-.288,24.876.022,4.2-.138,8.39-.006,12.579q.189,6.072.434,12.141c.677,16.621,1.334,33.276,3.117,49.82.505,4.689,1.079,9.366,1.768,14.033.32,2.174.7,4.323,1.136,6.476-2.235,2.047-3.193,5.141-3.544,8.211-.413,3.6-.3,8.3,2.931,10.661a5.889,5.889,0,0,0,3.2,1.16c.564,2.018,1.108,4.042,1.575,6.092,1.1,4.855,2.037,9.749,2.882,14.656.857,4.983,1.505,10.144,2.913,15a1.324,1.324,0,0,0,.873.853c.025.317.052.634.076.951C172.081-388.224,175.775-388.857,175.613-391.254Z" fill="#ffec9c"/>
          </g>
          <path id="Path_11853" data-name="Path 11853" d="M163.209-473.856l-.066-.333a.3.3,0,0,0-.585.017l-.067.337a.361.361,0,0,0,.371.4A.36.36,0,0,0,163.209-473.856Z" fill="#ffec9c"/>
          <path id="Path_11854" data-name="Path 11854" d="M164.467-494.159a7.977,7.977,0,0,0-1.642.1c-.51.1-1,.27-1.513.375-1.093.225-1.176,2.09.061,2.076a14.85,14.85,0,0,0,3.166-.155,1.219,1.219,0,0,0,1-1.231A1.2,1.2,0,0,0,164.467-494.159Z" fill="#ffec9c"/>
        </g>
        <g id="Layer_28" data-name="Layer 28">
          <path id="Path_11855" data-name="Path 11855" d="M157.5-426.4c.07.61.946.995,1.272.325.638-1.312,1.284-2.623,1.922-3.938a7.183,7.183,0,0,0,2.524,1.509c.291,1.634.579,3.268.877,4.9a.475.475,0,0,0-.5.6,3.619,3.619,0,0,0,.9,1.566q.736,3.994,1.494,7.984c1.47,7.724,2.853,15.5,4.616,23.164a3.627,3.627,0,0,1-.42.03,4.082,4.082,0,0,1-3.137-1.7c-.277-.3-.747.033-.656.394.513,2.011,2.551,2.591,4.449,2.286.087.373.171.747.26,1.119.1.43.713.232.646-.183-.058-.365-.124-.73-.184-1.1a5.062,5.062,0,0,0,2.05-1.1c2.76-2.582,2.7-7.341,1.218-10.661a.26.26,0,0,0,.017-.156q-2.932-14.309-5.372-28.726a9.97,9.97,0,0,0,1.491-1.681,12.052,12.052,0,0,0,1.51-2.942,9.689,9.689,0,0,0,.242-10.15,9.787,9.787,0,0,0-1.376-1.837c-.206-.38-.425-.752-.662-1.11a.2.2,0,0,0-.364.154,10.52,10.52,0,0,0-3.9-2.043c-.144-1.009-.294-2.017-.434-3.026q-1.357-9.772-2.478-19.575a6.258,6.258,0,0,0,5.307-2.766.664.664,0,0,0-.582-.983,24.514,24.514,0,0,0-5.085.6q-.979-8.773-1.793-17.564a.49.49,0,0,0,.286.118,10.409,10.409,0,0,0,2.522-.27q.991-.153,1.981-.31a4.636,4.636,0,0,1-3.887,3.686c-.454.054-.472.73.005.726a5.141,5.141,0,0,0,5.077-5.08.569.569,0,0,0-.714-.536,22.045,22.045,0,0,0-5.106.928.5.5,0,0,0-.215.173q-.752-8.127-1.372-16.266a5.707,5.707,0,0,0,5.063-3.222.675.675,0,0,0-.586-.989l-2.567-.244a3.1,3.1,0,0,0-1.919.152.413.413,0,0,0-.071.646,2.905,2.905,0,0,0,1.786.511l1.625.155a6.493,6.493,0,0,1-3.4,2.168q-.678-8.878-1.225-17.765a.461.461,0,0,0,.11-.005,6.277,6.277,0,0,0,4.621-4.4.565.565,0,0,0-.544-.7c-1.374-.112-3.292-.186-4.449.706q-.339-5.76-.636-11.521-.216-4.269-.407-8.539a.386.386,0,0,0,.072.023,4.317,4.317,0,0,0,3.766-1.634c.285-.33.212-1.01-.307-1.081l-2.38-.326a8.764,8.764,0,0,0-1.294-.139q-.255-5.848-.47-11.7a.365.365,0,0,0,.128-.061q1.6-1.187,3.169-2.42c.44-.347.346-1.178-.326-1.151-.7.028-1.4.07-2.1.107-.337.018-.676.015-1,.06q-.21-5.858-.391-11.717a9.206,9.206,0,0,0,2-.7c.468-.162.941-.3,1.42-.415a4.111,4.111,0,0,1-1.5,1.91.457.457,0,0,0,.474.781,4.942,4.942,0,0,0,2.5-3.353.621.621,0,0,0-.76-.742,16.829,16.829,0,0,0-2.624.689,7.115,7.115,0,0,0-1.536.655q-.1-3.076-.187-6.152-.1-3.425-.176-6.852a1.448,1.448,0,0,0,.326.165,2.178,2.178,0,0,0,1.62-.071,3.089,3.089,0,0,0,.4-.229c-.341.586-.669,1.178-.964,1.791a.33.33,0,0,0,.525.388c.923-.911,1.738-1.914,2.575-2.905a.749.749,0,0,0-.173-1.161,2.414,2.414,0,0,0-2.237.253c-.316.171-.644.473-1.016.469a.89.89,0,0,1-.371-.1c-.209-.1-.1.063-.125-.134a.54.54,0,0,0-.6-.512q-.033-1.474-.066-2.95c.136-7.259.356-14.521.546-21.783a.4.4,0,0,0,.1-.009,3.273,3.273,0,0,0,1.236-.883l1.106-.96q.444,5.375,1.082,10.735l-1.25.237a3.257,3.257,0,0,0-1.818.685.429.429,0,0,0,.2.7,3.456,3.456,0,0,0,1.971-.142l1.049-.241q.037.316.077.633a3.289,3.289,0,0,1-1.241,1.154c-.366.2-.1.736.281.647a3.118,3.118,0,0,0,1.119-.521c1.076,8.362,2.477,16.681,4.135,24.92.03.146.244.08.22-.062-1.439-8.53-2.609-17.082-3.584-25.655a3.856,3.856,0,0,0,.672-1.985.609.609,0,0,0-.766-.575l-.187.036c-1.081-9.888-1.913-19.8-2.6-29.746a.141.141,0,0,0-.282,0q.106,9.116.843,18.227a.493.493,0,0,0-.445.111l-1.293,1.111c-.2.175-.415.334-.6.514.207-8.01.371-16.02.338-24.026a.316.316,0,0,0-.631,0c-.541,6.945-.767,13.911-.93,20.877-.1-2.8-.2-5.6-.331-8.4a.336.336,0,0,0-.672.005c-.052,11.231.193,22.48.516,33.722q-.087,5.87-.153,11.74c-.188,17.046-.228,34.093-.258,51.14s-.166,34.077,1.067,51.08c.985,13.579,2.669,27.1,4.731,40.55-.054.051-.111.1-.165.152-3.57,3.532-3.719,9.972-1.628,14.521A18.141,18.141,0,0,0,157.5-426.4Zm-.823-142.353c-.015-.393-.029-.785-.044-1.178.313.01.631-.026.967-.048l.389-.026Q157.329-569.383,156.677-568.752Zm3.489,122q.227,1.458.459,2.916a6.511,6.511,0,0,0-1.982,4.145,7.375,7.375,0,0,0,.528,3.53c-.15.295-.289.6-.419.9a14.6,14.6,0,0,1-.682-3.537C157.906-441.3,158.425-444.641,160.166-446.749Zm1.337,12.27a6.023,6.023,0,0,1-.459-.529,6.32,6.32,0,0,1-.419-.63c.311-.633.654-1.262,1.029-1.893q.178,1.053.359,2.105Q161.755-434.953,161.5-434.479Zm2.782-4.238a1.887,1.887,0,0,0-1.185,1.29,2.6,2.6,0,0,1-.165-.961,3.627,3.627,0,0,1,.627-2.186c1.16-1.153,2.479.313,3.042,1.257q.078.132.144.273a4.426,4.426,0,0,1-.1.731,2.253,2.253,0,0,1-2.312,1.865,1.066,1.066,0,0,1,.281-1.512C164.957-438.222,164.758-438.9,164.285-438.717Zm-2.9-.415a.552.552,0,0,0-.309.177,12.33,12.33,0,0,0-1.168,1.527,6.288,6.288,0,0,1,.177-3.588,5.063,5.063,0,0,1,.769-1.369Q161.119-440.759,161.387-439.132Zm-.4,5.626q-.35.672-.695,1.349a9.9,9.9,0,0,1-.676-1.07c.145-.429.309-.854.488-1.276A7.819,7.819,0,0,0,160.989-433.506Zm.592-9.632a2.667,2.667,0,0,1,3.268-.407,4.017,4.017,0,0,1,1.507,2,2.869,2.869,0,0,0-2.53-.917A2.792,2.792,0,0,0,162-440.577Q161.789-441.856,161.581-443.138Zm-.694-4.347a5.206,5.206,0,0,1,1.589-.939,6.039,6.039,0,0,1,3.022-.287q.366,2.51.75,5.015a3.611,3.611,0,0,0-3.683-1.206,4.528,4.528,0,0,0-1.191.506l-.01-.065Q161.121-445.973,160.887-447.485Zm-3.6-106.234q-.024-.549-.05-1.1c.344.082.7.118,1.071.174l.884.135a7.551,7.551,0,0,1-1.8.738A.451.451,0,0,0,157.289-553.719Zm1.295,24.487q-.09-1.47-.175-2.942a.417.417,0,0,0,.1.024,10.327,10.327,0,0,0,2.134-.227,10.546,10.546,0,0,1,1.4-.06A5.833,5.833,0,0,1,158.584-529.232Zm4.781,55.784c-.023-.207-.048-.413-.071-.62,1.061-.093,2.134-.293,3.2-.451A5.977,5.977,0,0,1,163.365-473.448Zm5.583,40.271c-.233-1.416-.458-2.833-.684-4.249a2.842,2.842,0,0,0,.03-.6,3.864,3.864,0,0,0-.322-1.223q-.723-4.6-1.385-9.2a9.533,9.533,0,0,1,5.137,4.2c.074.128.139.26.207.39a14.5,14.5,0,0,1,.01,7.882,7.242,7.242,0,0,1-1.234,1.582A6.631,6.631,0,0,1,168.948-433.177Zm.319,1.888c-.038-.231-.078-.462-.117-.694a8.013,8.013,0,0,0,1.215-.657A10.2,10.2,0,0,1,169.267-431.289ZM165.326-449.9a6.517,6.517,0,0,0-4.647,1.061c-2.37-15.487-4.14-31.08-4.955-46.728-.888-17.021-.58-34.091-.512-51.128q.057-14.626.17-29.253.343,10.184.785,20.366a.405.405,0,0,0,0,.1c.931,21.259,2.241,42.5,4.233,63.687q.786,8.361,1.717,16.714a6.34,6.34,0,0,0-.581.279.42.42,0,0,0,.219.772c.16.008.321,0,.482,0q.031.29.065.577c-.169-.01-.339-.024-.508-.044-.393-.048-.537.584-.19.742a5.149,5.149,0,0,0,.81.286Q163.715-461.161,165.326-449.9Zm1.04,33.62a.448.448,0,0,0,.166.056,7.508,7.508,0,0,0,2.256-.291c.719-.145,1.444-.285,2.155-.467q.345,1.727.7,3.452A.446.446,0,0,0,171-413.6a2.837,2.837,0,0,1-1.807.679c-.5.013-1.046-.282-1.517-.1a.308.308,0,0,0-.208.374c.28.707,1.282.74,1.944.669a3.728,3.728,0,0,0,2.189-1.049.418.418,0,0,0,.112-.177c.2.969.409,1.935.614,2.9a.358.358,0,0,0-.159.049,3.664,3.664,0,0,1-2.47.478.545.545,0,0,0-.588.252.387.387,0,0,0-.066.259.534.534,0,0,0,.392.5,3.749,3.749,0,0,0,3.058-.752q.8,3.746,1.65,7.479a.265.265,0,0,0-.18.252c.068,3.1,1.451,6.029-.126,9.019a4.668,4.668,0,0,1-2.451,2.285C169.917-399.107,168.015-407.68,166.366-416.28Zm-.822-4.357a6.479,6.479,0,0,0,4.775.495c.147.76.3,1.518.45,2.277-.7.067-1.4.175-2.1.275a7.869,7.869,0,0,0-2.373.531.407.407,0,0,0-.069.05Q165.881-418.822,165.544-420.637Zm-1.411-7.644a5.453,5.453,0,0,0,.562.065,6.248,6.248,0,0,0,3.913-1.181q.725,4.094,1.5,8.176a5.657,5.657,0,0,1-3.092-.326,6.2,6.2,0,0,1-1.888-1.278Q164.626-425.552,164.133-428.281Zm-.641-3.6a7.218,7.218,0,0,0,4.725.242c.065.375.128.75.194,1.125a4.988,4.988,0,0,1-4.491,1.043Q163.7-430.68,163.492-431.886Zm-.231-1.3c-.1-.565-.2-1.131-.293-1.7q.1-.237.209-.474a2.718,2.718,0,0,0,.581.231,2.371,2.371,0,0,0,.41.33,2.457,2.457,0,0,0,3.36-.906q.24,1.438.486,2.876A6.52,6.52,0,0,1,163.261-433.182Zm-2.047,2.091q.385-.8.763-1.611c.183.126.37.247.564.358q.219,1.256.439,2.512l-.012-.005A6.864,6.864,0,0,1,161.214-431.091Zm-1.492.066q-.461.916-.916,1.836a15.463,15.463,0,0,1,.38-2.534l.019.028C159.366-431.465,159.541-431.243,159.722-431.025Z" fill="#477c91"/>
          <path id="Path_11856" data-name="Path 11856" d="M169.163-406.557a4.14,4.14,0,0,1,1.488-.391l1.645-.275c.672-.112.977.911.293,1.034l-1.756.315a4.18,4.18,0,0,1-1.55.125A.448.448,0,0,1,169.163-406.557Z" fill="#477c91"/>
          <path id="Path_11857" data-name="Path 11857" d="M169.92-402.406a3.933,3.933,0,0,1,1.209-.407l1.369-.237c.649-.113.938.881.282.995l-1.466.254a5.8,5.8,0,0,1-.626.091,3.345,3.345,0,0,1-.676-.071A.346.346,0,0,1,169.92-402.406Z" fill="#477c91"/>
          <path id="Path_11858" data-name="Path 11858" d="M171.143-394.1a1.741,1.741,0,0,1,.943-.613l1.125-.49a.586.586,0,0,1,.775.19.567.567,0,0,1-.19.775l-1.2.523a1.876,1.876,0,0,1-1.16.3A.474.474,0,0,1,171.143-394.1Z" fill="#477c91"/>
          <path id="Path_11859" data-name="Path 11859" d="M182.219-424.533a1.114,1.114,0,0,0,.1.866.892.892,0,0,0,.824.459.925.925,0,0,0,.265-.077q1.011,2.467,2.069,4.916a1.094,1.094,0,0,0,.143,1.64.693.693,0,0,0,.58.021q1.212,2.768,2.462,5.515a1.181,1.181,0,0,0,.823,1.8q1.367,2.985,2.75,5.952a.245.245,0,0,0,.105.114,31.225,31.225,0,0,0,.762,11.336.394.394,0,0,0,.66.164,8.524,8.524,0,0,0,2.069-6.3.343.343,0,0,0-.686,0,10.747,10.747,0,0,1-1.476,5.086,42.828,42.828,0,0,1-.543-11.895c.019-.285-.429-.331-.489-.061-.054.244-.1.49-.147.736q-1.234-2.652-2.46-5.311a.836.836,0,0,0,.184-.177c.409-.232.273-.959.051-1.292a1.078,1.078,0,0,0-1.122-.467q-1.176-2.58-2.325-5.174a.905.905,0,0,0,.363-.218,1.186,1.186,0,0,0,.083-.09c-.1.12.041-.017.093-.073a.82.82,0,0,0,.184-.383,1.1,1.1,0,0,0-.642-1.293,1.273,1.273,0,0,0-.965.038q-1.026-2.364-2.008-4.746a.95.95,0,0,0,.3-.236,1.057,1.057,0,0,0,.143-1.294,1.1,1.1,0,0,0-1.221-.528c-.016,0-.031.011-.047.016-1.951-4.859-3.736-9.782-5.233-14.808a107.408,107.408,0,0,1-4.429-34.114c.334-11.407,1.258-22.759,1.19-34.182a325.631,325.631,0,0,0-7.656-67.845c-.045-.2-.352-.113-.31.088a342.592,342.592,0,0,1,5.881,39.473c1.037,11.505,1.517,23.071,1.4,34.622-.117,11.488-1.372,22.964-1.158,34.451.277,14.869,4.4,28.951,9.847,42.585A1.387,1.387,0,0,0,182.219-424.533Z" fill="#477c91"/>
        </g>
        <g id="Layer_29" data-name="Layer 29">
          <path id="Path_11860" data-name="Path 11860" d="M142.625-482.074a29.579,29.579,0,0,1,.9-7.037.563.563,0,0,0,.146-.719,20.3,20.3,0,0,0,.487-7.07c-.691-4.583-3.373-8.9-2.312-13.637.181-.812-1.128-.956-1.3-.136-.944,4.587,1.394,8.774,2.288,13.16a16.968,16.968,0,0,1-.106,6.287c-.467-.7-.93-1.4-1.4-2.1.1-.936.172-1.871.231-2.807.113.283.222.567.322.858.093.272.488.085.4-.183a16.159,16.159,0,0,0-2.5-5.051c-.146-.188-.491.01-.363.224a34.432,34.432,0,0,1,1.724,3.2.319.319,0,0,0-.2.253q-.21,1.164-.4,2.331c-.678-1.014-1.366-2.023-2.078-3.008l.021-.111c.174.1.429-.121.262-.282l-.175-.166c.305-1.632.567-3.271.76-4.915.037-.313-.477-.459-.556-.136-.349,1.436-.665,2.878-.972,4.323q-.626-.592-1.251-1.186c-.338-.318-.933.176-.705.571.492.851,1.014,1.687,1.555,2.514-.367,1.778-.724,3.557-1.1,5.333-1.328-1.748-2.6-3.438-3.422-4.59a71.347,71.347,0,0,0,7.327-14.9,49.622,49.622,0,0,0,3.357-16.821c.1-11.57-5.539-22.7-11.2-32.5A64,64,0,0,0,121.029-575.2c-.331-.312-.824.229-.542.569a116.226,116.226,0,0,1,16.875,27.872,64.214,64.214,0,0,1,3.362,9.447c.173,1.02.337,2.042.461,3.07q.542,4.5.652,9.027a.447.447,0,0,0,.155.332,49.564,49.564,0,0,1-2.227,11.669c-1.807,5.811-4.68,10.951-7.384,16.331-.066-.1-.124-.186-.176-.265l.141-.027a.334.334,0,0,0,.27-.378.73.73,0,0,0-.9-.713.438.438,0,0,0-.336.272c-.356.82.063,1.374.538,2.034-.029.058-.058.115-.086.173-.152.306.257.563.5.4q.328.456.662.91a.223.223,0,0,0-.244.162c-.644,1.773-1.234,3.565-1.8,5.365q-1.278-1.806-2.423-3.7a37.735,37.735,0,0,0,2.134-7.214c.051-.279-.379-.374-.478-.117-.8,2.079-1.533,4.179-2.274,6.277a33.569,33.569,0,0,0-2.837-5.01,13.744,13.744,0,0,0,.583-1.707,18.12,18.12,0,0,0,3.692.759.282.282,0,0,0,.059-.561,25.458,25.458,0,0,1-3.555-1.077,10.953,10.953,0,0,0,.154-1.159.351.351,0,0,0-.672-.164q-.195.48-.383.958c-9.036-3.876-14.54-12.579-17.693-21.947-3.425-10.179-4.825-21.277-2.982-31.915a48.154,48.154,0,0,1,2.384-8.837c1-2.643,2.424-5.035,3.633-7.567l.029.442c.053.825,1.331.614,1.272-.211q-.795-11.247-1.584-22.494-.382-5.454-.766-10.907c-.135-1.931-.255-3.864-.411-5.793a19.51,19.51,0,0,0-.682-5.115.188.188,0,0,0-.295-.087,3.65,3.65,0,0,1,.562-1.873c.277-.383,1.2-1.037,1.685-.885.775.246,1.151,1.249,1.305,1.925.443,1.946.735,3.94,1.1,5.9q1.17,6.339,2.331,12.679,1.134,6.174,2.246,12.35c.361,2,.745,4,1.131,6a21.962,21.962,0,0,0,1.55,5.963.115.115,0,0,0,.218-.035c.337-2.534-.435-5.3-.842-7.8-.454-2.79-.941-5.574-1.433-8.358q-1.447-8.185-2.939-16.362-.767-4.17-1.543-8.339c-.287-1.54-.357-3.908-1.819-4.9a3,3,0,0,0-3.7.544c-1.488,1.438-1.239,3.563-.9,5.409a.517.517,0,0,0,.784.375c.036.825.124,1.653.165,2.444.1,1.935.242,3.868.368,5.8q.369,5.628.736,11.256.691,10.586,1.378,21.17a.274.274,0,0,0-.142.083c-3.461,3.993-5.285,9.9-6.4,14.964a57.969,57.969,0,0,0-1.024,16.936,72.953,72.953,0,0,0,3.313,16.543c1.809,5.643,4.275,11.2,8.105,15.774a26.033,26.033,0,0,0,10.517,7.751c-.609,1.563-1.205,3.125-1.877,4.67a38.57,38.57,0,0,0-8.346-11.547c-.176-.165-.467.137-.294.309,6.877,6.843,10.185,16.11,12.426,25.447q-.516-.583-1.041-1.164a.362.362,0,0,0-.563.456,31.357,31.357,0,0,0,2.125,2.963c.468,2.093.893,4.18,1.3,6.234a67,67,0,0,0,1.92,8.852,6.079,6.079,0,0,0,4.236,4.051,9.01,9.01,0,0,0,1.728.3c-.179.391-.362.782-.556,1.171-.122.245.273.462.42.232.286-.447.558-.9.82-1.369a15.509,15.509,0,0,0,3.851-.48c.259-.062.49-.131.707-.189-.173.528-.351,1.054-.545,1.576a.269.269,0,0,0,.5.2c.248-.512.487-1.035.718-1.563q.924.451,1.861.837a20.277,20.277,0,0,1,1,1.966q1.206,2.223,2.411,4.446a.531.531,0,0,0,1-.3C148.109-463.468,142.987-472.33,142.625-482.074Zm-1.495-9.482q.664.93,1.317,1.863c-.329,1.684-.693,3.37-.857,5.076-.235-.328-.7-.947-1.307-1.743C140.62-488.088,140.906-489.822,141.13-491.556Zm.377,9.1a36.072,36.072,0,0,0,.678,5.846.457.457,0,0,0-.057-.06q-1.739-1.5-3.365-3.11.755-2.842,1.345-5.718c.409.453.822.9,1.246,1.339a.23.23,0,0,0,.192.075C141.508-483.545,141.492-483,141.507-482.458ZM138.13-495.82c.7,1.027,1.413,2.043,2.136,3.054-.284,1.753-.561,3.507-.859,5.257-.744-.973-1.594-2.084-2.45-3.207C137.372-492.411,137.77-494.112,138.13-495.82Zm-1.449,6.221c.827,1.053,1.673,2.092,2.548,3.1-.3,1.68-.616,3.356-.994,5.026-.071.314-.149.628-.222.942q-1.483-1.508-2.87-3.106.463-1.7.9-3.406Q136.361-488.316,136.681-489.6Zm-3.12,11.509c.984,1.065,2.018,2.086,3.086,3.056-.26.973-.526,1.945-.805,2.912-.563-.488-1.121-.982-1.668-1.49-.526-.487-1.033-.989-1.533-1.495Q133.11-476.6,133.561-478.09Zm-1.251,2.644c-1.272-1.31-2.479-2.668-3.676-4.04q.561-1.682,1.126-3.364a40.4,40.4,0,0,0,3.391,4.311Q132.739-476.991,132.31-475.446Zm3.7,4.727q1.437,1.209,2.942,2.331c-.305,1.355-.668,2.69-1.1,4.006-1.067-.86-2.092-1.786-3.1-2.77Q135.391-468.919,136.005-470.719Zm.327-.979q.467-1.395.906-2.807c.8.7,1.615,1.379,2.439,2.026-.144,1.04-.311,2.069-.516,3.083Q137.722-470.518,136.332-471.7Zm.592-4.388q-1.576-1.525-3.014-3.194.453-1.536.882-3.08,1.422,1.542,2.952,2.979C137.48-478.281,137.209-477.182,136.924-476.086Zm-3.683-18.039c0-.005,0-.01,0-.016q.817,1.111,1.649,2.214.579.768,1.168,1.53c-.207.957-.418,1.914-.644,2.867q-.39,1.647-.8,3.289-1.223-1.439-2.369-2.944c-.253-.332-.5-.669-.743-1.006C132.123-490.158,132.715-492.132,133.241-494.125Zm-2.169,7.3c.092.123.181.249.275.372.929,1.22,1.914,2.394,2.937,3.533-.264,1.044-.529,2.087-.8,3.128a52.269,52.269,0,0,1-3.26-4.439Q130.651-485.531,131.072-486.829Zm-3.087-4.5q1.2,1.926,2.541,3.764-.4,1.3-.781,2.6c-.915-1.4-1.8-2.827-2.715-4.246Q127.527-490.257,127.985-491.331Zm-4.868-3.971a15.529,15.529,0,0,0,1.461-2.328,25.49,25.49,0,0,0,2.687,5.13c.046.076.094.151.14.227-.5,1.389-1,2.776-1.546,4.151A60.178,60.178,0,0,0,123.117-495.3Zm5.152,15.4-.329-.378c-.539-2.372-1.135-4.73-1.836-7.042q.3-.588.59-1.186a30.517,30.517,0,0,0,2.626,4.994Q128.793-481.711,128.269-479.9Zm8.393,18.693a7.184,7.184,0,0,1-2.826-.6c-1.845-.861-2.548-2.582-3-4.457-.768-3.154-1.293-6.377-1.936-9.558q-.219-1.084-.452-2.166c1.135,1.272,2.34,2.488,3.555,3.655-.315,1.12-.631,2.239-.958,3.356-.043.147.175.237.225.088q.531-1.573,1.037-3.154.432.412.866.818,1.165,1.092,2.377,2.13-.54,1.821-1.129,3.625-.834-.83-1.658-1.71a.269.269,0,0,0-.417.339,19.183,19.183,0,0,0,1.769,2.289c-.073.218-.143.436-.218.653s.266.366.351.138l.168-.461a23.666,23.666,0,0,0,3.115,2.779C137.26-462.7,136.977-461.953,136.662-461.212Zm1.364-.034c-.185.015-.373.026-.561.033.286-.557.552-1.126.8-1.7.612.427,1.243.828,1.887,1.205A14,14,0,0,1,138.026-461.246Zm3.82-.8c-.189.02-.382.05-.575.086a31.094,31.094,0,0,1-2.649-1.812,27.444,27.444,0,0,0,1.219-3.96q1.5,1.074,3.073,2.045C142.559-464.476,142.217-463.26,141.846-462.05Zm4.111,3.779c-.164-.3-.323-.636-.486-.977.073.025.145.053.217.078a.282.282,0,0,0,.206-.525c-.273-.1-.539-.214-.8-.325a5.5,5.5,0,0,0-1.052-1.494,2.191,2.191,0,0,0-1.309-.549,24.9,24.9,0,0,0,1.019-3.249.334.334,0,0,0,.131-.6,17.6,17.6,0,0,0,.295-1.97c.027-.314-.454-.456-.556-.136-.168.523-.328,1.047-.485,1.571-1.04-.743-2.071-1.5-3.088-2.272a25.231,25.231,0,0,0,.394-3.179q1.091.826,2.193,1.583c.442.3.934-.364.494-.671q-1.359-.95-2.651-1.984c0-.027,0-.054,0-.082a.367.367,0,0,0-.523-.343q-1.239-1.017-2.411-2.111.484-1.6.928-3.206,1.537,1.4,3.163,2.707a.388.388,0,0,0,.627-.228c1.367,6.786,4.158,13.313,4.929,20.218Z" fill="#477c91"/>
          <path id="Path_11861" data-name="Path 11861" d="M136.9-537.212c-.707-5.709-2.922-11.023-5.509-16.114-1.482-2.917-3.121-5.763-4.809-8.565-1.52-2.522-2.967-5.517-5.018-7.644a5.3,5.3,0,0,0-5.81-1.132,6.914,6.914,0,0,0-1.116.535l-.005-.009a.39.39,0,0,0-.71.321c.015.043.031.086.045.13a14.389,14.389,0,0,0-3.578,4.416.667.667,0,0,0-.1.371,21.182,21.182,0,0,0-2.246,8.779,93.5,93.5,0,0,0,.41,17.392c1.2,10.483,4.919,21.112,12.2,28.951a32.283,32.283,0,0,0,5.388,4.757c1.422.968,3.45,1.835,4.834.332a7,7,0,0,0,1.156-2.487c.536-1.519,1.057-3.045,1.548-4.581.869-2.716,1.62-5.474,2.229-8.261A51.526,51.526,0,0,0,136.9-537.212Zm-21.6-28.972a89.924,89.924,0,0,0,4.065,8.354c-.192,2.447-.425,4.889-.77,7.333-.025-.051-.053-.1-.078-.151-1.3-2.613-2.28-5.373-3.552-7.988A55.159,55.159,0,0,0,115.294-566.184Zm4.993,36.529c.442.478.89.95,1.34,1.421q-.909,1.851-1.893,3.675c-1.119-1.4-2.147-2.859-3.207-4.35q.623-1.762,1.232-3.542C118.6-531.5,119.442-530.568,120.287-529.655Zm-2.14-3.944q.654-1.949,1.263-3.913l.007.009c1.286,1.759,2.669,3.475,4.143,5.118-.482,1.086-.973,2.168-1.487,3.241-.417-.441-.834-.883-1.243-1.332C119.9-531.5,119.015-532.541,118.147-533.6Zm4.042,5.948q2.122,2.19,4.374,4.255a33.166,33.166,0,0,1-2.375,3.4c-.29-.235-.579-.476-.862-.726a29.485,29.485,0,0,1-3.163-3.307Q121.2-525.819,122.189-527.651Zm.469-.876q.816-1.542,1.582-3.112a56.774,56.774,0,0,0,4.309,4.188,27.684,27.684,0,0,1-1.28,2.806c-.076.144-.159.279-.237.421C125.54-525.622,124.077-527.051,122.658-528.527Zm2.07-4.123q.879-1.848,1.677-3.733c1.153,1.482,2.364,2.918,3.636,4.294-.337,1.238-.7,2.459-1.13,3.666Q126.74-530.46,124.728-532.65Zm-.709-.786c-1.273-1.435-2.492-2.926-3.644-4.49q-.3-.409-.593-.824.765-2.563,1.4-5.152c.282.446.563.889.843,1.323,1.142,1.772,2.348,3.517,3.624,5.213Q124.861-535.389,124.019-533.436Zm-4.849-6.191q-.686-1-1.333-2.024c.375-1.677.712-3.35,1.022-5,.052-.278.1-.558.155-.838.5.87,1.016,1.725,1.535,2.565C120.083-543.157,119.628-541.391,119.17-539.627Zm-.34,1.31c-.366,1.4-.735,2.8-1.118,4.188q-.686-.847-1.356-1.706c.424-1.453.8-2.919,1.152-4.387Q118.162-539.252,118.83-538.317Zm-3.246,1.478c-1.1-1.438-2.187-2.891-3.272-4.348.45-1.957.813-3.939,1.128-5.925a59.822,59.822,0,0,0,3.335,5.783Q116.221-539.073,115.584-536.839Zm.382,2.3q.694.831,1.4,1.643c-.344,1.226-.7,2.45-1.069,3.669-.193-.269-.385-.539-.581-.81-.26-.361-.781.009-.635.392a16.032,16.032,0,0,0,.8,1.75q-.437,1.374-.907,2.74c-.042.122.144.2.188.073q.442-1.242.889-2.493a24.676,24.676,0,0,0,3.012,4.22c-.406.722-.82,1.443-1.249,2.158-.185.309.264.645.455.334q.615-1,1.216-2.018c.891.984,1.828,1.9,2.752,2.741q.588.533,1.213,1.058c-.715.866-1.453,1.715-2.205,2.568-.6-.556-1.183-1.126-1.741-1.726a36.61,36.61,0,0,1-6.243-9.241A55.7,55.7,0,0,0,115.966-534.541Zm8.23,16.064a28.686,28.686,0,0,0,5.042,3.287,22.715,22.715,0,0,1-2.14,3.042c-.813-.477-1.624-.959-2.386-1.512q-1.51-1.1-2.9-2.337A22.229,22.229,0,0,0,124.2-518.477Zm.745-.933a35.948,35.948,0,0,0,2.279-3.39q1.971,1.764,4.055,3.392a30.658,30.658,0,0,1-1.43,3.135A45.418,45.418,0,0,1,124.941-519.41Zm2.747-4.2c.08-.142.165-.285.243-.426.482-.872.953-1.8,1.391-2.753,1.118.937,2.274,1.825,3.466,2.653-.231.883-.478,1.761-.758,2.631q-.222.688-.472,1.37Q129.6-521.85,127.688-523.61Zm2.025-4.068a30.312,30.312,0,0,0,1.233-3.454q1.344,1.391,2.779,2.683a.176.176,0,0,0,.03.017c-.009.048-.017.1-.026.145q-.335,1.743-.759,3.465Q131.308-526.223,129.713-527.678Zm1.458-4.284a18.77,18.77,0,0,0,.587-4.006c.01-.363-.568-.571-.673-.164-.271,1.056-.53,2.1-.8,3.125-1.2-1.415-2.363-2.849-3.487-4.319q1-2.432,1.833-4.915a100.564,100.564,0,0,0,6.117,8.324c-.442,1.621-.622,3.335-.906,5Q132.492-530.432,131.171-531.962Zm-2.778-12.667c-1.507-2.387-2.981-4.795-4.385-7.25-1.233-2.157-2.37-4.36-3.477-6.579a60.231,60.231,0,0,0,.173-6.666c1.8,4.416,4.45,8.619,6.7,12.8q1.116,2.073,2.24,4.139C129.229-547,128.817-545.807,128.393-544.629Zm-5.091-6.252c1.475,2.545,3.009,5.073,4.618,7.55-.611,1.672-1.234,3.337-1.883,4.988-1.04-1.4-2.045-2.833-2.993-4.314-.534-.835-1.049-1.681-1.554-2.533.357-1.563.67-3.132.923-4.706.042-.265-.39-.378-.466-.114-.364,1.266-.711,2.534-1.052,3.8q-.825-1.434-1.591-2.9c.4-2.3.751-4.643,1.006-7C121.3-554.338,122.308-552.595,123.3-550.881Zm-4.984,2.161c-.091.555-.187,1.11-.292,1.666-.269,1.423-.574,2.84-.9,4.251q-1.076-1.779-2.048-3.619c-.476-.9-.91-1.818-1.327-2.741q.228-1.591.433-3.178c.184-1.411.377-2.848.552-4.3A48.366,48.366,0,0,0,118.318-548.72Zm-9.217-4.689c.08-3.758.4-7.677,2.139-10.976a.7.7,0,0,0,.154-.15,21.418,21.418,0,0,1,3.1-3.669c.054.143.108.287.163.43-.8,5.048-.855,10.249-1.5,15.327-.062.5-.136.994-.205,1.491-.637-1.483-1.256-2.974-1.928-4.448a65.554,65.554,0,0,0,.38-7.914.3.3,0,0,0-.6-.064,100.6,100.6,0,0,0-.847,12.391.309.309,0,0,0,.614.064c.088-.886.181-1.775.272-2.666a37.23,37.23,0,0,0,1.792,4.8c-.343,2.2-.722,4.4-1.086,6.6-.687-.92-1.377-1.839-2.079-2.754a.28.28,0,0,0-.259-.107C109.074-547.839,109.042-550.625,109.1-553.409Zm1.027,17.362c-.41-2.644-.681-5.3-.847-7.972q.942,1.69,2.032,3.32c-.2,1.225-.381,2.453-.544,3.683-.031.229.33.325.4.1.292-.933.549-1.879.791-2.83,1.012,1.455,2.1,2.872,3.218,4.252-.731,2.367-1.576,4.694-2.356,7.042-.13-.3-.265-.59-.387-.89-.109-.267-.5-.084-.4.182.171.488.355.971.548,1.45-.1.292-.19.584-.281.878A59.66,59.66,0,0,1,110.128-536.047Zm21.308,26.911a14.571,14.571,0,0,1-1.025,2.893c-1.4,2.181-3.154.663-4.538-.391a34.333,34.333,0,0,1-5.021-4.7,43.343,43.343,0,0,1-8.3-14.719.274.274,0,0,0,.04-.053c.122-.238.239-.481.357-.723a33.108,33.108,0,0,0,6.079,9.314c.507.547,1.052,1.112,1.626,1.677q-.5.564-1,1.136c-.113.131.078.273.2.193.427-.275.841-.574,1.244-.893a28.123,28.123,0,0,0,5.271,4.074c-.368.393-.753.774-1.157,1.139-.191.172.054.48.254.313q.7-.584,1.327-1.212a13.515,13.515,0,0,0,2.956,1.2c.256.068.481-.252.237-.431a27.446,27.446,0,0,0-2.438-1.555,22.465,22.465,0,0,0,2.3-3.014,17.258,17.258,0,0,0,2.929,1.048.343.343,0,0,0,.188-.012Q132.245-511.484,131.436-509.136Zm1.706-5.267a.312.312,0,0,0-.033-.028c-.881-.5-1.759-.992-2.63-1.483a27.291,27.291,0,0,0,1.466-2.975q1.011.772,2.049,1.506Q133.591-515.886,133.142-514.4Zm2.434-10.143c-.369,2.238-.864,4.449-1.441,6.64q-.961-.822-1.915-1.652c.118-.3.236-.6.346-.9.375-1.038.7-2.094.984-3.16.219.146.437.294.659.435a.235.235,0,0,0,.278-.379q-.395-.322-.786-.648.311-1.209.575-2.43a39.772,39.772,0,0,0,1.184-7.268.4.4,0,0,0-.394-.384c-2-3.1-4.023-6.172-6-9.278q.583-1.855,1.056-3.738,2.284,4.189,4.628,8.346c.2.347.76.109.576-.26q-2.385-4.785-4.859-9.519c.087-.379.174-.757.253-1.137.052-.253-.357-.348-.44-.107-.061.176-.124.349-.185.525q-.937-1.8-1.883-3.6c-2.3-4.369-4.371-9.1-7.2-13.149a.29.29,0,0,0-.358-.114c-.032-.568-.071-1.135-.125-1.7a.229.229,0,0,0-.452.014c-.2,2.533-.35,5.053-.523,7.566-1.379-2.8-2.745-5.615-4.211-8.374a5.642,5.642,0,0,1,1.022-.5c2.992-1.095,4.517,1.079,5.975,3.277,2.785,4.2,5.356,8.531,7.759,12.959a50.137,50.137,0,0,1,5.368,13.526A40.8,40.8,0,0,1,135.576-524.546Z" fill="#477c91"/>
          <path id="Path_11862" data-name="Path 11862" d="M110.342-617.217a.513.513,0,0,0-.969.293,3.342,3.342,0,0,0,.451,1.774.665.665,0,0,0,1.165-.345A3.289,3.289,0,0,0,110.342-617.217Z" fill="#477c91"/>
        </g>
        <g id="Layer_30" data-name="Layer 30">
          <path id="Path_11863" data-name="Path 11863" d="M74.136-622.737c.059-.486.4-.957.755-.847a2.4,2.4,0,0,0,.391,1.348.706.706,0,0,1-.178.255.735.735,0,0,1-.525.191A1.033,1.033,0,0,1,74.136-622.737Z" fill="#477c91"/>
        </g>
      </g>
      <g id="Layer_6" data-name="Layer 6">
        <path id="Path_11864" data-name="Path 11864" d="M237.684-379.094c-45.049,4-90.061,8.508-135.081,12.829q-9.549.917-19.1,1.832c-6.351.607-12.773.992-19.087,1.908-.294.043-.208.457.074.445,5.7-.242,11.4-.955,17.08-1.473s11.378-1.035,17.067-1.552q16.727-1.518,33.452-3.037,33.789-3.088,67.573-6.216c12.741-1.172,25.489-2.279,38.222-3.527C238.671-377.962,238.466-379.163,237.684-379.094Z" fill="#477c91"/>
        <path id="Path_11865" data-name="Path 11865" d="M431.115-385.476l-8.245.111a50.639,50.639,0,0,0-7.685.257.307.307,0,0,0,.018.606,52.161,52.161,0,0,0,7.889.151l7.9,0C431.719-384.354,431.838-385.486,431.115-385.476Z" fill="#477c91"/>
        <path id="Path_11866" data-name="Path 11866" d="M790.072-376.5c-11.044-1.008-22.153-1.4-33.23-1.9s-22.179-.979-33.27-1.427q-32.931-1.332-65.873-2.339-65.884-2.016-131.8-2.738c-24.706-.27-49.46-.756-74.165-.3-.566.011-.683.887-.094.9,22.188.426,44.395.238,66.586.468q32.955.342,65.9,1.006,65.9,1.33,131.764,3.955,18.523.738,37.042,1.579c12.346.56,24.707,1.344,37.066,1.471C790.429-375.822,790.514-376.459,790.072-376.5Z" fill="#477c91"/>
      </g>
      <g id="hokej">
        <g id="Layer_31" data-name="Layer 31">
          <g id="Group_3456" data-name="Group 3456">
            <g id="Group_3455" data-name="Group 3455">
              <path id="Path_11867" data-name="Path 11867" d="M628.764-372.66a4.443,4.443,0,0,0-2.852.078c-1.384.444-2.753.945-4.126,1.421a11.727,11.727,0,0,0-3.982,1.81,1.177,1.177,0,0,0,.446,2.02,3.82,3.82,0,0,0-.4.739,1.7,1.7,0,0,0,2.254,2.144l8.691-3.207a1.558,1.558,0,0,0,.906-1.061,1.93,1.93,0,0,0,.945-1.219c.129-.157.229-.282.26-.321C632.123-371.772,630.219-373.34,628.764-372.66Z" fill="#ffec9c"/>
              <path id="Path_11868" data-name="Path 11868" d="M594.44-373c-2.635-.269-5.647-.978-8.256-.317a1.239,1.239,0,0,0-.628.363,1.6,1.6,0,0,0-1.085,1.55c-.033,1.161,1.667,1.407,1.9.429,2.306,1.082,5.229,1.154,7.7,1.524C596.342-369.151,596.73-372.764,594.44-373Z" fill="#ffec9c"/>
              <path id="Path_11869" data-name="Path 11869" d="M649.434-374.578c-.484-.8-.946-1.613-1.394-2.429a87.73,87.73,0,0,0-3.989-8.13,1.76,1.76,0,0,0-.924-.822,55.571,55.571,0,0,0-3.625-7.464q-.81-1.678-1.676-3.324a75.251,75.251,0,0,0-4.181-6.553c-2.316-6.2-4.938-12.285-6.836-18.642-.215-.721-.416-1.448-.618-2.174q-.939-6.463-2.493-12.818a70.023,70.023,0,0,0-1.207-7.588,1.446,1.446,0,0,0,.09-.789,57.277,57.277,0,0,0-1.8-8,1.537,1.537,0,0,0-1.077-1.09q1.066-3.342,2.113-6.691,1.76-5.661,3.338-11.373.746-2.7,1.466-5.4c.541-2.035.813-4.1,1.318-6.156a29.7,29.7,0,0,0,1.11-6.4c.06-2.2,1.05-4.257,1.481-6.407.354-1.763.747-3.518,1.132-5.274.075-.017.148-.039.221-.063.039-.154.077-.307.117-.462.745-2.846,1.109-4.092,1.774-6.855,1.336-5.549,2.383-11.172,3.471-16.774.837-4.315,1.688-8.612,2.753-12.867a5.06,5.06,0,0,1,.059-1.035c1.152-6.739,2.512-13.438,3.916-20.128-.22-1.663-2.576-2.467-3.288-.588-1.677,4.423-2.056,9.321-3.078,13.919-1.045,4.7-2.087,9.407-3.093,14.12-.979,4.59-1.973,9.175-2.925,13.771-.99,4.79-2.255,9.55-3.026,14.377a2.235,2.235,0,0,0,.044.955c-.417,1.707-.849,3.41-1.277,5.111-.452,1.8-.742,3.583-1.126,5.39-.416,1.952-1.561,3.661-2.081,5.61-.348,1.307-.729,2.6-1.121,3.884.072-2.456.009-4.924-.031-7.38-.086-5.261-.562-10.491-.756-15.743a1.241,1.241,0,0,0-.637-1.057c.479-4.183.964-8.345,1.289-12.558.39-5.06.839-10.12,1.117-15.187.269-4.907.6-9.808.93-14.711.311-4.677.738-9.42.239-14.1a.945.945,0,0,0-1.864.056c-.268,2.308-.964,5.166-.456,7.45a.9.9,0,0,0,.513.616c-.135,2.249-.349,4.5-.52,6.745-.364,4.795-.727,9.588-1.147,14.379-.423,4.831-.67,9.681-.986,14.521-.275,4.208-.385,8.389-.5,12.59a1.345,1.345,0,0,0-1.165,1.348c.157,7.02-.159,14.009-.617,21.012-.12,1.832-.264,3.663-.422,5.493-.057-.285-.117-.568-.181-.851a1.225,1.225,0,0,0-1.251-1.005q-.182-1.682-.359-3.365c-.784-7.521-1.306-15.1-1.639-22.65a.872.872,0,0,0-.651-.854c-.137-2.376-.31-4.75-.462-7.128-.319-5-.223-10.019-.616-15.024-.783-9.968-1.234-19.969-1.811-29.952-.083-1.439-2.335-1.08-2.226.369.736,9.845,1.64,19.7,2.137,29.554.247,4.881.936,9.7,1.345,14.56.219,2.6.367,5.21.55,7.813a1.085,1.085,0,0,0-.466,1.026q1.058,11.118,1.933,22.259c.283,3.607.514,7.215.9,10.812.122,1.139.241,2.278.372,3.416.1,2.795.06,6.216,1.155,8.832-4.2,14.023-9.213,27.755-14.078,41.565q-4.19,11.895-8.569,23.721c-3.684,2.419-7.287,4.976-10.992,7.365-4.692,2.2-9.351,4.476-14.142,6.463a141.148,141.148,0,0,1-22.2,7.315c-2.526.584-3.512,2.808-2.764,5.168.948,2.993,4.258,4.377,7.177,4.113,2.995-.27,6.046-1.894,8.837-2.943,5.591-2.1,11.469-3.908,16.743-6.748,2.414-1.3,4.628-2.929,7.012-4.277a38.757,38.757,0,0,1,7.709-2.937,12.65,12.65,0,0,0,6.862-4.525,9.68,9.68,0,0,0,1.712-7.468,3.957,3.957,0,0,0-.2-.615c.022-.061.045-.123.068-.184.032-.09.065-.179.1-.269a1.336,1.336,0,0,0,.437-.662c1.163-3.68,2.83-7.152,4.176-10.757a2.068,2.068,0,0,0,.087-1.258c3.562-9.616,7.05-19.268,10.006-29.063-.2,1.476-.262,2.977-.382,4.322q-.418,4.678-.585,9.372a138.358,138.358,0,0,0,.542,16.727c-1.7,6.3-3.621,12.533-5.422,18.8-.995,3.465-1.915,6.948-2.694,10.468a47.57,47.57,0,0,0-1.432,8.707,1.5,1.5,0,0,0-.7,1.428q.029.657.082,1.313a1.593,1.593,0,0,0,2.216,1.186c1.866-.987,2.9-3.214,3.855-5.012a40.171,40.171,0,0,0,2.771-6.785,113.27,113.27,0,0,0,3.286-15.064c.24-1.415.464-2.831.682-4.248.123-.443.247-.884.37-1.327.547-1.981,1.423-4.39.692-6.374.06-.484.123-.969.18-1.453q.432-1.51.84-3.026a2.32,2.32,0,0,0-.32-1.913c.473-5.025.774-10.066.866-15.131.1-5.526-.268-11.027-.494-16.541q.306,2.008.631,4.013a2.252,2.252,0,0,0-.168,1,47.83,47.83,0,0,0,1.239,7.935q.05.489.1.978c.3,2.857.564,5.76,1.147,8.576.44,2.132,1.056,4.254,1.665,6.361.431,5.779.269,11.893,3.655,16.835a1.325,1.325,0,0,0,1.029.632l0,.014a1.5,1.5,0,0,0-.322,1.954q1.175,2.18,2.352,4.355a64.074,64.074,0,0,0,4.316,7.891,1.583,1.583,0,0,0,2.179.471,36.013,36.013,0,0,0,8.2,10.318,1.527,1.527,0,0,0,.416.262c.352.329.706.656,1.066.976a1.511,1.511,0,0,0,1.538.162,2.393,2.393,0,0,0,1.335-2.958A1.277,1.277,0,0,0,649.434-374.578Zm-32.359-71.558q.568-1.8,1.144-3.6a21.334,21.334,0,0,0,.426,2.565,1.8,1.8,0,0,0-.083.923l.045.3A1.52,1.52,0,0,0,617.075-446.136Zm10.473,37.687c-.016-.35-.033-.7-.049-1.05q.123.321.247.642A1.7,1.7,0,0,0,627.548-408.449Z" fill="#ffec9c"/>
            </g>
            <path id="Path_11870" data-name="Path 11870" d="M620.539-510.381a8.006,8.006,0,0,0,2.227-.385q-.117,4.564-.249,9.126-.35,11.91-.816,23.816a18.565,18.565,0,0,1,1.631-3.253q.893-24.238,1.271-48.492c.093-5.818.077-11.642.292-17.456a130.29,130.29,0,0,1,1.967-17.662.465.465,0,0,0-.892-.217c-3.011,9.923-2.564,20.814-2.726,31.075q-.172,10.9-.447,21.8a7.812,7.812,0,0,0-2.575.6C619.6-511.18,619.961-510.354,620.539-510.381Z" fill="#477c91"/>
            <path id="Path_11871" data-name="Path 11871" d="M649.735-373.422a70.38,70.38,0,0,0-3.422-8.545q-2-4.569-4.268-9.012a132.238,132.238,0,0,0-9.824-16.847c-.973-4.184-2.386-8.315-3.446-12.462q-1.937-7.581-3.562-15.237-1.727-8.078-3.137-16.216.272-5.779.529-11.557c-.018.23-.038.458-.075.678a.9.9,0,0,1-1.49.487c-.048,1.107-.095,2.215-.147,3.322q-.549-3.444-1.055-6.895c-3-20.519-4.824-41.187-6.2-61.871q-.565-8.5-1.078-17.007c-.344-5.692-.465-11.452-1.114-17.12a.85.85,0,0,0,.1-.141.538.538,0,0,0-.112-.732c-.473-.353-.985-.126-1.5.017-.4.112-.788.249-1.174.385-.373-.222-1-.073-.983.447.3,10.407,1.186,20.825,1.88,31.212.7,10.426,1.377,20.854,2.125,31.278,1.471,20.488,3.2,40.982,6.126,61.321q.657,4.57,1.394,9.131c-.516,8.5-1.079,17-1.572,25.5-.558,2.591-.917,5.25-1.453,7.833q-1.063,5.137-2.33,10.229c-.8,3.233-1.66,6.456-2.6,9.653-.828,2.819-1.756,6.914-4.195,8.806-1.191.924-2.583.607-2.565-1.075a15.185,15.185,0,0,1,.3-2.2c.276-1.716.581-3.427.9-5.136q.93-5.058,2.155-10.058c1.613-6.558,3.737-12.933,5.84-19.345a.316.316,0,0,0-.588-.23,151.062,151.062,0,0,0-9.516,35.3c-.23,1.5-.532,3.752,1.3,4.394,1.938.676,3.627-1.36,4.505-2.786a29.793,29.793,0,0,0,2.913-7.251q1.371-4.629,2.595-9.3,1.28-4.917,2.376-9.879c.343-1.553.729-3.133,1.079-4.722a.562.562,0,0,0,.329-.491c.057-.649.111-1.3.166-1.947a35.582,35.582,0,0,0,.494-3.633.58.58,0,0,0-.156-.442q.661-8.205,1.179-16.426c.075.418.145.837.221,1.255.964,5.29,1.9,10.635,3.315,15.831a.256.256,0,0,0-.351.319c1.107,2.952,2.141,5.841,3.538,8.685,1.376,2.8,2.9,5.538,4.535,8.2a104.8,104.8,0,0,0,11.063,14.919c1.252,1.406,3.186,4.2,5.438,3.694C650.219-369.547,650.185-371.852,649.735-373.422Zm-2.129,2.829c-1.226,0-.834.122-1.5-.321a9.146,9.146,0,0,1-1.464-1.5q-1.387-1.512-2.717-3.073a103.545,103.545,0,0,1-9.523-13.169,119.14,119.14,0,0,1-7.71-14.757.364.364,0,0,0,.419-.435c-1.213-8.243-2.872-16.416-4.245-24.639a40.275,40.275,0,0,0-1.142-7.409c-1.365-9.6-2.5-19.226-3.46-28.87-2.049-20.49-3.344-41.045-4.7-61.59-.765-11.606-1.289-23.28-2.478-34.852.386-.026.769-.051,1.161-.108h.008c.016,4.783.431,9.583.706,14.355.3,5.234.608,10.468.959,15.7.7,10.462,1.506,20.918,2.484,31.358,1.494,15.94,3.441,31.851,6.18,47.627a40.791,40.791,0,0,0,1.2,6.644q.675,3.575,1.407,7.14,1.777,8.622,3.938,17.158c.918,3.614,1.741,7.381,2.849,11.013a.727.727,0,0,0-.472,1.1c.613.981,1.238,1.952,1.866,2.92.184.467.374.93.574,1.387a.411.411,0,0,0,.48.234c2.167,3.313,4.345,6.612,6.291,10.082a163.965,163.965,0,0,1,7.464,15.082q.8,1.858,1.561,3.738a10.685,10.685,0,0,1,1.2,3.978C648.916-370.588,648.831-370.6,647.606-370.593Z" fill="#477c91"/>
            <path id="Path_11872" data-name="Path 11872" d="M630.945-373.815a11.688,11.688,0,0,1-2.069.593.463.463,0,0,0-.277-.051,39.071,39.071,0,0,0-5.76,1.442,34.677,34.677,0,0,0-5.165,1.766.479.479,0,0,0,.274.9,37.639,37.639,0,0,0,5.759-1.451,36.628,36.628,0,0,0,5.115-1.749,7.476,7.476,0,0,0,1.565-.116,10.422,10.422,0,0,0-.263,3.578c-1.684.468-3.3,1.238-4.932,1.838-1.887.692-3.857,1.212-5.707,2a7.187,7.187,0,0,1-.48-.892,17.053,17.053,0,0,1-.785-2.774c-.109-.479-.872-.513-.9.027a7.738,7.738,0,0,0,.5,3.1c.314.848.735,2,1.6,2.387a.455.455,0,0,0,.608-.493,1.951,1.951,0,0,0-.128-.538,30.224,30.224,0,0,0,5.539-1.5,23.651,23.651,0,0,0,5.467-2.35.513.513,0,0,0,.436-.5,21.807,21.807,0,0,1,.4-4.464A.6.6,0,0,0,630.945-373.815Z" fill="#477c91"/>
            <path id="Path_11873" data-name="Path 11873" d="M595.777-371.891a10.991,10.991,0,0,0-.852,3.826.339.339,0,0,0,.6.144,10.948,10.948,0,0,0,.832-3.828C596.405-372.08,595.878-372.221,595.777-371.891Z" fill="#477c91"/>
            <path id="Path_11874" data-name="Path 11874" d="M595.343-372.784a20.442,20.442,0,0,0-6.3-1.478.291.291,0,0,0-.314.2c-.775-.137-1.541-.25-2.245-.361a.4.4,0,0,0-.382.141.365.365,0,0,0-.631-.348A7.651,7.651,0,0,0,584-371.707c-.033.139-.067.289-.1.443-.05,0-.1.005-.149.011a.446.446,0,0,0-.089.85c.038.014.078.024.116.037a2.043,2.043,0,0,0,.345,1.373.292.292,0,0,0,.493-.076,2.477,2.477,0,0,0,.234-1,35.363,35.363,0,0,0,3.972.464c1.922.189,3.841.3,5.771.362a.282.282,0,0,0,.059-.561c-1.893-.4-3.787-.744-5.7-1.016a33.908,33.908,0,0,0-4.015-.485c0-.022.005-.045.009-.066a7.878,7.878,0,0,1,1.048-2.708.44.44,0,0,0,.269.542,22.524,22.524,0,0,0,6.3,1.666.514.514,0,0,0,.55-.427,12.266,12.266,0,0,0,2.045.286A.405.405,0,0,0,595.343-372.784Z" fill="#477c91"/>
            <path id="Path_11875" data-name="Path 11875" d="M628.589-565.57c-.692-.963-2.1-.857-3.11-.528a3.722,3.722,0,0,0-1.736,1.134.57.57,0,0,0-1.044.242c-.769,5.193-.984,10.483-1.377,15.716q-.579,7.7-1.13,15.4-1.115,15.568-2.119,31.146-.72,11.16-1.372,22.326a.7.7,0,0,1,.326.564,51.007,51.007,0,0,0,.633,5.443q1.667-27.793,3.678-55.566.622-8.555,1.277-17.1c.423-5.517,1.059-11.063,1.2-16.6a4.147,4.147,0,0,1,2.2-1.369c.763-.167,1.52.073,2.287-.041A.476.476,0,0,0,628.589-565.57Z" fill="#477c91"/>
            <path id="Path_11876" data-name="Path 11876" d="M615.936-443.651c.01-.182.021-.364.03-.546a24.132,24.132,0,0,1-.673,2.414c-.277.815-.5,1.732-.844,2.563l-.012.226q-2.208,6.757-4.593,13.464c-4.2,11.777-8.653,23.563-10.949,35.887q-10.781,6.224-21.938,11.749-5.53,2.724-11.153,5.26a118.64,118.64,0,0,1-11.279,4.79c-3.75,1.24-9.281,1.169-10.3-3.67-.913-4.359,6.153-5.09,9.038-5.939a161.465,161.465,0,0,0,20.643-7.515c7.627-3.429,15.138-7.637,21.38-13.257a.492.492,0,0,0,.632-.324c6.586-19.285,13.1-38.612,19.183-58.07a20.256,20.256,0,0,1,1.534-5.177c-.314-1.609-.565-3.228-.72-4.864q-.127,2.253-.254,4.508-4.428,14.394-9.154,28.7-5.691,17.292-11.628,34.5l0,.016a.361.361,0,0,0-.057.036A105.727,105.727,0,0,1,572.9-385.772a209.853,209.853,0,0,1-24.331,8.585c-2.639.8-5.123,1.967-5.076,5.11a6.381,6.381,0,0,0,4.36,5.67c3.778,1.221,7.845-.652,11.276-2.082,4.294-1.788,8.543-3.686,12.757-5.652q13.968-6.519,27.344-14.216a.356.356,0,0,0,.313-.179l.249-.143a.7.7,0,0,0,.086-1.142c2.868-11.439,6.733-22.567,10.712-33.659q1.818-5.067,3.55-10.158c-.522,9.259-1.069,18.563-.967,27.8.005.4.6.491.641.067,1.019-10.323,1.228-20.791,1.761-31.151.021-.392.043-.783.063-1.175q1.43-4.307,2.785-8.637c-.207-1.064-.4-2.127-.54-3.193Q616.928-446.782,615.936-443.651Z" fill="#477c91"/>
            <path id="Path_11877" data-name="Path 11877" d="M641.561-561.534a.739.739,0,0,0,.93,1.148c.559-.434.291,1.7.272,1.795l-.429,2.267q-.4,2.106-.8,4.212-.829,4.375-1.668,8.749c-1.078,5.617-2.162,11.233-3.291,16.839q-1.68,8.344-3.455,16.669c-.292,0-.589.013-.894,0-.641-.03-1.289-.085-1.932-.157q1.6-6.38,3.089-12.788c2.735-11.8,5.144-23.667,6.865-35.663.046-.321-.433-.361-.494-.052-3.2,16.208-6.649,32.35-10.619,48.376a.607.607,0,0,0-.266,1.065q-1.774,7.117-3.692,14.2-3.285,12.093-6.9,24.091c.153.773.311,1.544.468,2.317,4.014-13.307,7.792-26.682,11.2-40.158a11.055,11.055,0,0,0,2.1.522c.225.032.453.066.681.092q-1.694,7.846-3.507,15.668-4.008,17.213-8.89,34.172.282,1.812.481,3.632c.391-1.321.782-2.642,1.162-3.967,4.689-16.369,8.636-32.928,12.232-49.564a2.1,2.1,0,0,0,.622-.289.741.741,0,0,0-.028-1.169,1.975,1.975,0,0,0-.255-.122q2.175-10.127,4.211-20.283,2.022-10.029,3.961-20.075.5-2.59,1.005-5.182l.5-2.591a12.279,12.279,0,0,0,.5-2.59A1.879,1.879,0,0,0,641.561-561.534Z" fill="#477c91"/>
          </g>
        </g>
      </g>
    </g>
  </g>
</svg>
