<svg xmlns="http://www.w3.org/2000/svg" xmlns:xlink="http://www.w3.org/1999/xlink" width="654" height="372" viewBox="0 0 654 372">
  <defs>
    <clipPath id="clip-Kontakt">
      <rect width="654" height="372"/>
    </clipPath>
  </defs>
  <g id="Kontakt" clip-path="url(#clip-Kontakt)">
    <g id="Group_3471" data-name="Group 3471" transform="translate(57.048 -29.333)">
      <path id="Path_12123" data-name="Path 12123" d="M399.236,331.16l15.9,65.407,19.216,64.495,15.091,2.864,1.345-5.514,8.139-144.963s-17.043,8.279-25.83,10.162C406.07,331.16,399.236,331.16,399.236,331.16Z" transform="translate(-6.243 -13.788)" fill="#bdd4f9"/>
      <path id="Path_12124" data-name="Path 12124" d="M436.227,464.857c-2.62-8.715-5.594-17.324-8.313-26.01q-4.127-13.179-7.936-26.455-7.579-26.409-13.931-53.152c-2.324-9.794-4.333-19.659-6.63-29.457a1.507,1.507,0,0,1-.887.539c1.612,8.695,3.673,17.332,5.67,25.942q3.115,13.43,6.55,26.784,6.813,26.487,14.909,52.623c3.048,9.863,6.048,19.789,9.7,29.449C435.537,465.6,436.378,465.358,436.227,464.857Z" transform="translate(-6.208 -14.589)"/>
      <path id="Path_12125" data-name="Path 12125" d="M461.2,312.863c-.791,8.3-1.044,16.669-1.476,24.993s-.864,16.674-1.3,25.012q-1.291,24.908-2.533,49.82c-.475,9.379-2.665,36.189-3.049,45.573-.033.8,1.2.946,1.253.132,1-16.666,3.35-50.785,4.188-67.459q1.252-24.914,2.469-49.828c.46-9.373,1.146-18.78,1.2-28.165C461.964,312.463,461.251,312.365,461.2,312.863Z" transform="translate(-8.872 -13.743)"/>
      <path id="Path_12126" data-name="Path 12126" d="M441.69,451.233q-.469-11.975-1.049-23.945-1.141-23.94-2.673-47.859c-.584-9-1.191-18.014-2.031-27-.044-.474-.742-.34-.719.119.78,15.9,1.894,31.784,2.764,47.679q1.311,23.937,2.247,47.892c.35,8.94.489,17.918,1.14,26.841.04.542.96.522.965-.029C442.415,467.039,442,459.12,441.69,451.233Z" transform="translate(-8.008 -15.685)"/>
      <path id="Path_12127" data-name="Path 12127" d="M280.887,125.389l1.674-22.035-.977-17.014s-.557-6,1.255-6.275,3.486,8.507,3.486,9.483,1.116-2.928,1.116-2.928,1.115-8.507,2.51-9.623,2.451-1.4,3.248-.074.24,7.325-.04,9.836-1.969,9.919-1.969,9.919,2.04-3.243,3.012-4.519c1.315-.6,4.954-2.611,6.908-2.332s6.26,3.515,5.822,11.975c-.874,7.276-3.817,4.969-3.817,3.5-.209-.837,1.151-9.1-2.877-9.257-2.2.157-5.282,3.766-4.446,10.041s1.552,6.328,1.552,6.328,1.429,2.752,2.649,2.232,2.634-4.57,3.966-6.469,1.752,1.03,1.752,1.03,1.255,6-1.115,7.81a7.305,7.305,0,0,1-7.183,3.765,35.96,35.96,0,0,1-7.374-1.411c-.436,3.191-1.264,3.33-1.2,10.407,0,0-2.511.208-3.765-1.046A45.882,45.882,0,0,0,280.887,125.389Z" transform="translate(-0.438 -2.144)" fill="#f8cea0"/>
      <path id="Path_12128" data-name="Path 12128" d="M348.8,227.109s-26.024,6.707-45.477-7.726-29.181-36.4-29.809-48.635-2-35.758,4.963-44.549c7.274,6.9,11.762,6.528,11.762,6.528s-3.569,31.833,8.041,48.464c8.263,10.772,17.99,16.839,31.274,18.827s26.8-5.11,28.363-7.934S348.8,227.109,348.8,227.109Z" transform="translate(-0.05 -4.604)" fill="#9cdbba"/>
      <path id="Path_12129" data-name="Path 12129" d="M348.8,227.109s-26.024,6.707-45.477-7.726-29.181-36.4-29.809-48.635-2-35.758,4.963-44.549c7.274,6.9,1.883,1.231,1.883,1.231s-8.786,43.093,5.16,62.617c5.3,9.623,13.11,21.756,37.375,29.7,8.926,2.371,24.65-.941,26.219-3.766S348.8,227.109,348.8,227.109Z" transform="translate(-0.05 -4.604)" fill="#75bc95"/>
      <path id="Path_12130" data-name="Path 12130" d="M359.467,190.648c-5.211,6.44-14.153,9.091-22.152,9.53a43.757,43.757,0,0,1-22.578-5A40.825,40.825,0,0,1,297.62,177.96c-4.2-7.974-6.069-17.011-6.424-25.965a110.286,110.286,0,0,1,.852-17.333l-.046,0a1.407,1.407,0,0,1-1.289.6c-1.675,14.2-1.274,28.678,4.971,41.672a42.411,42.411,0,0,0,16.734,18.412,44.874,44.874,0,0,0,22.834,6.148,41.287,41.287,0,0,0,12.994-2.147c4.587-1.555,9.214-4.018,11.907-8.191A.426.426,0,0,0,359.467,190.648Z" transform="translate(-0.879 -5.019)"/>
      <path id="Path_12131" data-name="Path 12131" d="M284.762,102.567a.286.286,0,0,0,.568.06c.862-6.107,1.7-12.2,2.9-18.255.292-1.473.547-2.975.97-4.416.358-1.217.951-2.745,2.166-3.342a1.833,1.833,0,0,1,2.026.3,9.158,9.158,0,0,1,.055,4.225c-.183,1.6-.379,3.194-.614,4.786-.469,3.174-1.011,6.353-1.625,9.5-.062.318.479.456.56.137a85.779,85.779,0,0,0,1.949-10.152c.222-1.716.435-3.444.529-5.172.076-1.406.318-3.679-1.266-4.238-2.907-1.041-4.2,3.025-4.661,5.068-.746,3.286-1.368,6.606-1.941,9.927C285.716,94.827,285.114,98.692,284.762,102.567Z" transform="translate(-0.628 -2.133)"/>
      <path id="Path_12132" data-name="Path 12132" d="M346.935,224.664a55.793,55.793,0,0,1-33.5-2.957A61.61,61.61,0,0,1,286.716,200.4a75.58,75.58,0,0,1-12.849-33.44,92.557,92.557,0,0,1,2.8-37.289q.8-2.893,1.763-5.729a18.269,18.269,0,0,0,11.48,7.687c.658.141.935-.973.282-1.158-.424-.121-.843-.26-1.256-.407.026-1.119-.066-2.25-.029-3.368a33.91,33.91,0,0,1,.368-3.9,23.8,23.8,0,0,1,.57-2.645c.087-.03.173-.057.259-.083.468.214,1.989.609,3.017.881a11.358,11.358,0,0,0,3.635.536,11.831,11.831,0,0,0,3.734-.735,8.294,8.294,0,0,0,4.4-4.042,10.343,10.343,0,0,0,1.009-6.417c-.146-.888-.354-2.147-1.191-2.662-.793-.488-1.48-.006-1.849.722a27.923,27.923,0,0,0-1.143,3.026,7.177,7.177,0,0,1-1.391,2.727,2.646,2.646,0,0,1-.3.315c-1.025.437-2.168-.475-2.684-1.394a14.061,14.061,0,0,1-1.371-3.971,17.924,17.924,0,0,1,.254-8.424A6.233,6.233,0,0,1,298.21,97.1a2.412,2.412,0,0,1,3.443.327,5.772,5.772,0,0,1,.7,3.272c.013,1.429-.051,2.875.035,4.3.053.871.326,1.908,1.274,2.178a2.09,2.09,0,0,0,2.317-1.3,9.5,9.5,0,0,0,.708-4.086,31.385,31.385,0,0,0-.284-4.084c-.279-2.183-.844-4.514-2.484-6.094a6.7,6.7,0,0,0-6.113-1.514,8.624,8.624,0,0,0-4.043,2.263c0-.018.009-.036.013-.055a4.151,4.151,0,0,1-.659.671c-.006.026-.011.052-.018.078a12.621,12.621,0,0,0-1.329,1.824,26.761,26.761,0,0,0-2.853,8.762c-.06.306.413.347.479.05a29.09,29.09,0,0,1,2.664-8.18,9.659,9.659,0,0,1,5.526-4.76,6.1,6.1,0,0,1,6.554,1.894c1.478,1.931,1.739,4.547,1.938,6.89a17.457,17.457,0,0,1-.071,4.449,4.762,4.762,0,0,1-.731,2.083c-.449.583-1.391.974-1.955.305a2.464,2.464,0,0,1-.428-1.46c-.045-.75-.018-1.51-.023-2.262a22.914,22.914,0,0,0-.147-3.763,3.636,3.636,0,0,0-1.251-2.367,2.878,2.878,0,0,0-2.881-.207c-2.263.993-2.947,3.969-3.3,6.167a18.415,18.415,0,0,0,.766,8.853,5.9,5.9,0,0,0,2.043,3.284,2.052,2.052,0,0,0,2.678-.284c.062-.074.3-.339.37-.436a9.943,9.943,0,0,0,1.436-3.2,9.249,9.249,0,0,1,.94-2.316c.421-.591,1.018-.283,1.3.271a5.778,5.778,0,0,1,.458,1.552c.7,3.711-.926,8.187-4.544,9.789a8.207,8.207,0,0,1-3.452.615c-.426-.007-.85-.042-1.273-.086-.924-.221-3.021-.674-3.137-.708a6.312,6.312,0,0,0-1.1-.347c-.533-.175-1.068-.348-1.614-.478.376-1.3.775-2.588,1.063-3.917.089-.411-.531-.618-.752-.29-1.483,2.2-2.074,5.1-2.472,7.691a22.945,22.945,0,0,0-.2,7.151,21.692,21.692,0,0,1-7.223-5.022.312.312,0,0,0,.434-.237,99.263,99.263,0,0,0,1.358-16.386,72.307,72.307,0,0,0-.034-8.019c-.178-1.99-.364-3.68-.523-5.686q-.061-1.02-.123-2.041c-.147-2.388-.41-4.8-.326-7.194a11.361,11.361,0,0,1,.463-3.478c.206-.55.909-1.182,1.4-.513a7.454,7.454,0,0,1,.752,1.635,22.294,22.294,0,0,1,1.5,7.524c.007.238.417.227.422-.012a19.863,19.863,0,0,0-1.217-7.284,17.939,17.939,0,0,0-.733-1.75,1.628,1.628,0,0,0-.869-.94c-.9-.3-1.582.544-1.815,1.3a14.115,14.115,0,0,0-.462,3.666c-.037,1.278,0,2.556.062,3.832.127,2.759.3,5.516.461,8.272a17.584,17.584,0,0,0,.187,1.781q.021.512.028,1.018c.026,2.674-.05,5.329-.1,8-.107,5.427-.7,10.8-1.029,16.211a.317.317,0,0,0,.017.134A22.729,22.729,0,0,1,278.3,121.8c-.317-.462-1.095.017-.836.515.063.121.127.241.193.359-.295.86-.583,1.721-.857,2.586a96.6,96.6,0,0,0-4.5,37.856,78.85,78.85,0,0,0,11.146,34.363,63.257,63.257,0,0,0,25.8,23.548,56.307,56.307,0,0,0,33.64,5.454,39.849,39.849,0,0,0,4.194-.964C347.6,225.368,347.484,224.54,346.935,224.664Z" transform="translate(0 -2.346)"/>
      <path id="Path_12133" data-name="Path 12133" d="M363.3,192.811l61.5-17.99,63.342-12.151s14.476,29.3,1.716,65.913c-11.924,38.909-34.1,78.237-34.1,78.237s-30.542,15.9-58.782,16.316c-4.183-3.975-37.863-54.389-42.466-83.467C348.652,214.358,363.3,192.811,363.3,192.811Z" transform="translate(-3.981 -6.393)" fill="#9cdbba"/>
      <path id="Path_12134" data-name="Path 12134" d="M388.677,292.1c8.368,7.112,23.011,10.878,41,7.531s32.215-25.521,32.215-25.521,19.664-31.379,33.052-66.1c-5.439,41.42-39.118,101.038-39.118,101.038s-30.542,15.9-58.782,16.316c-4.183-3.975-37.863-54.389-42.466-83.467C371.524,274.946,380.31,284.988,388.677,292.1Z" transform="translate(-4.053 -8.616)" fill="#75bc95"/>
      <path id="Path_12135" data-name="Path 12135" d="M488.882,162.544a.5.5,0,0,0-.052-.086c.2-.039.406-.08.61-.12l-.223-.335q-.275-.307-.543-.621c-.01-.013-.018-.027-.028-.04-16.276,2.976-32.46,6.454-48.573,10.209q-27.972,6.519-55.612,14.374c-6.84,1.944-13.672,3.928-20.465,6.031a4.9,4.9,0,0,0-2.141,1.288c-.459.743-.914,1.489-1.315,2.267a1.066,1.066,0,0,1-.313.374,68.939,68.939,0,0,0-6.547,46.887c2.248,10.115,6.57,19.8,11.081,29.087s9.594,18.254,14.991,27.032c4.811,7.825,9.858,15.5,14.975,23.122l.011-.03c2.183,3.118,7.5,2.044,10.635,1.4,5.355-1.094,10.7-2.25,16-3.577A155.625,155.625,0,0,0,452.149,309.1q1.857-.909,3.679-1.892l0-.007a1.4,1.4,0,0,0,.408-.321,14.367,14.367,0,0,1,.927-1.958,13.227,13.227,0,0,1,1.509-2.661,433.258,433.258,0,0,0,19.262-38.837c9.011-20.723,17.284-42.645,17.767-65.512C495.96,185.935,494.2,173.394,488.882,162.544Zm.834,65.033a256.113,256.113,0,0,1-11.593,31.741q-6.671,15.578-14.533,30.61-3.55,6.783-7.348,13.431a12.079,12.079,0,0,0-1.288,2.631q-2.016,1.08-4.077,2.072a129.6,129.6,0,0,1-13.7,5.585,252.249,252.249,0,0,1-28.794,7.7c-4.018.88-9.432,2.85-12.988-.08a1.245,1.245,0,0,1,.127-.041c-9.754-14.893-19.43-29.872-27.5-45.758-4.609-9.072-8.983-18.5-11.847-28.285a67.071,67.071,0,0,1,6.934-53.813c15.3-4.482,30.59-8.939,46.02-12.956q27.7-7.211,55.712-13.1,11.6-2.441,23.245-4.7a.417.417,0,0,0,.017.289,84.808,84.808,0,0,1,6.4,31.907A119.577,119.577,0,0,1,489.716,227.577Z" transform="translate(-3.932 -6.328)"/>
      <g id="Group_3470" data-name="Group 3470" transform="translate(446.231 193.335)">
        <path id="Path_12136" data-name="Path 12136" d="M469.242,217.535a.357.357,0,0,1-.357.357h-.253a.357.357,0,0,1-.358-.357v-.223a.357.357,0,0,1,.358-.357h.253a.356.356,0,0,1,.357.357Z" transform="translate(-455.86 -202.39)" fill="#0b70b2"/>
        <path id="Path_12137" data-name="Path 12137" d="M462.934,220.292V218.81a.629.629,0,0,1,.181-.481.691.691,0,0,1,.454-.186l2.781-.008c.01-.056,0-.016,0,.2v.564h0l-2.434-.026-.01,1.365h2.441v.743h-2.5a1.1,1.1,0,0,1-.645-.188A.585.585,0,0,1,462.934,220.292Z" transform="translate(-455.598 -202.447)" fill="#0b70b2"/>
        <path id="Path_12138" data-name="Path 12138" d="M467.918,216.6l-.034,2.557V220.9h-.97v-3.476a.945.945,0,0,1,.19-.641.6.6,0,0,1,.452-.187h.362Z" transform="translate(-455.794 -202.373)" fill="#0b70b2"/>
        <path id="Path_12139" data-name="Path 12139" d="M469.24,218.929v2.055h-.97v-2.84h.97Z" transform="translate(-455.86 -202.449)" fill="#0b70b2"/>
        <path id="Path_12140" data-name="Path 12140" d="M469.61,220.984v-2.84h3.073a.654.654,0,0,1,.463.205.674.674,0,0,1,.164.463v2.172h-.961v-2.055H470.58v2.055Z" transform="translate(-455.926 -202.449)" fill="#0b70b2"/>
        <path id="Path_12141" data-name="Path 12141" d="M474.875,218.929v2.055H473.9v-2.84h.971Z" transform="translate(-456.136 -202.449)" fill="#0b70b2"/>
        <path id="Path_12142" data-name="Path 12142" d="M475.355,220.292v-1.481a.631.631,0,0,1,.181-.482.7.7,0,0,1,.453-.186l2.782-.007c.009-.056,0-.017,0,.2v.564h0l-2.434-.026-.01,1.365h2.441v.743h-2.5a1.094,1.094,0,0,1-.644-.189A.583.583,0,0,1,475.355,220.292Z" transform="translate(-456.208 -202.447)" fill="#0b70b2"/>
        <path id="Path_12143" data-name="Path 12143" d="M474.873,217.535a.358.358,0,0,1-.358.357h-.253a.356.356,0,0,1-.357-.357v-.223a.356.356,0,0,1,.357-.357h.253a.357.357,0,0,1,.358.357Z" transform="translate(-456.137 -202.39)" fill="#0b70b2"/>
        <path id="Path_12144" data-name="Path 12144" d="M467.365,205.046c.236-.034.475-.041.713-.054a9.826,9.826,0,0,1,1.241.024,11.005,11.005,0,0,1,1.27.172c.447.084.883.208,1.32.334.369.107.73.236,1.089.375.609.238,1.2.506,1.8.785.562.266,1.11.559,1.65.866.476.272.944.557,1.406.852q.763.485,1.491,1.022c.083.062.173.112.26.17.038.025.092.036.068.107s-.074.027-.111.022a9.107,9.107,0,0,1-1.008-.184c-.25-.062-.5-.124-.747-.195q-.578-.165-1.146-.355c-.239-.08-.474-.174-.71-.264-.194-.073-.389-.145-.58-.223-.318-.132-.639-.253-.953-.394-.211-.1-.431-.172-.643-.266-.26-.114-.523-.217-.784-.329-.414-.179-.829-.354-1.253-.513-.233-.087-.461-.187-.7-.266-.251-.085-.5-.186-.752-.256-.276-.074-.549-.158-.824-.234-.242-.067-.49-.109-.732-.169-.192-.047-.385-.088-.58-.118a3.414,3.414,0,0,0-.474-.062c-.1,0-.2-.037-.295-.04a3.924,3.924,0,0,0-.448-.032l-.02,0a1.165,1.165,0,0,0-.377-.012.05.05,0,0,0-.047-.015c-.243,0-.489-.01-.733,0-.191.006-.383.015-.575.031s-.395.016-.59.04c-.174.021-.347.051-.52.079-.023,0-.048.03-.057-.009s.025-.041.046-.047c.312-.091.609-.225.918-.323a13.79,13.79,0,0,1,1.387-.365c.176-.035.353-.059.529-.091l.067-.011C467.1,205.075,467.23,205.06,467.365,205.046Z" transform="translate(-455.651 -201.803)" fill="#3bb7ea" fill-rule="evenodd"/>
        <path id="Path_12145" data-name="Path 12145" d="M467.193,204.7c-.238.036-.475.068-.712.11-.184.033-.363.091-.552.109a9.065,9.065,0,0,1,1.521-.663l.038-.013a2.557,2.557,0,0,0,.427-.126.142.142,0,0,0,.076-.016c.24-.057.481-.1.723-.142a4.845,4.845,0,0,1,.741-.087c.213,0,.426-.024.638-.016a10.581,10.581,0,0,1,1.083.084,12.2,12.2,0,0,1,1.489.305c.337.092.667.209,1,.318.381.126.758.264,1.128.419.3.124.594.25.886.387q.5.231.984.483.579.3,1.141.634a1.9,1.9,0,0,0,.2.1c.04.018.054.047.04.079s-.046.032-.079.029c-.117-.012-.234-.018-.35-.031-.165-.017-.328-.036-.492-.06s-.354-.058-.53-.09c-.194-.035-.387-.072-.579-.113-.46-.1-.913-.225-1.365-.36-.335-.1-.668-.2-1-.308-.7-.22-1.4-.456-2.111-.645a15.18,15.18,0,0,0-1.621-.35,9.221,9.221,0,0,0-2.073-.1l-.219.017a1.572,1.572,0,0,0-.383.04Z" transform="translate(-455.745 -201.748)" fill="#0b70b2" fill-rule="evenodd"/>
        <path id="Path_12146" data-name="Path 12146" d="M464.537,206.967l.068-.04c.015,0,.052.071.052.071a.2.2,0,0,0-.078.074,1.686,1.686,0,0,0-.243.49,6.21,6.21,0,0,0-.217,1.048c-.039.313-.063.627-.093.94a.343.343,0,0,1-.142.262.137.137,0,0,1-.222-.031,9.026,9.026,0,0,1-.589-.95,5.742,5.742,0,0,1-.377-.891,2,2,0,0,1-.123-.624,3.174,3.174,0,0,1,.056-.547c.073-.393.08-.791.127-1.186a2.878,2.878,0,0,0-.228-1.333,3.659,3.659,0,0,1-.207-.768,1.579,1.579,0,0,1,.213-.983.71.71,0,0,1,.618-.4.671.671,0,0,0,.553-.276.346.346,0,0,1,.378-.169,2.7,2.7,0,0,1,.7.276c.364.209.72.434,1.077.656.057.035.134.038.186.112a.825.825,0,0,1-.4-.076,5.751,5.751,0,0,1-.768-.405,1.093,1.093,0,0,0-.3-.116.714.714,0,0,0-.6.129,1.532,1.532,0,0,1-.536.223.4.4,0,0,0-.337.237,1.076,1.076,0,0,0-.054.3,4.165,4.165,0,0,0,.056.73,6.21,6.21,0,0,0,.154.77c.048.183.094.367.157.545a2.186,2.186,0,0,1,.138.678,2.419,2.419,0,0,1-.112.7c-.1.356-.239.7-.307,1.062a1.481,1.481,0,0,0,.089.834,2.44,2.44,0,0,0,.571.8c.018.017.034.039.062.029s.025-.039.024-.063a4.473,4.473,0,0,1,.05-.916,2.9,2.9,0,0,1,.186-.649A1.369,1.369,0,0,1,464.537,206.967Z" transform="translate(-455.568 -201.639)" fill="#0b70b2" fill-rule="evenodd"/>
        <path id="Path_12147" data-name="Path 12147" d="M466.57,205.846a1.164,1.164,0,0,1,.377.012c-.009.016-.016.033-.026.048a2.38,2.38,0,0,0-.33,1.012c-.027.376-.053.751-.05,1.129a2.037,2.037,0,0,1-.3,1.017,4.442,4.442,0,0,1-.5.688l0,0-.333.331a.892.892,0,0,1-.2.15.75.75,0,0,1-.093-.533c.018-.13.037-.261.062-.389.039-.2.074-.4.123-.591a5.024,5.024,0,0,0,.121-.759,2,2,0,0,0-.087-.769.745.745,0,0,0-.518-.54c-.031-.009-.072-.007-.089-.054a.48.48,0,0,1,.412.085,1.689,1.689,0,0,1,.227.244,2.2,2.2,0,0,1,.248.863,4.607,4.607,0,0,1,.009.834,1.256,1.256,0,0,1-.073.331c-.088.242-.184.483-.273.727a1.919,1.919,0,0,0-.059.22.067.067,0,0,0,.026.074.053.053,0,0,0,.068-.007c.054-.052.126-.085.166-.152l.019-.019a.526.526,0,0,0,.144-.146,2.632,2.632,0,0,0,.392-.7,4.51,4.51,0,0,0,.217-.886c0-.011-.013-.888.006-1.164a2.364,2.364,0,0,1,.126-.6C466.434,206.151,466.513,206,466.57,205.846Z" transform="translate(-455.686 -201.845)" fill="#0b70b2" fill-rule="evenodd"/>
        <path id="Path_12148" data-name="Path 12148" d="M467.3,204.74a1.62,1.62,0,0,1,.383-.04c-.048.114-.126.213-.164.332l-.4.044Z" transform="translate(-455.803 -201.789)" fill="#0b70b2" fill-rule="evenodd"/>
        <path id="Path_12149" data-name="Path 12149" d="M467.5,204.164a5.038,5.038,0,0,0,.316-.75,1.36,1.36,0,0,0,.079-.44.4.4,0,0,0-.068-.223.425.425,0,0,0-.239-.161,3.135,3.135,0,0,0-.666-.163,3.28,3.28,0,0,0-.618-.051l0-.027c.087-.016.173-.035.26-.046a3.455,3.455,0,0,1,.852-.009.877.877,0,0,1,.578.268.591.591,0,0,1,.125.414,2.186,2.186,0,0,1-.17.993.423.423,0,0,0-.02.07A2.517,2.517,0,0,1,467.5,204.164Z" transform="translate(-455.764 -201.67)" fill="#0b70b2" fill-rule="evenodd"/>
        <path id="Path_12150" data-name="Path 12150" d="M458.025,215.164H455.22v-3.611h1.234v2.617h1.166l1.1-2.617h1.241l-1.133,2.788c-.079.184-.164.367-.253.55A.548.548,0,0,1,458.025,215.164Z" transform="translate(-455.22 -202.125)" fill="#0b70b2"/>
        <path id="Path_12151" data-name="Path 12151" d="M460.214,212.481a.8.8,0,0,1,.332-.676,1.341,1.341,0,0,1,.833-.252h2.743a.788.788,0,0,1,.6.24.87.87,0,0,1,.207.6v1.889a.74.74,0,0,1-.349.639,1.413,1.413,0,0,1-.82.24H461.02a.746.746,0,0,1-.806-.843v-1.839Zm1.234.068v1.669h2.239V212.55Z" transform="translate(-455.465 -202.125)" fill="#0b70b2"/>
        <path id="Path_12152" data-name="Path 12152" d="M468.059,212.55h-1.28v2.614h-1.234v-3.611h1.234v.214a1,1,0,0,1,.582-.214h.7v1Z" transform="translate(-455.726 -202.125)" fill="#0b70b2"/>
        <path id="Path_12153" data-name="Path 12153" d="M473.267,210.725v4.4h-3.538a1.4,1.4,0,0,1-.82-.24.743.743,0,0,1-.346-.639v-1.932a.749.749,0,0,1,.245-.572.8.8,0,0,1,.561-.228h2.666v-.787Zm-3.47,1.755v1.7h2.239v-1.7Z" transform="translate(-455.874 -202.085)" fill="#3bb7ea"/>
        <path id="Path_12154" data-name="Path 12154" d="M473.884,214.285V212.4a.8.8,0,0,1,.23-.612.885.885,0,0,1,.576-.237h2.725a1.339,1.339,0,0,1,.834.252.808.808,0,0,1,.331.677v1.307h-3.462v.431h3.1v.945h-3.173a1.4,1.4,0,0,1-.82-.241A.742.742,0,0,1,473.884,214.285Zm3.466-1.735h-2.232v.286h2.232Z" transform="translate(-456.135 -202.125)" fill="#3bb7ea"/>
        <path id="Path_12155" data-name="Path 12155" d="M479.2,215.164v-3.611h3.907a.824.824,0,0,1,.59.26.85.85,0,0,1,.207.59v2.762h-1.221V212.55h-2.248v2.614Z" transform="translate(-456.396 -202.125)" fill="#3bb7ea"/>
        <path id="Path_12156" data-name="Path 12156" d="M485.338,215.123a.865.865,0,0,1-.574-.191.849.849,0,0,1-.242-.654v-3.553h1.234v.787h1.182v1h-1.182v1.669h1.182v.945Z" transform="translate(-456.657 -202.085)" fill="#3bb7ea"/>
      </g>
      <path id="Path_12157" data-name="Path 12157" d="M498.722,287.426s.754-8.371-1.743-8.716a45.254,45.254,0,0,0-7.88.279s-1.952-5.857-6.694-7.669l-2.745,3.971s1.781,2.667-1.351,4.692c0,0-4.759,2.04-8.263-3.033-.837-3.452-1.308-5.631-1.308-5.631s-1.12-3.689-2.824-3.155a3.093,3.093,0,0,0-3.765,2.3,11.091,11.091,0,0,0,2.092,9c1.958,2.8,8.734,6.538,8.734,6.538l.243.959s-4.406.582-4.8.191-6.325-4.76-6.325-4.76a4.1,4.1,0,0,0-3.4-.314,2.763,2.763,0,0,0-.7,4.441c1.452,1.452,7.973,5.966,9.646,5.966a3.571,3.571,0,0,1,2.458.785l-.1.889s-5.338.314-7.482-.732-3.347-.016-3.347.776,2.8,3.886,4.016,3.886,10.181,1.774,14.393-1.367a49.852,49.852,0,0,1,9.2-5.23s7.493-3.922,8.786-3.546A5.531,5.531,0,0,0,498.722,287.426Z" transform="translate(-9.084 -11.563)" fill="#f8cea0"/>
      <path id="Path_12158" data-name="Path 12158" d="M519.06,263.394c7.414-4.105,18.471-11.234,19.4-28.58.265-4.934-1.136-10.7-2.637-17.449-6.846-10.171-11.82-17.137-33.606-9.626.563-1.979.563-22.884-.99-28.98-.653-4.781-4.434-14.927-5.347-16.243,17.989,2.816,44.706,13.9,55.426,39.6,10.955,18.975,5.112,41.938-1.024,50.536-2.422,5.433-16.88,29.714-48.884,30.108-.8-9.977-3.286-12.642-3.286-12.642S509.539,268.667,519.06,263.394Z" transform="translate(-10.983 -6.385)" fill="#9cdbba"/>
      <path id="Path_12159" data-name="Path 12159" d="M498.229,271.878s11.425-1.454,20.947-6.727c6.888-3.814,16.986-10.53,18.936-25.079.746-5.563-.544-11.628-2.417-20.064-3.39-5.036-5.717-10.09-10.693-12.34-5.09-2.3-12.9-1.709-23.016,1.624.414-2.331.647-9.983.675-10.848,7.007-.437,23.465.413,29.941,5.65,12.064,11.227,14.365,28.031,10.6,41.722-3.766,10.576-11.891,28.589-43.9,28.982A5.555,5.555,0,0,0,498.229,271.878Z" transform="translate(-11.098 -8.142)" fill="#75bc95"/>
      <path id="Path_12160" data-name="Path 12160" d="M457.125,277.615a3.04,3.04,0,0,1,2.886-1.466,6.04,6.04,0,0,1,3.773,1.876,12.068,12.068,0,0,0,4.8,3.021,10.6,10.6,0,0,0,4.145.228,18.5,18.5,0,0,1-5.25-3.054,17.344,17.344,0,0,1-5.908-9.018,6.347,6.347,0,0,1,.473-4.948,3.9,3.9,0,0,1,3.586-1.912c1.8.2,2.939,1.882,3.424,3.481.585,1.929.378,4.089,1.509,5.837a7.367,7.367,0,0,0,6.161,3.168c1.988-.142,4.012-2.212,2.826-4.236-.248-.424.351-.853.637-.438a3.289,3.289,0,0,1-.12,3.688,4.249,4.249,0,0,1-3.522,1.865,7.869,7.869,0,0,1-7.714-5.96c-.419-1.92-.341-4.163-1.768-5.693-1.637-1.757-4.077-.45-4.67,1.569-.54,1.836.112,3.856.856,5.541a16.561,16.561,0,0,0,3.235,4.778,18.04,18.04,0,0,0,4.971,3.634,25.111,25.111,0,0,0,5.883,1.826c.359.078.373.656-.027.67a11.377,11.377,0,0,1-3.246-.38,9.189,9.189,0,0,1-7.146-.277,12.492,12.492,0,0,1-3.375-2.379c-1.1-1.013-2.336-2.149-3.944-2.035a1.911,1.911,0,0,0-1.564,3.076,10.949,10.949,0,0,0,2.741,2.743,26.983,26.983,0,0,0,7,4.1,17.436,17.436,0,0,0,9.049,1.014c.257-.039.358.391.1.449a15.889,15.889,0,0,1-6.888-.048.348.348,0,0,1-.054.607c-2.142.921-4.392.292-6.547-.24-.81-.2-4.585-1.171-3.676.85a4.384,4.384,0,0,0,1.436,1.341,10.375,10.375,0,0,0,1.947,1.1,14.963,14.963,0,0,0,8.436.849c2.223-.364,5.666-1.484,6.575-2.243a68.526,68.526,0,0,1,10.589-5.664,46.386,46.386,0,0,1,5.6-2.23,21.224,21.224,0,0,1,4.107-.98c-.012-.245-.024-.492-.042-.736a22.8,22.8,0,0,0-.683-4.1,23.86,23.86,0,0,0-1.027-3.03c-2.164.447-4.713.908-6.9.378a13.794,13.794,0,0,1,.56,2.34,1.64,1.64,0,0,1,.281,1.088.367.367,0,0,1-.383.279c.008.02.013.042.023.062a.373.373,0,0,1-.55-.281c-.019-.136-.043-.271-.066-.406a4.152,4.152,0,0,1-.155-.8.115.115,0,0,1,0-.018,13.872,13.872,0,0,0-1.4-3.773,25.672,25.672,0,0,0-3.015-3.879.24.24,0,0,1-.05-.1c-1.058-.948-2.242-1.6-3.369-2.442a.437.437,0,0,1,.344-.766c1.59.382,2.955,1.776,4.095,2.878a8.008,8.008,0,0,1,2.03,2.507,12.435,12.435,0,0,1,1.367,2.537.455.455,0,0,1,.167-.064,25.582,25.582,0,0,1,3.48-.179c1.059-.044,2.116-.112,3.171-.212a29,29,0,0,0-2.035-3.7.544.544,0,0,1,.877-.645c.077.1.15.2.225.295a9.5,9.5,0,0,1,2.158-.177q1.254-.077,2.5-.251c.829-.116,1.651-.271,2.47-.445.693-.146,1.415-.392,2.129-.486q1.311-.449,2.611-.941a57.527,57.527,0,0,0,18.659-11.023c5.4-4.965,9.3-11.455,9.993-18.852a38.662,38.662,0,0,0-1.356-13.436,33.231,33.231,0,0,0-4.58-10.419,19.136,19.136,0,0,0-9.8-7.571c-3.979-1.276-16.6.815-20.224,2.976-.573.342-1.232-.516-.626-.851,11.317-6.241,23.423-3.945,28.622,1.067,5.9,5.682,8.559,14.356,9.237,22.327a29.925,29.925,0,0,1-7.162,22.39c-4.891,5.726-11.416,9.922-18.236,12.989a81.455,81.455,0,0,1-8.15,2.95,20.634,20.634,0,0,1-3.269.51q-1.337.208-2.687.3a13.817,13.817,0,0,1-1.491.075,22.025,22.025,0,0,1,2.876,6.644,24.362,24.362,0,0,1,.7,4.292c.015.214.033.444.05.683a.385.385,0,0,1,.209.361,9.308,9.308,0,0,0,1.769.027c.238-.024.473-.063.708-.107v-.017c.126-.018.253-.04.38-.059a13.094,13.094,0,0,1,1.3-.228.409.409,0,0,1,.114,0,67.759,67.759,0,0,0,22.628-7.913A57.345,57.345,0,0,0,550.9,247.63c4.992-11.332,5.362-24.23,2.027-36.078a64.451,64.451,0,0,0-19.692-30.8c-9.266-8.153-23.752-12.96-35.438-16.7-1.486-.475-2.977-.933-4.481-1.351-.5-.141-.4-.936.137-.824,12.233,2.535,27.447,7.453,37.287,15.147a67.365,67.365,0,0,1,22.153,30.042c4.248,11.815,4.962,24.944.935,36.92-3.927,11.681-12.147,21.722-22.3,28.6a69.148,69.148,0,0,1-29.615,11,14.761,14.761,0,0,1-2.048.03,2.33,2.33,0,0,1-.458,1.414c-.186.3-.647.162-.763-.117a4.638,4.638,0,0,1-.149-1.831c0-.107-.006-.216-.008-.324-1.382.311-2.777.554-4.135,1a47.838,47.838,0,0,0-5.25,2.108c-3.327,1.541-6.621,3.208-9.793,5.054,0,.029-.753.576-.843.648-4.077,1.85-8.8,2.938-13.17,1.956-2.138-.48-4.8-1.551-6.125-3.405a1.569,1.569,0,0,1,.134-2.117,3,3,0,0,1,2.772-.436c2.5.484,5.147,1.708,7.679.756a.418.418,0,0,1,.079-.02,23.748,23.748,0,0,1-9.368-4.7C458.884,282.317,455.924,280.009,457.125,277.615Z" transform="translate(-9.069 -6.353)"/>
      <path id="Path_12161" data-name="Path 12161" d="M452.3,159.584c-1.764-9.527-5.839-35.067-5.862-35.3-.219-2.15-.476-7.349-2.511-9.249-8.282-7.731-27.8-8.991-30.192-9.321-1.814,4.124-10.821,31.217-7.558,34.425.251.247,2.021,2.33,2.6,3.186l.043.065c1.4,1.767,5.071,7.332,5.58,8.024.131,1.071-8.676,26.81-8.167,27.1.152.086,16.394,9.217,19.922,11.425,0,.184.824,10.672.831,11.322.2-.021.982-8.211,1.149-9.961C428.171,191.282,448.339,164.657,452.3,159.584Z" transform="translate(-6.549 -3.599)" fill="#f8cea0"/>
      <path id="Path_12162" data-name="Path 12162" d="M444.541,116.335c-3.456-8.172-25.515-9.615-30.712-10.358-2.805,6.351-9.981,29.449-7.641,34.1-.068,0,2.788,3.357,4.064,5.156.037.168,2.546,3.914,3.417,5.506.353.645,2.675.126,4.042-.74,3.224-2.043,6.37-4.215,9.443-6.475A168.942,168.942,0,0,0,445.038,128.7c.74-.721.9-.9,1.636-1.636C446.518,126.045,444.693,116.694,444.541,116.335Z" transform="translate(-6.561 -3.612)" fill="#e5af7a"/>
      <path id="Path_12163" data-name="Path 12163" d="M443.758,131.257c.434-.919-.833-1.868-1.418-.944-.165.261-.328.521-.493.782a.756.756,0,0,0-.634.2q-3.6,3.205-6.946,6.672-1.046,1.048-2.038,2.152a.9.9,0,0,0-.15.227.816.816,0,0,0-1.393.242l-.477,1.151a.78.78,0,0,0-1.309.292c-.044.133-.085.268-.127.4a.888.888,0,0,0-1.136.44c-.2.463-.389.927-.584,1.391a.765.765,0,0,0-1.216.362c-.035.09-.069.182-.1.273a.753.753,0,0,0-.958.1.817.817,0,0,0-1.2.365c-.067.2-.131.4-.2.6a.815.815,0,0,0-1.244.361c-.094.31-.185.62-.279.93a.817.817,0,0,0-1.387.25l-.223.769a.764.764,0,0,0-1.05.462l-.085.286a.939.939,0,0,0-1.283.589.792.792,0,0,0-1.238.332l-.307,1.055a.762.762,0,0,0-1.3.216c-.718,2-1.271,4.04-1.8,6.1a.856.856,0,0,0,.117.746.68.68,0,0,0,.493,1.1c3.392.149,6.543-1.5,9.354-3.23a39.87,39.87,0,0,0,3.743-2.627.688.688,0,0,0,.238-.185,47.35,47.35,0,0,0,3.869-3.465c5.118-5.106,9.122-11.135,13.052-17.165A.822.822,0,0,0,443.758,131.257Z" transform="translate(-6.925 -4.787)" fill="#e5af7a"/>
      <path id="Path_12164" data-name="Path 12164" d="M428.117,193.989l23.547-31.775,5.39,28.2L427.082,208.4l-.273-1.795-20.762-5.629-6.187-9.4,4.454-6.434,2.118-3.83,19.2,10.854.951,13.02Z" transform="translate(-6.274 -6.37)" fill="#9cdbba"/>
      <path id="Path_12165" data-name="Path 12165" d="M446.44,126.7c-.3-1.822-1.768-9.961-1.91-10.3-3.456-8.172-30.795-10.688-30.795-10.688s-11.032,30.429-7.558,34.425" transform="translate(-6.55 -3.599)" fill="none" stroke="#000" stroke-miterlimit="10" stroke-width="3"/>
      <path id="Path_12166" data-name="Path 12166" d="M456.853,184.532q-.287-1.869-.572-3.737-.573-3.736-1.162-7.471l-1.167-7.47q-.28-1.786-.572-3.57c-.157-.966-.144-2.483-.84-3.233-.709-5.482-1.787-10.94-2.73-16.379-.579-3.343-3.928-22.074-4.289-23.578a15.777,15.777,0,0,0-1.2-3.631,4.217,4.217,0,0,0-2.193-1.505c-.108.038,1.684,1.223,1.973,2.3a38.678,38.678,0,0,1,1.23,6.583l.205,1.191c-.007.007,1.968,11.382,2.831,16.368q.9,5.2,1.816,10.4c.533,3.016,1.036,6.05,1.691,9.045a45.539,45.539,0,0,0-2.893,3.654q-1.5,1.943-2.989,3.9l-6.267,8.188-6.167,8.057c-2.089,2.73-4.269,5.4-6.088,8.318a.2.2,0,0,0,.262.3,34.242,34.242,0,0,0-.547,4.078,59.19,59.19,0,0,0-.691-6.383.368.368,0,0,0-.65-.162c-1.434-.964-3.066-1.711-4.566-2.544q-2.545-1.415-5.076-2.855-2.462-1.4-4.913-2.816c-1.526-.882-3.038-1.9-4.647-2.64.321-1.006.644-2.011.959-3.019q1.282-4.105,2.528-8.222c.814-2.693,1.619-5.389,2.4-8.094q.582-2.028,1.154-4.061c.3-1.087.539-2.175.777-3.267a.243.243,0,0,0,.053-.247l.114-.519c.054-.242-.321-.339-.427-.135a27.628,27.628,0,0,0-1.5-2.353q-.99-1.478-2.032-2.918a71.591,71.591,0,0,0-4.382-5.722,2.253,2.253,0,0,1-.343-.343,4.877,4.877,0,0,1-.2.464l.094.008a.166.166,0,0,0,.03.135c1.371,1.936,2.787,3.842,4.149,5.786q.977,1.392,1.928,2.8a33.018,33.018,0,0,0,1.984,2.882c-.383,1.08-.769,2.157-1.1,3.266q-.6,2.02-1.208,4.04c-.827,2.744-1.649,5.491-2.487,8.231q-1.232,4.034-2.5,8.057-.635,2.013-1.27,4.024a22.959,22.959,0,0,0-1.119,4.005c-.049.406.475.466.646.158a22.523,22.523,0,0,0,1.435-3.961c.036-.111.07-.223.106-.334a52.519,52.519,0,0,0,4.489,2.747q2.5,1.485,5.022,2.937,2.451,1.414,4.915,2.8a41.681,41.681,0,0,0,5.006,2.7c.269,2.115.46,4.241.542,6.371q.073,1.883.029,3.768a10.144,10.144,0,0,0-.015,2.747c0,.168.012.335.031.5a.3.3,0,0,0,.569.06,14.231,14.231,0,0,0,.464-3.124c.122-1.127.248-2.253.362-3.381a41.338,41.338,0,0,0,.482-6.107c2.081-2.329,3.916-4.866,5.814-7.35l6.159-8.062q3.08-4.033,6.16-8.063c.994-1.3,1.99-2.6,2.977-3.9.868-1.147,1.844-2.279,2.641-3.492.032.141.063.282.1.423a.3.3,0,0,0,.214.233c.059.3.12.592.158.847q.278,1.87.563,3.738.578,3.736,1.154,7.472t1.159,7.472l.562,3.572a20.041,20.041,0,0,0,.694,3.63.309.309,0,0,0,.584-.094A19.071,19.071,0,0,0,456.853,184.532Z" transform="translate(-6.489 -4.003)"/>
      <path id="Path_12167" data-name="Path 12167" d="M433.274,197.465a.956.956,0,0,0-.189-.464.681.681,0,0,0-1.154.179.981.981,0,0,0-.037.514.811.811,0,0,0,.309.544.678.678,0,0,0,.941-.145.812.812,0,0,0,.147-.364A.966.966,0,0,0,433.274,197.465Z" transform="translate(-7.844 -8.065)"/>
      <path id="Path_12168" data-name="Path 12168" d="M433.441,202.9a1.525,1.525,0,0,0-.087-.258.753.753,0,0,0-.315-.332.8.8,0,0,0-.308-.113h-.023a.547.547,0,0,0-.549.146.541.541,0,0,0-.125.52.815.815,0,0,0,.576.709.637.637,0,0,0,.611-.094A.6.6,0,0,0,433.441,202.9Z" transform="translate(-7.851 -8.33)"/>
      <path id="Path_12169" data-name="Path 12169" d="M375.918,139.192,393.49,108.65,405.2,83.268,411.9,64.023l.977-6.834L432.4,56.074l5.857,25.1,1.116,6.136a5.5,5.5,0,0,1,2.649-1.254,2.553,2.553,0,0,1,2.649,2.649c-.139,1.674-2.51,15.2-2.51,15.2l3.9,23.29s-11.018,10.878-20.779,14.783-28.171,6.694-34.586,4.463S381.218,145.189,375.918,139.192Z" transform="translate(-5.099 -1.164)" fill="#f8cea0"/>
      <path id="Path_12170" data-name="Path 12170" d="M414.781,57.053l.279-2.928,20.5-.837,4.6,27.753s-6.482-9.534-7.251-16.178-.994-6.729-.994-6.729a22.426,22.426,0,0,1-7.513.314C420.5,57.89,414.781,57.89,414.781,57.053Z" transform="translate(-7.005 -1.028)" fill="#683226"/>
      <path id="Path_12171" data-name="Path 12171" d="M391.537,114.589s4.881,4.88,10.181,5.16,9.343.139,12.69-1.534c-.518,13.632.7,29.7.7,29.7s-15.061,2.789-21.476,1.673a26.03,26.03,0,0,1-17.711-7.531Z" transform="translate(-5.099 -4.034)" fill="#683226" opacity="0.73"/>
      <path id="Path_12172" data-name="Path 12172" d="M445.608,104.225,447.491,92.3s1.36-4.079-.628-4.183a11.946,11.946,0,0,0-4.218.766Z" transform="translate(-8.372 -2.736)" fill="#e5af7a"/>
      <path id="Path_12173" data-name="Path 12173" d="M438.832,79.1l5.125,53.552,5.195-4.323L441.97,84.642l-.732-3.242Z" transform="translate(-8.185 -2.294)" fill="#e5af7a"/>
      <path id="Path_12174" data-name="Path 12174" d="M442.808,103.666c.417-1.915.635-3.89.907-5.819.368-2.608.78-5.22,1.072-7.839.175-1.569,0-3.368-1.579-4.146a3.068,3.068,0,0,0-3.436.4q-.518-2.964-1.035-5.929c-1.537-8.773-2.819-17.665-4.9-26.329a.278.278,0,0,0-.548.091c.844,7.821,2.386,15.594,3.712,23.344l.391,2.283a78.057,78.057,0,0,1-4.238-9.049c-1.477-4.066-2.089-8.265-2.961-12.475a2.882,2.882,0,0,0,.77-.3c.129-.075.137-.328-.052-.327-.969.006-1.935.329-2.907.418a31.946,31.946,0,0,1-3.361.163c-.952-.041-11.179-.753-11.9-1.255.113.4.01.2,0,.628a114.95,114.95,0,0,0,12.2,1.146c.335,0,2.073-.047,2.976-.128.526-.047,1.117-.2,1.673-.3a44.831,44.831,0,0,0,2.824,12.573,41.851,41.851,0,0,0,5.292,10.756Q439.35,91.154,441,100.74l4.331,25.869a76.519,76.519,0,0,1-10.3,8.659,65.281,65.281,0,0,1-13.566,6.979,60.858,60.858,0,0,1-29.794,3.54c-5.558-.812-11.082-2.68-15.332-6.455q8.345-13.113,15.54-26.907c1,1.422,3.028,2.428,4.488,3.145a20.876,20.876,0,0,0,6.249,1.9,21.23,21.23,0,0,0,6.538-.084,15.358,15.358,0,0,0,5-1.537,56.593,56.593,0,0,0-.293,5.965c-.045,2.336-.031,4.673,0,7.009.026,2.182.088,4.364.174,6.544.091,2.33-.041,4.917.587,7.173a.358.358,0,0,0,.7-.021,37.3,37.3,0,0,0-.135-6.721c-.1-2.421-.162-4.844-.205-7.267-.041-2.27-.037-4.539-.042-6.809,0-2.112.083-4.251-.089-6.36.072-.06.145-.119.212-.183.269-.252.1-.8-.318-.706a23.834,23.834,0,0,0-2.668,1.017,18.967,18.967,0,0,1-3.1.814,20.2,20.2,0,0,1-6.1.138A20.582,20.582,0,0,1,397,114.774a18.957,18.957,0,0,1-2.811-1.579,22.893,22.893,0,0,0-1.994-1.4c3.667-7.068,10.337-21.678,10.577-22.244q1.148-2.649,2.259-5.315l.006.01c.6-1.527,1.775-4.291,1.687-4.172q.344-.86.683-1.72c.017-.044,4.03-10.482,4.894-15.474-.063,0,.748-7.328.745-8.2.009-.125,7.147.068,10.512-.126,3.3-.19,7.471-.276,10.405-1.256.251-.085.22-.311-.092-.335a32.6,32.6,0,0,0-4.856.184c-1.8.131-3.605.253-5.412.355-3.554.2-7.322.051-10.814.482-.057.487-1.135,8.825-1.2,8.811-2.458,10.212-6.728,19.941-11.022,29.5q-6.992,15.562-15.421,30.425-4.734,8.326-9.909,16.391a.545.545,0,0,0,.112.736c5.36,5.011,12.531,7.09,19.789,7.614.122.009.262.03.484.031a62.33,62.33,0,0,0,9.093-.132,65.772,65.772,0,0,0,29.352-9.871,55.946,55.946,0,0,0,11.651-9.5s.378-.513.767-.968C444.718,116.863,443.467,107.457,442.808,103.666Zm-2.894-16.592a.436.436,0,0,0,.07-.034c1.189-.742,3.031-.883,3.65.708a5.352,5.352,0,0,1,.048,2.642c-.138,1.021-.289,2.041-.435,3.06-.32,2.252-.739,4.556-1.024,6.859Q441.072,93.692,439.914,87.074Z" transform="translate(-5.061 -1.01)"/>
      <path id="Path_12175" data-name="Path 12175" d="M411.8,108.2c-1.447,2.831-4.786,4.628-7.867,3.577a50.172,50.172,0,0,0,5.932-12.137A44.484,44.484,0,0,0,412.848,86a.164.164,0,0,0-.325-.034c-.539,2.289-.9,4.612-1.472,6.9A66.32,66.32,0,0,1,409,99.5a94.018,94.018,0,0,1-5.976,12.32.372.372,0,0,0,.206.474c3.394,1.739,8.325-.035,9.105-3.959C412.4,108,411.933,107.944,411.8,108.2Z" transform="translate(-6.427 -2.624)"/>
      <path id="Path_12176" data-name="Path 12176" d="M400.857,135.882a4.9,4.9,0,0,0-2.052-.14c-.805.037-1.608.083-2.41.168,0-.032,0-.065,0-.1a.185.185,0,0,0-.353-.037,12.172,12.172,0,0,0-.3,6.1.343.343,0,0,0,.194.227c-.037.093-.076.187-.108.282a.3.3,0,0,0,.526.289,26.468,26.468,0,0,0,2.1-3.045c.707-1.01,1.387-2.042,2.1-3.044a2.328,2.328,0,0,0,.322-.1A.331.331,0,0,0,400.857,135.882Zm-3.073,3.256c-.443.62-.941,1.269-1.348,1.952.019-.8-.048-1.619-.041-2.419.006-.733.028-1.462.017-2.192.8.084,1.611.127,2.419.162.344.014.69.04,1.033.03A23.308,23.308,0,0,0,397.784,139.138Z" transform="translate(-6.058 -5.068)"/>
      <path id="Path_12177" data-name="Path 12177" d="M424.791,57.285s-1.883,2.2-8.681,3.974c-1.046.314-8.786-1.046-9.727-11.506S418.1,34.378,418.1,34.378s16.421-4.707,25.939,4.08a21.9,21.9,0,0,1,7.217,19.559l-.732,5.543s.1-10.669-10.146-19.768c-1.777-.732-2.823-3.243-9.309-3.452a10.261,10.261,0,0,0-9.2,4.6s-3.556,2.824-.837,8.367A6.84,6.84,0,0,0,424.791,57.285Z" transform="translate(-6.591 -0.039)" fill="#683226"/>
      <path id="Path_12178" data-name="Path 12178" d="M438.251,42.019a15.061,15.061,0,0,0-5.558-1.853,15.652,15.652,0,0,0-8.136-3.828,12.85,12.85,0,0,0-8.612,2.288,12.668,12.668,0,0,0-3.44,16.684c1.875,3.076,5.633,5.435,9.117,3.409a.311.311,0,0,0-.256-.566c-3.2,1.174-6.348-1.006-7.869-3.727a11.7,11.7,0,0,1-1.21-7.894,11.377,11.377,0,0,1,11.836-8.953,14.3,14.3,0,0,1,6.812,2.484,12.667,12.667,0,0,0-4.4.808,9.986,9.986,0,0,0-6.529,8.363c-.4,3.992,2.144,9.126,6.792,8.724.335,0,2.073-.048,2.976-.128.526-.048,1.117-.2,1.674-.305,0,.086.616.039.6-.034a2.9,2.9,0,0,0,.77-.3c.129-.075.137-.329-.052-.327-.969.006-1.935.329-2.907.418a19.075,19.075,0,0,1-3.324.046c-3.836-.6-5.828-4.469-5.388-8.109a8.89,8.89,0,0,1,6.309-7.389,13.535,13.535,0,0,1,5.5-.407c5.122.5,10.769,6.056,13.476,10.662a33.584,33.584,0,0,1,4.009,12.224c.05.329.586.33.6-.018C451.379,55.568,445.777,46.27,438.251,42.019Z" transform="translate(-6.807 -0.193)"/>
      <path id="Path_12179" data-name="Path 12179" d="M447.612,41.681a23.7,23.7,0,0,0-15.721-9.089c-11.187-1.624-27.7,4.4-26.016,18.157a14.346,14.346,0,0,0,3.664,8.075,10.4,10.4,0,0,0,3.771,2.6,3.335,3.335,0,0,0,.664.2,4.3,4.3,0,0,0,3.687-.653c.2-.142,0-.46-.222-.359a4.391,4.391,0,0,1-3.911-.143,9.63,9.63,0,0,1-3.645-3,13.516,13.516,0,0,1-2.8-6.773c-.7-5.541,2.068-10.317,6.695-13.244C423.5,31.3,437.85,32.21,445.6,41.117a21.96,21.96,0,0,1,4.375,7.767,23.646,23.646,0,0,1,.735,9.1c-.037.516.774.772.929.226C453.219,52.643,450.952,46.159,447.612,41.681Z" transform="translate(-6.563)"/>
      <path id="Path_12180" data-name="Path 12180" d="M406.552,128.025c-2.293,1.175-3.978,3.688-6.888,3.256-2.361-.35-3.609-3-3.154-5.167.067-.318-.4-.392-.528-.128a4.756,4.756,0,0,0,2.687,6.248,5.692,5.692,0,0,0,4.392-.33,9.544,9.544,0,0,0,4.023-3.22C407.293,128.338,406.974,127.809,406.552,128.025Z" transform="translate(-6.064 -4.586)"/>
      <path id="Path_12181" data-name="Path 12181" d="M422.3,89.438a2.334,2.334,0,0,0-.9,1.413,3.322,3.322,0,0,0-.247.836,3.562,3.562,0,0,0-.1,1.78.425.425,0,0,0,.263.28,1.045,1.045,0,0,0,.366.26,1.571,1.571,0,0,0,1.582-.032A2.609,2.609,0,0,0,423.9,92C423.918,91.211,423.729,88.675,422.3,89.438Zm.43,2.943c-.03.281-.36,1.09-.719.669a.394.394,0,0,1-.069-.161,10.747,10.747,0,0,1,.293-1.379c.092-.278.281-.559.392-.836.022.2.079.4.1.609A5.05,5.05,0,0,1,422.735,92.381Z" transform="translate(-7.309 -2.794)"/>
      <path id="Path_12182" data-name="Path 12182" d="M408.6,87.923a.414.414,0,0,0-.724.214c-.107.545-.018,1.1-.164,1.641a3.318,3.318,0,0,1-.555,1.234,4.851,4.851,0,0,1,.05-1.319,14.908,14.908,0,0,1,.469-1.783c.055-.206-.178-.448-.37-.271a3.932,3.932,0,0,0-1.136,2.6c-.064.69-.134,1.98.819,2.068.855.079,1.5-1.093,1.759-1.755A2.771,2.771,0,0,0,408.6,87.923Z" transform="translate(-6.582 -2.71)"/>
      <path id="Path_12183" data-name="Path 12183" d="M412.35,78.414a14.714,14.714,0,0,0-1.566.089,7.863,7.863,0,0,1-1.737-.284c-.776-.192-1.244.978-.46,1.172,1.115.277,3.288.906,4.03-.374A.385.385,0,0,0,412.35,78.414Z" transform="translate(-6.682 -2.25)"/>
      <path id="Path_12184" data-name="Path 12184" d="M428.512,75.966a20.038,20.038,0,0,0-2.474-2.4,32.211,32.211,0,0,1-2.31-2.6.321.321,0,0,0-.076-.068.4.4,0,0,0-.616-.11c-.62.537-.982,1.331-1.587,1.9a12.1,12.1,0,0,1-2.159,1.61c-.281.165-.194.714.184.6a7.382,7.382,0,0,0,2.7-1.315,5.058,5.058,0,0,0,1.348-1.554,11.721,11.721,0,0,0,1.669,2.425,6.743,6.743,0,0,0,2.832,2.169A.429.429,0,0,0,428.512,75.966Z" transform="translate(-7.218 -1.881)"/>
    </g>
    <g id="Group_3483" data-name="Group 3483" transform="translate(-508.75 -27.514)">
      <g id="Group_3472" data-name="Group 3472" transform="translate(657.861 329.047)">
        <path id="Path_12185" data-name="Path 12185" d="M685.12,466.3,669.3,374.071c30.51,3.838,58.889,4.573,82.465-1.683L737.4,473.86Z" transform="translate(-667.863 -370.52)" fill="#405979"/>
        <path id="Path_12186" data-name="Path 12186" d="M752.167,371.263a.938.938,0,0,0-1.186-.977,168.73,168.73,0,0,1-63.777,5.1c-6.04-.681-11.967-1.928-17.966-2.849a.648.648,0,0,0-.6.207c-.388-.258-1.052-.094-.984.476.706,5.868,2.146,11.684,3.257,17.487q1.7,8.857,3.246,17.739,3.064,17.554,5.6,35.194.7,4.885,1.385,9.773c.469,3.343.665,6.894,1.608,10.14a.761.761,0,0,0,1.487-.2,56.788,56.788,0,0,0-.888-8.939c-.38-2.931-.765-5.861-1.188-8.786q-1.289-8.92-2.724-17.817-2.835-17.582-6.272-35.06-.952-4.843-1.946-9.677c-.638-3.1-1.249-6.236-2.131-9.279a98.15,98.15,0,0,0,15.676,3.05q8.112,1.081,16.3,1.364a166,166,0,0,0,32.458-2.088,161.347,161.347,0,0,0,17.963-3.983c.023-.007.041-.017.064-.025a65.261,65.261,0,0,0-1.874,9.249c-.548,3.2-1.059,6.4-1.568,9.6q-1.545,9.718-3.03,19.446-2.939,19.24-5.667,38.511-.753,5.288-1.425,10.585c-.238,1.859-.453,3.709-.619,5.573s-.492,3.705-.49,5.574a.709.709,0,0,0,1.386.188,44.846,44.846,0,0,0,.856-4.655c.275-1.7.593-3.393.84-5.1.463-3.21.936-6.417,1.375-9.629q1.331-9.753,2.73-19.5,2.779-19.268,5.787-38.5c.557-3.563,1.133-7.123,1.668-10.688.54-3.6,1.367-7.3,1.321-10.949A.557.557,0,0,0,752.167,371.263Z" transform="translate(-667.654 -370.247)" fill="#1d1d1b"/>
        <path id="Path_12187" data-name="Path 12187" d="M721.53,426.639a80.384,80.384,0,0,0-.94-12.146c-.083-.471-.748-.312-.784.106-.393,4.575-.225,9.169-.239,13.761s-.1,9.179-.237,13.764-.389,9.168-.668,13.749q-.208,3.432-.456,6.863c-.161,2.273-.485,4.573-.425,6.851a.781.781,0,0,0,1.526.207,72.267,72.267,0,0,0,1.26-10.7q.446-5.362.691-10.734C721.591,441.119,721.694,433.882,721.53,426.639Z" transform="translate(-674.036 -375.845)" fill="#1d1d1b"/>
      </g>
      <g id="Group_3480" data-name="Group 3480" transform="translate(590.75 46.699)">
        <g id="Group_3473" data-name="Group 3473" transform="translate(78.153 73.538)">
          <path id="Path_12188" data-name="Path 12188" d="M695.052,224.125c6.933,2.266,31.8.8,37.4-1.2s11.332-13.866,12.676-23.082l-2.5-12.909a1.3,1.3,0,0,1-.238-1.229l-3.622-18.7s4.85-8.337,6.339-12.051c2.433-9.642-9.2-22.85-29.152-21.312-22.636,1.951-26.135,33.536-26.135,33.536s-9.431,22.214-8.9,39.345C681.387,212.46,688.119,221.859,695.052,224.125Z" transform="translate(-680.382 -131.293)" fill="#f8cea0"/>
          <path id="Path_12189" data-name="Path 12189" d="M732.808,135.933c-5.052-2.612-9.228-2.763-18.843-2.489-10.8.362-17.954,10.977-19.909,18.088,0,0-3.956,12.488-4.409,14.927-.174.93-.921,2.905-.962,3.1-.8,3.942-2.449,7.62-3.751,11.407-1.031,3-1.774,6.084-2.808,9.077.21-.026.421-.045.631-.061a49.756,49.756,0,0,0-1.614,12.85q-.029.963.013,1.906c-.675,2.265.271,5.05,1.209,7.09a.633.633,0,0,0,.465.38,19.184,19.184,0,0,0,2.013,3.5c.531.733,1.138-1.259,1.052-1.484-.049-1.212-.973-6.863-1.086-8.481-.237-3.395,1.879-16.37,2.771-19.466.311-1.079,6.022-13.522,7.527-16.259.023-.224,6.093,1.008,8.646,1.726a91.9,91.9,0,0,0,8.97,2.031,51.829,51.829,0,0,0,9.555.825c.566-.005,1.132-.013,1.7-.02,5.872-1.266,11.144-3.878,15.142-8.694.206-.249,4.81-7.161,5.884-10.811C746.223,152.231,744.1,141.772,732.808,135.933Z" transform="translate(-680.386 -131.271)" fill="#e5af7a"/>
          <path id="Path_12190" data-name="Path 12190" d="M701.857,131.524c-2.012,4.442-3.842,8.968-5.559,13.539-.832,1.854-1.6,3.727-2.34,5.578q-1.564,3.935-2.827,7.981c-.408,1.31-2.3,7.487-2.359,7.684q-3.546,11.746-7.11,23.486c-.247,1.086-.922,6.578-1.072,8.2a63.221,63.221,0,0,0-.193,9.342c.023.4.668.421.77.079a.517.517,0,0,0,.941-.355,60.765,60.765,0,0,1-.124-7.871,54.3,54.3,0,0,1,1.172-7.489c1.115-5,2.734-9.859,4.32-14.722,3.133-9.6,6.17-19.234,9.671-28.711,2-5.414,4.178-10.748,6.448-16.053C704.07,131.1,702.351,130.436,701.857,131.524Z" transform="translate(-680.307 -130.968)" fill="#1d1d1b"/>
          <path id="Path_12191" data-name="Path 12191" d="M749.6,165.915a46.021,46.021,0,0,0,4.14-7.886c.137-.369-.429-.6-.623-.272-1.488,2.533-2.74,5.192-4.286,7.7s-3.481,4.763-4.964,7.278a.369.369,0,0,0,.573.452,18.47,18.47,0,0,0,1.494-1.7c.092.618.266,1.242.333,1.729q.37,2.693.805,5.376c.276,1.7.56,3.409.9,5.1a22.054,22.054,0,0,0,1.374,5.128.417.417,0,0,0,.362.229q.439,2.172.908,4.336a83.7,83.7,0,0,0,1.946,8.145.455.455,0,0,0,.882-.221c-.226-1.343-.53-2.677-.849-4.008a20.608,20.608,0,0,1-.819-3.417c-.058-.25-.114-.5-.168-.748q-.339-1.556-.657-3.117a17.557,17.557,0,0,1-.381-1.883c-.2-.984-.393-1.966-.579-2.951-.689-3.636-1.284-7.288-1.9-10.936-.044-.351-.092-.7-.133-1.052-.122-1.032.081-2.7-.667-3.526l-.008-.044C748.1,168.4,748.859,167.12,749.6,165.915Z" transform="translate(-688.394 -134.359)" fill="#1d1d1b"/>
        </g>
        <g id="Group_3474" data-name="Group 3474" transform="translate(0 128.156)">
          <path id="Path_12192" data-name="Path 12192" d="M647.24,349.591,654,354.746s-1.956,4.089-1.244,5.333a5.65,5.65,0,0,0,2.311,1.956l3.08-2.421,1.343.024-1.935,3.82-1.244,10.488,3.377-3.555.356,3.022,3.2-3.733v5.866l1.6,1.249,1.6-4.626,2.489-14.932s-1.067-10.843-3.378-12.62-8.934-.537-8.934-.537l-2.087-1.064Z" transform="translate(-597.943 -212.587)" fill="#f8cea0"/>
          <path id="Path_12193" data-name="Path 12193" d="M616.862,198.9s-20.975,12.088-24.531,41.6c-4.089,33.063,8.177,64.172,30.575,77.682,9.066,9.066,16.355,12.621,16.355,12.621l7.411-6.782s-22.521-24.148-25.543-37.836c-9.066-30.041,3.911-47.462,3.911-47.462s27.375-8.888,26.486-29.686c-.5-11.675-14.031-15.634-23.465-14.932A17.452,17.452,0,0,0,616.862,198.9Z" transform="translate(-590.852 -193.614)" fill="#d0fcf8"/>
          <path id="Path_12194" data-name="Path 12194" d="M648.939,325.2s-20.265-17.954-22.931-29.153c-4.444-9.776-7.288-25.242-5.867-30.753.534-5.866.711-12.976,4.266-19.2,4.622-5.688,24.176-22.931,24.176-22.931s3.377-14.221-10.489-10.311-25.242,26.664-28.264,38.93,1.778,43.907,10.844,53.862S647.339,328.4,647.339,328.4Z" transform="translate(-593.065 -195.926)" fill="#aed3cf"/>
          <path id="Path_12195" data-name="Path 12195" d="M662.341,336.3q0-.366-.011-.733a37.833,37.833,0,0,0-.438-4.874,14.4,14.4,0,0,0-.782-3.661c.038-.213.073-.427.113-.639-.278-1.213-.951-1.918-2.327-1.371a.726.726,0,0,0-.272.189A13.965,13.965,0,0,0,655.433,324a12.578,12.578,0,0,0-6.594.031c-1.875-2.007-4.1-3.722-6.05-5.659q-3.034-3.008-5.8-6.268a85.439,85.439,0,0,1-9.609-13.814,68.629,68.629,0,0,1-8.874-34.332,58.8,58.8,0,0,1,1.074-10.211c.622-3.175,1.758-6.181,2.542-9.3a95.321,95.321,0,0,1,13.95-11.628,76.953,76.953,0,0,0,7.184-5.732c1.964-1.123,3.913-2.272,5.808-3.494.833-.538-.034-1.934-.911-1.477-.235.121-.467.249-.7.374a26.534,26.534,0,0,0,1.676-2.5,20.339,20.339,0,0,0,3.018-11.35c-.04,0-.079,0-.12,0-.141-7.306-7.305-12.331-13.851-14.1a27.724,27.724,0,0,0-11.034-.721c-3.514.49-7.883,1.6-10.616,3.993a.214.214,0,0,0-.049.277c-7.146,4.359-12.921,11.1-16.944,18.359-4.972,8.969-6.863,19.229-8.109,29.3a78.468,78.468,0,0,0,1.358,28.161,79.4,79.4,0,0,0,10.407,24.285A75.684,75.684,0,0,0,623.9,319.651a.653.653,0,0,0,.47.117c4,4.828,9.5,8.646,14.931,11.573a.445.445,0,0,0,.085.035c.154.268.312.526.47.781a2.645,2.645,0,0,1,1.32-.719,50.073,50.073,0,0,0,7.278,6.143q1.72,1.271,3.49,2.472l-.018.058a.349.349,0,0,0-.317.149c-1.332,1.95-1.891,4.534-2.4,6.811a37.873,37.873,0,0,0-.844,7.9.729.729,0,0,0,1.166.634,12.538,12.538,0,0,0,2.381-2.031q.005.3.013.607c.014.507.507,1.1,1.071.773a10.1,10.1,0,0,0,2.491-2.012,17.4,17.4,0,0,0-.033,3.207,1.738,1.738,0,0,0,2.185,1.611c1.417-.329,1.81-1.826,2.123-3.049q.723-2.817,1.3-5.671a64.333,64.333,0,0,0,1.62-12.163A.606.606,0,0,0,662.341,336.3Zm-22.819-6.394a62.606,62.606,0,0,1-8.4-5.478c-2.141-1.665-4.127-3.494-6.136-5.3a.6.6,0,0,0-.279-.573,76.489,76.489,0,0,1-29.657-41.515,74.386,74.386,0,0,1-2.7-26.506,138.129,138.129,0,0,1,2.316-15.972,62.97,62.97,0,0,1,4.352-14.109c4.181-9.11,10.879-16.237,18.779-22.226a2.253,2.253,0,0,1,.252-.58c1.147-.513,2.271-1.084,3.467-1.495a26.847,26.847,0,0,1,4.928-1.176,27.493,27.493,0,0,1,10.518.49c6.96,1.741,13.885,6.694,13.984,14.524a.543.543,0,0,0,.116.333,20.488,20.488,0,0,1-3.357,9.715,29.529,29.529,0,0,1-3.2,4.081c-2.828,1.622-5.609,3.345-8.413,4.99a66.195,66.195,0,0,0-9.639,6.441c-6.368,5.425-8.854,13.3-9.975,21.362-2.291,16.464,2.486,33.455,11.552,47.211a80.358,80.358,0,0,0,18.081,19.664.354.354,0,0,0,.33.071l.122.1a.712.712,0,0,0-.213.113c-1.238.943-2.226,2.258-3.414,3.285A32.255,32.255,0,0,1,639.522,329.907Zm12.4,21.035a6.963,6.963,0,0,1-.477.826,9.574,9.574,0,0,1-1.618,1.815,40.382,40.382,0,0,1,.647-5.88c.446-2.4,1.408-4.7,1.813-7.1a1.2,1.2,0,0,1,1.127.352A36.253,36.253,0,0,0,651.926,350.941Zm6.32,4.156c-.062.194-.217.887-.4.957l-1.053-.329.01-.517a10.928,10.928,0,0,1,.081-2.322q.11-2.321.335-4.636c.151-1.54.342-3.078.551-4.612a17.446,17.446,0,0,0,.364-4.4.152.152,0,0,0-.271-.065,15.155,15.155,0,0,0-1.381,5.109c-.3,1.753-.508,3.522-.673,5.293a11.9,11.9,0,0,1-2.375,3.249c0-.468.009-.935.021-1.4a5.818,5.818,0,0,0,.735-3.087.449.449,0,0,0-.522-.438c.028-.3.053-.6.086-.9.27-2.436.811-4.819,1.172-7.239a.523.523,0,0,0-1-.244c-.011.027-.02.056-.031.083-.3-.2-.607-.39-.908-.588a.331.331,0,0,0-.2-.128q-1.678-1.1-3.32-2.265c-2.694-1.909-5.238-4.075-8.006-5.873a.368.368,0,0,0-.556.272c-.078-.079-.156-.159-.237-.233a35.086,35.086,0,0,0,3.311-2.506,15.011,15.011,0,0,0,3.266-3.36.671.671,0,0,0,.093-.378l.072.051a.5.5,0,0,0,.233.685,15.833,15.833,0,0,1,1.784.932c-.019-.246-.033-.494-.04-.743a1.966,1.966,0,0,1,.035-.418,14.643,14.643,0,0,1,5.767.384,13.107,13.107,0,0,1,3.255,1.452,11.573,11.573,0,0,1,1.083.856,9.546,9.546,0,0,0,.212,1.039c-.026,1.127-.134,2.313-.166,2.536a20.659,20.659,0,0,1-1.248,4.681q-.157.4-.331.78a1.41,1.41,0,0,1,.834,1.077c.017.091.029.181.044.271.287-.55.553-1.11.792-1.681q.32-2.385.677-4.764.209,1.5.3,3a36.745,36.745,0,0,1-.265,6.77,1.451,1.451,0,0,1,.433-.1C660.179,345.978,659.66,350.653,658.246,355.1Z" transform="translate(-590.75 -193.555)"/>
          <path id="Path_12196" data-name="Path 12196" d="M657.878,360.956a7.717,7.717,0,0,1-1.843,1.752,1.042,1.042,0,0,1-1.667-.92c-.057-1.15.77-2.765-.035-3.763a.242.242,0,0,0-.38.009,8.082,8.082,0,0,0-.8,3.186,2.716,2.716,0,0,0,.785,2.52c1.837,1.544,4.176-.551,4.952-2.226C659.189,360.87,658.291,360.5,657.878,360.956Z" transform="translate(-598.692 -214.488)"/>
        </g>
        <g id="Group_3475" data-name="Group 3475" transform="translate(24.954 120.55)">
          <path id="Path_12197" data-name="Path 12197" d="M662.253,349.458s-3.636-17.9-9-35.88c-4.234-14.2-9.437-28.721-12.965-34.9-7.2-16.032-24.065-64.861-16.829-83.6a155.6,155.6,0,0,1,55.492-9.191l17.3,13.19,21.6,28.4,17.6-39.195s42.794,9.2,44.794,12.4c.672,14.241,6.8,35.572-7.328,69.17-2.332,7.449-3.739,13.37-7.471,21.618-10.8,25.6-19.124,56.314-19.124,56.314A199.1,199.1,0,0,1,662.253,349.458Z" transform="translate(-619.644 -184.966)" fill="#d0fcf8"/>
          <path id="Path_12198" data-name="Path 12198" d="M684.021,441.3" transform="translate(-627.581 -217.497)" fill="#aed3cf"/>
          <path id="Path_12199" data-name="Path 12199" d="M662.766,349.033s-14.4-56.392-22.4-70.391c-4.061-7.108-10.066-26.915-14.933-45.646-4.02-18.031-5.6-34.8-1.464-38.341,3.343-1.694,12.707-4.347,22.729-5.855,15.349-2.309,32.337-3.136,32.337-3.136s-27.6,48.588-25.6,72.185,19.847,92.864,19.847,92.864Z" transform="translate(-619.625 -184.945)" fill="#aed3cf"/>
          <path id="Path_12200" data-name="Path 12200" d="M780.77,199.491a.93.93,0,0,0-1.612-.33q-10.672-3.293-21.482-6.127-5.331-1.407-10.689-2.707-2.783-.675-5.572-1.322c-.69-.161-1.387-.345-2.088-.524a15.829,15.829,0,0,0-2.171-.507c-.549-.111-1.1-.2-1.648-.263a.463.463,0,0,0-.812.062c-2.66,6.44-5.44,12.83-8.289,19.189-2.551,5.7-5.369,11.28-7.891,16.986a27.989,27.989,0,0,0-1.365,2.716c-.407-.579-.825-1.141-1.232-1.685-1.666-2.229-3.362-4.435-5.058-6.642-1.278-1.934-2.594-3.841-3.971-5.705a90.306,90.306,0,0,0-5.607-7.261s-3.821-6.221-13.806-13.125c-2.7-1.975-5.322-4.058-8.008-6.052l.014-.017h.007c.51-.024.49-.676.123-.889a.666.666,0,0,0-.643-.409,153.631,153.631,0,0,0-30.671,2.385,148.614,148.614,0,0,0-14.895,3.471,61.123,61.123,0,0,0-6.335,2.128c-.8.329-1.777.705-2.711,1.175-.5.2-3.881.977-4.065,1.916-1.949,9.94-.661,20.109,1.77,29.842a245.98,245.98,0,0,0,7.47,23.988c1.875,6.15,3.827,12.277,6.009,18.326,2.8,7.748,6.063,15.308,9.183,22.928,1.01,2.465,2,4.938,2.952,7.426q2.423,7.443,4.595,14.965c1.13,3.914,2.254,7.823,3.317,11.75q.819,3.865,1.742,7.708t2,7.652c.517,2.094,1.08,4.171,1.754,6.209a.236.236,0,0,0,.186.169q.724,2.217,1.509,4.41c.05.137.284.068.248-.075q-.76-2.973-1.516-5.946a125.337,125.337,0,0,0-2.887-13.675c-.9-3.735-1.851-7.457-2.822-11.173q-.186-.966-.368-1.933a22.118,22.118,0,0,0-1.049-3.407c-2.477-9.145-5.422-18.185-8.543-27.125-6.58-18.853-14.855-37.05-20.436-56.248-.733-2.834-1.4-5.683-1.96-8.556a82.67,82.67,0,0,1-1.621-14.308,63.864,63.864,0,0,1,.28-6.944c.162-1.783.482-3.539.736-5.3.662-.312,1.287-.731,1.929-1.072a29.965,29.965,0,0,1,2.906-1.342,62.591,62.591,0,0,1,6.466-2.094q7.244-2.03,14.661-3.348,1.814-.322,3.635-.6c6.977-.87,14-1.335,21.017-1.7q1.937-.024,3.876,0a34.859,34.859,0,0,0,4.36,3.766q2.536,2.068,5.054,4.16c3.283,2.74,6.488,5.578,9.5,8.615a114.431,114.431,0,0,1,15.376,19.922c1.322,2.1,2.6,4.234,3.846,6.381a54.828,54.828,0,0,0,3.641,5.922.812.812,0,0,0,1.365-.841c-.176-.421-1.505-3.523-2.53-6.555a30.812,30.812,0,0,0,2.5-4.293q1.213-2.231,2.393-4.479,2.532-4.833,4.849-9.771,2.271-4.818,4.382-9.708c1.432-3.319,2.985-6.661,4.133-10.09a.993.993,0,0,0,.051-.423,25.759,25.759,0,0,0,4.458,1.25c1.772.483,3.552.942,5.327,1.417q5.453,1.458,10.886,3,10.863,3.075,21.635,6.465a.783.783,0,0,0,.837-.219q.183.706.35,1.412c.224,1.51.492,3.018.667,4.525q.446,3.855.639,7.734a148.159,148.159,0,0,1-.112,16.188c-.116,1.977-.244,3.96-.408,5.942a162.884,162.884,0,0,1-4.96,21.575c-2.321,7.836-5.026,15.553-7.75,23.257-.384,1.062-.772,2.122-1.154,3.185q-2.495,6.953-4.89,13.942-3.036,8.612-6.052,17.232c-1.908,5.465-3.76,10.949-5.653,16.42-1.744,5.037-3.9,10.335-4.438,15.668a.3.3,0,0,0,.578.14c.431-1.182.83-2.375,1.213-3.576a.185.185,0,0,0,.118-.108c1.857-4.661,3.081-9.638,4.654-14.4.153-.463.307-.924.46-1.387,1.12-3.076,2.252-6.148,3.351-9.232q5.249-14.717,10.435-29.457c6.649-18.817,14.021-37.782,16.276-57.749A89.561,89.561,0,0,0,780.77,199.491ZM621.8,197.672c.042-.234.085-.468.13-.7l.07-.019Q621.9,197.309,621.8,197.672Z" transform="translate(-619.345 -184.84)"/>
        </g>
        <g id="Group_3476" data-name="Group 3476" transform="translate(89.422)">
          <path id="Path_12201" data-name="Path 12201" d="M714.217,157.783c-4.866-.667-20-8.8-20-8.8l15.532-44.262,1.422-3.911s-1.955-8-2.133-8.355-.178-6.577,2.311-7.288,2.726,4.648,2.726,4.648l15.761-13,26.938-8.831,13.77,63.759L774.1,151.3s-20.76,8.018-25.223,8.053A98.655,98.655,0,0,1,714.217,157.783Z" transform="translate(-693.347 -49.409)" fill="#f8cea0"/>
          <path id="Path_12202" data-name="Path 12202" d="M730.418,78.321c-4.8,8.06-9.107,16.482-13.187,24.935a1.507,1.507,0,0,0-.174.116c-5.479,4.284-8.035,10.516-10.17,16.906a70.313,70.313,0,0,0-2.932,8.768,1.53,1.53,0,0,0,1.779,1.915q-.063.463-.119.929c-.193,1.62,2.314,2.3,2.84.692a229.6,229.6,0,0,1,10.914-27.027c4.175-8.8,8.953-17.294,13.137-26.082C733.085,78.256,731.118,77.147,730.418,78.321Z" transform="translate(-694.58 -50.662)" fill="#e5af7a"/>
          <path id="Path_12203" data-name="Path 12203" d="M709.369,109.52l16.265-53.506s7.466.355,11.91-.8,19.021-6.665,19.021-6.665,3.911-1.244,3.2,1.6c3.733-4.355,4.177-.977,4.177-.977s2.311-3.911,2.578-1.155c.266,5.954-4.266,13.421-7.088,17.655-2.067,1.277-9.978,11.586-27.665,8.476-2.044,8.177-21.9,35.918-21.9,35.918Z" transform="translate(-695.276 -46.742)" fill="#fcd597"/>
          <path id="Path_12204" data-name="Path 12204" d="M694.219,156.819l9.707-25.214,3.158,2.993,22.963,12.518s5.874-3.883,9.409-12.822a45.94,45.94,0,0,0,25-4.783l5.433,3.862L774.1,159.13s-19.555,10.132-36.975,8.977C711,168.907,694.219,156.819,694.219,156.819Z" transform="translate(-693.347 -57.245)" fill="#e2bb83"/>
          <path id="Path_12205" data-name="Path 12205" d="M713.7,101.37a18.461,18.461,0,0,1,1.212-2.648,9.483,9.483,0,0,1,1.408-3.59c-.018-.53-.035-1.059-.044-1.586-.031-1.695.209-3.632-.97-5.013a1.229,1.229,0,0,0-2.074.183,2.915,2.915,0,0,0-1.716,2.251,16.581,16.581,0,0,0,.329,4.87,14.528,14.528,0,0,0,1.327,5.02A1.244,1.244,0,0,0,713.7,101.37Z" transform="translate(-695.538 -51.964)" fill="#e5af7a"/>
          <path id="Path_12206" data-name="Path 12206" d="M774.422,147.153c-.047.026-.1.051-.142.079,0-.014,0-.026,0-.041.008-2.561-.76-5.209-1.243-7.73-.5-2.62-1.024-5.236-1.539-7.853q-.8-4.059-1.606-8.117a.382.382,0,0,0-.058-.606l-.076-.056q-.747-3.752-1.509-7.5c-2.169-10.653-4.363-21.3-6.665-31.934-1.226-5.661-2.409-11.333-3.868-16.951q.33-.275.646-.56a2.093,2.093,0,0,1-.192-.255,27.111,27.111,0,0,0,3.568-6.014,31.123,31.123,0,0,0,2.758-7.682c.218-1.07,1.21-4.592-.46-5.178-.557-.195-.957.173-1.3.561a9.4,9.4,0,0,0-.8,1.073,1.1,1.1,0,0,0-1.642-.921,8.488,8.488,0,0,0-2.226,1.751,1.954,1.954,0,0,0-1.5-1.48c-1.4-.234-2.911.708-4.152,1.211-1.916.777-3.845,1.525-5.8,2.209a84.6,84.6,0,0,1-11.783,3.272c-2.011.392-4.039.7-6.077.9-1.694.164-3.43.089-5.124.238a.427.427,0,0,0-.2.017c-.27.026-.538.058-.8.1a.5.5,0,0,0,.029.977c.1.018.209.033.312.049-2.93,9.565-5.605,19.19-8.526,28.759-.277-1.384-.867-2.831-2.244-3.257-1.826-.564-2.863,1.332-3.347,2.546a11.022,11.022,0,0,0-.3,6.724c.308,1.316.748,2.6,1.08,3.917.287,1.134.339,2.294.553,3.43q-4.541,13.828-9.508,27.541c-2.388,6.592-4.687,13.257-7.423,19.742a.559.559,0,0,0,.143.627c-.017.051-.033.1-.051.156a1.163,1.163,0,0,1,.457.242c.106.09.207.182.3.277.017-.057.035-.113.052-.17,14.863,9.672,34.735,12.882,52.982,10.423-.044.037-.088.077-.133.114q.745-.08,1.49-.086c.082-.086.164-.171.243-.259a83.138,83.138,0,0,0,9.31-1.97,75.172,75.172,0,0,0,17.385-7.192C776.324,147.773,775.295,146.656,774.422,147.153Zm-55-70.2c1.986-6.612,3.86-13.254,5.757-19.892a1.008,1.008,0,0,0,.037-.2,45.466,45.466,0,0,0,6.178-.657,66.792,66.792,0,0,0,8.423-1.843c2.627-.742,5.213-1.615,7.772-2.566q2.034-.755,4.046-1.571c.765-.311,1.525-.631,2.286-.949q.545-.236,1.094-.455,3.121-.458,1.938,1.262a.325.325,0,0,0-.2.333c-.786.708-1.55,1.434-2.292,2.194-.394.4.113,1.084.566.7,1.056-.9,2.088-1.816,3.126-2.735.518-.46,1.043-.913,1.565-1.369q.389-.344.781-.687.8.325.62,1.015a.342.342,0,0,0,.045.19c-.273.524-.52,1.053-.739,1.549a.464.464,0,0,0,.8.442c.593-.857,1.027-1.892,1.691-2.691.331-.4.691-1.3.9-.432a5.3,5.3,0,0,1-.121,1.538,25.05,25.05,0,0,1-1.455,5.652,40.685,40.685,0,0,1-2.3,4.986c-.786,1.458-1.886,2.9-2.535,4.449l-.014-.051c-.111-.414-.81-.321-.739.109.034.207.072.413.107.62a20.381,20.381,0,0,1-8.5,4.6c-.291.079-.235.494.08.43a21.735,21.735,0,0,0,2.833-.781c-6.368,3.509-13.759,5.156-21.264,3.407a.646.646,0,0,0-.773.3c-3.28,6.171-6.491,12.352-10.092,18.383-1.825,3.056-3.729,6.072-5.659,9.076-.95,1.477-2,2.94-3,4.424Q715.114,91.4,719.418,76.952Zm-9.91,13.374a9.4,9.4,0,0,1,.517-5.431,3.288,3.288,0,0,1,.684-1.246c1.4-1.128,1.987.246,2.292.881a14.408,14.408,0,0,1,.947,2.574q-.637,2.066-1.293,4.127-.754,2.367-1.523,4.729C710.714,94.043,709.829,92.091,709.508,90.327Zm-.147,18.458a82.87,82.87,0,0,0,5.029-7.158c1.943-2.882,3.789-5.818,5.589-8.772a199.189,199.189,0,0,0,10.066-18.209c8.276,1.463,17.85.022,24.273-5.123a.481.481,0,0,0,.017-.782,20.936,20.936,0,0,0,2.618-1.689c1.745,10.2,4.066,20.334,6.139,30.482q2.433,11.912,4.8,23.836a21.825,21.825,0,0,1-3.1-3.182.487.487,0,0,0-.617-.058,37.414,37.414,0,0,1-5.589,2.811,61.658,61.658,0,0,1-10.908,2.664,39.6,39.6,0,0,1-7.942-.014.455.455,0,0,0-.4.158c-.216.337-.428.675-.64,1.013a24.25,24.25,0,0,0-1.4,2.139q-1.295,1.878-2.63,3.728-.683.948-1.376,1.888c-1.141,1.321-2.329,2.617-3.331,4.006l-.344-.138c-4.256-2.6-8.868-4.836-13.26-7.227-.788-.429-1.609-.848-2.439-1.271q-1.715-1.2-3.367-2.484c-.963-.751-1.9-1.53-2.834-2.318a16.056,16.056,0,0,0-2.545-2.108Q707.315,114.9,709.362,108.785Zm1.463,44.482a81.941,81.941,0,0,1-15.321-6.724.565.565,0,0,0,.038-.072q4.817-11.9,9.109-24.035a12.949,12.949,0,0,0,3.089,2.624c.26.169.524.334.789.5q.508.412,1.019.818,3.142,2.484,6.519,4.649a84.575,84.575,0,0,0,13.977,7.208.739.739,0,0,0,1.008-.54.353.353,0,0,0,.054-.054,10.844,10.844,0,0,0,2.066-2.441c.984-1.27,1.934-2.562,2.87-3.867q1.33-1.854,2.62-3.736a13.384,13.384,0,0,0,1.473-2.2A53.435,53.435,0,0,0,764,120.348a15.06,15.06,0,0,0,4.355,3.345q.579,2.907,1.156,5.814.889,4.508,1.767,9.017c.562,2.888.851,6.054,1.958,8.817a.458.458,0,0,0,.36.267C755.065,157.821,731.309,159.684,710.825,153.267Z" transform="translate(-693.22 -46.699)" fill="#1d1d1b"/>
          <path id="Path_12207" data-name="Path 12207" d="M763.273,114.438c-3.483-7.473-4.319-15.494-5.813-23.391-.049-.257-.46-.186-.443.065a79.384,79.384,0,0,0,3.079,17.726,42.252,42.252,0,0,0,3.232,7.84q.254.466.521.925c.388.666.467.572.057,1.391s-.793.944-1.758.816a3.634,3.634,0,0,1-1.336-.466c-1.354-.8-1.64-2.42-2.959-3.138a.287.287,0,0,0-.438.173c-.137,1.226,1.111,2.6,2.08,3.385a4.594,4.594,0,0,0,3.959.924C767.2,119.693,764.171,116.363,763.273,114.438Z" transform="translate(-701.344 -52.326)" fill="#1d1d1b"/>
          <path id="Path_12208" data-name="Path 12208" d="M762.457,58.477a47.852,47.852,0,0,1-4.288,4.423,32.2,32.2,0,0,1-5.28,3.5.251.251,0,1,0,.228.448c3.915-1.69,7.9-4.582,9.829-8.132C763.09,58.449,762.651,58.27,762.457,58.477Z" transform="translate(-700.8 -48.188)" fill="#1d1d1b"/>
          <path id="Path_12209" data-name="Path 12209" d="M754.836,59.13c-.505.3-.929.727-1.415,1.059a12,12,0,0,1-1.718.977.384.384,0,0,0,.316.7,7.767,7.767,0,0,0,3.293-2.146C755.526,59.423,755.188,58.922,754.836,59.13Z" transform="translate(-700.639 -48.276)" fill="#1d1d1b"/>
        </g>
        <g id="Group_3477" data-name="Group 3477" transform="translate(132.181 37.896)">
          <path id="Path_12210" data-name="Path 12210" d="M767.636,93.139c-.461-1.99-4.286-2.854-6.034-1.826-.237.14-.1.516.175.524a9.607,9.607,0,0,1,2.828.243,17.46,17.46,0,0,1,2.381,1.413C767.273,93.635,767.715,93.484,767.636,93.139Z" transform="translate(-744.671 -90.221)" fill="#1d1d1b"/>
          <path id="Path_12211" data-name="Path 12211" d="M748.453,91.047c-1.476-1.768-4.979-.7-6.164.785-.246.309.2.693.538.456a5.206,5.206,0,0,1,2.7-.958,17.517,17.517,0,0,1,2.542.349A.4.4,0,0,0,748.453,91.047Z" transform="translate(-742.219 -90.125)" fill="#1d1d1b"/>
        </g>
        <g id="Group_3478" data-name="Group 3478" transform="translate(119.842 75.137)">
          <path id="Path_12212" data-name="Path 12212" d="M728.079,132.8s13.828,7.575,22.328,5.811,16.8-3.049,16.8-3.049-2.969,8.647-6.517,12.675c-4.722,2.7-7.8,4.91-14.546,2.99s-12.175-6.2-14.591-9.985A30.567,30.567,0,0,1,728.079,132.8Z" transform="translate(-728.079 -132.8)" fill="#fff"/>
          <path id="Path_12213" data-name="Path 12213" d="M766.644,134.964a44.331,44.331,0,0,1-18.664,2.679c-6.307-.328-13.809-1.368-18.908-4.629-.227-.145-.478.091-.283.25a18.361,18.361,0,0,0,4.353,2.577,9.306,9.306,0,0,0-.874,1.24l-.243.351q-.483-.364-.951-.757c-.067-.057-.158.021-.116.079a7.215,7.215,0,0,0,.866.97c-.224.322-.443.644-.646.973a.208.208,0,0,0-.009.027c-.182-.279-.362-.558-.536-.837-.463-.739-1.984-.385-1.553.4,3.767,6.85,10.838,13.782,21.169,14.082a14.744,14.744,0,0,0,11.554-4.424,22.326,22.326,0,0,0,3.491-5.3c1.065-2.169,1.448-4.65,2.8-6.7C768.571,135.234,767.436,134.645,766.644,134.964Zm-.338,1.813a6.6,6.6,0,0,1-.173,1.167,22.965,22.965,0,0,1-6.485,4.3,17.636,17.636,0,0,0,.051-3.807A39.745,39.745,0,0,0,766.306,136.776Zm-6.9,1.7c-.04,1.288.093,2.566-.005,3.86a23.546,23.546,0,0,1-7.142,1.541,15.955,15.955,0,0,0,.007-4.84A48.249,48.249,0,0,0,759.4,138.477Zm-11.479.418c1.3.092,2.592.137,3.878.141-.156,1.6-.031,3.247-.108,4.868-.484.017-.97.02-1.456.006a26.094,26.094,0,0,1-5.562-.8,17.786,17.786,0,0,0,1.377-4.367C746.685,138.8,747.311,138.851,747.925,138.9Zm-2.4-.207c-.537,1.406-.9,2.855-1.435,4.266a44.256,44.256,0,0,1-4.685-1.573q-.943-.37-1.834-.765a13.6,13.6,0,0,0,1.574-2.909A57.327,57.327,0,0,0,745.523,138.688Zm-12.069-2.715a32.378,32.378,0,0,0,5.155,1.614c-.565.911-1.075,1.839-1.7,2.725a27.53,27.53,0,0,1-4.417-2.539A4.764,4.764,0,0,0,733.454,135.974Zm-2.172,2.921a.2.2,0,0,0,.214-.03c.242-.235.493-.5.734-.777a18.122,18.122,0,0,0,4.437,2.562c-.661.873-1.465,1.665-2.19,2.5A39.887,39.887,0,0,1,731.282,138.894Zm3.555,4.659a13.788,13.788,0,0,0,2.5-2.618c.634.264,1.266.511,1.875.749a45.1,45.1,0,0,0,4.751,1.582c-.047.117-.092.234-.141.35-.745,1.751-1.821,3.4-2.579,5.137A24.554,24.554,0,0,1,734.837,143.554Zm15.128,7.637a19.948,19.948,0,0,1-8.41-2.272,20,20,0,0,0,2.811-5.088c.059-.137.118-.276.177-.415a26.324,26.324,0,0,0,5.735.81c.46.01.928.005,1.4-.011-.015.229-.033.457-.059.685-.239,2.13-.8,4.2-1.195,6.3C750.273,151.2,750.121,151.2,749.966,151.19Zm14.534-9.352a25.226,25.226,0,0,1-3.437,5.086,13.285,13.285,0,0,1-10.363,4.285,23.162,23.162,0,0,0,1.429-6.226c.03-.26.061-.525.093-.794a26.654,26.654,0,0,0,7.132-1.4c0,.021,0,.043-.006.065-.206,1.6-.539,3.188-.854,4.777-.012.065.107.081.128.021a17.853,17.853,0,0,0,.994-4.955,15.15,15.15,0,0,0,6.294-3.966A21.431,21.431,0,0,1,764.5,141.838Z" transform="translate(-728.16 -132.822)" fill="#1d1d1b"/>
        </g>
        <g id="Group_3479" data-name="Group 3479" transform="translate(134.197 46.1)">
          <path id="Path_12214" data-name="Path 12214" d="M747.536,100.268a.513.513,0,0,0-.78-.393,1.566,1.566,0,0,0-2.184,1.5.567.567,0,0,0-.01.408,1.339,1.339,0,0,0,1.9.6A2.2,2.2,0,0,0,747.536,100.268Z" transform="translate(-744.529 -99.552)" fill="#1d1d1b"/>
          <path id="Path_12215" data-name="Path 12215" d="M764.647,99.557a.741.741,0,0,0-.773.213.344.344,0,0,0-.341.1,2.023,2.023,0,0,0,1.147,3.157.758.758,0,0,0,.8-.207A2.046,2.046,0,0,0,764.647,99.557Z" transform="translate(-746.896 -99.526)" fill="#1d1d1b"/>
        </g>
      </g>
      <g id="Group_3481" data-name="Group 3481" transform="translate(691.472 182.962)">
        <path id="Path_12216" data-name="Path 12216" d="M795.133,202.845c26.147,46.718,20.911,96.71,10.585,101.8s-65-1.306-65-1.306c-1.459-1.238-3.959-10.847.42-15.274,9.017,2.031,31.144-1.064,44.525-7.027C794.906,260.37,803.369,220.056,795.133,202.845Z" transform="translate(-710.309 -202.845)" fill="#d0fcf8"/>
        <path id="Path_12217" data-name="Path 12217" d="M736.581,313.763c.086-.015-16.628,9.8-28.043,2.986-5.6-2.909.493-5.917.493-5.917-3.352-.192-3.9-5.41-.406-6.137-3.927-1.21-1.655-5.044.887-5.917,3.676-1.233,6.82-2.279,9.968-2.1.9-7.543,5.013-14.443,8.219-11.107,3.7,3.845-4.58,13.5,3.077,12.332l9.293.9C734.442,298.844,734.452,305.129,736.581,313.763Z" transform="translate(-706.17 -213.269)" fill="#f8cea0"/>
        <path id="Path_12218" data-name="Path 12218" d="M805.459,231.48c-.164,5.468-2.857,21.128-4.186,26.414-2.78,11.061-4.842,13.151-8.233,24.712-.257.874-.743,1.83.413,1.781,14.468-1.005,12.054-5.062,12.771-17.245C805.859,253.236,805.573,229.852,805.459,231.48Z" transform="translate(-717.19 -206.481)" fill="#aed3cf"/>
      </g>
      <g id="Group_3482" data-name="Group 3482" transform="translate(691.472 182.962)">
        <path id="Path_12219" data-name="Path 12219" d="M795.133,202.845c26.147,46.718,20.911,96.71,10.585,101.8s-65-1.306-65-1.306c-1.459-1.238-3.959-10.847.42-15.274,9.017,2.031,47.269-5.818,60.65-11.781" transform="translate(-710.309 -202.845)" fill="none" stroke="#1d1d1b" stroke-miterlimit="10" stroke-width="2.5"/>
        <path id="Path_12220" data-name="Path 12220" d="M740.069,298.8l-9.293-.9c-7.657,1.169.62-8.487-3.077-12.332-3.205-3.335-7.323,3.564-8.219,11.107-3.148-.176-6.292.869-9.968,2.1-2.541.873-4.814,4.706-.887,5.917-3.491.727-2.946,5.945.406,6.137,0,0-6.1,3.008-.493,5.917,11.415,6.813,28.129-3,28.043-2.986l14.841,1.5" transform="translate(-706.17 -213.269)" fill="none" stroke="#1d1d1b" stroke-linecap="round" stroke-linejoin="round" stroke-width="3"/>
      </g>
    </g>
  </g>
</svg>
