<svg xmlns="http://www.w3.org/2000/svg" xmlns:xlink="http://www.w3.org/1999/xlink" width="147" height="211" viewBox="0 0 147 211">
  <defs>
    <clipPath id="clip-Pod_kontaktom">
      <rect width="147" height="211"/>
    </clipPath>
  </defs>
  <g id="Pod_kontaktom" data-name="Pod kontaktom" clip-path="url(#clip-Pod_kontaktom)">
    <g id="Group_3468" data-name="Group 3468" transform="translate(37.409 4.968)">
      <path id="Path_12077" data-name="Path 12077" d="M146.675,197.71c-1.4-3.811-4.259-14.733-6.348-23.625s-1.334-19.822-2.921-28.2c-3.747-18.568-29.521-1.131-31.165,13.81-.466,11.7,8.427,21.757,9.415,28.786a149.477,149.477,0,0,1,1.652,17.092c0,3.473,3.555,13.993,17.629,10.8S148.07,201.521,146.675,197.71Z" transform="translate(-78.491 -88.05)" fill="#f8cea0"/>
      <path id="Path_12078" data-name="Path 12078" d="M121.325,183.37c4.991-1.036,9.2-4.26,12.484-8.039a39.557,39.557,0,0,0,7.886-14.037,45.221,45.221,0,0,0,1.646-9.066,1.149,1.149,0,0,1,2.267.068c0,.1,0,.2.006.307a1.138,1.138,0,0,1,.28.68,29.51,29.51,0,0,1-5.248,17.8c-1.79,2.669-3.765,5.245-5.747,7.774-1.922,2.454-10.857,9.441-12.024,9.679-.708.144-2.239-2.691-2.468-3.095A1.332,1.332,0,0,1,121.325,183.37Z" transform="translate(-86.276 -92.563)" fill="#e5af7a"/>
      <path id="Path_12079" data-name="Path 12079" d="M110.849,151.07c.011-.262.451-.247.463.014.257,5.65.485,11.281,1.158,16.9a155.8,155.8,0,0,0,2.887,16.571c.719,3.109,1.671,6.169,2.335,9.288.078.367-.5.49-.63.154a62.253,62.253,0,0,1-2.289-8.07q-.991-4.156-1.746-8.363a145.437,145.437,0,0,1-2.007-16.962C110.831,157.434,110.721,154.246,110.849,151.07Z" transform="translate(-51.807 -92.423)" fill="#1d1d1b"/>
      <path id="Path_12080" data-name="Path 12080" d="M151.56,193.941a23.3,23.3,0,0,1,3.508,5.049,36.452,36.452,0,0,1,2.644,6,37.611,37.611,0,0,1,1.511,6.141c.167,1.061.288,2.13.357,3.2a11.169,11.169,0,0,1,0,3.216.391.391,0,0,1-.77-.023,8.98,8.98,0,0,1-.052-1.606q-.016-.806-.069-1.61c-.066-1-.169-1.988-.315-2.975a35.632,35.632,0,0,0-1.44-6.041,37.067,37.067,0,0,0-2.394-5.6c-.994-1.882-2.245-3.574-3.379-5.368C151.008,194.073,151.327,193.7,151.56,193.941Z" transform="translate(-120.614 -106.842)" fill="#1d1d1b"/>
      <path id="Path_12081" data-name="Path 12081" d="M171.292,97.592c.89.891,3.691,9,2.234,21.609.534-2.227,1.505-2.78,2.856-.455,1.352,7.478-5.252,12.256-5.868,14.173a84.347,84.347,0,0,1-3.506,9.047c-11.378,25.062-24.515,23.143-24.515,23.143s-20.481-2.083-30.711-17.354c1.079-6.224,4.32-7.222,4.32-7.222s10.867-.13,24.107-13.369c11.1-10.718,13.985-21.489,15.8-34.7C162.533,97.323,168.107,98.781,171.292,97.592Z" transform="translate(-111.328 -72.826)" fill="#f8cea0"/>
      <path id="Path_12082" data-name="Path 12082" d="M176.205,101.02s-1.533-.57-2-.1c3.2,11.227,1.949,26.625-4.647,42.258-6.117,15.155-18.8,24.569-30.506,20.251s-22.9-13.835-22.9-13.835,11.806,18.028,32.624,17.972c18.172-3.864,24.606-25.408,26.707-35.312C181.072,113.115,176.205,101.02,176.205,101.02Z" transform="translate(-115.836 -75.602)" fill="#e5af7a"/>
      <path id="Path_12083" data-name="Path 12083" d="M111.719,145.379l4.347-6.128a11.224,11.224,0,0,0,1.946-7.188c-.381-4.117-3.336-.409-3.336-.409Z" transform="translate(-52.776 -85.459)" fill="#e5af7a"/>
      <path id="Path_12084" data-name="Path 12084" d="M152.377,106.218c3.654-6.424,2.283-29.638-6.958-35.577-1.36,0,1.29,7.858.694,9.9-.635,0-9.835-15.611-15.555-17.447-5.144-.117,1.007,5.083,1.313,10.256-1.7-.512-9.5-9.259-15.047-9.259s-3.238,4.6-3.238,4.6S130.6,80.145,132.772,92.4c.918-2.713.229-5.953,1.9-10.531a22.56,22.56,0,0,0,15.593,6.518S153.1,93.214,152.377,106.218Z" transform="translate(-89.896 -62.973)" fill="#fef598"/>
      <path id="Path_12085" data-name="Path 12085" d="M111.61,136.909a9.231,9.231,0,0,1,2.139-4.868c1.649-1.676,4.29-1.887,6.423-2.6a45.518,45.518,0,0,0,12.685-6.9,73.741,73.741,0,0,0,10.626-9.9,51.525,51.525,0,0,0,4.935-6.275A34.871,34.871,0,0,0,151.87,99.3a52.555,52.555,0,0,0,1.91-6.743c-1.254-8.039-7.163-14.232-13.32-19.087a43.7,43.7,0,0,1-4.416-3.684c-1-1.033-2.617-2.695-1.875-4.264.729-1.542,2.567-1.678,4.055-1.5a16.293,16.293,0,0,1,5.057,1.532,38.408,38.408,0,0,1,9.253,6.923c-.277-2.123-1.467-4-2.3-5.955-.324-.765-1.067-2.16-.587-2.975.457-.776,1.562-.7,2.308-.522,2.369.559,4.207,2.6,5.847,4.271a58.117,58.117,0,0,1,5.052,5.857,76.616,76.616,0,0,1,4.363,6.672,17.15,17.15,0,0,0-.392-4.159l-.783-5.075a.355.355,0,0,1,.407-.383c2.233.252,3.387,2.707,4.334,4.453a42.509,42.509,0,0,1,3.048,7.111,44.006,44.006,0,0,1,2.111,15.1,34.543,34.543,0,0,1-1.285,8.676c-.066.221-.411.181-.366-.06a49.406,49.406,0,0,0,.814-14.637,43.677,43.677,0,0,0-3.968-13.98,37.041,37.041,0,0,0-1.978-3.65,4.711,4.711,0,0,0-2.343-2.219q.389,2.49.776,4.98c.253,1.626.639,3.317.11,4.926-.1.3-.5.212-.613-.016a51.452,51.452,0,0,0-8.036-11.316A33.225,33.225,0,0,0,154,64.751a4.764,4.764,0,0,0-3.23-1.138c-.845.156-.486,1.071-.29,1.645.165.484.363.957.573,1.423.957,2.128,2.214,4.2,2.216,6.608,0,.264-.317.524-.554.3a45.384,45.384,0,0,0-8.267-6.646A17.7,17.7,0,0,0,139.726,65c-1.453-.344-4.225-.936-4.954.9-.39.982.581,2.038,1.172,2.735A16.85,16.85,0,0,0,138,70.626c1.382,1.16,2.85,2.217,4.244,3.363a44.132,44.132,0,0,1,7.707,7.859,25.06,25.06,0,0,1,4.222,8.811c.532-2.775.848-5.59,1.443-8.351a.179.179,0,0,1,.168-.154,2.694,2.694,0,0,1-.1-.266.285.285,0,0,1,.494-.272,9.008,9.008,0,0,0,2.972,2.364c1.281.7,2.6,1.338,3.94,1.915,2.58,1.107,5.385,2.309,8.233,2.059-.057-.258-.11-.516-.156-.776-.069-.395.469-.451.63-.154a17.742,17.742,0,0,1,1.421,4.393,40.165,40.165,0,0,1,.788,4.554,50.321,50.321,0,0,1,.182,9.17c-.059.878-.141,1.752-.239,2.625a1.417,1.417,0,0,1,1.015-.7c1.879-.128,1.939,3.236,1.871,4.385a13.854,13.854,0,0,1-2.253,6.326c-.591.962-1.244,1.883-1.907,2.8a18.1,18.1,0,0,1-2.123,2.767.255.255,0,0,1-.091.053c-.045.144-.089.288-.134.431a88.013,88.013,0,0,1-3.343,9.351,58.983,58.983,0,0,1-3.157,6.175,43.109,43.109,0,0,1-3.83,5.619,31.66,31.66,0,0,1-9.905,8.246,41.455,41.455,0,0,1-5.537,2.355,30.978,30.978,0,0,1-6.947-.837,43.256,43.256,0,0,1-20.653-10.72,40.789,40.789,0,0,1-2.989-3.1A22.044,22.044,0,0,1,111.721,138a.292.292,0,0,1-.242-.352l.01-.056c-.056-.1-.11-.208-.161-.313C111.218,137.05,111.414,136.9,111.61,136.909Zm59.929-16c.526-.726,1.07-1.438,1.586-2.172a18.619,18.619,0,0,0,2.616-4.915c.519-1.607.948-3.929.1-5.5-.308-.566-.823-.8-1.293-.255a5.2,5.2,0,0,0-.7,1.191c-.042.088-.081.178-.12.268A84.6,84.6,0,0,1,171,121.615C171.186,121.375,171.371,121.139,171.54,120.907Zm-57.322,19.038c.863,1.016,1.764,2,2.719,2.927a42.576,42.576,0,0,0,19.975,10.939,41.02,41.02,0,0,0,4.137.742c.923.117,1.851.165,2.778.227,1.5.152,7.238-2.715,10.356-5.186a36.642,36.642,0,0,0,8.52-9.984,59.552,59.552,0,0,0,3.494-6.938c.759-2.594,1.731-5.138,2.562-7.7.99-3.062,1.9-6.151,2.623-9.287A60.718,60.718,0,0,0,173.052,97.2a45.1,45.1,0,0,0-.668-4.95c-.247-1.284-.639-2.537-.945-3.805a6.155,6.155,0,0,1-4-.107,38.8,38.8,0,0,1-4.593-1.591,40.193,40.193,0,0,1-4.376-2.117,6.469,6.469,0,0,1-2.487-2.083,58.32,58.32,0,0,1-.949,7.417q-.227,1.276-.5,2.543c.022.149.046.3.065.446a.336.336,0,0,1-.249.382c-.307,1.353-.657,2.7-1.063,4.025a38.693,38.693,0,0,1-7.293,13.493c-6.078,7.35-13.407,14.124-22.242,17.964-1.224.532-2.475,1.007-3.745,1.417-1.3.419-2.663.672-3.938,1.16-2.606,1-3.313,3.538-3.881,6.007C112.9,138.219,113.518,139.122,114.217,139.944Z" transform="translate(-111.296 -62.915)" fill="#1d1d1b"/>
      <path id="Path_12086" data-name="Path 12086" d="M142.484,137.685a23.692,23.692,0,0,0,2.129-2.471,24.859,24.859,0,0,0,4.9-12.979c.029-.381.6-.276.582.1a24.094,24.094,0,0,1-6.325,15.141q-.48.519-.992,1.009c-.129.124-.258.247-.389.367-.321.3-.629.439-.191.926a3.938,3.938,0,0,0,2.667.967c2.354.07,3.893-1.459,5.473-2.961.186-.177.5.094.383.31a6.9,6.9,0,0,1-4.609,3.3,5.641,5.641,0,0,1-2.8-.187,3.622,3.622,0,0,1-2.1-1.481C140.82,138.863,141.975,138.2,142.484,137.685Z" transform="translate(-105.012 -82.733)" fill="#1d1d1b"/>
      <path id="Path_12087" data-name="Path 12087" d="M141.861,158.924s11.449,6.749,6.858,20.027-20.006,6.587-20.006,6.587-5.255-3.452-5.827-4.926S141.861,158.924,141.861,158.924Z" transform="translate(-91.94 -95.121)" fill="#f8cea0"/>
      <path id="Path_12088" data-name="Path 12088" d="M123.581,180.859a14.874,14.874,0,0,0,3.093,3.066,19.72,19.72,0,0,0,12.195,2.973c4.3-.712,7.774-4.892,8.885-7.471.784-1.819,1.631-3.1,1.586-7.962a14.148,14.148,0,0,0-2.057-6.014,15.8,15.8,0,0,0-4.264-5.2c-.381-.513-1.382-.847-1.35-1.355s3.788,2.389,5.261,4.57a20.131,20.131,0,0,1,2.905,6.2c.567,2.267.247,6.989-.77,9.046a20.224,20.224,0,0,1-3.17,5.122c-1.5,1.689-3.421,2.549-5.708,3.48-4.106,1.671-8.811.37-12.568-1.8-2.185-1.263-5.545-4.529-5.5-5.263S123.078,180.7,123.581,180.859Z" transform="translate(-91.748 -95.091)" fill="#1d1d1b"/>
      <path id="Path_12089" data-name="Path 12089" d="M130.349,200.543A44.509,44.509,0,0,1,112.387,212.7c-1.08,1.614-1.491,6.45-1.491,6.45l-2.111-7.186s-8.421,4.088-15.194-2.685c-5.2-.992-11.331,3.446-15.215,9.69a25.37,25.37,0,0,0-3.723,11.679s-2.389,8,8.3,36.378C91.18,285.532,86.7,295.96,86.7,295.96s-.373,4.863,18.3,8.827c18.671,2.808,32.5-7.866,32.5-7.866s11.491-32.673,13.522-51.9,2.1-26.075-2.137-34.833C145.824,206.25,130.349,200.543,130.349,200.543Z" transform="translate(-62.299 -109.082)" fill="#76bdce"/>
      <path id="Path_12090" data-name="Path 12090" d="M126.943,205.881s.5,67.386-18.541,80.27-33.172,2.838-33.172,2.838a25.329,25.329,0,0,1-.522,8.762c-1.133,4.85,20.548,9.3,24.242,9.3s22.914-2.779,26.328-9.508,14.934-36.11,14.934-69.948c0-6.959-2.46-14.319-4.427-16.709C132.418,206.789,126.943,205.881,126.943,205.881Z" transform="translate(-50.31 -110.872)" fill="#56a5b2"/>
      <path id="Path_12091" data-name="Path 12091" d="M74.015,225.906a20.225,20.225,0,0,1,3.446-7.24c3.055-4.108,7.146-8.11,12.134-9.693a3.726,3.726,0,0,1,3.4.278,26.041,26.041,0,0,0,3.583,2.045,17.259,17.259,0,0,0,7.8,1.329,16.836,16.836,0,0,0,3.811-.688.358.358,0,0,1,.476.29q.634,2.656,1.275,5.309c.4-1.73.823-3.456,1.231-5.186a.337.337,0,0,1,.211-.26,36.469,36.469,0,0,0,17.807-11.23c-.232-.09-.1-.423.125-.4.1.009.19.023.285.037a.3.3,0,0,1,.154.019,23.075,23.075,0,0,1,3.155.845q1.718.524,3.391,1.176a46.835,46.835,0,0,1,6.727,3.233c1.96,1.146,4.116,2.35,5.256,4.395a24.319,24.319,0,0,1,1.351,3.177c.463,1.211.916,2.426,1.306,3.662a23.277,23.277,0,0,1,1.34,7.061.444.444,0,0,1,.225.437,222.3,222.3,0,0,1-3.058,29.514,207.278,207.278,0,0,1-7.206,28.631c-.875,2.663-1.819,5.3-2.81,7.925-.611,1.616-1.213,3.251-1.885,4.852a.553.553,0,0,1,.068.892q-.355.295-.718.579c-.223.484-.452.966-.7,1.439a.223.223,0,0,1-.406-.183c.062-.187.127-.373.192-.559a42.33,42.33,0,0,1-28.77,7.717,51.186,51.186,0,0,1-16.742-4.442c-2.133-.974-4.189-2.386-4.374-4.934a24.455,24.455,0,0,1,.376-4.171,34.278,34.278,0,0,0,.146-4.591c-.408-12.307-6.389-23.391-9.963-34.932a72.325,72.325,0,0,1-3.3-17.761A29.938,29.938,0,0,1,74.015,225.906Zm.877,13.3a74.762,74.762,0,0,0,1.717,8.86c2.911,11.271,8.641,21.676,10.55,33.228a42.413,42.413,0,0,1,.574,8.6c-.056,1.4-.235,2.771-.413,4.155A4.906,4.906,0,0,0,88,297.932a7.7,7.7,0,0,0,2.908,1.97c1.278.584,2.586,1.105,3.908,1.58a50.736,50.736,0,0,0,8.225,2.2c10.567,1.886,21.811.122,30.821-5.885.969-.646,1.9-1.341,2.806-2.075.574-1.5,1.185-2.987,1.748-4.49q1.3-3.463,2.467-6.971c1.564-4.684,2.984-9.413,4.222-14.193a208.205,208.205,0,0,0,5.347-28.929c.573-5.1,1-10.233,1.15-15.364a.307.307,0,0,1-.163-.272c-.043-1.24-.006-2.458-.168-3.694a26.13,26.13,0,0,0-.77-3.666,50.586,50.586,0,0,0-2.444-6.808c-1.019-2.293-3.026-3.567-5.1-4.819a50.4,50.4,0,0,0-6.22-3.166c-1.2-.512-2.43-.961-3.672-1.364-1.067-.346-2.184-.576-3.255-.914a36.87,36.87,0,0,1-18.019,11.6c-.5,2.15-.978,4.3-1.491,6.449a.357.357,0,0,1-.7-.021c-.5-2.137-1.017-4.27-1.532-6.4a18,18,0,0,1-13.677-1.646c-1.222-.7-2.319-1.861-3.832-1.532a14.17,14.17,0,0,0-3.581,1.423,24.082,24.082,0,0,0-6.2,4.982,26.128,26.128,0,0,0-4.554,6.626,21.182,21.182,0,0,0-1.864,8.066A49.27,49.27,0,0,0,74.892,239.207Z" transform="translate(-61.703 -109.053)" fill="#1d1d1b"/>
      <path id="Path_12092" data-name="Path 12092" d="M172.6,264.072c1.511-8.887,2.1-15.341,3.745-20.55a15.161,15.161,0,0,1,5.277-7.791c-1.456,3.559-1.378,8.9-.728,14.145a18.413,18.413,0,0,0,.664,4.362,113.937,113.937,0,0,0,2.923,12.274l-.663,11.416s1.3,4.458,10.059,11.971c-1.428,3.559-4.235,8.457-3.468,13.372a71.771,71.771,0,0,1-17.149-21.449A49.671,49.671,0,0,1,172.6,264.072Z" transform="translate(-168.697 -120.886)" fill="#76bdce"/>
      <path id="Path_12093" data-name="Path 12093" d="M175.124,283.1a9.42,9.42,0,0,0,.353-2.809c.252-1.386.249-2.813.366-4.216.241-2.92.378-5.881.829-8.778.154-2.092.35-4.178.624-6.249a.99.99,0,0,1,.372-.636c.379,2.355,2.792,12.853,3.376,14.377-.01,1.861-.47,7.221-.526,8.159a16.551,16.551,0,0,1-.27,2.931c-.005.021-.012.041-.018.06a12.263,12.263,0,0,1,1.422,2.287c.3.456.6.909.909,1.358.526.763,1.07,1.513,1.616,2.26.51.7,1.075,1.367,1.536,2.1,1.543,1.178,3.12,3.147,4.833,4.1a11.923,11.923,0,0,1-1.8,2.9,21.019,21.019,0,0,1-2.525-1.993q-.989-.93-1.93-1.909c-1.242-1.285-2.434-2.616-3.562-4s-2.171-2.8-3.161-4.266c-.732-1.087-1.505-2.21-2.148-3.379-.657-.024-3.513.421-3.513.421S174.687,283.541,175.124,283.1Z" transform="translate(-165.263 -129.166)" fill="#56a5b2"/>
      <path id="Path_12094" data-name="Path 12094" d="M171.237,266.561c.421-5.334.634-10.743,1.527-16.024.86-5.084,2.637-10.49,6.382-14.206a.459.459,0,0,1,.093-.07,2.947,2.947,0,0,1,.72-.839,3.918,3.918,0,0,1,.886-.686.211.211,0,0,1,.267.281,3.865,3.865,0,0,1-.723.855,5.649,5.649,0,0,1-.568.515.347.347,0,0,1-.034.464,25.973,25.973,0,0,0-5.933,12.288,122.565,122.565,0,0,0-1.717,15.265c-.42,5.07-1.271,10.321.118,15.311a35.184,35.184,0,0,0,6.568,11.991,110.1,110.1,0,0,0,10.429,11.226,6.407,6.407,0,0,1-.441-2.973,24.829,24.829,0,0,1,1.055-4.82,17.65,17.65,0,0,1,1.683-3.968,11.74,11.74,0,0,1,1.172-1.611,9.047,9.047,0,0,1-3.141-2.3,42.637,42.637,0,0,1-3.112-3.324,40.045,40.045,0,0,1-5.122-7.719c-.191-.379.415-.6.609-.239q.276.52.563,1.033c-.067-1.667.019-3.364.033-5.019.008-.944.025-1.89.114-2.831a8.013,8.013,0,0,1,.557-2.887c.112-.206.472-.193.486.078a21.186,21.186,0,0,1-.388,2.917c-.1,1.007-.1,2.019-.108,3.03-.011,1.892.073,3.84-.11,5.728a43.538,43.538,0,0,0,3.632,5.274,41.172,41.172,0,0,0,2.946,3.275,12.757,12.757,0,0,0,3.358,2.624c.114-.125.524.351.526.36-.052.055-.105.109-.156.165a12.5,12.5,0,0,0-2.116,3.393,23.262,23.262,0,0,0-1.242,3.867,12.222,12.222,0,0,0-.557,4.514,5.889,5.889,0,0,0,.642,1.894q-.222.377-.428.762a81.826,81.826,0,0,1-10.4-10.792,40.3,40.3,0,0,1-7.2-11.881,22.549,22.549,0,0,1-1.3-6.933A76.807,76.807,0,0,1,171.237,266.561Z" transform="translate(-167.545 -120.545)" fill="#1d1d1b"/>
      <path id="Path_12095" data-name="Path 12095" d="M66.535,285.339S77.92,280.368,81.347,274.2s6.717-9.6,6.991-19.466a112.481,112.481,0,0,0-1.576-20.093l.48-12.533s1.995-4.088,3.6-3.589,5.165.094,9.936,18.8c3.193,20.289-1.09,32.526-9.145,41.811-7.333,9.218-21.642,16.424-21.872,15.636,0,0,1.274-4.58-.786-5.766A4.36,4.36,0,0,0,66.535,285.339Z" transform="translate(-6.53 -115.097)" fill="#76bdce"/>
      <path id="Path_12096" data-name="Path 12096" d="M66.3,291.265c1.6-1.132,12.348-6.954,15.308-9.635a45.583,45.583,0,0,0,9.58-11.926,35.9,35.9,0,0,0,4.26-15.465c.286-5.776-.6-11.588-1.576-17.262a66.692,66.692,0,0,0-1.853-8.349,23.786,23.786,0,0,0-3.613-7.741c-.677-.877-1.519-1.766-1.378-2.093.311-.72,2.6-.112,3.3.678a20.663,20.663,0,0,1,3.775,7.107c.585,1.7,2.145,5.419,2.272,5.835a56.653,56.653,0,0,1,1.562,6.667,46.5,46.5,0,0,1,.823,6.769c.018.639-.346,4.546-.358,6.269a39.378,39.378,0,0,1-3.526,16.718,46.185,46.185,0,0,1-9.292,13.154c-.206.2-3.109,2.876-4.2,3.886a37.786,37.786,0,0,1-3.749,3.03A79.509,79.509,0,0,1,69.3,294c-.337.183-2.91,1.247-2.91,1.247C66.711,293.3,66.685,291.719,66.3,291.265Z" transform="translate(-3.297 -115.096)" fill="#56a5b2"/>
      <path id="Path_12097" data-name="Path 12097" d="M65.967,285.394a1.383,1.383,0,0,1,.5-.306c8.675-5.361,17.669-12.181,20.348-22.53,1.556-6.011,1.044-12.295.595-18.413q-.359-4.878-.716-9.757a72.567,72.567,0,0,1-.329-9.68c.13-2.149.358-5.067,2.3-6.441,2.119-1.5,4.688.426,6.094,2.034a22.771,22.771,0,0,1,3.713,7.037,57.414,57.414,0,0,1,2.478,8.518,63.921,63.921,0,0,1,1.134,17.817c-.436,5.974-1.483,12.1-4.484,17.366a49.921,49.921,0,0,1-5.217,7.249,74.746,74.746,0,0,1-5.96,6.441c-4.313,4.065-9.487,6.967-14.778,9.558q-1.141.559-2.293,1.089a5.94,5.94,0,0,1-.534.908.487.487,0,0,1-.867-.274c-.094.042.08-.621.353-.765a7.062,7.062,0,0,0,.567-4.614,21.809,21.809,0,0,0-.6-2.632,8.948,8.948,0,0,0-.366-1.144c-.122-.282-.525-.9-.941-.867l-.385.234A.513.513,0,0,1,65.967,285.394Zm2.495.406a9.515,9.515,0,0,1,1.178,3.543,10.237,10.237,0,0,1,.045,5.176,87.84,87.84,0,0,0,12.738-7.585,61.056,61.056,0,0,0,11.969-12.7,31.793,31.793,0,0,0,4.229-7.631,41.017,41.017,0,0,0,2.045-8.79,65,65,0,0,0,.036-17.477,52.423,52.423,0,0,0-4.836-16.441,13.693,13.693,0,0,0-2.084-3.129c-.843-.916-2.192-2.061-3.516-2-2.487.122-2.728,4.1-2.848,5.851a67.054,67.054,0,0,0,.319,9.524q.351,4.743.7,9.485c.432,5.857.948,11.843-.231,17.649-2.08,10.245-10,17.5-18.435,22.956q-.883.57-1.778,1.122A2.039,2.039,0,0,1,68.462,285.8Z" transform="translate(-6.459 -114.846)" fill="#1d1d1b"/>
      <path id="Path_12098" data-name="Path 12098" d="M115.653,324.525a1.363,1.363,0,0,0,.759.074l.075-.013.017,0c1,.147,1.988.421,2.981.589a47.892,47.892,0,0,0,5.408,1.067,13.736,13.736,0,0,0,2.093-.263s.85-.762.69-1.392c-.274-1.084-1.278-1.615-2.2-2.12a13.441,13.441,0,0,0-3.812-1.16,24.37,24.37,0,0,1-3.965-1.075,4.757,4.757,0,0,1-1.491-.831c-.346-.305-.621-.681-.95-1,.016-.109.037-.217.061-.324.72-.207,1.2-.959,1.891-1.344.8-.447,1.5-.131,2.376-.174.056.025.308-.144.365-.118,1.172.52,2.307,1.038,3.426,1.661a8.848,8.848,0,0,0,1.762.714,4.644,4.644,0,0,0,2.077.383,1.293,1.293,0,0,0,.63-2.271c-.035-.031-.07-.061-.108-.089a4.819,4.819,0,0,0-1.633-1.477c-.895-.572-1.828-1.078-2.772-1.561-1.394-.712-2.779-1.536-4.217-2.2l.027-.012-.891-1.433a3.112,3.112,0,0,1,1.988-1.37c1.508-.411,4.969,1.953,5.483,2.468s3.674.94,3.674.94.57-1.488,0-1.488-5.672-7.071-6.484-7.883a2.534,2.534,0,0,1,.259-3.427c.99-.99,2.5.823,2.5.823s4.922,6.374,5.47,7.814,4.682,4.159,6.407,5.884.83,2.609.83,2.609a19.4,19.4,0,0,0,4.4-2.609c1.709.981,1.452,6.934,1.452,6.934a55.622,55.622,0,0,1-7.814,4.867c-2.4,3.5-3.967,3.164-5.776,3.856-1.251,1.251-4.252.516-5.376.914.013.035.028.068.043.1-.641,0-1.283.086-1.925.1a7.137,7.137,0,0,1-2.022-.25,18.638,18.638,0,0,1-3.515-1.421c-1.323-.678-2.77-2.038-2.756-3.646C115.1,324.815,115.255,324.575,115.653,324.525Z" transform="translate(-81.218 -142.139)" fill="#f8cea0"/>
      <path id="Path_12099" data-name="Path 12099" d="M114.9,336.518c.958.3,1.869.752,2.818,1.081a22.182,22.182,0,0,0,3,.818,15.694,15.694,0,0,0,5.926.094,16.012,16.012,0,0,0,5.5-2.447c.767-.48,1.524-.977,2.246-1.521.782-.59,1.419-1.309,2.156-1.941a8.769,8.769,0,0,0,.053-1.68.675.675,0,0,1,.591-.73,7.456,7.456,0,0,0,4.84-2.434c.491-.546,1.469-.017,1.129.7a6.062,6.062,0,0,1-.364.653.681.681,0,0,1-.034,1.011q-1.331,1.215-2.761,2.313a17.823,17.823,0,0,1-2.4,1.645.7.7,0,0,1-.536.258.441.441,0,0,1-.605-.233,19.508,19.508,0,0,1-3.884,2.946A16.8,16.8,0,0,1,127,339.592a16.152,16.152,0,0,1-6.228.028,23.5,23.5,0,0,1-3.062-.784c-1.094-.353-1.277-.14-2.269-.728C114.828,337.743,114.225,336.306,114.9,336.518Z" transform="translate(-79.865 -151.68)" fill="#e5af7a"/>
      <path id="Path_12100" data-name="Path 12100" d="M116.157,324.2a3.913,3.913,0,0,1,2.3.072l3.674.76c1.175.243,2.348.5,3.526.729a3.744,3.744,0,0,0,1.806.048,1.128,1.128,0,0,0,.855-1.541,4.745,4.745,0,0,0-2.291-1.807,13.486,13.486,0,0,0-2.54-.82,33.787,33.787,0,0,1-5.12-1.338c-1.244-.51-3.371-1.917-1.885-3.389,1.13-1.12,3.074-.958,4.455-.527,1.812.564,3.422,1.635,5.244,2.173.832.245,2.507.67,2.66-.611.147-1.225-1.233-1.911-2.115-2.405q-2.915-1.636-5.838-3.256l-.023.01c-1.417-.636-1.491-.863-1.838-1.342a1.721,1.721,0,0,1-.306-.621,1.416,1.416,0,0,1,.971-1.611c2.921-1.279,5.776,1.665,8.363,2.533a4.234,4.234,0,0,0,2.009.215c-.039-1.24-1.307-2.129-2.2-2.837a17.254,17.254,0,0,1-2.838-2.823c-1.185-1.507-2.864-3.926-1.9-5.948a1.87,1.87,0,0,1,2.242-.978,4.4,4.4,0,0,1,2.2,2.16,45.063,45.063,0,0,0,4.934,6.8,46.078,46.078,0,0,0,5.518,5.205,5.281,5.281,0,0,1,1.519,1.748,8.326,8.326,0,0,1,.322.784,7.223,7.223,0,0,0,3.256-2.126.285.285,0,0,1,.442.358,6.2,6.2,0,0,1-2.567,2.282c-.068.033-1.126.363-1.126.363a1.554,1.554,0,0,1-.709-.036c-.067-.221-.152-.637-.1-.645l-.007-.019a7.51,7.51,0,0,0-1.072-1.919,40.363,40.363,0,0,1-9.52-9.788c-.708-1.021-1.3-2.122-2.008-3.137-.5-.718-1.871-2-2.531-.691a3.274,3.274,0,0,0,.244,2.636,13.4,13.4,0,0,0,2.238,3.232c.962,1.071,2.143,1.86,3.173,2.85a3.5,3.5,0,0,1,1.327,2.953.445.445,0,0,1-.381.36c-2.9.7-5.292-1.744-7.833-2.647a4.136,4.136,0,0,0-2.006-.252c-.423.064-1.208.233-1.176.789.03.522.758.926,1.144,1.152,1.95,1.14,3.94,2.217,5.913,3.317,1.3.728,3.162,1.581,3.018,3.369s-2.071,1.719-3.378,1.367a41.964,41.964,0,0,1-4.654-1.928,6.813,6.813,0,0,0-2.58-.6c-.785.008-2.664.4-2.125,1.55.376.8,1.585,1.2,2.366,1.473a20.944,20.944,0,0,0,2.469.659,22.458,22.458,0,0,1,4.644,1.3c1.108.51,3.054,1.656,2.831,3.123-.291,1.922-2.607,1.752-3.994,1.475q-3.349-.671-6.7-1.348c-.729-.146-2.711-.705-2.148.772a5.1,5.1,0,0,0,1.461,1.944c2.6,2.228,6.6,2.465,9.848,2.127a14.849,14.849,0,0,0,8.758-3.71c-.056,0,.885-.959,1.005-1.114a3.067,3.067,0,0,1,.679-.547,9.337,9.337,0,0,0,.841-3.9.188.188,0,0,1,.374-.039,12.576,12.576,0,0,1-.52,3.971q.791-.337,1.556-.732a43.331,43.331,0,0,0,3.987-2.521c.281-.187.69.182.429.451a15.726,15.726,0,0,1-3.882,2.79,21.823,21.823,0,0,1-2.24,1.053c-.272.11-.563.232-.861.338a13.54,13.54,0,0,1-5.78,3.852,19.281,19.281,0,0,1-5.281,1.054c-.239.03-1,.03-1.3.03a16.728,16.728,0,0,1-4.344-.6,9.274,9.274,0,0,1-4.254-2.376C116.024,327.083,114.487,324.911,116.157,324.2Z" transform="translate(-81.994 -142.042)" fill="#1d1d1b"/>
      <path id="Path_12101" data-name="Path 12101" d="M138.975,316.067c0-.778,2.947-5.734,2.947-5.734a37.085,37.085,0,0,1,3.85-4.033c.912-.558,2.045-3.575,2.593-4.6s4.8-7.2,6.1-8.02,1.885-.021,2.674,0,.677,1.439.677,2.6-2.437,5.081-2.437,5.081-3.882,5.12-4.431,5.668a3.058,3.058,0,0,0-.519,1.837l3.851,1.085.322-.147c.1.029.191.057.286.088.622.207,1.229.446,1.83.708,1.122.49,2.257.966,3.361,1.5a26.468,26.468,0,0,1,3.178,1.834c.363.241.711.492,1.053.754a10.637,10.637,0,0,0,.26,1.046,3.239,3.239,0,0,1-.044.443,1.727,1.727,0,0,1-1.05,1.151,2.667,2.667,0,0,1-1.7-.175q-1.867-.559-3.7-1.219a21.542,21.542,0,0,0-3.783-1.192c-.933-.15-2.248-.136-2.792.785-.7,1.18.43,2.055,1.417,2.438,1.094.425,2.172.88,3.3,1.213,1.314.389,2.652.687,3.981,1.017a4.244,4.244,0,0,1,2.592,1.257,5.856,5.856,0,0,1,1.025,2.146,1.465,1.465,0,0,0-.423.425,9.23,9.23,0,0,0-1.736.716,12.9,12.9,0,0,1-1.962-.293c-2.5-.558-4.871-1.765-7.478-1.849a1.3,1.3,0,0,0-1.2,2.035A5.146,5.146,0,0,0,152.57,326a2.937,2.937,0,0,0,.851.376,11.967,11.967,0,0,0,6.028,2.071c.467.032.935.056,1.4.108l.238.031c.31.758,1.063,1.071-.6,1.651-1.7,1.7-7.007,1.26-7.007,1.26s-2.784.9-9.09-2.865-5.475-6.443-5.895-6.935S138.975,316.844,138.975,316.067Z" transform="translate(-117.013 -140.199)" fill="#f8cea0"/>
      <path id="Path_12102" data-name="Path 12102" d="M151.758,341.024a1.741,1.741,0,0,0,.229.283,10.5,10.5,0,0,0,3.651,2.337q-.467-.134-.928-.282c-1.094-.353-1.277-.14-2.269-.728C151.88,342.3,151.327,341.067,151.758,341.024Z" transform="translate(-116.865 -156.206)" fill="#e5af7a"/>
      <path id="Path_12103" data-name="Path 12103" d="M143.86,330.753c1.422,1.436,1.732,4.689,8.312,7.41a47.028,47.028,0,0,0,13.093,3.494c.373.026.743-.2.742.081.182.286.016,1.236-.423,1.4a15.514,15.514,0,0,1-9.548.65c-1.851-.587-6.976-2.15-8.486-3.371a22.19,22.19,0,0,1-3.654-3.793C142.242,334.755,143.323,330.21,143.86,330.753Z" transform="translate(-121.6 -152.745)" fill="#e5af7a"/>
      <path id="Path_12104" data-name="Path 12104" d="M138.354,319.988a24.733,24.733,0,0,1,1.055-4.82,17.591,17.591,0,0,1,1.683-3.968,11.681,11.681,0,0,1,1.172-1.611,3.269,3.269,0,0,0,.317-.358c.407-.447.84-.874,1.291-1.3a15.448,15.448,0,0,0,3.2-4.163,47.2,47.2,0,0,1,5.211-8.111c.9-1.089,1.919-2.469,3.38-2.8a2.184,2.184,0,0,1,2.616,1.3c.486,1.306-.115,2.8-.65,3.991a26.325,26.325,0,0,1-2.682,4.468c-1.046,1.461-2.239,2.844-3.2,4.361-.308.486-.7,1.182-.224,1.7.147.159.595.187.809.247q.364.1.73.19c.576.14,1.156.251,1.74.345a7.252,7.252,0,0,1,2.2.453c1.59.906,3.2,1.784,4.8,2.675a6.519,6.519,0,0,1,2.782,2.175c.068.3.152.6.241.9a2.4,2.4,0,0,1,0,.292c-.144,1.784-2.071,1.719-3.378,1.367a41.965,41.965,0,0,1-4.654-1.928,6.814,6.814,0,0,0-2.58-.6c-.785.008-2.664.4-2.125,1.55.376.8,1.585,1.2,2.366,1.473a20.979,20.979,0,0,0,2.469.659,22.455,22.455,0,0,1,4.644,1.3c1.108.51,3.054,1.656,2.831,3.123-.291,1.922-2.607,1.752-3.994,1.475q-3.106-.622-6.21-1.25c-.064-.037-.847-.183-1.445-.284-.778-.11-1.574-.047-1.19.958a4.03,4.03,0,0,0,.469.862,1.663,1.663,0,0,0,.33.461q.181.182.372.353c.1.093.193.183.291.268a7.712,7.712,0,0,0,1.273.881,12.176,12.176,0,0,0,5.379,1.647c.467.032.935.057,1.4.108.183.021.365.047.546.077.381,0,.633.548.4,1.012-.3,1.075-2.034,1.571-2.947,1.852a16.367,16.367,0,0,1-8.978-.09,20.468,20.468,0,0,1-7.8-3.895,13.508,13.508,0,0,1-2.737-2.943.286.286,0,0,1-.114-.059,7.541,7.541,0,0,1-.64-1.381A6.4,6.4,0,0,1,138.354,319.988Zm.682,1.542c.4,2.681,2.887,4.859,5.01,6.293a21.157,21.157,0,0,0,8.617,3.286,15.66,15.66,0,0,0,4.728.042,10.784,10.784,0,0,0,2.226-.588,9.062,9.062,0,0,0,1.089-.494,2.779,2.779,0,0,0,.46-.291l.209-.207c.242-.451-.321-.67-.321-.67s-.338.077-.421-.045a16.728,16.728,0,0,1-4.343-.6,9.273,9.273,0,0,1-4.254-2.376c-.773-.809-2.31-2.981-.64-3.693a3.914,3.914,0,0,1,2.3.072l3.674.76c1.175.243,2.348.5,3.526.729a3.743,3.743,0,0,0,1.806.048,1.128,1.128,0,0,0,.855-1.541,4.745,4.745,0,0,0-2.291-1.807,13.488,13.488,0,0,0-2.54-.82,33.784,33.784,0,0,1-5.12-1.338c-1.244-.51-3.371-1.917-1.885-3.389,1.13-1.12,3.074-.958,4.455-.527,1.812.564,3.422,1.635,5.244,2.173.832.245,2.507.67,2.66-.611.147-1.225-1.233-1.911-2.115-2.405-1.943-1.091-4.97-2.773-6.038-3.22a23.062,23.062,0,0,1-4.272-.867c-.448-.138-.85-.272-1-.755a2.175,2.175,0,0,1,.227-1.545,20.817,20.817,0,0,1,2.285-3.246c.843-1.127,1.685-2.259,2.438-3.448a17.719,17.719,0,0,0,1.913-3.823c.356-1.069.542-2.87-.942-3.141-1.59-.29-2.814,1.437-3.7,2.491a37.88,37.88,0,0,0-2.629,3.52,41.8,41.8,0,0,0-2.2,3.809,19.688,19.688,0,0,1-2.053,3.382c-.91,1.124-2.078,1.993-3.04,3.067a12.477,12.477,0,0,0-2.115,3.393,23.325,23.325,0,0,0-1.243,3.867A12.236,12.236,0,0,0,139.036,321.53Z" transform="translate(-117.231 -140.03)" fill="#1d1d1b"/>
      <path id="Path_12105" data-name="Path 12105" d="M163.7,343.74s-1.4,6.893-5.643,11.137c-4.052,4.052-12.476,11.677-15.506,13.5a12.489,12.489,0,0,1-5.639,1.874l-.646-.645c.605,3.913.037,26.679.037,26.679l-2.484,28.806h-5.385l-9.827-48.008L117.3,366.7l-6.142-3.367-1.717,62.043-5.465.471s-7.4-42.147-7.4-53.956c-.379-10.354-.7-20.931-.7-20.931l1.707-.505,15.662-4.636s2.511,3.926,17.046,6.7C143.816,354.1,152.976,352.341,163.7,343.74Z" transform="translate(-87.892 -157.117)" fill="#405979"/>
      <path id="Path_12106" data-name="Path 12106" d="M167.829,360.524l-12.68,3.505v5.492l5.892,2.812.448-4.972.751-4.388,5.81-1.885-.345-.043Z" transform="translate(-131.633 -162.747)" fill="#2d4259"/>
      <path id="Path_12107" data-name="Path 12107" d="M184.92,367.237c1.645,5.758,6,8.773,8.439,8.773-2.954,1.48-8.136-1.425-8.136-1.425A60.263,60.263,0,0,1,184.92,367.237Z" transform="translate(-176.727 -164.999)" fill="#2d4259"/>
      <path id="Path_12108" data-name="Path 12108" d="M150.861,377.655s1.12,11.952,9.434,11.952c-5.392,1.87-7.949,0-7.949,0Z" transform="translate(-121.029 -168.493)" fill="#2d4259"/>
      <path id="Path_12109" data-name="Path 12109" d="M122.959,343.74s-6.971,5.813-13.377,7.5c-.314,4.536-2.235,9.435-4.292,11.492s-8.907,4.89-9.249,5.412c-.4.61-.189,2.141,1.568,1.762a25.514,25.514,0,0,0,5.176-2.376s8.771-6.705,11.638-10.192c2.584-2.1,6.681-7.347,7.208-10.475C122.156,346.868,122.959,343.74,122.959,343.74Z" transform="translate(-47.147 -157.117)" fill="#2d4259"/>
      <path id="Path_12110" data-name="Path 12110" d="M96.59,414.019q.389-5.574.684-11.154.6-11.243.816-22.5.061-3.135.11-6.27a56.23,56.23,0,0,1,.152-6.073.243.243,0,0,1,.478.014c.058.48.094.965.112,1.453a1.3,1.3,0,0,0,.481-.024c0-.041,0-.082,0-.122,2.226.263,4.388-.924,6.149-2.244,2.128-1.594,4.154-3.344,6.154-5.094,3.754-3.284,7.665-6.727,10.469-10.892a20.034,20.034,0,0,0,1.939-3.59,24.329,24.329,0,0,0,1.086-3.911c.062-.274.524-.3.526.015a13.648,13.648,0,0,1-2.275,6.838,33.184,33.184,0,0,1-4.753,5.941c-1.948,2-4,3.894-6.075,5.762-2.162,1.951-4.351,3.912-6.669,5.679-1.9,1.447-4.187,2.627-6.561,2.406,0-.043,0-.086,0-.13a1.381,1.381,0,0,1-.212.023,1.912,1.912,0,0,1-.245,0c.017,1.2-.038,2.418-.044,3.606-.009,1.816-.023,3.633-.054,5.449q-.1,5.5-.282,11-.377,11.169-1.124,22.32-.21,3.127-.449,6.253c-.159,2.077-.281,4.173-.634,6.227-.047.272-.506.281-.505-.015C95.873,421.328,96.336,417.658,96.59,414.019Z" transform="translate(-49.939 -157.001)" fill="#1d1d1b"/>
      <path id="Path_12111" data-name="Path 12111" d="M148.379,424.459l.152-6.552.3-13.106q.3-12.969.607-25.938c.079-3.17.138-6.343.25-9.513a4.636,4.636,0,0,1-.36-.363c-.234-.265.108-.605.393-.514.055-1.4.12-2.792.2-4.186.023-.371.653-.356.659.02q.034,2.325.024,4.651c.242.162.478.334.716.491.638.419,1.281.829,1.937,1.219.964.573,1.944,1.119,2.929,1.657a51.854,51.854,0,0,1,.5-8.076c.064-.435.034-1.248.354-1.569a2.238,2.238,0,0,1,.776-.336l1-.374c1.376-.516,2.753-1.014,4.156-1.455a.3.3,0,0,1,.221.564c-1.773.829-3.588,1.552-5.4,2.281-1.5,8.892-.279,17.932,1.356,26.716,1.678,9.014,3.516,18,5.425,26.97q.806,3.789,1.627,7.575c.558,2.561,1.19,5.115,1.572,7.71.053.359-.52.509-.63.154-.747-2.414-1.249-4.9-1.79-7.367q-.829-3.784-1.627-7.575-1.571-7.516-3.051-15.051c-.986-4.976-1.991-9.95-2.856-14.948a98.36,98.36,0,0,1-1.622-14.533,32.823,32.823,0,0,1-3.486-1.747c-.662-.381-1.424-.768-2.115-1.221-.047,6.819-.312,13.645-.472,20.456q-.3,12.97-.607,25.939l-.173,7.372a69.576,69.576,0,0,1-.275,7.211.377.377,0,0,1-.744-.023A63.177,63.177,0,0,1,148.379,424.459Z" transform="translate(-126.785 -162.738)" fill="#1d1d1b"/>
      <path id="Path_12112" data-name="Path 12112" d="M171.773,351.7a.275.275,0,0,1,.379-.21.435.435,0,0,1,.105-.075,14.439,14.439,0,0,1,2.04-.69l2.182-.7q2.117-.678,4.227-1.379c1.364-.453,2.723-.921,4.086-1.38a39.624,39.624,0,0,1,4.2-1.33c.38-.082.449.469.151.62a33.432,33.432,0,0,1-4.151,1.587c-1.4.489-2.805.96-4.211,1.428q-2.045.682-4.1,1.342a26.7,26.7,0,0,1-4.237,1.273.444.444,0,0,1-.123,0,283.315,283.315,0,0,0,1.186,28.755c.944,9.782,2.378,19.511,4.085,29.188q.714,4.047,1.485,8.084c.519,2.726,1.122,5.451,1.5,8.2.055.4-.6.575-.7.171-1.241-4.707-1.995-9.58-2.858-14.368-.876-4.861-1.689-9.734-2.408-14.622a285.925,285.925,0,0,1-2.905-29.421A159.533,159.533,0,0,1,171.773,351.7Z" transform="translate(-163.796 -157.85)" fill="#1d1d1b"/>
      <path id="Path_12113" data-name="Path 12113" d="M129.952,131.7a.274.274,0,0,1,.517.083c.123.7.32,1.344,1.1,1.554a2.59,2.59,0,0,0,2.106-.625c.225-.165.546.148.346.362a2.685,2.685,0,0,1-2.911.841C130.317,133.592,129.483,132.569,129.952,131.7Z" transform="translate(-80.828 -85.937)" fill="#1d1d1b"/>
      <path id="Path_12114" data-name="Path 12114" d="M146.181,127.269a.3.3,0,0,1,.563.091c.162.712.012,1.457.641,2a.99.99,0,0,0,1.629-.391.288.288,0,0,1,.567.094,1.563,1.563,0,0,1-2.226,1.257A2.346,2.346,0,0,1,146.181,127.269Z" transform="translate(-107.061 -84.446)" fill="#1d1d1b"/>
      <path id="Path_12115" data-name="Path 12115" d="M132.875,135.059s2.84-5.81.211-8.763-2.816,6.64-2.816,6.64S130.773,135.741,132.875,135.059Z" transform="translate(-81.251 -83.987)" fill="#fff"/>
      <path id="Path_12116" data-name="Path 12116" d="M149.421,128.24s.935-3.091-1.131-4.242-2.3,5.485-2.3,5.485-.744,2.021.639,2.021S149.421,128.24,149.421,128.24Z" transform="translate(-106.993 -83.36)" fill="#fff"/>
      <path id="Path_12117" data-name="Path 12117" d="M130.036,129.366c.19-1.3.673-3.735,2.348-3.928.7-.079,1.009.46,1.2,1.039a.115.115,0,0,1,.017.026,11.2,11.2,0,0,1,.084,6.441,3.235,3.235,0,0,1-1.161,2.014,1.532,1.532,0,0,1-1.891-.084,2.977,2.977,0,0,1-.715-2.038A15.78,15.78,0,0,1,130.036,129.366Zm.507,2.88c.027.69-.005,1.992.774,2.321,1.166.492,1.72-1.312,1.916-2.078a12.23,12.23,0,0,0,.322-1.82.22.22,0,0,1-.258-.2,13.436,13.436,0,0,0-.1-2.83c-.061-.312-.187-1.209-.464-1.442-.388-.326-.945.292-1.159.578a5.506,5.506,0,0,0-.84,2.444A15.1,15.1,0,0,0,130.543,132.245Z" transform="translate(-80.898 -83.886)" fill="#1d1d1b"/>
      <path id="Path_12118" data-name="Path 12118" d="M145.131,129.319a14.929,14.929,0,0,1,.643-3.6,5.222,5.222,0,0,1,1.644-2.756c.968-.7,1.612-.012,1.995,1.009a.249.249,0,0,1,.377.17,9.049,9.049,0,0,1-.076,3.622,6.416,6.416,0,0,1-1.356,2.98,2.092,2.092,0,0,1-2.252.607A1.855,1.855,0,0,1,145.131,129.319Zm1.9,1.431c.791-.138,1.244-.926,1.545-1.6a9.134,9.134,0,0,0,.73-2.753,8.416,8.416,0,0,0-.4-1.882c-.16-.439-.259-.823-.744-.918-.392-.077-.47.051-.708.328a3.708,3.708,0,0,0-.353.5,10.807,10.807,0,0,0-1.243,4.661C145.785,129.925,145.922,130.943,147.029,130.749Z" transform="translate(-106.859 -82.961)" fill="#1d1d1b"/>
      <path id="Path_12119" data-name="Path 12119" d="M129.889,131.947a1.5,1.5,0,0,1,.946-.752,1.6,1.6,0,0,1,1.329.223.677.677,0,0,1,.251.619,1.115,1.115,0,0,1,.236.883c-.008.046-.054.179-.071.23l.006-.019a1.119,1.119,0,0,1-.167.361,1.066,1.066,0,0,1-.7.364.621.621,0,0,1-.388-.069.677.677,0,0,1-.5.185,1.3,1.3,0,0,1-1-.8A1.547,1.547,0,0,1,129.889,131.947Z" transform="translate(-79.354 -85.8)"/>
      <path id="Path_12120" data-name="Path 12120" d="M145.96,128.2a.824.824,0,0,1,.91-.288.739.739,0,0,1,.34.11,1.7,1.7,0,0,1-.046,2.711.685.685,0,0,1-.825-.019A2.017,2.017,0,0,1,145.96,128.2Z" transform="translate(-105.152 -84.705)"/>
      <path id="Path_12121" data-name="Path 12121" d="M170.734,159.652s3.69,6.12-2.067,13.385-17.547,3.355-17.547,3.355-7.814-3.513-10.966-9.318c.891,0,1.233-1.1,1.233-1.1s4.8,3.975,16.039,1.624C165.2,166.43,170.734,159.652,170.734,159.652Z" transform="translate(-125.517 -95.365)" fill="#fff"/>
      <path id="Path_12122" data-name="Path 12122" d="M139.974,166.274a28.482,28.482,0,0,0,6.369,7.056,20.24,20.24,0,0,0,2.788,1.748,11.958,11.958,0,0,1-.98-3.269,12.7,12.7,0,0,1-2.7-.98.18.18,0,0,1,.148-.328,23.285,23.285,0,0,0,2.473.732c-.052-.454-.084-.907-.1-1.356a.156.156,0,0,1,.31-.033,13.848,13.848,0,0,0,.245,1.49,17.493,17.493,0,0,0,3.884.384,20.971,20.971,0,0,0,2.273-.162c-.161-.535-.3-1.079-.444-1.61a5.181,5.181,0,0,1-.237-1.752,22.013,22.013,0,0,1-4.138.243c-.393-.015-1.031-.075-1.79-.177a.709.709,0,0,1-.023.19.172.172,0,0,1-.144.136.165.165,0,0,1-.169-.1.953.953,0,0,1-.035-.245.213.213,0,0,1,0-.029,30.921,30.921,0,0,1-3.851-.793,14.876,14.876,0,0,0,.446,2.016,18.669,18.669,0,0,0,.966,2.136c.088.184-.191.328-.308.169a8.4,8.4,0,0,1-1.559-4.457,4.651,4.651,0,0,1-2.66-1.53c-.2-.388.429-.728.666-.367,1.216,1.848,8.119,2.332,10.116,2.218a26.836,26.836,0,0,0,6.885-1.317,28.447,28.447,0,0,0,6.25-2.955,34.127,34.127,0,0,0,5.439-4.466.315.315,0,0,1,.383-.049.207.207,0,0,1,.3.067c1.585,2.588,1.541,6.084.7,8.913a13.459,13.459,0,0,1-5.457,7.4,16.93,16.93,0,0,1-15.611,1.208l.122.254c.093.193-.193.331-.318.175a8.506,8.506,0,0,1-.519-.732,19.246,19.246,0,0,1-2.483-1.33,21.984,21.984,0,0,1-7.681-8.246C139.392,166.26,139.812,166.036,139.974,166.274Zm21.34-.253-.15.068a28.654,28.654,0,0,1-6.8,2.047,12.962,12.962,0,0,0,.77,3.358,23.922,23.922,0,0,0,4-.949,31.42,31.42,0,0,0,3.249-1.279C162.026,168.188,161.643,167.112,161.315,166.021Zm10.111-2.1a13.328,13.328,0,0,0-.971-4.567,20.777,20.777,0,0,1-3.113,3.041,11.435,11.435,0,0,1,1.631,3.206c.828-.5,1.679-.995,2.452-1.565C171.425,164,171.426,163.962,171.426,163.924Zm-1,4.987a12.832,12.832,0,0,0,.994-4.427c-.785.492-1.536,1.047-2.305,1.569a11.582,11.582,0,0,1,.367,4.656.172.172,0,0,1-.008.033A12.486,12.486,0,0,0,170.422,168.911Zm-.994,1.9a.177.177,0,0,1-.285-.154,12.292,12.292,0,0,0-.38-4.37c-.054.036-.108.072-.163.107-1.035.667-2.1,1.3-3.175,1.89-.807.445-1.627.869-2.462,1.263.124.392.248.784.373,1.174.476,1.487.951,2.983,1.307,4.5A12.957,12.957,0,0,0,169.429,170.808Zm-19.447,4.686a17.412,17.412,0,0,0,5.13,1.467,16.129,16.129,0,0,0,9.173-1.552c-.5-1.541-.919-3.108-1.4-4.655-.107-.342-.219-.681-.332-1.021a30.443,30.443,0,0,1-3.679,1.418,25.436,25.436,0,0,1-3.6.834c.021.08.041.161.06.243a.131.131,0,0,1,.027.049,27.541,27.541,0,0,0,1.653,3.9c.082.162-.185.311-.28.155a15.22,15.22,0,0,1-1.56-3.625.171.171,0,0,1-.13-.106c-.072-.183-.14-.37-.2-.558a18.545,18.545,0,0,1-6.173-.122A22.1,22.1,0,0,0,149.982,175.494Z" transform="translate(-125.238 -95.069)" fill="#1d1d1b"/>
    </g>
  </g>
</svg>
