<svg xmlns="http://www.w3.org/2000/svg" xmlns:xlink="http://www.w3.org/1999/xlink" width="345.455" height="361.236" viewBox="0 0 345.455 361.236">
  <defs>
    <clipPath id="clip-path">
      <rect id="Rectangle_1384" data-name="Rectangle 1384" width="345.455" height="361.236" fill="#dee4e8"/>
    </clipPath>
  </defs>
  <g id="Group_3350" data-name="Group 3350" opacity="0.188">
    <g id="Group_3349" data-name="Group 3349" clip-path="url(#clip-path)">
      <path id="Path_11547" data-name="Path 11547" d="M156.9,247.943c0-.013,0-.024-.006-.037l-.009.005a.471.471,0,0,0-.9-.005c-.949,2.669-3.859,4.6-3.9,7.584h0a.96.96,0,0,0,1.919,0,3.778,3.778,0,0,1,.079-.473.441.441,0,0,0,.045-.167c.645-2.38,3.318-4.2,2.775-6.843a.4.4,0,0,0-.01-.064M70.912,262.5A88.623,88.623,0,0,0,62.9,277.044c-1.789,4.211-4.79,10.629-3.375,15.232a.657.657,0,0,0,1.187.155c1.057-2.111,1.113-4.58,1.649-6.867a55.631,55.631,0,0,1,2.325-7.407A81.577,81.577,0,0,1,72.445,263.4c.624-.964-.9-1.839-1.532-.9m-.93,33.756c-3.154,5.84-5.022,12.337-6.924,18.669-1.375,4.579-3.164,10.044-2.244,14.85a1.431,1.431,0,0,0,2.089.85,3.023,3.023,0,0,0,1.267-1.538.738.738,0,0,0-.261-1,3.307,3.307,0,0,0-.319-.126A50.7,50.7,0,0,1,65.9,315.118c1.664-6.013,3.195-12.125,6.115-17.674.705-1.34-1.312-2.528-2.035-1.189M51.388,130.781a32.721,32.721,0,0,0-6.057,11.271c-1.029,3.165-3,8.875-1.369,12.079a.694.694,0,0,0,1.189,0c.734-1.338.65-2.716.816-4.217a44.616,44.616,0,0,1,1.134-6.289,30.063,30.063,0,0,1,5.542-11.59c.711-.873-.507-2.131-1.255-1.254M226.622,294.905a68.513,68.513,0,0,0-6.543,12.027c-1.225,3-3.335,7.467-1.917,10.64.257.575,1.006.4,1.3,0,.975-1.3,1.03-2.776,1.409-4.332a46.043,46.043,0,0,1,1.9-5.986,63.893,63.893,0,0,1,5.862-11.172c.818-1.267-1.185-2.417-2.012-1.176m-2.734-5.6c.852-1.249-1.152-2.383-2.012-1.176a49.7,49.7,0,0,0-5.621,10.207c-1.051,2.6-3.1,7.059-1.483,9.748a.765.765,0,0,0,1.3,0c.77-1.126.769-2.385,1.039-3.7a32.944,32.944,0,0,1,1.6-5.371,48.782,48.782,0,0,1,5.173-9.709M60.712,312.094a.773.773,0,0,0,.061-.492c.252-.8.857-1.77,1.076-2.465.441-1.4.759-2.841,1.075-4.272.581-2.618,1-5.285,1.7-7.874,1.694-6.215,4.663-12.061,6.689-18.174.421-1.271-1.552-1.791-1.992-.549-2.261,6.382-5.668,12.475-7.4,19.03-.742,2.8-1.246,5.664-1.951,8.478-.459,1.831-2.119,4.75-1.6,6.6.294,1.044,2.031,1.174,2.248,0l.09-.283M62.521,175.2c-2.014,5.089-6.391,11.866-5.336,17.489a.977.977,0,0,0,1.768.231c1.244-2.565,1.463-5.6,2.348-8.332.968-2.985,2.176-5.884,3.263-8.826.477-1.29-1.55-1.81-2.043-.562M58.632,280.878c1.189-2.366,1.592-5.085,2.415-7.6a92.628,92.628,0,0,1,3.656-9.16c2.349-5.219,4.857-10.353,6.564-15.831.378-1.212-1.488-1.708-1.89-.521-2.083,6.155-5.213,11.845-7.887,17.748-2.017,4.454-4.948,10.21-3.948,15.217a.6.6,0,0,0,1.089.142M335.5,8.087c-11.839-9.722-27.615-8.95-41.9-6.512a200.328,200.328,0,0,0-44.962,13.519c-15.516,6.662-31.932,15.5-43.077,28.476a1.5,1.5,0,0,0,1.479,2.472,1.65,1.65,0,0,0,1.348.335c6.064-1.343,11.727-4.4,17.489-6.692,5.814-2.311,11.689-4.447,17.6-6.492,11.557-4,23.5-7.922,35.761-8.939,11.092-.92,22.276,1.577,29.881,10.239,3.452,3.932,6.142,9.025,5.626,14.39a24.207,24.207,0,0,1-2.093,7.369c-.874,1.976-1.972,5.088-3.492,6.613-3.566,3.578,1.964,9.112,5.544,5.544a13.6,13.6,0,0,0,1.109-1.261c10.84-4.6,21.117-14.048,26.288-24.285,6.03-11.937,3.992-26.081-6.6-34.776M260.3,21c-6.49,1.708-12.883,3.85-19.126,6.177-2.2.822-4.39,1.7-6.567,2.59,2.827-1.537,5.695-3.009,8.629-4.375a182.448,182.448,0,0,1,17.451-7.022A5.905,5.905,0,0,0,260.3,21m2.639-.669c.007-.051.015-.1.024-.153a23.567,23.567,0,0,1,.739-2.825q2.774-.911,5.573-1.747a3.211,3.211,0,0,0,.494,3.15.751.751,0,0,0,.123.081q-3.491.647-6.952,1.494M273.65,18.2c-.873.132-1.746.278-2.617.43.926-.985.742-2.562,1.047-3.855q2.824-.8,5.677-1.536c-.41,1.592-.292,3.086,1.035,4.127a1.636,1.636,0,0,0,.308.193c-1.815.151-3.634.368-5.449.641m11.261-.866c-1.561-.016-3.129.039-4.7.145.524-.367.443-.877.315-1.452a5.642,5.642,0,0,1-.083-3.107c.035-.132.077-.262.116-.393.3-.073.591-.152.889-.224q2.39-.583,4.79-1.125c-1.069,2.135-1.825,4.3-1.327,6.156m8.479.819a45.351,45.351,0,0,0-5.83-.721c-.393-2.364.5-4.645,1.572-6.883,2.521-.523,5.053-.982,7.6-1.341a30.973,30.973,0,0,0-2.278,5.219,21.721,21.721,0,0,0-1.067,3.727m2.486.553A18.546,18.546,0,0,1,297,14.166a18.483,18.483,0,0,1,2.345-5.287c1.093-.122,2.187-.23,3.287-.306,1.364-.095,2.759-.173,4.168-.216-1.67,3.665-4.441,8.5-4.5,12.643a37.507,37.507,0,0,0-6.428-2.294M308.8,24.82a39.995,39.995,0,0,0-3.89-2.5c.565-2.034.623-4.268,1.252-6.3.809-2.614,1.867-5.144,2.834-7.7a45.809,45.809,0,0,1,7.672.578,92.538,92.538,0,0,0-5.4,10.358A43.192,43.192,0,0,0,308.8,24.82m6.3,5.7a38.279,38.279,0,0,0-3.619-3.571c.946-2.32,1.511-4.963,2.433-7.22A76.4,76.4,0,0,1,318.892,9.36a25.836,25.836,0,0,1,3.85,1.252c.74.311,1.462.662,2.167,1.044a1.156,1.156,0,0,0-1.349.494,80.379,80.379,0,0,0-6.513,10.908c-.967,2.149-2.252,4.98-1.947,7.458m20.546,4.273c-2.5,7.511-7.8,12.591-13.481,17.4a22.043,22.043,0,0,0-.547-10.478,27.19,27.19,0,0,0-1.414-3.575c.043.07.076.146.125.214a1.031,1.031,0,0,0,1.581.2c1.168-.913,1.185-2.3,1.581-3.667a42.673,42.673,0,0,1,2.094-5.656,46.789,46.789,0,0,1,6.081-10.078c1.092-1.356-.777-3.307-1.948-1.947a49.845,49.845,0,0,0-7.087,10.9c-1.087,2.259-3.691,6.865-2.657,9.57a31.8,31.8,0,0,0-3.147-5.062.99.99,0,0,0,.462-.38c.776-1.254.764-2.378,1.073-3.825a27.928,27.928,0,0,1,2.1-5.955,100.948,100.948,0,0,1,5.153-9.092,1.068,1.068,0,0,0-.2-1.421,22.886,22.886,0,0,1,9.413,9.939c-2.261,2.537-3.457,6.1-4.942,9.067-1.178,2.353-2.252,4.707-3.567,7a16.063,16.063,0,0,0-2.444,6c-.083.665.81.874,1.22.506,3.257-2.922,5.166-7.393,6.921-11.311,1.2-2.69,2.143-6.017,3.819-8.614a16.99,16.99,0,0,1-.189,10.268M303.1,92.894a46.721,46.721,0,0,0-17.241-16.907c-7.313-4.285-15.465-6.705-23.776-8.129-7.726-1.324-15.79-1.93-23.019,1.511-.66-1.709-1.362-3.4-2.124-5.053-1.058-2.3-2.535-5.168-5.207-5.779-4.106-.938-5.993,3.341-6.864,6.531-.8,2.928-1.562,5.9-2.286,8.882-1.867-.566-4.377.493-6.345.841-4.087.721-8.091,1.862-12.2,2.581-8.282,1.449-16.529,3.156-24.824,4.512-1.192.2-2.391.372-3.594.537a63.044,63.044,0,0,1-17-.639c-9.08-1.73-17.8-4.916-26.343-8.36-15.553-6.269-31.9-13.719-49.081-11.282C67.965,64.3,54.7,73.519,45.444,85.535a70.574,70.574,0,0,0-14.076,49.4c1.885,21.474,12.183,40.852,16.733,61.741-7.126-.852-14.621-3.029-19.533-8.027-6.759-6.879-3.074-16.821,2.019-23.517,1.041-1.368-.66-3.123-2.1-2.765a1.5,1.5,0,0,0-.987.241c-.159.1-.318.191-.477.285a9.87,9.87,0,0,0-1.553.9,47.116,47.116,0,0,0-5.2,3.174,69.385,69.385,0,0,0-7.082,5.874A47.884,47.884,0,0,0,2.235,188.329C-2.4,199.465.039,212,10.872,218.337c9.466,5.536,21.539,5.884,32.193,5.209,2.615-.165,5.22-.434,7.812-.788.767,25.292-3.847,50.34-3.383,75.637.319,17.457,2.864,38.164,15.4,51.433a36.481,36.481,0,0,0,25.775,11.356c9.96-.03,19.393-4.881,26.047-12.148,15.322-16.735,16.443-41.481,25.277-61.462,4.74-10.72,11.2-20.807,19.922-28.721A57.97,57.97,0,0,1,173.72,249.5c.095-.045.193-.084.288-.129.012.014.018.028.029.041A194.5,194.5,0,0,1,189.8,270.241a120.1,120.1,0,0,1,11.873,24.3c5.741,15.874,10.578,32.857,20.51,46.762,8.177,11.448,20.625,20.469,35.257,19.912,14.4-.548,25.738-11.485,31.45-24,7.349-16.1,6.147-34.044,5.632-51.319a347.116,347.116,0,0,1,3.244-57.409c2.56-18.864,4.813-37.728,7.05-56.633,1.128-9.529,2.092-19.077,3.206-28.606.933-7.974,1.843-15.958,1.582-24-.294-9.074-2-18.366-6.506-26.353m-64.983-.088c.137.777.037.266.041.3a6.564,6.564,0,0,0,.378,1.838,2.84,2.84,0,0,0,.661,1.094,3.314,3.314,0,0,0,.576.572,3.676,3.676,0,0,0,2.916,1.658l.179.073c.491.195,1.069.267,1.579.414,1.614.463,3.2,1.031,4.78,1.6.516.187,1.029.383,1.544.575-.176.395-.376.78-.558,1.159-.768,1.6-.762,3.2-1.242,4.923-.622,2.227-1.793,4.26-2.406,6.48-.5,1.807-.568,3.519-1.52,5.189a.986.986,0,0,0-.113.332,3.214,3.214,0,0,0-2.9-.2c1.876-5.643,3.767-11.234,4.238-17.243.1-1.312-1.854-1.252-2.013,0-.991,7.8-4.714,14.8-6.859,22.279-.779,2.718-1.381,5.515-1.985,8.3-.659,2.062-1.3,4.131-1.935,6.2-1.253,4.061-2.408,8.185-3.661,12.274-.04-.13-.077-.26-.116-.39.349-1.942.388-4.029.847-5.842,1.241-4.9,2.623-9.749,3.816-14.658,2.478-10.189,4.676-20.422,6.843-30.682a.716.716,0,0,0-1.379-.38c-3.041,9.557-5.239,19.364-7.734,29.072-1.157,4.5-2.366,8.981-3.593,13.465-.214.785-.457,1.581-.689,2.382-.719-2.672-1.4-5.355-2.086-8.038.57-2.478,1.105-4.962,1.667-7.441,1.1-4.843,2.581-9.609,4.032-14.354,2.161-7.065,4.405-14.1,6.66-21.141.012.064.026.126.037.19M263.8,106.242c3.52,1.543,7.016,3.148,10.452,4.869q.341.171.681.344c-4.267.93-8.52,1.925-12.765,2.935a17.339,17.339,0,0,1,.484-1.666,17.647,17.647,0,0,0,1.4-5.726,1.074,1.074,0,0,0-.254-.757m-2.076.757c-.14,2.113-1.147,4-1.917,5.936a13.339,13.339,0,0,0-.727,2.166c-1.111.245-2.265.495-3.435.766.207-1.525,1.035-2.9,1.4-4.388a50.488,50.488,0,0,1,2.507-7.059c.742.312,1.485.623,2.224.941.4.17.79.346,1.185.517a1.183,1.183,0,0,0-1.24,1.121m-7.583,4.846c-.6,1.475-1.8,3.15-1.279,4.711a39.838,39.838,0,0,0-4.747,1.559c.118-.359.215-.738.307-1.125.693-2.894,1.67-5.475,2.582-8.311.684-2.127.664-4.3,1.457-6.363q.127-.33.243-.658c1.594.612,3.18,1.247,4.76,1.894-1.132,2.768-2.209,5.559-3.324,8.293M234.812,80.157q.618,2.058,1.2,4.118c.4,1.4.784,2.8,1.142,4.215-2.924,8.425-5.828,16.852-8.5,25.362-1.473,4.7-3.008,9.424-4.07,14.235-.125.57-.262,1.136-.392,1.705-.232-.85-.458-1.7-.7-2.547a24.947,24.947,0,0,0-.877-2.743c.252-1.551.636-3.058,1.027-4.6.311-1.227.616-2.453.959-3.672,1.352-4.816,2.836-9.592,4.223-14.4,1.53-5.3,3.048-10.607,4.449-15.943.484-1.844,1.1-3.786,1.535-5.738M221.986,96.735c4.586-6.757,5.762-15.373,8.022-23.1.4-1.367.8-2.726,1.176-4.1.842,2.113,1.6,4.267,2.31,6.435a1.008,1.008,0,0,0-.025.186c-.128,3.361-1.539,6.919-2.486,10.108-1.62,5.458-3.379,10.872-5.091,16.3-1.424,4.516-2.855,9.034-4.177,13.58-.514,1.767-1.069,3.637-1.514,5.543a16.673,16.673,0,0,0-2.5-1.153,9.4,9.4,0,0,1-.041-1.252c.084-1.431.351-2.881.547-4.3.587-4.249,1.6-8.413,1.585-12.725a.981.981,0,0,0-1.96,0c-.305,5.081-1.962,9.992-2.756,15.007-.087.554-.227,1.316-.3,2.114q-2.133-.85-4.279-1.668c-.672-4.864-.007-11.05,2.42-14.939a1.1,1.1,0,0,0,.123-.277c.17-.048.34-.1.511-.147a60.718,60.718,0,0,1,6.622-1.829,2.407,2.407,0,0,0,1.816-3.779m-6.33,30.611c-.372-.358-.115-.734,0,0M9.929,206.776c-.008.032-.019.064-.027.095-2.01-2.839-2.873-6.549-2.023-11.367,1.086-6.158,4.6-11.956,8.444-16.779q.982-1.232,2-2.435a21.522,21.522,0,0,0-.5,5.47,18.426,18.426,0,0,0,.613,3.783c-2.016,4.4-5.12,8.314-6.57,12.939-.848,2.7-1.236,5.552-1.94,8.294m5.37,4.678a17.543,17.543,0,0,1-3.247-2.217c.068-.242.134-.485.2-.727.795-2.914,1.281-5.908,1.972-8.846.709-3.011,2.393-5.694,3.72-8.467.5-1.052.939-2.12,1.338-3.2a20.072,20.072,0,0,0,2.7,4.547,47.3,47.3,0,0,0-3.991,8.259c-1.033,2.744-2.7,7.075-2.695,10.651m6.14,2.331a32.1,32.1,0,0,1-3.253-1.027c.2-1.079.245-2.185.424-3.32a50.1,50.1,0,0,1,1.667-6.866,65.1,65.1,0,0,1,3.238-8.293,26.341,26.341,0,0,0,3.681,3.158,49.3,49.3,0,0,0-4.1,9.484,36.961,36.961,0,0,0-1.653,6.864m3.336.717a67.242,67.242,0,0,1,1.094-6.816,60.253,60.253,0,0,1,3.253-8.995c.678.407,1.368.8,2.077,1.155.991.5,2,.952,3.009,1.376-1.825,3.771-4.593,10.181-4.312,13.918-1.735-.138-3.453-.346-5.12-.638m13.344.832c-1.557.041-3.146.043-4.741,0-.094-4.451,1.263-9.054,2.979-13.262a50.729,50.729,0,0,0,5.347,1.612,51.4,51.4,0,0,0-2.619,6.6,15.717,15.717,0,0,0-.967,5.055m3.223-.14a11.532,11.532,0,0,1,.241-3.141,44.845,44.845,0,0,1,2.554-7.834,60.482,60.482,0,0,0,6.989.934,1.381,1.381,0,0,0-.151.232c-.471.9-2.869,5.832-3.393,9.233-1.915.238-4.022.441-6.24.576m8.9-.946c.009-.056.017-.113.026-.17a29.834,29.834,0,0,1,2.787-7.477,1.211,1.211,0,0,0-.159-1.335c2.043.1,4.1.116,6.159.049-1.152,2.454-2.434,5.271-2.4,7.713q-2.458.544-4.965.983c-.46.08-.943.159-1.446.236m129.684,32.766c.056-.019.114-.035.171-.054,0,.08,0,.163.006.238-.06-.06-.117-.123-.177-.184m119.955-108c-.95,8.334-1.829,16.675-2.8,25.008-2.084,17.9-3.947,35.837-6.49,53.676-2.509,17.6-4.96,35.315-5.037,53.129-.039,8.981.488,17.948.655,26.924.155,8.328.568,17.384-1.4,25.536-2.821,11.687-9.612,24.738-21.669,28.968a8.56,8.56,0,0,0,.523-2.518c.072-1.875-2.842-1.872-2.914,0a22.772,22.772,0,0,1-1.016,3.434,23.3,23.3,0,0,1-5.278.4,1.175,1.175,0,0,0,.209-.483,9.5,9.5,0,0,1,3.073-5.111,1.352,1.352,0,0,0-1.91-1.911c-1.8,1.812-3.68,3.977-3.727,6.675a1.17,1.17,0,0,0,.181.653,26.292,26.292,0,0,1-4.862-1.117,1.108,1.108,0,0,0,.1-.928c-.354-.926,1.281-3.327,1.661-3.954,1.22-2.011,2.624-3.906,4.013-5.8,1.027-1.4-1.284-2.69-2.31-1.351-1.084,1.414-6.574,7.614-6.309,10.927a34.8,34.8,0,0,1-5.95-3.437,1.833,1.833,0,0,0,.584-.142c.884-.391.873-.762,1.324-1.519a.82.82,0,0,0-.483-1.187c-.016-.006-.029-.006-.045-.012.5-4.327,3.459-7.757,5.685-11.444.859-1.423-1.334-2.687-2.219-1.3-2.739,4.306-7.155,8.939-6.4,14.437a43.126,43.126,0,0,1-4.457-4.066,1.851,1.851,0,0,0,.81-.279.74.74,0,0,0,.261-1c-1.383-2.265.336-5.911,1.278-8.225a57.113,57.113,0,0,1,4.6-9.08c.875-1.374-1.284-2.612-2.173-1.27a58.2,58.2,0,0,0-6.269,12.405,12.456,12.456,0,0,0-.987,4.632q-.375-.462-.736-.932c-.965-1.254-1.865-2.55-2.739-3.863a.628.628,0,0,0,.212-.159,8.288,8.288,0,0,0,1.468-3.7,41.573,41.573,0,0,1,2.243-6.395,88.394,88.394,0,0,1,5.533-10.248c.8-1.316-1.239-2.5-2.058-1.2a92.269,92.269,0,0,0-6.5,11.621c-.963,2.151-2.482,5.051-2.456,7.638q-1.257-2.06-2.4-4.19a.8.8,0,0,0,.383-.393c.818-1.829.939-3.8,1.465-5.727a44.53,44.53,0,0,1,2.424-6.555c1.746-3.876,3.837-7.585,5.592-11.457.528-1.164-1.175-2.193-1.738-1.016-2.075,4.337-4.636,8.422-6.673,12.775-1.258,2.688-2.871,6.01-3.1,9.17-4.278-8.742-7.4-18.152-10.61-27.33.089-.407.179-.824.3-1.254a36.059,36.059,0,0,1,2.507-6.4,73.144,73.144,0,0,1,6.474-10.33c.81-1.113-1.019-2.135-1.829-1.07a72.792,72.792,0,0,0-7.541,11.66c-.426.863-.967,1.9-1.463,3q-.546-1.517-1.1-3.021c-.314-.842-.646-1.671-.98-2.5.026-.142.054-.285.086-.429a33.712,33.712,0,0,1,1.972-5.8,84.949,84.949,0,0,1,5.3-10.054c.6-1-.927-1.876-1.555-.909a77.528,77.528,0,0,0-6.431,11.436c-.275.639-.6,1.361-.906,2.127q-1.479-3.308-3.164-6.5a41.1,41.1,0,0,1,2.624-6.278c2.082-4.114,4.566-8.008,6.73-12.078a.914.914,0,0,0-1.578-.922c-2.775,4.788-6.035,9.313-8.463,14.3-.268.553-.605,1.235-.955,1.989q-.938-1.65-1.933-3.274c.29-.854.519-1.747.827-2.655q1.433-4.217,3.213-8.3c2.158-4.958,4.508-9.834,6.8-14.732.454-.973-.941-1.831-1.464-.856-2.742,5.112-5.561,10.181-7.949,15.472-.989,2.191-2.538,5-3.5,7.79-.507-.775-1.015-1.55-1.54-2.319q-.8-1.177-1.625-2.357c.683-2.052.978-4.217,1.747-6.266a63.365,63.365,0,0,1,3.461-7.578c2.548-4.754,5.022-9.642,7.7-14.325.208-.364-.311-.643-.549-.321a118.6,118.6,0,0,0-9.83,15.225c-1.526,2.926-3.969,6.905-4.417,10.6a116.836,116.836,0,0,0-10-12.265c.039,0,.072.012.113.013a.533.533,0,0,0,.53-.53c.033.342.183-.258.255-.549.1-.419.127-.859.2-1.288,2.318-.709,4.66-1.349,7-1.983a28.043,28.043,0,0,0-3.135,8.408.6.6,0,0,0,.875.673c3.02-1.726,3.43-5.795,4.834-8.706.2-.42.419-.838.628-1.258l.218-.06a2.226,2.226,0,0,0,1.316-2.93c1.2-2.271,2.45-4.524,3.7-6.742a.954.954,0,0,0-1.647-.963c-1.331,2.151-2.627,4.334-3.907,6.525h-.016c-2.466.3-4.963.532-7.441.869a67.031,67.031,0,0,1,3.5-6.445c.638-1.025-.932-1.907-1.6-.936a77.782,77.782,0,0,0-4.535,7.786,40.269,40.269,0,0,0-4.722,1.114c.979-2.06,2.188-4,3.331-5.97a.848.848,0,0,0-1.464-.856,71.538,71.538,0,0,0-4.357,7.159c-.1.2-.2.42-.313.649q-2.7,1.049-5.283,2.347a16.87,16.87,0,0,1,.814-1.794c.808-1.6,1.968-4.133,3.538-5.132a.888.888,0,0,0-.9-1.532c-1.87,1.06-3.316,3.617-4.36,5.4a11.543,11.543,0,0,0-1.811,4.518q-1.776,1.016-3.482,2.151c-.749.5-1.475,1.032-2.2,1.563.545-.978,1-2.031,1.457-2.838a54.806,54.806,0,0,0,3.205-6.505c.227-.561-.643-.869-.944-.4-1.425,2.237-3.059,4.334-4.55,6.526-1.082,1.591-2.739,3.413-2.347,5.416a.461.461,0,0,0,.095.189,81.383,81.383,0,0,0-14.556,15.929,115.8,115.8,0,0,0-13.873,27.655c-3.7,10.2-6.464,20.766-10.79,30.729-4,9.211-9.213,18.079-18.385,22.883a25.788,25.788,0,0,1-3.972,1.664c.129-1.878.283-3.751.282-5.635a1.3,1.3,0,0,0-2.6,0c-.062,2.1-.336,4.171-.583,6.259-.005.047-.012.094-.018.14a24.9,24.9,0,0,1-10.341-.186c.126-3.229,1.052-6.367,1.107-9.6a1.073,1.073,0,0,0-2.145,0c-.135,2.957-1.075,5.931-1.483,8.916a28.977,28.977,0,0,1-3.524-1.437.726.726,0,0,0-.894-.723l-.121.018c-1.278-6.3,2.637-12.652,2.783-18.979.033-1.437-2.153-1.424-2.225,0-.283,5.662-3.928,11.388-3.91,17.107a27.418,27.418,0,0,1-3.55-3.042,2.546,2.546,0,0,0,1.138-1.667.736.736,0,0,0-.877-.9c.073-.549-.078-1.427-.052-1.882.082-1.417.271-2.831.387-4.245.493-6.015.424-12.311,3.478-17.714a1.073,1.073,0,0,0-1.852-1.083c-3.783,6.355-3.9,14.28-4.67,21.448-.079.738-.273,1.787-.313,2.82-7.367-9.9-9.371-24.309-10.156-35.931-.886-13.14-.015-26.244,1.048-39.349a.761.761,0,0,0,.682-.315c1.775-2.681,2.25-6.354,3.387-9.366a94.626,94.626,0,0,1,5.037-10.877c3.5-6.6,7.343-13,10.767-19.641.537-1.041-1.01-1.959-1.578-.922-3.87,7.068-8.334,13.791-12.111,20.911a94.743,94.743,0,0,0-4.588,9.848c-.3.774-.632,1.587-.944,2.423.435-5.3.848-10.6,1.138-15.9.122-.329.247-.657.38-.978,1.475-3.558,3.263-6.968,4.864-10.469s3.964-6.586,6.05-9.824c.532-.827,1.239-1.74,1.865-2.707,4.653-1.5,9.232-3.227,13.71-5.158a228.991,228.991,0,0,0,23.849-11.891c7.187-4.152,16.677-9.085,20.705-16.707a2.241,2.241,0,0,0-1.507-3.276,2.436,2.436,0,0,0-.875-.5c-5.561-1.7-12.645,2.025-17.8,3.915q-9.3,3.406-18.755,6.384c-8.855,2.793-17.937,5.194-27.179,6.136.39-1.472.542-3.09.991-4.462.772-2.362,1.773-4.638,2.562-6.994.453-1.353-1.642-1.9-2.12-.584-.957,2.631-2.211,5.143-3.153,7.779a12.581,12.581,0,0,0-1.056,4.5c-1.595.11-3.194.177-4.8.189-.015-.14-.033-.282-.061-.427-.714-3.685-1.622-7.319-2.64-10.923a.972.972,0,0,0,.458-.414,4.061,4.061,0,0,0,.2-1.328,39.812,39.812,0,0,1,1.188-4.155c1.231-4.346,2.432-8.636,3.845-12.945.443-1.355-1.651-1.905-2.12-.584-1.57,4.417-2.983,8.888-4.522,13.3-.133.382-.309.822-.481,1.289q-.889-2.893-1.824-5.771c.1-.694.17-1.4.3-2.093.353-1.907.787-3.8,1.274-5.681a54.752,54.752,0,0,1,4.415-11.8c.561-1.068-1.038-2.014-1.624-.949a63.769,63.769,0,0,0-5,12.144c-.288.944-.679,2.061-1.044,3.245l-.493-1.5c-.206-.631-.42-1.26-.633-1.889a.7.7,0,0,0,.45-.32c.943-1.61.842-3.221,1.218-5.073a46.894,46.894,0,0,1,1.677-5.884,82.975,82.975,0,0,0,3.56-11.508c.233-1.242-1.64-1.787-1.915-.527-.95,4.328-2.816,8.3-4.339,12.442a28.041,28.041,0,0,0-1.987,6.961,160.894,160.894,0,0,1-5.788-19.008c1.262-3.823,2.488-7.673,3.745-11.5,1.493-4.545,2.644-9.405,5.923-13.054.8-.9-.488-2.21-1.33-1.33-3.418,3.581-4.913,8.312-6.528,12.881-.825,2.335-2,4.754-2.832,7.222a71.244,71.244,0,0,1-.633-10.007c1.051-2.889,2.122-5.83,3.3-8.661,2.389-5.74,5.6-11.121,8.022-16.859.3-.715-.918-1.23-1.259-.532-2.9,5.952-6.856,11.51-9.28,17.685-.094.241-.191.483-.286.726a63.522,63.522,0,0,1,2.422-11.269c.287-.557.568-1.117.869-1.667,2.992-5.482,6.883-10.468,8.661-16.533a.4.4,0,0,0-.01-.245C59.7,80.151,71.241,72,84.39,70.086c16.127-2.353,32.227,5.715,46.931,11.188,9.374,3.489,18.989,6.637,28.985,7.681a64.3,64.3,0,0,0,10.265.229c2.011-.076,4.032-.219,6.079-.427,8.393-.856,16.683-2.469,25.01-3.791,4.59-.729,9.029-1.806,13.561-2.777,1.561-.334,3.785-.516,5.718-1.111-1.043,4.815-1.951,9.654-2.706,14.457a20.364,20.364,0,0,0-5.015.738c-3.609.864-7.169,1.939-10.719,3.012-6.753,2.042-13.537,4.636-20.482,5.947a3.238,3.238,0,0,0-2.378,3.123c.456,4.6,6.615,6.86,10.178,8.627,6.3,3.122,12.948,5.533,19.473,8.129,2.172.864,4.191,1.658,6.247,2.621l.241.114c.087.277.2.555.274.82,1.772,6.159,3.028,12.465,4.689,18.655q.146.547.292,1.125c.041.293.087.584.151.872a.944.944,0,0,0,.154.351c1.3,5.268,2.845,11.78,7.019,14.968,2.227,1.7,4.96-.282,5.777-2.349,2.609-6.6,4.4-13.574,6.469-20.358,1.159-3.794,2.32-7.588,3.579-11.35.455-1.36.92-2.717,1.433-4.057.113-.294,1.17-2.084.38-1.159a4,4,0,0,0,.724-1.246c5.594-.589,11.158-2.042,16.638-3.266,7.126-1.591,14.272-3.167,21.463-4.438a3.45,3.45,0,0,0,2.053-5.045c-1.934-2.661-5.2-4.244-8.04-5.752-4.6-2.448-9.37-4.586-14.157-6.64-4.732-2.033-9.5-4-14.351-5.736-1.477-.527-3.072-1.175-4.691-1.579a46.1,46.1,0,0,0-1.938-8.09c-.956-3.322-1.962-6.667-3.091-9.965,6.734-1.7,13.952-.321,20.578,1.249a71.975,71.975,0,0,1,18.8,7.186c13.223,7.463,19.974,20.021,20.878,35a126.914,126.914,0,0,1-.98,21.972M68.668,218.925c-.479.681-.957,1.362-1.423,2.052a80.211,80.211,0,0,0-5.973,10.171c-.549,1.138-1.184,2.346-1.835,3.6.135-4.489.151-8.981-.02-13.477,3.112-.662,6.2-1.453,9.252-2.343m-8.714-6.683a22.086,22.086,0,0,1,.53-3.065c.394-1.351.88-2.671,1.355-4q2.365-.155,4.729-.435a42.9,42.9,0,0,0-1.337,4.99c-.071.353-.158.73-.241,1.117q-2.5.746-5.036,1.389m8.329-2.421c0-.031.007-.064.012-.095a43.126,43.126,0,0,1,1.223-5.368,157.566,157.566,0,0,0,23.7-5.625q2.472-.767,4.925-1.6c-2.238,1.155-4.492,2.279-6.776,3.339a209.474,209.474,0,0,1-23.08,9.346M210.212,103.317a30.178,30.178,0,0,0-2.474,9.124,31.049,31.049,0,0,0-.416,4.063q-1.9-.715-3.809-1.435c-.5-1.687.107-4.113.334-5.576s.619-2.938.812-4.422c1.846-.6,3.7-1.191,5.554-1.754m-7.67,2.448c-.669,2.363-1.786,5.717-1.795,8.239-.344-.134-.691-.262-1.035-.4-.562-.222-1.128-.441-1.692-.66a12.96,12.96,0,0,1-.559-5.462c1.7-.581,3.391-1.163,5.081-1.72m-6.975,6.219c-1.754-.692-3.5-1.4-5.214-2.179,1.846-.551,3.68-1.158,5.508-1.778a15.465,15.465,0,0,0-.294,3.957" transform="translate(0 0)" fill="#dee4e8"/>
    </g>
  </g>
</svg>
