<svg xmlns="http://www.w3.org/2000/svg" width="71.756" height="22.777" viewBox="0 0 71.756 22.777">
  <g id="logo_krave-01" transform="translate(0.003 -0.095)">
    <path id="Path_11370" data-name="Path 11370" d="M122.308,62.748c-.543,0-1.61-.215-1.61-.9a.359.359,0,0,1,.381-.384c.225,0,.443.215.643.312a1.694,1.694,0,0,0,.674.162c.384,0,.792-.156.792-.643s-.518-.533-.936-.593c-.936-.122-1.5-.549-1.5-1.341,0-1.008.849-1.313,1.675-1.313.549,0,1.56.19,1.56.87a.374.374,0,0,1-.387.4c-.256,0-.4-.221-.6-.337a1.279,1.279,0,0,0-.658-.162c-.371,0-.774.162-.774.624,0,.518.624.53.992.6.836.15,1.444.415,1.444,1.248C124,62.258,123.259,62.748,122.308,62.748Z" transform="translate(-83.047 -39.875)" fill="#FFF"/>
    <path id="Path_11371" data-name="Path 11371" d="M141.4,59.221h-.936a.43.43,0,0,1,0-.861h2.68a.43.43,0,0,1,0,.861H142.2v3.238a.4.4,0,0,1-.421.424.393.393,0,0,1-.409-.424Z" transform="translate(-96.349 -40.089)" fill="#FFF"/>
    <path id="Path_11372" data-name="Path 11372" d="M163.072,58.606a.415.415,0,1,1,.827,0V61c0,1.16-.571,1.819-1.713,1.819A1.608,1.608,0,0,1,160.439,61v-2.4a.4.4,0,0,1,.418-.418.4.4,0,0,1,.412.418v2.421c0,.643.312.936.908.936s.9-.29.9-.936Z" transform="translate(-110.391 -39.947)" fill="#FFF"/>
    <path id="Path_11373" data-name="Path 11373" d="M181.43,59.069c0-.783.555-1.039,1.725-1.039a2.089,2.089,0,0,1,2.184,2.312,2.151,2.151,0,0,1-2.184,2.393c-.842,0-1.725-.159-1.725-1Zm.83,2.34c0,.312.218.455.852.455a1.361,1.361,0,0,0,1.373-1.522,1.3,1.3,0,0,0-1.36-1.46c-.689,0-.864.119-.864.48Z" transform="translate(-124.834 -39.861)" fill="#FFF"/>
    <path id="Path_11374" data-name="Path 11374" d="M203.79,58.692a.412.412,0,0,1,.824,0V62.4a.412.412,0,1,1-.824,0Z" transform="translate(-140.218 -40.034)" fill="#FFF"/>
    <path id="Path_11375" data-name="Path 11375" d="M216.29,60.342a2.126,2.126,0,1,1,4.236,0,2.134,2.134,0,1,1-4.236,0Zm3.432,0a1.33,1.33,0,1,0-2.645,0,1.339,1.339,0,1,0,2.658,0Z" transform="translate(-148.819 -39.861)" fill="#FFF"/>
    <path id="Path_11376" data-name="Path 11376" d="M12.03,5.235a2.923,2.923,0,0,0,.892-2.761A3.138,3.138,0,0,0,10.193.1,2.9,2.9,0,0,0,7.95.977c-.624.624-1.27,1.267-1.906,1.9-.047.05-.1.094-.172.162V2.811A2.761,2.761,0,0,0,4.237.378,3.151,3.151,0,0,0,2.494.144a2.736,2.736,0,0,0-1.763.9A2.833,2.833,0,0,0,0,3.017V6.1a.293.293,0,0,0,.293.29H10.873Q11.45,5.812,12.03,5.235Z" fill="#FFF"/>
    <path id="Path_11377" data-name="Path 11377" d="M0,29.827a2.808,2.808,0,0,0,2.892,2.854,2.851,2.851,0,0,0,2.352-1.045,2.914,2.914,0,0,0,.624-1.872l.175.165c.624.624,1.232,1.226,1.847,1.844a3,3,0,0,0,1.435.849,2.894,2.894,0,0,0,2.892-.936,2.854,2.854,0,0,0-.019-3.915c-.387-.412-.789-.808-1.192-1.207a.624.624,0,0,0-.446-.184H.292A.293.293,0,0,0,0,26.67C0,27.715,0,28.773,0,29.827Z" transform="translate(-0.001 -18.085)" fill="#FFF"/>
    <path id="Path_11378" data-name="Path 11378" d="M47.306,29.762a3.232,3.232,0,0,0,.044.562,2.714,2.714,0,0,0,.864,1.638,2.982,2.982,0,0,0,2.736.646,2.546,2.546,0,0,0,2.056-1.872,11.763,11.763,0,0,0,.215-1.388c0,.016.041.056.066.1.337.58.674,1.164,1,1.747a2.736,2.736,0,0,0,1.1,1.139,3.088,3.088,0,0,0,1.407.349A2.767,2.767,0,0,0,59.229,31.6a2.967,2.967,0,0,0,.312-3.07,14.2,14.2,0,0,0-.864-1.56.228.228,0,0,1,.034-.312c.072-.084.137-.175.2-.265h-11.3a.312.312,0,0,0-.312.312Z" transform="translate(-32.547 -18.092)" fill="#FFF"/>
    <path id="Path_11379" data-name="Path 11379" d="M59.748,5.237a4.614,4.614,0,0,0-4.461-3.846c-1.75-.075-3.5-.028-5.256,0a2.62,2.62,0,0,0-1.759.693A2.839,2.839,0,0,0,47.336,4.3V6.95a.312.312,0,0,0,.312.312H59.764A5.3,5.3,0,0,0,59.748,5.237Z" transform="translate(-32.57 -0.863)" fill="#FFF"/>
    <path id="Path_11380" data-name="Path 11380" d="M200.313,7.161a2.686,2.686,0,0,0,2.025-2.349,2.982,2.982,0,0,0-.39-2.075,2.748,2.748,0,0,0-2.377-1.326c-.624-.019-1.279,0-1.919,0h-4.91a2.823,2.823,0,0,0-1.872.661,2.929,2.929,0,0,0-1.011,2.39V7.3h9.711a5.047,5.047,0,0,0,.742-.134Z" transform="translate(-130.63 -0.9)" fill="#FFF"/>
    <path id="Path_11381" data-name="Path 11381" d="M202.341,29a2.73,2.73,0,0,0-1.872-2.424,9.608,9.608,0,0,0-1.042-.218h-9.59v2.861a3.637,3.637,0,0,0,.119,1.008,2.767,2.767,0,0,0,2.739,2.05h6.8a2.78,2.78,0,0,0,2.277-1.07A3.032,3.032,0,0,0,202.341,29Z" transform="translate(-130.618 -18.071)" fill="#FFF"/>
    <path id="Path_11382" data-name="Path 11382" d="M107.891,5.94c-.817-1.419-1.641-2.833-2.446-4.255A2.956,2.956,0,0,0,101.8.319a2.808,2.808,0,0,0-1.6,1.4L97.49,6.43h10.681Z" transform="translate(-67.079 -0.038)" fill="#FFF"/>
    <path id="Path_11383" data-name="Path 11383" d="M89.9,27.969a3.432,3.432,0,0,0-.524,2.134,2.73,2.73,0,0,0,1.463,2.252,3.051,3.051,0,0,0,1.778.312,2.455,2.455,0,0,0,1.834-.88,15.637,15.637,0,0,0,.936-1.491c.059-.094.106-.153.234-.153h3.219a.278.278,0,0,1,.2.115c.184.293.362.593.527.9a2.823,2.823,0,0,0,2.617,1.535,5.987,5.987,0,0,0,.668-.075,2.6,2.6,0,0,0,1.759-1.142,3.1,3.1,0,0,0,.062-3.325c-.331-.586-.671-1.167-1-1.747H90.808C90.5,26.9,90.2,27.442,89.9,27.969Z" transform="translate(-61.486 -18.099)" fill="#FFF"/>
    <path id="Path_11384" data-name="Path 11384" d="M151.4,4.857a3.456,3.456,0,0,0,.521-2.1A2.736,2.736,0,0,0,150.776.68a2.976,2.976,0,0,0-2.059-.518A2.561,2.561,0,0,0,146.6,1.339c-.624,1-1.189,2.025-1.778,3.042l-.777,1.351c-.065-.112-.112-.184-.156-.262q-1.1-1.912-2.184-3.831A2.808,2.808,0,0,0,140.769.59a3.191,3.191,0,0,0-2.5-.343,2.5,2.5,0,0,0-1.594,1.114,3.1,3.1,0,0,0-.05,3.338c.312.577.658,1.145.986,1.716h12.9C150.8,5.9,151.088,5.375,151.4,4.857Z" transform="translate(-93.69 -0.025)" fill="#FFF"/>
    <path id="Path_11385" data-name="Path 11385" d="M144.23,26.353c.961,1.65,1.894,3.322,2.873,4.963a2.926,2.926,0,0,0,3.416,1.214,2.808,2.808,0,0,0,1.694-1.407l2.745-4.773H144.23Z" transform="translate(-99.239 -18.064)" fill="#FFF"/>
  </g>
</svg>
