<svg xmlns="http://www.w3.org/2000/svg" xmlns:xlink="http://www.w3.org/1999/xlink" width="66" height="80.544" viewBox="0 0 66 80.544">
  <defs>
    <clipPath id="clip-path">
      <rect id="Rectangle_1380" data-name="Rectangle 1380" width="55.876" height="58.428" fill="#005fa6" stroke="#005fa6" stroke-width="0.2"/>
    </clipPath>
  </defs>
  <g id="Group_3320" data-name="Group 3320" transform="translate(-156 -1144.456)">
    <circle id="Ellipse_10" data-name="Ellipse 10" cx="33" cy="33" r="33" transform="translate(156 1159)" fill="#f4f7f8"/>
  </g>
  <g id="Group_3325" data-name="Group 3325" transform="translate(4.807)">
    <g id="Group_3324" data-name="Group 3324" clip-path="url(#clip-path)">
      <path id="Path_11544" data-name="Path 11544" d="M25.377,40.1s0,0,0-.006h0a.076.076,0,0,0-.146,0c-.153.432-.624.744-.63,1.227h0a.155.155,0,0,0,.31,0,.611.611,0,0,1,.013-.076.071.071,0,0,0,.007-.027c.1-.385.537-.679.449-1.107a.065.065,0,0,0,0-.01M11.47,42.459a14.335,14.335,0,0,0-1.3,2.352,4.18,4.18,0,0,0-.546,2.464.106.106,0,0,0,.192.025,4.93,4.93,0,0,0,.267-1.111,9,9,0,0,1,.376-1.2A13.2,13.2,0,0,1,11.718,42.6c.1-.156-.146-.3-.248-.145m-.15,5.46a15.937,15.937,0,0,0-1.12,3.02,5.349,5.349,0,0,0-.363,2.4.231.231,0,0,0,.338.137.489.489,0,0,0,.2-.249.119.119,0,0,0-.042-.161.534.534,0,0,0-.052-.02,8.2,8.2,0,0,1,.374-2.077,14.124,14.124,0,0,1,.989-2.859c.114-.217-.212-.409-.329-.192M8.312,21.154a5.292,5.292,0,0,0-.98,1.823c-.166.512-.486,1.435-.221,1.954a.112.112,0,0,0,.192,0,1.707,1.707,0,0,0,.132-.682,7.217,7.217,0,0,1,.183-1.017,4.863,4.863,0,0,1,.9-1.875c.115-.141-.082-.345-.2-.2M36.655,47.7A11.081,11.081,0,0,0,35.6,49.645c-.2.485-.539,1.208-.31,1.721.042.093.163.064.211,0a1.755,1.755,0,0,0,.228-.7,7.448,7.448,0,0,1,.307-.968,10.335,10.335,0,0,1,.948-1.807c.132-.2-.192-.391-.326-.19m-.442-.906c.138-.2-.186-.385-.326-.19a8.039,8.039,0,0,0-.909,1.651c-.17.421-.5,1.142-.24,1.577a.124.124,0,0,0,.211,0,1.51,1.51,0,0,0,.168-.6,5.329,5.329,0,0,1,.259-.869,7.89,7.89,0,0,1,.837-1.57M9.82,50.48a.125.125,0,0,0,.01-.08c.041-.129.139-.286.174-.4.071-.226.123-.46.174-.691.094-.423.162-.855.276-1.274.274-1.005.754-1.951,1.082-2.939.068-.206-.251-.29-.322-.089-.366,1.032-.917,2.018-1.2,3.078-.12.454-.2.916-.316,1.371-.074.3-.343.768-.258,1.068.048.169.328.19.364,0l.014-.046m.292-22.142c-.326.823-1.034,1.919-.863,2.829a.158.158,0,0,0,.286.037,10.382,10.382,0,0,0,.38-1.348c.157-.483.352-.952.528-1.428.077-.209-.251-.293-.33-.091M9.483,45.431A8.745,8.745,0,0,0,9.874,44.2a14.982,14.982,0,0,1,.591-1.482,22.872,22.872,0,0,0,1.062-2.561c.061-.2-.241-.276-.306-.084-.337,1-.843,1.916-1.276,2.871a4.447,4.447,0,0,0-.639,2.461.1.1,0,0,0,.176.023M54.266,1.308C52.351-.264,49.8-.139,47.488.255a32.4,32.4,0,0,0-7.272,2.187,18.951,18.951,0,0,0-6.968,4.606.243.243,0,0,0,.239.4.267.267,0,0,0,.218.054,19.056,19.056,0,0,0,2.829-1.082c.94-.374,1.891-.719,2.847-1.05a24.022,24.022,0,0,1,5.784-1.446A5.585,5.585,0,0,1,50,5.58a3.18,3.18,0,0,1,.91,2.328A3.915,3.915,0,0,1,50.57,9.1a3.881,3.881,0,0,1-.565,1.07.634.634,0,0,0,.9.9,2.2,2.2,0,0,0,.179-.2,8.888,8.888,0,0,0,4.252-3.928,4.5,4.5,0,0,0-1.067-5.625M42.1,3.4c-1.05.276-2.084.623-3.093,1-.356.133-.71.274-1.062.419.457-.249.921-.487,1.4-.708a29.51,29.51,0,0,1,2.823-1.136A.955.955,0,0,0,42.1,3.4m.427-.108,0-.025a3.811,3.811,0,0,1,.12-.457q.449-.147.9-.283a.519.519,0,0,0,.08.51.121.121,0,0,0,.02.013q-.565.1-1.124.242m1.733-.344c-.141.021-.282.045-.423.07.15-.159.12-.414.169-.624q.457-.13.918-.248a.591.591,0,0,0,.167.667.265.265,0,0,0,.05.031c-.294.024-.588.06-.881.1m1.821-.14c-.252,0-.506.006-.76.023.085-.059.072-.142.051-.235a.913.913,0,0,1-.013-.5c.006-.021.013-.042.019-.064l.144-.036q.387-.094.775-.182a1.49,1.49,0,0,0-.215,1m1.371.132a7.335,7.335,0,0,0-.943-.117,1.884,1.884,0,0,1,.254-1.113c.408-.085.817-.159,1.23-.217a5.01,5.01,0,0,0-.368.844,3.513,3.513,0,0,0-.173.6m.4.089a3,3,0,0,1,.182-.734,2.989,2.989,0,0,1,.379-.855c.177-.02.354-.037.532-.049.221-.015.446-.028.674-.035A5.826,5.826,0,0,0,48.9,3.4a6.067,6.067,0,0,0-1.04-.371m2.09.989a6.47,6.47,0,0,0-.629-.4c.091-.329.1-.69.2-1.019.131-.423.3-.832.458-1.246a7.409,7.409,0,0,1,1.241.093,14.967,14.967,0,0,0-.874,1.675,6.986,6.986,0,0,0-.4.9m1.019.921a6.192,6.192,0,0,0-.585-.578c.153-.375.244-.8.393-1.168a12.358,12.358,0,0,1,.805-1.677,4.179,4.179,0,0,1,.623.2c.12.05.236.107.351.169a.187.187,0,0,0-.218.08A13,13,0,0,0,51.281,3.73a2.479,2.479,0,0,0-.315,1.206m3.323.691a6.385,6.385,0,0,1-2.18,2.814,3.565,3.565,0,0,0-.088-1.695,4.4,4.4,0,0,0-.229-.578c.007.011.012.024.02.035a.167.167,0,0,0,.256.033c.189-.148.192-.373.256-.593a6.9,6.9,0,0,1,.339-.915,7.568,7.568,0,0,1,.984-1.63c.177-.219-.126-.535-.315-.315a8.062,8.062,0,0,0-1.146,1.762c-.176.365-.6,1.11-.43,1.548a5.143,5.143,0,0,0-.509-.819.16.16,0,0,0,.075-.062,1.71,1.71,0,0,0,.174-.619,4.517,4.517,0,0,1,.34-.963,16.329,16.329,0,0,1,.833-1.471.173.173,0,0,0-.033-.23,3.7,3.7,0,0,1,1.523,1.608A6.508,6.508,0,0,0,53.357,5c-.19.381-.364.761-.577,1.133a2.6,2.6,0,0,0-.4.97c-.013.108.131.141.2.082A5.318,5.318,0,0,0,53.7,5.36a10.233,10.233,0,0,1,.618-1.393,2.748,2.748,0,0,1-.031,1.661m-5.264,9.4a7.557,7.557,0,0,0-2.789-2.735,11.325,11.325,0,0,0-3.846-1.315,6.139,6.139,0,0,0-3.723.244c-.107-.276-.22-.55-.344-.817-.171-.372-.41-.836-.842-.935-.664-.152-.969.54-1.11,1.056-.129.474-.253.954-.37,1.437a2.5,2.5,0,0,0-1.026.136c-.661.117-1.309.3-1.974.418-1.34.234-2.674.51-4.015.73-.193.032-.387.06-.581.087a10.2,10.2,0,0,1-2.749-.1,23,23,0,0,1-4.261-1.352c-2.516-1.014-5.16-2.219-7.939-1.825A9.577,9.577,0,0,0,7.35,13.835a11.415,11.415,0,0,0-2.277,7.99c.3,3.473,1.971,6.608,2.706,9.986a5.282,5.282,0,0,1-3.159-1.3c-1.093-1.113-.5-2.721.326-3.8.168-.221-.107-.505-.34-.447a.242.242,0,0,0-.16.039l-.077.046a1.6,1.6,0,0,0-.251.145,7.621,7.621,0,0,0-.841.513,11.223,11.223,0,0,0-1.146.95A7.745,7.745,0,0,0,.361,30.462a3.737,3.737,0,0,0,1.4,4.854,9.262,9.262,0,0,0,5.207.842c.423-.027.844-.07,1.264-.127.124,4.091-.622,8.142-.547,12.234.052,2.824.463,6.173,2.49,8.319a5.9,5.9,0,0,0,4.169,1.837,5.838,5.838,0,0,0,4.213-1.965c2.478-2.707,2.66-6.709,4.089-9.941a13.677,13.677,0,0,1,3.222-4.646A9.376,9.376,0,0,1,28.1,40.356l.047-.021,0,.007a31.459,31.459,0,0,1,2.55,3.369,19.426,19.426,0,0,1,1.92,3.93c.929,2.567,1.711,5.315,3.317,7.564a6.9,6.9,0,0,0,5.7,3.221,6.156,6.156,0,0,0,5.087-3.881c1.189-2.6.994-5.507.911-8.3a56.145,56.145,0,0,1,.525-9.286c.414-3.051.778-6.1,1.14-9.16.182-1.541.338-3.086.519-4.627a26.116,26.116,0,0,0,.256-3.882,9.275,9.275,0,0,0-1.052-4.262m-10.511-.014c.022.126.006.043.007.048a1.062,1.062,0,0,0,.061.3.459.459,0,0,0,.107.177.536.536,0,0,0,.093.093.6.6,0,0,0,.472.268l.029.012c.079.031.173.043.255.067.261.075.518.167.773.259l.25.093c-.028.064-.061.126-.09.187a4.507,4.507,0,0,0-.2.8c-.1.36-.29.689-.389,1.048a3.346,3.346,0,0,1-.246.839.16.16,0,0,0-.018.054.52.52,0,0,0-.47-.032,11.75,11.75,0,0,0,.685-2.789c.017-.212-.3-.2-.326,0a24.522,24.522,0,0,1-1.109,3.6c-.126.44-.223.892-.321,1.342-.107.334-.21.668-.313,1-.2.657-.389,1.324-.592,1.985l-.019-.063c.056-.314.063-.652.137-.945.2-.792.424-1.577.617-2.371.4-1.648.756-3.3,1.107-4.963a.116.116,0,0,0-.223-.061c-.492,1.546-.847,3.132-1.251,4.7-.187.728-.383,1.453-.581,2.178-.035.127-.074.256-.111.385-.116-.432-.227-.866-.337-1.3.092-.4.179-.8.27-1.2.177-.783.417-1.554.652-2.322.35-1.143.713-2.281,1.077-3.419,0,.01,0,.02.006.031m4.154,2.173c.569.25,1.135.509,1.691.788l.11.056c-.69.15-1.378.311-2.065.475a2.8,2.8,0,0,1,.078-.269,2.854,2.854,0,0,0,.227-.926.174.174,0,0,0-.041-.122m-.336.122a3.229,3.229,0,0,1-.31.96,2.158,2.158,0,0,0-.118.35c-.18.04-.366.08-.556.124a6.922,6.922,0,0,1,.227-.71,8.166,8.166,0,0,1,.405-1.142l.36.152.192.084a.191.191,0,0,0-.2.181m-1.227.784c-.1.239-.292.51-.207.762a6.443,6.443,0,0,0-.768.252c.019-.058.035-.119.05-.182.112-.468.27-.886.418-1.344.111-.344.107-.7.236-1.029q.021-.053.039-.106c.258.1.514.2.77.306-.183.448-.357.9-.538,1.341M37.98,12.965q.1.333.195.666c.064.226.127.453.185.682-.473,1.363-.943,2.726-1.374,4.1-.238.76-.486,1.524-.658,2.3-.02.092-.042.184-.063.276-.038-.137-.074-.275-.114-.412a4.035,4.035,0,0,0-.142-.444c.041-.251.1-.495.166-.743.05-.2.1-.4.155-.594.219-.779.459-1.552.683-2.329.247-.857.493-1.716.72-2.579.078-.3.178-.612.248-.928m-2.075,2.681a12.887,12.887,0,0,0,1.3-3.737c.065-.221.129-.441.19-.663.136.342.258.69.374,1.041a.163.163,0,0,0,0,.03,7.014,7.014,0,0,1-.4,1.635c-.262.883-.547,1.758-.824,2.636-.23.73-.462,1.461-.676,2.2-.083.286-.173.588-.245.9a2.7,2.7,0,0,0-.4-.187,1.521,1.521,0,0,1-.007-.2c.014-.232.057-.466.089-.7a14.731,14.731,0,0,0,.256-2.058.159.159,0,0,0-.317,0c-.049.822-.317,1.616-.446,2.427-.014.09-.037.213-.049.342q-.345-.138-.692-.27a3.937,3.937,0,0,1,.391-2.416.178.178,0,0,0,.02-.045l.083-.024a9.82,9.82,0,0,1,1.071-.3.389.389,0,0,0,.294-.611M34.881,20.6c-.06-.058-.019-.119,0,0M1.606,33.445l0,.015a2.35,2.35,0,0,1-.327-1.839A6.3,6.3,0,0,1,2.64,28.908q.159-.2.324-.394a3.481,3.481,0,0,0-.08.885,2.98,2.98,0,0,0,.1.612A18.769,18.769,0,0,0,1.92,32.1c-.137.437-.2.9-.314,1.341m.869.757a2.837,2.837,0,0,1-.525-.359l.032-.118c.129-.471.207-.956.319-1.431a6.991,6.991,0,0,1,.6-1.37c.081-.17.152-.343.216-.518a3.246,3.246,0,0,0,.437.735,7.651,7.651,0,0,0-.646,1.336A5.426,5.426,0,0,0,2.475,34.2m.993.377a5.191,5.191,0,0,1-.526-.166c.032-.175.04-.353.069-.537a8.1,8.1,0,0,1,.27-1.111A10.53,10.53,0,0,1,3.8,31.424a4.26,4.26,0,0,0,.6.511,7.974,7.974,0,0,0-.664,1.534,5.978,5.978,0,0,0-.267,1.11m.54.116a10.876,10.876,0,0,1,.177-1.1,9.746,9.746,0,0,1,.526-1.455c.11.066.221.129.336.187.16.081.323.154.487.223a5.773,5.773,0,0,0-.7,2.251c-.281-.022-.558-.056-.828-.1m2.158.135c-.252.007-.509.007-.767,0a5.532,5.532,0,0,1,.482-2.145,8.205,8.205,0,0,0,.865.261,8.314,8.314,0,0,0-.424,1.068,2.542,2.542,0,0,0-.156.818m.521-.023a1.865,1.865,0,0,1,.039-.508,7.254,7.254,0,0,1,.413-1.267,9.782,9.782,0,0,0,1.13.151.223.223,0,0,0-.024.038A6.246,6.246,0,0,0,7.7,34.714c-.31.038-.651.071-1.009.093m1.44-.153,0-.027a4.825,4.825,0,0,1,.451-1.209.2.2,0,0,0-.026-.216c.33.017.663.019,1,.008a3.153,3.153,0,0,0-.389,1.248q-.4.088-.8.159l-.234.038m20.976,5.3.028-.009c0,.013,0,.026,0,.038l-.029-.03M48.5,22.485c-.154,1.348-.3,2.7-.453,4.045-.337,2.9-.638,5.8-1.05,8.682a62.977,62.977,0,0,0-.815,8.593c-.006,1.453.079,2.9.106,4.355a16.624,16.624,0,0,1-.226,4.13c-.456,1.89-1.555,4-3.5,4.685a1.385,1.385,0,0,0,.085-.407c.012-.3-.46-.3-.471,0a3.682,3.682,0,0,1-.164.555,3.769,3.769,0,0,1-.854.065.19.19,0,0,0,.034-.078,1.536,1.536,0,0,1,.5-.827.219.219,0,0,0-.309-.309,1.664,1.664,0,0,0-.6,1.08.189.189,0,0,0,.029.106,4.253,4.253,0,0,1-.786-.181.179.179,0,0,0,.016-.15c-.057-.15.207-.538.269-.639.2-.325.424-.632.649-.938.166-.227-.208-.435-.374-.218s-1.063,1.231-1.02,1.767a5.629,5.629,0,0,1-.962-.556.3.3,0,0,0,.094-.023c.143-.063.141-.123.214-.246a.133.133,0,0,0-.078-.192l-.007,0a4.864,4.864,0,0,1,.92-1.851c.139-.23-.216-.435-.359-.21-.443.7-1.157,1.446-1.036,2.335a6.976,6.976,0,0,1-.721-.658.3.3,0,0,0,.131-.045.12.12,0,0,0,.042-.161c-.224-.366.054-.956.207-1.33a9.238,9.238,0,0,1,.745-1.469c.141-.222-.208-.422-.351-.205A9.414,9.414,0,0,0,37.383,54.2a2.015,2.015,0,0,0-.16.749q-.061-.075-.119-.151c-.156-.2-.3-.412-.443-.625a.1.1,0,0,0,.034-.026,1.341,1.341,0,0,0,.237-.6,6.724,6.724,0,0,1,.363-1.034,14.3,14.3,0,0,1,.9-1.658c.13-.213-.2-.4-.333-.195a14.924,14.924,0,0,0-1.052,1.88,3.261,3.261,0,0,0-.4,1.235q-.2-.333-.388-.678a.129.129,0,0,0,.062-.064,6.123,6.123,0,0,0,.237-.926,7.2,7.2,0,0,1,.392-1.06c.282-.627.621-1.227.9-1.853.085-.188-.19-.355-.281-.164-.336.7-.75,1.362-1.079,2.066a4.508,4.508,0,0,0-.5,1.483,40.083,40.083,0,0,1-1.716-4.42c.014-.066.029-.133.048-.2a5.832,5.832,0,0,1,.406-1.035A11.831,11.831,0,0,1,35.54,45.25c.131-.18-.165-.345-.3-.173a11.773,11.773,0,0,0-1.22,1.886c-.069.14-.156.307-.237.485q-.088-.245-.179-.489c-.051-.136-.1-.27-.158-.4,0-.023.009-.046.014-.069a5.453,5.453,0,0,1,.319-.938,13.74,13.74,0,0,1,.857-1.626c.1-.162-.15-.3-.251-.147a12.539,12.539,0,0,0-1.04,1.85c-.045.1-.1.22-.147.344q-.239-.535-.512-1.051a6.648,6.648,0,0,1,.424-1.015c.337-.665.739-1.3,1.089-1.954a.148.148,0,0,0-.255-.149c-.449.774-.976,1.506-1.369,2.313-.043.089-.1.2-.154.322q-.152-.267-.313-.529c.047-.138.084-.283.134-.429q.232-.682.52-1.342c.349-.8.729-1.591,1.1-2.383.073-.157-.152-.3-.237-.138-.444.827-.9,1.647-1.286,2.5-.16.354-.41.809-.566,1.26-.082-.125-.164-.251-.249-.375s-.174-.254-.263-.381c.111-.332.158-.682.283-1.013a10.25,10.25,0,0,1,.56-1.226c.412-.769.812-1.56,1.245-2.317.034-.059-.05-.1-.089-.052a19.184,19.184,0,0,0-1.59,2.463,5.545,5.545,0,0,0-.715,1.715A18.9,18.9,0,0,0,29.342,40.2l.018,0a.086.086,0,0,0,.086-.086c.005.055.03-.042.041-.089.017-.068.021-.139.033-.208.375-.115.754-.218,1.132-.321a4.536,4.536,0,0,0-.507,1.36.1.1,0,0,0,.142.109c.488-.279.555-.937.782-1.408.033-.068.068-.136.1-.2l.035-.01a.36.36,0,0,0,.213-.474c.194-.367.4-.732.6-1.091a.154.154,0,0,0-.266-.156c-.215.348-.425.7-.632,1.055h0c-.4.048-.8.086-1.2.14a10.842,10.842,0,0,1,.565-1.042c.1-.166-.151-.309-.259-.151a12.58,12.58,0,0,0-.734,1.259,6.513,6.513,0,0,0-.764.18c.158-.333.354-.647.539-.966a.137.137,0,0,0-.237-.138,11.57,11.57,0,0,0-.7,1.158l-.051.1q-.436.17-.854.38a2.728,2.728,0,0,1,.132-.29,2.2,2.2,0,0,1,.572-.83.144.144,0,0,0-.145-.248,2.4,2.4,0,0,0-.705.874,1.867,1.867,0,0,0-.293.731q-.287.164-.563.348c-.121.081-.239.167-.356.253.088-.158.162-.328.236-.459a8.864,8.864,0,0,0,.518-1.052c.037-.091-.1-.141-.153-.064-.23.362-.495.7-.736,1.056-.175.257-.443.552-.38.876a.075.075,0,0,0,.015.031A13.163,13.163,0,0,0,23.2,43.408a18.731,18.731,0,0,0-2.244,4.473c-.6,1.649-1.045,3.359-1.745,4.97a7.045,7.045,0,0,1-2.974,3.7,4.171,4.171,0,0,1-.642.269c.021-.3.046-.607.046-.911a.21.21,0,0,0-.42,0c-.01.34-.054.675-.094,1.012l0,.023a4.027,4.027,0,0,1-1.673-.03c.02-.522.17-1.03.179-1.553a.174.174,0,0,0-.347,0c-.022.478-.174.959-.24,1.442a4.687,4.687,0,0,1-.57-.232.117.117,0,0,0-.145-.117l-.02,0c-.207-1.018.427-2.046.45-3.07.005-.233-.348-.23-.36,0-.046.916-.635,1.842-.632,2.767a4.435,4.435,0,0,1-.574-.492.412.412,0,0,0,.184-.27.119.119,0,0,0-.142-.145c.012-.089-.013-.231-.008-.3.013-.229.044-.458.063-.687a6.759,6.759,0,0,1,.562-2.865.174.174,0,0,0-.3-.175,8.426,8.426,0,0,0-.755,3.469c-.013.119-.044.289-.051.456C9.556,53.54,9.232,51.21,9.1,49.331a42.907,42.907,0,0,1,.17-6.364.123.123,0,0,0,.11-.051A7.518,7.518,0,0,0,9.933,41.4a15.305,15.305,0,0,1,.815-1.759c.566-1.067,1.188-2.1,1.742-3.177.087-.168-.163-.317-.255-.149-.626,1.143-1.348,2.231-1.959,3.382a15.325,15.325,0,0,0-.742,1.593c-.049.125-.1.257-.153.392.07-.857.137-1.714.184-2.572.02-.053.04-.106.061-.158.239-.575.528-1.127.787-1.693a13.02,13.02,0,0,1,.979-1.589c.086-.134.2-.281.3-.438.753-.242,1.493-.522,2.218-.834a37.038,37.038,0,0,0,3.857-1.923c1.162-.672,2.7-1.469,3.349-2.7a.362.362,0,0,0-.244-.53.394.394,0,0,0-.142-.081c-.9-.275-2.045.328-2.879.633q-1.5.551-3.033,1.033a22.193,22.193,0,0,1-4.4.992c.063-.238.088-.5.16-.722.125-.382.287-.75.414-1.131.073-.219-.266-.307-.343-.095-.155.426-.358.832-.51,1.258a2.035,2.035,0,0,0-.171.728c-.258.018-.517.029-.776.03,0-.023-.005-.046-.01-.069-.115-.6-.262-1.184-.427-1.767a.157.157,0,0,0,.074-.067.657.657,0,0,0,.032-.215,6.44,6.44,0,0,1,.192-.672c.2-.7.393-1.4.622-2.094.072-.219-.267-.308-.343-.095-.254.714-.483,1.438-.731,2.151-.021.062-.05.133-.078.208q-.144-.468-.3-.934c.017-.112.028-.227.048-.339.057-.308.127-.615.206-.919A8.856,8.856,0,0,1,9.2,25.17c.091-.173-.168-.326-.263-.154a10.314,10.314,0,0,0-.809,1.964c-.047.153-.11.333-.169.525l-.08-.243c-.033-.1-.068-.2-.1-.306a.113.113,0,0,0,.073-.052,2.43,2.43,0,0,0,.2-.821,7.585,7.585,0,0,1,.271-.952A13.421,13.421,0,0,0,8.9,23.272c.038-.2-.265-.289-.31-.085a15.535,15.535,0,0,1-.7,2.012,4.535,4.535,0,0,0-.321,1.126,26.024,26.024,0,0,1-.936-3.074c.2-.618.4-1.241.606-1.86a5.61,5.61,0,0,1,.958-2.111c.13-.145-.079-.358-.215-.215a5.534,5.534,0,0,0-1.056,2.084c-.133.378-.324.769-.458,1.168a11.523,11.523,0,0,1-.1-1.619c.17-.467.343-.943.534-1.4.386-.928.906-1.8,1.3-2.727.049-.116-.148-.2-.2-.086-.469.963-1.109,1.862-1.5,2.86l-.046.117a10.274,10.274,0,0,1,.392-1.823c.046-.09.092-.181.14-.27a14,14,0,0,0,1.4-2.674.065.065,0,0,0,0-.04,8.318,8.318,0,0,1,5.277-3.318c2.608-.381,5.213.924,7.591,1.81a19.291,19.291,0,0,0,4.688,1.242,10.4,10.4,0,0,0,1.66.037c.325-.012.652-.035.983-.069,1.358-.139,2.7-.4,4.045-.613.742-.118,1.46-.292,2.193-.449.252-.054.612-.083.925-.18-.169.779-.316,1.561-.438,2.338a3.294,3.294,0,0,0-.811.119c-.584.14-1.16.314-1.734.487a32.494,32.494,0,0,1-3.313.962.524.524,0,0,0-.385.505c.074.744,1.07,1.11,1.646,1.4,1.019.5,2.094.895,3.15,1.315.351.14.678.268,1.01.424l.039.018c.014.045.032.09.044.133.287,1,.49,2.016.758,3.017q.024.089.047.182c.007.047.014.095.024.141a.153.153,0,0,0,.025.057,4.33,4.33,0,0,0,1.135,2.421c.36.275.8-.046.934-.38.422-1.068.711-2.2,1.046-3.293.187-.614.375-1.227.579-1.836.074-.22.149-.439.232-.656.018-.047.189-.337.062-.187a.646.646,0,0,0,.117-.2,24.011,24.011,0,0,0,2.691-.528c1.153-.257,2.308-.512,3.472-.718a.558.558,0,0,0,.332-.816,3.644,3.644,0,0,0-1.3-.93c-.744-.4-1.516-.742-2.29-1.074s-1.537-.647-2.321-.928c-.239-.085-.5-.19-.759-.255a7.456,7.456,0,0,0-.313-1.308c-.155-.537-.317-1.078-.5-1.612a7.107,7.107,0,0,1,3.328.2,11.642,11.642,0,0,1,3.041,1.162,6.643,6.643,0,0,1,3.377,5.661,20.528,20.528,0,0,1-.159,3.554m-37.4,12.925c-.077.11-.155.22-.23.332a12.974,12.974,0,0,0-.966,1.645c-.089.184-.191.379-.3.582.022-.726.024-1.453,0-2.18.5-.107,1-.235,1.5-.379M9.7,34.33a3.572,3.572,0,0,1,.086-.5c.064-.218.142-.432.219-.646q.382-.025.765-.07a6.938,6.938,0,0,0-.216.807c-.012.057-.026.118-.039.181q-.4.121-.815.225m1.347-.392c0-.005,0-.01,0-.015a6.975,6.975,0,0,1,.2-.868,25.486,25.486,0,0,0,3.833-.91q.4-.124.8-.258c-.362.187-.727.369-1.1.54a33.882,33.882,0,0,1-3.733,1.512M34,16.711a4.881,4.881,0,0,0-.4,1.476,5.022,5.022,0,0,0-.067.657l-.616-.232a2.286,2.286,0,0,1,.054-.9c.036-.234.1-.475.131-.715.3-.1.6-.193.9-.284m-1.241.4a5.67,5.67,0,0,0-.29,1.333l-.167-.064-.274-.107a2.1,2.1,0,0,1-.09-.883c.275-.094.548-.188.822-.278m-1.128,1.006c-.284-.112-.566-.227-.843-.352.3-.089.6-.187.891-.288a2.5,2.5,0,0,0-.047.64" transform="translate(0 0)" fill="#005fa6" stroke="#005fa6" stroke-width="0.2"/>
    </g>
  </g>
</svg>
