<svg xmlns="http://www.w3.org/2000/svg" xmlns:xlink="http://www.w3.org/1999/xlink" width="66" height="74.689" viewBox="0 0 66 74.689">
  <defs>
    <clipPath id="clip-path">
      <rect id="Rectangle_1381" data-name="Rectangle 1381" width="56.941" height="56.815" fill="#005fa6" stroke="#005fa6" stroke-width="0.2"/>
    </clipPath>
  </defs>
  <g id="Group_3320" data-name="Group 3320" transform="translate(-156 -1150.311)">
    <circle id="Ellipse_10" data-name="Ellipse 10" cx="33" cy="33" r="33" transform="translate(156 1159)" fill="#f4f7f8"/>
  </g>
  <g id="Group_3329" data-name="Group 3329" transform="translate(1.529)">
    <g id="Group_3328" data-name="Group 3328" transform="translate(0)" clip-path="url(#clip-path)">
      <path id="Path_11545" data-name="Path 11545" d="M31.642,37.64c-.61-.963-1.385-1.813-1.906-2.832-.079-.154.152-.291.233-.136.535,1.013,1.321,1.855,1.943,2.811.324.5.647.994.948,1.505a7.715,7.715,0,0,1,.822,1.576.109.109,0,0,1-.181.105,8.986,8.986,0,0,1-.879-1.429c-.315-.541-.645-1.071-.98-1.6m-2.716-2.081c.431.462.693,1.035,1.079,1.53a15.635,15.635,0,0,1,1.047,1.5c.351.578.728,1.138,1.1,1.7a7.7,7.7,0,0,1,.994,1.765.1.1,0,0,1-.174.1,9.265,9.265,0,0,1-1.055-1.5c-.368-.568-.76-1.122-1.1-1.7a16.592,16.592,0,0,0-1.144-1.656c-.362-.472-.61-1.019-1.018-1.458-.171-.184.1-.461.276-.276m-2.153,2.26a32.444,32.444,0,0,1,2.977,4.415c.533.811,1.143,1.562,1.634,2.4.239.411.463.819.718,1.219a.936.936,0,0,1,.194.832.107.107,0,0,1-.194.025c-.806-1.516-1.821-2.9-2.737-4.354a30.413,30.413,0,0,0-2.818-4.313c-.137-.153.086-.379.226-.226M5.1,2.813a.173.173,0,0,1,.345,0,2.74,2.74,0,0,1-.408,1.308.177.177,0,0,1-.305-.178A2.378,2.378,0,0,0,5.1,2.813m7.137,18.208a5.149,5.149,0,0,0,.919,1.651c.547.837,1.121,1.656,1.7,2.473.5.7,1,1.4,1.489,2.109a2.366,2.366,0,0,1,.355.546.576.576,0,0,1,.019.182l0,0s0,0,0,.005,0,.018,0,.029a.1.1,0,0,1-.044.078.056.056,0,0,1-.005.008.162.162,0,0,1-.133.042c-.28.005-.661-.792-.778-.962q-.756-1.092-1.5-2.191c-.53-.784-1.056-1.572-1.553-2.377a4.638,4.638,0,0,1-.775-1.5c-.031-.2.274-.289.309-.085M4.354,2.128c.067-.217.408-.124.341.094a4.081,4.081,0,0,1-.306,1.046.171.171,0,0,1-.3-.173,9.217,9.217,0,0,0,.261-.967m-.411-.151c.125-.2.437-.015.312.183a3.885,3.885,0,0,0-.306.655,1.04,1.04,0,0,1-.33.513.1.1,0,0,1-.153-.088,1.637,1.637,0,0,1,.192-.674,3.59,3.59,0,0,1,.286-.588M6.121,5.506l-.031.006a.15.15,0,0,0,.044-.039c.03-.038.067-.07.1-.109a2.752,2.752,0,0,0,.24-.409c.124-.243.224-.5.345-.742.1-.209.411-.026.312.183a10.527,10.527,0,0,1-.507,1.075c-.081.13-.2.322-.377.326-.121,0-.245-.108-.195-.235a.08.08,0,0,1,.072-.055M1.873,4.449c.043-.172.067-.348.12-.517.075-.242.456-.139.381.1-.111.362-.1.934-.485,1.135-.15.078-.346-.086-.244-.244a1.522,1.522,0,0,0,.227-.479m.459,1.307a.077.077,0,0,1,.051-.033,1.891,1.891,0,0,0,.25-.994.189.189,0,0,1,.378,0c0,.448-.081,1.194-.52,1.44a.19.19,0,0,1-.229-.3c.024-.028.048-.087.069-.117m3.113-1c-.073.056-.039.039,0-.023.023-.041.055-.079.079-.12a2.75,2.75,0,0,0,.2-.43,2.919,2.919,0,0,0,.232-.836.166.166,0,0,1,.333,0,3.436,3.436,0,0,1-.3,1.19.892.892,0,0,1-.273.43c-.107.07-.294.073-.324-.088a.118.118,0,0,1,.051-.125m.645.758c-.012.007-.015,0,0,0m3.07.6c.014-.2.312-.2.308,0a4.269,4.269,0,0,1-.519,1.694c-.088.188-.287.853-.587.772s.021-.532.089-.659A4.665,4.665,0,0,0,9.16,6.113m1.617,1.306c.071-.157.347-.043.281.118-.28.686-.555,1.375-.84,2.059-.1.249-.235.475-.358.713a3.7,3.7,0,0,1-.38.759.086.086,0,0,1-.134-.017c-.268-.456.24-1.019.438-1.418.359-.722.662-1.479.993-2.214M8.7,9.572a11.322,11.322,0,0,1,1.445-3,.148.148,0,0,1,.255.149A22.722,22.722,0,0,0,9.077,9.676a.2.2,0,0,1-.375-.1h0M8.11,6.629c.1-.291.189-.589.29-.882.072-.21.4-.124.337.093-.182.6-.283,1.458-.788,1.888a.178.178,0,0,1-.278-.214c.137-.3.325-.567.439-.884M7.4,5.8c.093-.208.174-.423.277-.626s.38-.024.291.17c-.1.218-.176.449-.266.672a1.431,1.431,0,0,1-.352.637c-.128.094-.313-.062-.266-.2.073-.222.221-.434.316-.648M.186,3.475A4.843,4.843,0,0,1,2.062,1.667,16.4,16.4,0,0,1,4.376.244C6.423-.643,7.9,1.072,9.231,2.373A62.868,62.868,0,0,0,14.82,7.128,6.283,6.283,0,0,1,17.531,6.1a4.165,4.165,0,0,1,2.877.838c2.212,1.687,4.316,3.528,6.448,5.313q5.466,4.578,10.9,9.2c3.506,2.98,7.02,5.952,10.468,9Q49.981,32,51.7,33.606a6.636,6.636,0,0,1,1.473,1.608.345.345,0,0,1,.095.058.354.354,0,0,1,.082.1c1.448.987,4.224,2.213,3.463,4.264a7.152,7.152,0,0,1-1.878,2.2c-.9.955-1.549,2.141-2.384,3.154-1.806,2.19-3.781,4.2-5.779,6.211a35.271,35.271,0,0,1-5.746,5.158,2.236,2.236,0,0,1-3.234-.545c-.351-.477-.669-.974-1-1.465a3.462,3.462,0,0,0-1.2-1.272.547.547,0,0,1-.3-.7c-.01-.009-.019-.019-.03-.028-.267-.224-.5-.489-.753-.733-.825-.809-1.589-1.7-2.355-2.563-2.383-2.691-4.728-5.414-7.079-8.133q-4.182-4.835-8.349-9.682-3.617-4.2-7.223-8.414-1.2-1.4-2.383-2.808a16.185,16.185,0,0,1-1.252-1.583.848.848,0,0,1-.144-.507.693.693,0,0,1,.007-.086.6.6,0,0,1-.152-.625,10.988,10.988,0,0,1,1.007-2.393.615.615,0,0,1-.1-.123c-1.264-2.02-2.42-4.14-3.8-6.081C2.059,7.743,1.3,6.979.685,6.1a2.593,2.593,0,0,1-.5-2.626M54.749,38.88a5.915,5.915,0,0,1,.036,1.6c.118-.1.236-.2.349-.311a2.07,2.07,0,0,0,.773-1.136c.051-.52-.45-1-.812-1.3-.144-.121-.294-.234-.445-.342.027.5.066.994.1,1.491m-1.793,1.148c.052.638.088,1.271.123,1.91.007.13.017.262.027.394.207-.276.416-.556.637-.824-.031-.522-.023-1.056-.071-1.558-.084-.884-.157-1.768-.188-2.656,0-.13.187-.125.2,0,.089.889.233,1.77.34,2.656.041.342.1.712.147,1.085.13-.13.268-.253.407-.373a.111.111,0,0,1-.028-.042,5.906,5.906,0,0,1-.1-1.74q-.019-.818,0-1.635a7.933,7.933,0,0,1-1.46-1.145c-.155.19-.3.38-.449.579l-.142.194a.09.09,0,0,1,.109.048,5.284,5.284,0,0,1,.278,1.394c.091.566.126,1.142.172,1.713m-5.894,6.257a12.011,12.011,0,0,1,.148,2.652q.4-.39.792-.783c-.019-.313-.006-.633-.02-.94-.026-.594-.066-1.188-.105-1.781-.077-1.151-.135-2.3-.125-3.457a.191.191,0,0,1,.382,0c.02,1.156.122,2.305.209,3.457.042.558.084,1.117.115,1.676.01.179.026.363.038.548l.286-.289c-.027-.3,0-.6-.012-.9-.016-.594-.042-1.187-.064-1.781-.045-1.187-.09-2.374-.083-3.562a.171.171,0,0,1,.341,0c.014,1.154.079,2.305.144,3.457.032.558.061,1.117.081,1.676.008.2.03.425.042.648q.327-.34.648-.685a6.871,6.871,0,0,1-.035-1.24c-.007-.488-.019-.976-.029-1.464q-.033-1.568-.013-3.138a.162.162,0,0,1,.324,0c.017,1.047.067,2.092.1,3.138q.023.732.041,1.464c.006.249.032.517.032.781.128-.141.256-.282.382-.425.063-.072.124-.146.187-.218a6.787,6.787,0,0,1-.063-1.308c-.017-.488-.042-.976-.064-1.464-.047-1.045-.081-2.091-.074-3.138a.15.15,0,0,1,.3,0c.014,1.048.088,2.092.15,3.138.029.488.055.976.076,1.464.012.282.048.585.042.88.162-.192.321-.387.48-.581a3.129,3.129,0,0,1-.046-1c0-.493.017-.986,0-1.478-.038-1.02-.158-2.034-.144-3.057a.146.146,0,0,1,.291,0c.032,1.023.2,2.035.253,3.057.027.492.025.986.027,1.478,0,.163.016.337.018.51q.284-.358.564-.721c-.053-.855-.031-1.725-.1-2.572-.042-.556-.043-1.114-.091-1.67A6.625,6.625,0,0,0,52.312,37a.081.081,0,0,1,0-.012,9.672,9.672,0,0,1-.659.811c-.681.737-1.47,1.356-2.177,2.063-1,1-1.945,2.061-2.887,3.12a.185.185,0,0,1,.266.162c.018,1.05.117,2.092.21,3.138M45.8,44.1c.008,1.051.072,2.1.14,3.145.035.533.067,1.066.087,1.6a5.854,5.854,0,0,1,0,1.25q.407-.4.815-.8a.155.155,0,0,1-.019-.039,7.065,7.065,0,0,1-.122-1.508c-.026-.488-.063-.976-.1-1.464-.071-1.044-.132-2.09-.125-3.138a.2.2,0,0,1,.008-.054q-.382.43-.766.857a.182.182,0,0,1,.078.155m-1.067,4.253c.044.546.089,1.093.118,1.64a7.169,7.169,0,0,1,.029,1.256q.219-.223.438-.446c.132-.133.266-.266.4-.4a.172.172,0,0,1-.064-.088,5.216,5.216,0,0,1-.109-1.471c-.017-.533-.04-1.067-.06-1.6-.037-.982-.077-1.964-.081-2.947l-.13.144q-.36.395-.724.786c.022,1.044.1,2.084.185,3.125M43.555,49.58q.07.859.118,1.72c.019.344.082.74.068,1.111q.384-.382.762-.77a.184.184,0,0,1-.022-.042,5.55,5.55,0,0,1-.128-1.5c-.028-.581-.064-1.162-.1-1.743-.059-.886-.115-1.771-.136-2.658q-.379.4-.764.8c.035,1.03.121,2.056.2,3.083M42.6,52.285a8.17,8.17,0,0,1,.061,1.166l.263-.245c.121-.113.24-.23.36-.345A5.671,5.671,0,0,1,43.2,51.5c-.024-.608-.065-1.215-.1-1.822-.055-.933-.1-1.867-.118-2.8q-.378.383-.764.758c.028,1.023.128,2.041.234,3.059.055.53.109,1.059.15,1.59M41.047,49c.009,1.03.093,2.055.179,3.082.04.476.08.952.109,1.429a9.493,9.493,0,0,1,.047,1.042c.291-.226.573-.466.846-.71a6.635,6.635,0,0,1-.123-1.458c-.035-.564-.085-1.127-.136-1.69-.08-.88-.158-1.76-.189-2.643-.272.258-.546.515-.824.766a.213.213,0,0,1,.092.181m-2.209,6.049-.005.007a.95.95,0,0,0,1.26.333,7.219,7.219,0,0,0,.829-.5,8.952,8.952,0,0,1-.085-1.378c-.026-.477-.063-.953-.1-1.429-.075-.973-.146-1.945-.155-2.92-.216.2-.433.4-.647.6a.21.21,0,0,1,.022.093c.013.838.1,1.667.2,2.5.047.416.091.832.12,1.249a2.46,2.46,0,0,1-.044,1.086.17.17,0,0,1-.325,0,3.358,3.358,0,0,1-.121-1.086c-.027-.417-.065-.833-.1-1.249-.063-.74-.126-1.479-.14-2.222q-.36.341-.719.683a.2.2,0,0,1-.014.063A4.758,4.758,0,0,0,38.836,53c.02.339.035.677.066,1.016a1.782,1.782,0,0,1-.064,1.034m-.639-.941c.059.091.12.19.182.291-.007-.127-.009-.256-.019-.384-.031-.417-.029-.837-.065-1.253a9.188,9.188,0,0,1-.091-1.359q-.587.562-1.177,1.121A9.714,9.714,0,0,1,38.2,54.108M34.781,50.5c.264.342.491.655.756,1.05.078.117.154.236.227.356a.625.625,0,0,1,.146-.027c1.171-1.108,2.285-2.278,3.5-3.334,1.352-1.172,2.626-2.426,3.857-3.725,1.2-1.264,2.339-2.586,3.558-3.829.646-.659,1.253-1.361,1.92-2,.626-.6,1.307-1.135,1.922-1.748A13.6,13.6,0,0,1,52.4,35.418l-.006,0c-.11-.084-.226-.167-.416-.3-.206-.147-.394-.312-.586-.478-1.056-.91-2.132-1.8-3.193-2.7q-4.9-4.185-9.809-8.368l-.126-.107c-.016.216-.034.432-.05.649-.052.693-.213,1.373-.3,2.065-.225,1.815-.622,3.61-.953,5.409-.334,1.816-.871,3.582-1.3,5.377-.438,1.848-.779,3.722-1.173,5.58-.213,1.008-.433,2.007-.7,3a11.7,11.7,0,0,0-.52,2.823.569.569,0,0,1-.034.188q.786.965,1.548,1.949m-9.653-11.51q1.547,1.8,3.09,3.607c-.66-1.037-1.337-2.07-2.035-3.082-.134-.195.182-.376.316-.185.694.992,1.348,2.013,2.024,3.017.305.453.554.945.838,1.413.148.243.306.482.461.722q1.224,1.442,2.439,2.892a21.391,21.391,0,0,1,.6-2.695c-.388-.484-.7-1.042-1.034-1.557-.44-.672-.878-1.346-1.317-2.019-.889-1.36-1.865-2.661-2.746-4.028-.14-.217.2-.416.345-.2.886,1.363,1.868,2.661,2.768,4.015.445.669.887,1.341,1.333,2.01A12.377,12.377,0,0,1,33,44.159c.1-.369.187-.737.264-1.105.26-1.242.514-2.487.776-3.73-.2-.316-.369-.65-.556-.966-.349-.591-.723-1.161-1.1-1.735-.712-1.095-1.489-2.16-2.121-3.3-.087-.157.153-.3.241-.141.638,1.142,1.424,2.2,2.135,3.295.489.753,1.058,1.523,1.509,2.331q.133-.619.271-1.236c-.642-.831-1.036-1.886-1.655-2.733a12.412,12.412,0,0,1-1.756-2.83c-.057-.151.183-.214.241-.066a12.856,12.856,0,0,0,1.872,2.9,13.607,13.607,0,0,1,.92,1.464c.156.276.323.55.475.83.09-.4.189-.793.29-1.188-.405-.695-.805-1.388-1.228-2.076-.5-.812-1.138-1.526-1.608-2.358a.135.135,0,0,1,.233-.136c.512.877,1.206,1.627,1.736,2.492A11.381,11.381,0,0,1,34.947,35.4q.147-.557.295-1.113a9.872,9.872,0,0,1-.877-1.48c-.479-.711-1.094-1.31-1.535-2.051a.127.127,0,0,1,.219-.128,21.492,21.492,0,0,0,1.425,1.891,10.488,10.488,0,0,1,.851,1.45c.107-.406.21-.813.308-1.222a10.58,10.58,0,0,1-.975-1.292c-.4-.552-.784-1.11-1.172-1.667-.078-.112.105-.218.183-.107.372.528.743,1.057,1.121,1.581.289.4.633.794.9,1.216.083-.359.162-.718.231-1.08l.025-.128a2.607,2.607,0,0,1-.741-.856c-.269-.413-.508-.845-.778-1.257-.085-.13.123-.251.208-.122.448.685.858,1.367,1.353,2.017q.106-.548.215-1.1a6.479,6.479,0,0,1-.4-.943,20.122,20.122,0,0,0-.858-1.869c-.078-.157.156-.3.237-.138.27.523.565,1.035.784,1.583.106.265.23.525.354.785q.116-.581.229-1.163c-.053-.14-.109-.278-.175-.413-.2-.411-.413-.815-.631-1.217a.075.075,0,0,1,.129-.076c.232.382.528.8.765,1.248.132-.7.256-1.394.364-2.094a14.89,14.89,0,0,1,.435-2.177,4.459,4.459,0,0,1,.2-.554q-3.955-3.359-7.928-6.7c-.061.7-.261,1.436-.341,2.1a23.1,23.1,0,0,1-.632,2.917q-.781,3.058-1.548,6.12c-.511,2.041-1.01,4.086-1.6,6.1a22,22,0,0,0-.59,2.533,6.847,6.847,0,0,1-.614,2.109l.748.869m-5.669-6.577a.219.219,0,0,1,.263.087c.183.277.36.557.535.838l2.626,3.046c-.159-.261-.3-.533-.442-.775-.357-.616-.7-1.242-1.067-1.851a18.1,18.1,0,0,1-1.815-3.437c-.08-.234.287-.332.369-.1a18.412,18.412,0,0,0,1.9,3.465c.347.559.668,1.133,1,1.7.276.464.642.912.9,1.394.09-.4.151-.815.215-1.227.031-.2.067-.392.106-.585a10.714,10.714,0,0,1-.575-1.035c-.315-.6-.579-1.223-.909-1.811-.723-1.291-1.515-2.547-2.33-3.782-.124-.188.177-.362.3-.176.823,1.229,1.628,2.479,2.37,3.758.338.583.612,1.2.936,1.8.108.2.232.388.359.58.11-.437.234-.871.362-1.312.032-.111.063-.223.1-.334-.017-.053-.036-.105-.057-.157a6.942,6.942,0,0,0-.536-1c-.38-.615-.738-1.241-1.116-1.856-.415-.675-.887-1.327-1.249-2.032a4.79,4.79,0,0,1-.764-1.7c-.02-.249.364-.246.387,0a2.872,2.872,0,0,0,.539,1.133c.182.311.339.632.53.94.419.675.879,1.325,1.281,2.011.337.574.724,1.118,1.051,1.7.044.077.09.159.135.244q.224-.811.434-1.626a9.226,9.226,0,0,1-.67-1.07c-.291-.53-.664-1-.979-1.514a19.044,19.044,0,0,1-1.734-3.149c-.083-.221.269-.315.353-.1a16.524,16.524,0,0,0,1.906,3.33c.315.457.623.9.9,1.383.107.183.246.362.368.547q.2-.8.4-1.6a7.5,7.5,0,0,1-1.417-2.1c-.5-.875-.98-1.76-1.53-2.6-.122-.187.175-.358.3-.174.541.813,1.017,1.665,1.509,2.508.235.4.475.8.73,1.2.166.255.356.5.511.764q.095-.38.19-.759c.053-.213.108-.426.161-.639-.48-.6-.739-1.405-1.154-2.036a17.9,17.9,0,0,1-1.412-2.338c-.1-.224.228-.421.334-.2a17.891,17.891,0,0,0,1.431,2.327,12.3,12.3,0,0,1,.638,1.129c.1.184.2.365.307.548q.167-.658.337-1.315c-.123-.226-.221-.468-.347-.692-.21-.374-.445-.731-.685-1.085a14.287,14.287,0,0,1-1.349-2.222c-.083-.189.194-.354.28-.164A14.2,14.2,0,0,0,26.1,22.564a10.709,10.709,0,0,1,.835,1.249q.171-.654.344-1.308c-.208-.371-.384-.768-.58-1.116-.208-.37-.481-.689-.706-1.046a3.365,3.365,0,0,0-.609-.933c-.144-.118.06-.316.2-.2a2.169,2.169,0,0,1,.522.729c.22.4.532.741.781,1.125.175.27.367.562.546.865.086-.32.171-.64.259-.959.011-.039.021-.079.031-.118a8.322,8.322,0,0,0-.4-.864c-.242-.422-.617-.794-.586-1.315A.136.136,0,0,1,27,18.634a7.616,7.616,0,0,0,.835,1.587l.034.063a38.786,38.786,0,0,1,1.176-4.609q-.717-.6-1.432-1.206c-1.77-1.484-3.537-2.974-5.322-4.442-.056.466-.206.921-.31,1.408-.194.906-.306,1.834-.456,2.748-.321,1.966-.78,3.919-1.25,5.854-.071.294-.147.587-.22.881a1.081,1.081,0,0,1,.019.3.12.12,0,0,1-.124.117c-.38,1.483-.787,2.96-1.2,4.434a28.213,28.213,0,0,0-.707,2.749c-.072.415-.094.852-.192,1.262-.045.19-.087.4-.14.6l1.745,2.024M6.95,17.388a5.247,5.247,0,0,1,.3.791q.244.286.492.569c.744.856,1.467,1.731,2.2,2.595q.755.885,1.514,1.767c-.392-.588-.781-1.179-1.173-1.767-.168-.252.239-.488.406-.237.755,1.133,1.5,2.274,2.275,3.392q.563.811,1.153,1.6c.258.344.538.683.8,1.035l1.842,2.14c.039-.229.074-.46.109-.692a17.061,17.061,0,0,1,.412-1.847c-.046-.112-.094-.223-.15-.329a11.732,11.732,0,0,0-.662-1.082c-.461-.681-.936-1.34-1.37-2.039-.465-.748-.978-1.465-1.441-2.213a6.559,6.559,0,0,1-1.077-1.921c-.057-.258.339-.368.4-.109a7.471,7.471,0,0,0,1.25,2.148c.472.73.995,1.428,1.444,2.173.425.7.958,1.337,1.411,2.025.12.183.264.395.4.621l.014-.052q.208-.742.413-1.486c-.642-.981-1.217-2-1.878-2.97-.877-1.287-1.7-2.61-2.582-3.895-.154-.223.21-.433.362-.212.906,1.31,1.764,2.653,2.654,3.974.393.583.743,1.194,1.107,1.8.158.261.315.522.481.778q.185-.677.366-1.354c-.122-.252-.237-.509-.375-.738-.321-.531-.67-1.043-.976-1.583-.665-1.174-1.446-2.289-2.016-3.515-.109-.234.238-.439.348-.2.585,1.248,1.384,2.387,2.069,3.581.31.54.667,1.052.988,1.585.043.071.089.146.136.223q.224-.854.439-1.71l.073-.292c-.042-.073-.086-.145-.132-.215-.3-.443-.607-.873-.9-1.32a5.462,5.462,0,0,1-1.238-2.6c-.006-.188.28-.186.291,0,.061,1.024.939,1.91,1.482,2.726.2.3.417.588.627.882q.21-.841.417-1.684c-.195-.355-.428-.687-.622-1.043-.461-.846-.941-1.681-1.4-2.526a.114.114,0,0,1,.2-.115c.529.923,1.086,1.834,1.644,2.739.085.139.193.29.3.451q.1-.435.2-.87c-.125-.3-.252-.6-.388-.9a13.356,13.356,0,0,0-.647-1.541c-.05-.082.071-.146.126-.073a11.229,11.229,0,0,1,.837,1.673c.055.107.121.219.187.334q.151-.682.287-1.366c.179-.911.329-1.828.531-2.735a7.013,7.013,0,0,1,.352-1.2,7.733,7.733,0,0,0,.4-1.043c-.449-.367-.9-.734-1.35-1.1q-.218-.175-.437-.348c-.065-.051-.226-.174-.06-.048-.048-.037-.1-.076-.145-.11a3.416,3.416,0,0,0-3.88.1,33.251,33.251,0,0,0-4.356,3.267q-.154.131-.306.264c-.008.017-.015.034-.023.051a.077.077,0,0,1-.084.043,15.294,15.294,0,0,0-3.1,3.553,9.844,9.844,0,0,0-.969,2.186.219.219,0,0,1,.012.02M1.843,5.7c.254.355.529.694.806,1.031A7.855,7.855,0,0,0,3.276,5.1c.088-.225.452-.133.369.1a5.45,5.45,0,0,1-.673,1.8.209.209,0,0,1-.058.05c.166.2.33.408.489.616A1.3,1.3,0,0,0,3.647,7.2c.1-.306.151-.627.27-.928.087-.222.447-.132.365.1-.139.392-.169.813-.329,1.2a1.439,1.439,0,0,1-.29.453c.1.137.192.275.288.413a2.328,2.328,0,0,0,.595-1.477.193.193,0,0,1,.387,0A2.607,2.607,0,0,1,4.194,8.8q.179.267.354.537a.082.082,0,0,1,.045.031A5.513,5.513,0,0,0,5.2,7.979c.087-.216.439-.129.357.1-.188.516-.272,1.31-.731,1.694q.181.288.36.578l.014-.022a.079.079,0,0,1,.058-.037,2.57,2.57,0,0,0,.586-1.3c.014-.22.35-.224.345,0a2.775,2.775,0,0,1-.776,1.734q.242.4.48.8c.007-.01.016-.018.023-.029a2.887,2.887,0,0,0,.268-.584,3.488,3.488,0,0,1,.468-.965c.108-.139.347.044.245.189-.251.357-.376,1.35-.769,1.782l.227.382a3.191,3.191,0,0,0,.769-1.6c.014-.217.348-.221.341,0a3.03,3.03,0,0,1-.4,1.249,8.016,8.016,0,0,1-.441.8q.178.3.357.594a3.608,3.608,0,0,0,.931-1.794c.014-.163.26-.168.258,0a2.734,2.734,0,0,1-.471,1.383c-.148.24-.35.473-.535.712l.085.141a17.636,17.636,0,0,1,2.919-3.149c.117-.244.269-.475.353-.632.394-.74.612-1.566.945-2.336.046-.107.208-.029.182.077a12.509,12.509,0,0,1-.657,2.177l-.022.046q.312-.251.63-.494c0-.012.01-.025.014-.037.126-.381.193-1.049.662-1.163.078-.019.15.084.083.142A1.412,1.412,0,0,0,12,9.16q.262-.2.526-.387c.513-.372,1.034-.779,1.575-1.162a9.879,9.879,0,0,1-1.79-1.189c-.775-.6-1.564-1.176-2.3-1.828S8.551,3.258,7.851,2.556A4.021,4.021,0,0,0,5.669,1.112c-.837-.082-1.638.62-2.29,1.058A10.539,10.539,0,0,0,1.65,3.434a.209.209,0,0,1-.009.074c-.069.22-.1.451-.187.664a.734.734,0,0,1-.231.311A2.981,2.981,0,0,0,1.843,5.7" transform="translate(0.001 0.001)" fill="#005fa6" stroke="#005fa6" stroke-width="0.2"/>
    </g>
  </g>
</svg>
