<svg xmlns="http://www.w3.org/2000/svg" xmlns:xlink="http://www.w3.org/1999/xlink" width="66" height="70.712" viewBox="0 0 66 70.712">
  <defs>
    <clipPath id="clip-path">
      <rect id="Rectangle_1377" data-name="Rectangle 1377" width="46.165" height="48.336" fill="#005fa6" stroke="#005fa6" stroke-width="0.2"/>
    </clipPath>
  </defs>
  <g id="Group_3314" data-name="Group 3314" transform="translate(-156 -1154.288)">
    <circle id="Ellipse_10" data-name="Ellipse 10" cx="33" cy="33" r="33" transform="translate(156 1159)" fill="#f4f7f8"/>
  </g>
  <g id="Group_3318" data-name="Group 3318" transform="translate(9.918)">
    <g id="Group_3317" data-name="Group 3317" clip-path="url(#clip-path)">
      <path id="Path_11542" data-name="Path 11542" d="M11.621,45.64a1.976,1.976,0,0,1-.274.8.984.984,0,0,0-.18.566.127.127,0,0,0,0,.027s0,0,0,.007h0a.144.144,0,0,0,.24.064,2.879,2.879,0,0,0,.313-.7,1.94,1.94,0,0,0,.183-.761.144.144,0,0,0-.287,0M23.388,27.711a6.552,6.552,0,0,0-.376.744c-.042.107-.156.551.116.463a.072.072,0,0,0,.052-.068,2.54,2.54,0,0,1,.376-1.04c.052-.112-.107-.21-.168-.1M10.708,45.327a4.708,4.708,0,0,1-.452.954,1.17,1.17,0,0,0-.171.425.164.164,0,0,0,.083.144.226.226,0,0,0,.145.022.126.126,0,0,0,.09-.089,1.933,1.933,0,0,0,.159-.345,5.419,5.419,0,0,0,.443-1.028.154.154,0,0,0-.3-.082M37.96,1.317a3.706,3.706,0,0,0-.882,1.343c-.063.175.148.289.288.222a.539.539,0,0,0,.16-.092.111.111,0,0,0,0-.155l0,0a4.056,4.056,0,0,1,.686-1.065.176.176,0,0,0-.248-.248M9.341,43.28a4.57,4.57,0,0,1-.622,1.484,6.441,6.441,0,0,0-.37.968.185.185,0,0,0,.308.179,4.473,4.473,0,0,0,.492-1.186,3.925,3.925,0,0,0,.5-1.445c.009-.2-.294-.2-.308,0M36.79,1.236a4.523,4.523,0,0,0-1.254,1.605c-.055.151.107.266.24.24s.2-.116.222-.253a.106.106,0,0,0-.007-.065,5.412,5.412,0,0,1,1.027-1.3.161.161,0,0,0-.228-.228M15.557,2.329c-.406.4-.788.818-1.155,1.252a3.282,3.282,0,0,0-.829,1.191.1.1,0,0,0,.148.114c.418-.207.7-.75.99-1.11.338-.424.691-.835,1.066-1.227a.156.156,0,0,0-.221-.221M14.325,2.1a.156.156,0,0,0-.221-.221,15.021,15.021,0,0,0-1.191,1.158c-.248.294-.643.755-.542,1.164a.126.126,0,0,0,.207.055,1.6,1.6,0,0,0,.312-.513,4.034,4.034,0,0,1,.458-.634c.3-.355.652-.672.977-1.008m3.135.14c-.562.556-1.082,1.152-1.6,1.75-.3.351-.915.847-.867,1.358a.129.129,0,0,0,.218.09,6.78,6.78,0,0,0,.51-.706c.183-.221.371-.437.553-.659.454-.55.914-1.094,1.41-1.607a.16.16,0,0,0-.226-.226m1.371.373c-.462.444-.938.877-1.361,1.359a2.681,2.681,0,0,0-.831,1.376.118.118,0,0,0,.2.083,2.858,2.858,0,0,0,.422-.6,7.851,7.851,0,0,1,.605-.776c.371-.429.776-.828,1.171-1.234a.145.145,0,0,0-.206-.206m16.3,40.043a9.655,9.655,0,0,0-.785,1.294c-.148.309-.417.812-.206,1.137a.159.159,0,0,0,.269,0,1.146,1.146,0,0,0,.146-.483,3.885,3.885,0,0,1,.25-.7,8.864,8.864,0,0,1,.61-1.081c.115-.181-.166-.339-.285-.166M46.148,8.229a8.6,8.6,0,0,0-1.634-5.358A8.143,8.143,0,0,0,39.947.329a16.324,16.324,0,0,0-5.376-.2,45.467,45.467,0,0,0-5.694,1.224.154.154,0,0,0-.21-.084,12.5,12.5,0,0,1-3.848.693,20.953,20.953,0,0,1-3.563-.19c-1.214-.155-2.417-.393-3.618-.628C16.393.9,15.148.706,13.9.5,10.067-.132,5.63.037,2.666,2.88A8.44,8.44,0,0,0,.043,8.2a14.116,14.116,0,0,0,.718,5.218,38.949,38.949,0,0,1,.849,5.136c.766,5.757,1.376,11.535,2.207,17.284a62.721,62.721,0,0,0,1.209,6.716,7.256,7.256,0,0,0,.68,1.842,7.833,7.833,0,0,0,4.519,3.747A5.964,5.964,0,0,0,15.7,46.724a10.133,10.133,0,0,0,2.842-4.747,26.805,26.805,0,0,0,.967-5.633,9.709,9.709,0,0,1,.843-3.551,5.753,5.753,0,0,1,2.165-2.307,11.231,11.231,0,0,1,1.159-.635,2.285,2.285,0,0,1,1.083.211,3.664,3.664,0,0,1,1.708,1.933,32.2,32.2,0,0,1,1.977,5.925,18.993,18.993,0,0,0,1.876,5.229,8.155,8.155,0,0,0,3.817,3.42,6.413,6.413,0,0,0,5.093-.151,6.266,6.266,0,0,0,2.88-3.407,23.807,23.807,0,0,0,1.134-6.177c.613-5.093,1.238-10.184,1.827-15.279A93.024,93.024,0,0,0,46.148,8.229M4.327,31.5c.18.016.36.023.548.025l.271,0a6.942,6.942,0,0,0-.474.987c-.049.13-.1.261-.156.391q-.1-.7-.189-1.407M4.7,34.2q-.044-.313-.087-.625c.116-.265.187-.569.266-.8.145-.43.4-.822.579-1.238l.855.012c-.311.486-.7.934-.972,1.437-.209.385-.426.767-.614,1.163L4.7,34.2m.235,1.62c-.046-.309-.091-.619-.135-.929.118-.28.2-.588.336-.849.2-.4.419-.8.63-1.2.236-.447.593-.848.832-1.3q.333,0,.666,0a16.326,16.326,0,0,0-1.241,2.2c-.247.458-.529.892-.755,1.362-.106.221-.232.462-.333.709m37.415-.239c-.1.8-.2,1.6-.308,2.4l-.051.388-.011.084-.02.146c-.1.7-.159,1.4-.306,2.1a7.794,7.794,0,0,1-1.823,3.92A4.549,4.549,0,0,1,36.757,45.9c.069-.142.113-.314.158-.428a4.576,4.576,0,0,1,.331-.738c.127-.205-.192-.388-.321-.188a5.385,5.385,0,0,0-.351.712,2.386,2.386,0,0,0-.28.641,5.3,5.3,0,0,1-.8-.1l-.086-.02c.092-.232.118-.505.2-.738a5.273,5.273,0,0,1,.549-1.132c.124-.2-.183-.372-.309-.181a6.3,6.3,0,0,0-.57,1.078,2.738,2.738,0,0,0-.27.866,5.765,5.765,0,0,1-1.809-.937.187.187,0,0,0,.017-.043c.018-.071.049-.142.073-.211a.106.106,0,0,0-.073-.129c.05-.87.76-1.588,1.042-2.4.072-.207-.249-.289-.325-.09-.322.843-1.146,1.585-1.161,2.517a7.426,7.426,0,0,1-.744-.776,5.833,5.833,0,0,1,.383-1.259,10.83,10.83,0,0,0,.931-2.029.16.16,0,0,0-.308-.085,23.456,23.456,0,0,1-1.162,2.316c-.05.127-.148.338-.223.563-.029-.04-.058-.08-.086-.121a8.788,8.788,0,0,1-.458-.754,5.658,5.658,0,0,1,.075-.623,4.542,4.542,0,0,1,.3-.648,14.086,14.086,0,0,1,.948-2.055c.125-.185-.171-.353-.3-.174a20.076,20.076,0,0,0-1.163,2.3,2.826,2.826,0,0,0-.207.511c-.15-.334-.283-.675-.405-1.02a5.659,5.659,0,0,0,.205-.746,7.366,7.366,0,0,1,.407-1.058c.281-.615.6-1.21.906-1.813.094-.185-.185-.348-.279-.163-.339.669-.756,1.3-1.076,1.975a7.076,7.076,0,0,0-.424,1.007c-.142-.467-.269-.94-.394-1.414.252-.46.438-.986.676-1.458.282-.56.588-1.108.863-1.671.091-.187-.182-.352-.282-.165a24.094,24.094,0,0,0-1.444,2.585q-.161-.609-.329-1.214a.156.156,0,0,0,.037-.038,1.83,1.83,0,0,0,.2-.593,4.875,4.875,0,0,1,.3-.761c.2-.425.428-.836.617-1.265.084-.191-.192-.36-.285-.166-.234.488-.539.937-.773,1.425a4.8,4.8,0,0,0-.294.694c-.128-.431-.263-.86-.409-1.286a19.553,19.553,0,0,1,1.117-2.123c.086-.179-.172-.336-.269-.157-.265.487-.577.944-.867,1.417-.055.09-.121.193-.182.3q-.188-.508-.4-1.009a6.41,6.41,0,0,1,.987-1.645c.106-.163-.148-.3-.257-.15a11.441,11.441,0,0,0-.946,1.308c-.1-.207-.2-.415-.3-.62.314-.486.641-.961.955-1.448.1-.157-.143-.294-.248-.145-.291.411-.622.8-.91,1.218a7.628,7.628,0,0,0-.44-.693,3.709,3.709,0,0,1,.851-1.258.145.145,0,0,0-.206-.206,4.6,4.6,0,0,0-.916,1.114,4.343,4.343,0,0,0-.468-.474c.017-.041.035-.082.055-.122.062-.12.137-.237.21-.35a4,4,0,0,0,.707-1.211.126.126,0,0,0-.243-.067c-.183.581-.768.959-1.051,1.5a3.1,3.1,0,0,0-.63-.336q.225-.08.452-.156a.477.477,0,0,0,.126-.829q.066-.074.135-.146a.128.128,0,0,0-.181-.181c-.087.084-.18.173-.274.268l-.047.013c-.4.132-.809.277-1.216.437a9.265,9.265,0,0,1,.551-.839c.081-.109-.1-.251-.189-.146a9.223,9.223,0,0,0-.869,1.2,8.659,8.659,0,0,0-3.636,2.656c-1.343,1.83-1.381,4.072-1.679,6.226-.466,3.36-1.387,7.762-4.955,9.162a4.429,4.429,0,0,1-.871.243c.067-.187.126-.378.188-.566.069-.206-.256-.295-.325-.09-.078.233-.163.465-.228.7a4.785,4.785,0,0,1-2.545-.517,1.861,1.861,0,0,0,.339-.721c.2-.527.439-1.036.646-1.559.059-.148-.2-.257-.259-.109-.318.75-.673,1.5-1.04,2.22a6.131,6.131,0,0,1-1.1-.818c-.146-.136-.288-.279-.424-.427a1.715,1.715,0,0,0,.167-.279c.165-.288.317-.582.461-.881a11.544,11.544,0,0,0,.741-1.885.14.14,0,0,0-.27-.075,9.878,9.878,0,0,1-.832,1.91q-.217.4-.448.793c-.026.044-.053.084-.077.123-.163-.194-.316-.4-.458-.606a.162.162,0,0,0,.106-.108l.017-.057a.076.076,0,0,0,0-.027c0-.01,0-.021.006-.036l.042-.121c.039-.128.073-.257.114-.384.092-.282.2-.564.308-.839.249-.618.555-1.21.765-1.844.058-.175-.212-.245-.273-.075-.253.691-.625,1.326-.906,2a5.791,5.791,0,0,0-.4,1.148c-.077-.128-.152-.258-.22-.39-.023-.044-.044-.089-.065-.134l-.017-.033-.019-.053q-.043-.118-.085-.237c.065-.222.109-.453.19-.668a8.239,8.239,0,0,1,.493-1.041c.358-.653.766-1.276,1.1-1.944.074-.15-.147-.283-.227-.132-.384.725-.861,1.395-1.263,2.11a7.976,7.976,0,0,0-.5,1q-.076-.265-.145-.532a.124.124,0,0,0,.022-.034A41.651,41.651,0,0,1,7.9,37.364a.145.145,0,0,0-.251-.147A20.673,20.673,0,0,0,6.259,40.3c-.059.147-.285.54-.421.914-.083-.375-.158-.753-.228-1.132.026-.083.045-.169.073-.258a4.324,4.324,0,0,1,.331-.735c.243-.455.45-.921.664-1.39.424-.935.877-1.856,1.3-2.79.073-.16-.162-.3-.239-.14C7.256,35.8,6.7,36.795,6.225,37.829c-.223.483-.484.941-.715,1.42l-.034.07c-.07-.419-.136-.838-.2-1.255.125-.326.236-.659.388-.976.228-.473.449-.946.67-1.422s.46-.968.688-1.454a6.855,6.855,0,0,0,.6-1.245.124.124,0,0,0-.239-.066,8.158,8.158,0,0,1-.725,1.382c-.254.5-.514.994-.75,1.5-.213.458-.522.955-.755,1.467l0-.01c-.038-.241-.074-.482-.111-.724a13.512,13.512,0,0,0,.56-1.3c.213-.445.483-.856.707-1.295a18.082,18.082,0,0,1,1.209-2.365c1.892-.01,3.783-.035,5.673-.145a5.151,5.151,0,0,0,1.773-.27,2.882,2.882,0,0,0,1.512-2.554,8.718,8.718,0,0,0,1.033-1.2c.445-.565.869-1.144,1.3-1.722.123-.166-.153-.321-.275-.161-.451.592-.915,1.172-1.4,1.739-.185.217-.394.431-.595.653q.044-.584.074-1.17c.026-.038.052-.076.082-.113.175-.218.388-.4.548-.631A22.754,22.754,0,0,0,18.983,23.4c.094-.184-.181-.347-.279-.163a10.929,10.929,0,0,1-1.1,1.578,14.06,14.06,0,0,1-.891,1.17l-.081.086q.017-.43.029-.859c.223-.267.324-.629.526-.921.237-.343.5-.666.73-1.014.52-.787,1.081-1.546,1.594-2.337.1-.158-.145-.3-.251-.147-.572.821-1.188,1.61-1.765,2.427-.189.267-.559.643-.811,1.036q.013-.678.02-1.355a6.019,6.019,0,0,0,.423-.759A13.317,13.317,0,0,1,17.845,21a17.146,17.146,0,0,1,1.544-2.224c.113-.122-.064-.3-.183-.183a14.987,14.987,0,0,0-1.588,2.1,12.9,12.9,0,0,0-.741,1.116c-.05.09-.105.181-.161.274q0-.129,0-.258c0-.3,0-.6-.011-.9a2.47,2.47,0,0,0,.337-.588c.24-.438.536-.837.776-1.273a15.4,15.4,0,0,1,1.655-2.56c.1-.121-.068-.3-.175-.175a14.09,14.09,0,0,0-1.66,2.354c-.24.411-.5.8-.751,1.206-.061.1-.135.214-.208.332-.02-.481-.041-.962-.044-1.442a.606.606,0,0,0,.043.2.079.079,0,0,0,.143.019c.173-.3.261-.635.448-.933.166-.265.343-.524.51-.789.394-.626.7-1.308,1.124-1.912.046-.066-.058-.145-.111-.086a18.09,18.09,0,0,0-1.346,1.973c-.247.361-.792.956-.81,1.468,0-.36.007-.72.034-1.079a3.147,3.147,0,0,1,.545-1.842,1.441,1.441,0,0,1,.628-.436,1.619,1.619,0,0,1,.18-.04.719.719,0,0,1,.153-.024,50.494,50.494,0,0,1,6.431-.074c.921.009,1.839-.053,2.758-.052a3.006,3.006,0,0,1,1.785.442,2.732,2.732,0,0,1,.89,1.781,17.5,17.5,0,0,1,.172,3.14v3.459q0,1.586,0,3.172a5.734,5.734,0,0,0,.511,3.11c.876,1.405,2.7,1.446,4.18,1.446,1.825,0,3.63,0,5.448-.166.834-.074,1.669-.118,2.5-.172q-.255,2.1-.513,4.2M14.154,30.107l.016,0-.016,0m30.912-18.4c-.03.6-.1,1.2-.156,1.79-.216,2.184-.465,4.365-.714,6.546q-.587,5.134-1.207,10.264a48.3,48.3,0,0,0-5.348.211q-1.366,0-2.733,0a7.222,7.222,0,0,1-2.269-.231c-1.247-.412-1.208-1.7-1.208-2.8q0-1.519,0-3.039a63.469,63.469,0,0,0-.1-6.527c-.147-1.42-.577-2.949-1.991-3.587a7.589,7.589,0,0,0-3.362-.32c-2.192.03-4.384-.079-6.576,0a4.683,4.683,0,0,0-2.583.534c-1.278.891-1.4,2.59-1.386,4.016.012,1.247.087,2.489.069,3.737q-.025,1.7-.081,3.4c-.032.941-.062,1.89-.169,2.827,0,.029-.033.251-.04.291a2.809,2.809,0,0,1-.119.463,1.325,1.325,0,0,1-.477.66,1.255,1.255,0,0,1-.415.164l-.019,0-.151.018c-1.732.172-3.481.172-5.218.253-.979.045-1.957.093-2.935.152a12.906,12.906,0,0,0-1.662.142c-.441-3.406-.838-6.818-1.273-10.223-.267-2.094-.517-4.2-.91-6.275-.167-.884-.467-1.723-.667-2.6a8.763,8.763,0,0,1,.379-5.653A7.914,7.914,0,0,1,5.984,2.021,10.1,10.1,0,0,1,7.326,1.6c-.09.1-.182.191-.261.286a4.463,4.463,0,0,0-.635.875.082.082,0,0,0,.112.112,3.643,3.643,0,0,0,.919-1.018,3.587,3.587,0,0,0,.261-.343c.4-.081.809-.141,1.218-.182a5.5,5.5,0,0,0-.563.578c-.173.2-.338.414-.511.619A1.493,1.493,0,0,0,7.5,3.05a.1.1,0,0,0,.116.116c.375-.116.634-.622.865-.919A6.209,6.209,0,0,1,9.326,1.3a16.161,16.161,0,0,1,1.71-.03c-.327.308-.705.562-1.025.878-.236.233-.692.709-.51,1.07a.1.1,0,0,0,.156.02c.136-.136.159-.347.266-.51a3.128,3.128,0,0,1,.493-.557,12.842,12.842,0,0,0,.962-.886q.2.01.395.024c.312.022.623.051.934.084a17.326,17.326,0,0,0-1.239,1.266,2.889,2.889,0,0,0-.818,1.326c-.014.113.131.137.2.083a8.907,8.907,0,0,0,1.018-1.33c.346-.412.712-.807,1.084-1.2a.129.129,0,0,0,.037-.117c2.554.3,5.089.912,7.641,1.209-.261.39-.576.746-.856,1.123-.346.466-1.145,1.138-1.116,1.772,0,.075.107.136.163.068.181-.221.282-.5.451-.731.194-.269.415-.517.612-.784q.343-.467.681-.939c.1-.14.192-.318.3-.482.484.053.968.094,1.454.118A15.158,15.158,0,0,0,20.958,4.32c-.364.448-1.08,1.039-.877,1.693.03.1.185.136.233.03a5.413,5.413,0,0,1,.4-.889c.178-.256.4-.467.583-.722a11.209,11.209,0,0,1,1.346-1.646c.479.016.959.015,1.44-.007a10.168,10.168,0,0,1-1.324,1.784c-.409.514-1.124,1.176-1.15,1.868a.136.136,0,0,0,.23.1c.246-.306.407-.678.642-1,.254-.344.516-.686.782-1.021a7.233,7.233,0,0,0,1.169-1.749q.419-.028.839-.079c.181,0,.362,0,.542-.011a14.806,14.806,0,0,0-1.75,2.286c-.212.306-.965,1.252-.48,1.588.09.062.188-.024.2-.113a3.559,3.559,0,0,1,.789-1.514,13.541,13.541,0,0,1,1.641-2.187.148.148,0,0,0,.048-.086c.512-.039,1.022-.108,1.531-.195-.641.8-1.312,1.584-1.914,2.413-.179.246-.895.97-.546,1.284a.161.161,0,0,0,.251-.032,27.607,27.607,0,0,1,2.564-3.6.127.127,0,0,0,.014-.135c.447-.083.893-.178,1.335-.275-.471.558-.912,1.14-1.336,1.735-.277.388-.914.913-.817,1.44.019.1.142.106.207.055a2.6,2.6,0,0,0,.429-.588c.174-.238.364-.459.53-.7.428-.631.864-1.261,1.335-1.86a.167.167,0,0,0,.027-.162c.342-.077.683-.154,1.022-.227q.334-.073.67-.141A14.358,14.358,0,0,0,30.3,3.251c-.3.428-.741.8-.755,1.367a.2.2,0,0,0,.291.167.336.336,0,0,0,.181-.231.1.1,0,0,0-.037-.106,5.6,5.6,0,0,1,.688-1.074,10.809,10.809,0,0,1,1.361-1.73.156.156,0,0,0,.044-.087c.494-.1.99-.183,1.488-.257a10.781,10.781,0,0,0-.93,1.148,6.242,6.242,0,0,0-.946,1.4.147.147,0,0,0,.214.164,3.832,3.832,0,0,0,.922-1.191,10.671,10.671,0,0,1,1.116-1.453.152.152,0,0,0,.043-.131q.646-.086,1.3-.137a.2.2,0,0,0-.037.028,4.355,4.355,0,0,0-1.528,2.214c-.018.167.182.234.305.175a.537.537,0,0,0,.136-.077.115.115,0,0,0,0-.193,5.484,5.484,0,0,1,1.337-1.865.179.179,0,0,0-.071-.293c.527-.037,1.055-.054,1.584-.046a13.2,13.2,0,0,1,2.966.357c-.221.347-.507.82-.231,1.107a.1.1,0,0,0,.145,0c.161-.145.161-.345.235-.54a5.127,5.127,0,0,1,.22-.467,8.249,8.249,0,0,1,1.77.735A5.759,5.759,0,0,1,44.964,6.58a25.358,25.358,0,0,1,.1,5.126" transform="translate(0 0)" fill="#005fa6" stroke="#005fa6" stroke-width="0.2"/>
    </g>
  </g>
</svg>
