<svg xmlns="http://www.w3.org/2000/svg" xmlns:xlink="http://www.w3.org/1999/xlink" width="66" height="70.712" viewBox="0 0 66 70.712">
  <defs>
    <clipPath id="clip-path">
      <rect id="Rectangle_1375" data-name="Rectangle 1375" width="48.964" height="57" fill="#005fa6" stroke="#005fa6" stroke-width="0.2"/>
    </clipPath>
  </defs>
  <g id="Group_3416" data-name="Group 3416" transform="translate(-453 -1192)">
    <g id="Group_3309" data-name="Group 3309" transform="translate(297 37.712)">
      <circle id="Ellipse_10" data-name="Ellipse 10" cx="33" cy="33" r="33" transform="translate(156 1159)" fill="#f4f7f8"/>
    </g>
    <g id="Group_3313" data-name="Group 3313" transform="translate(461.518 1192)">
      <g id="Group_3312" data-name="Group 3312" clip-path="url(#clip-path)">
        <path id="Path_11541" data-name="Path 11541" d="M24.2,6.444a.134.134,0,0,0,.242-.032,6.756,6.756,0,0,0-.1-1.683c-.047-.617-.066-1.235-.076-1.854a.16.16,0,0,0-.319,0c-.01.652-.034,1.305-.01,1.957A3.583,3.583,0,0,0,24.2,6.444M5.078,45.143c-.081-.089-.243.031-.169.131.331.445.2,1.024.246,1.537a9.61,9.61,0,0,0,.408,1.825.079.079,0,0,0,.152,0,6.86,6.86,0,0,0-.237-2.111,2.212,2.212,0,0,0-.4-1.382M25.453,5.64a.117.117,0,0,0,.143-.081c.038-.208-.06-.333-.119-.533a3.351,3.351,0,0,1-.108-.922c0-.552.066-1.1.064-1.653a.162.162,0,0,0-.323,0c-.022.65-.143,1.3-.126,1.947.01.371.026,1.129.469,1.243m3.68-1.3a.178.178,0,0,0,.278-.214,5.469,5.469,0,0,1-.145-2.309.174.174,0,0,0-.348,0c-.013.473-.075.942-.074,1.416,0,.35-.008.862.289,1.108M27.009,5.1c-.023-.5-.215-.979-.212-1.5s.066-1.054.116-1.579c.019-.2-.285-.193-.311,0a13.833,13.833,0,0,0-.181,1.835,1.914,1.914,0,0,0,.339,1.345.147.147,0,0,0,.248-.1m1.168-.6a3.771,3.771,0,0,0,.047-1.128q-.007-.624-.015-1.247a.178.178,0,0,0-.357,0q-.007.624-.015,1.247a3.775,3.775,0,0,0,.047,1.128.153.153,0,0,0,.292,0M48.89,18.035c-.383-3.8-2.346-7.29-4.621-10.278-.3-.395-.623-.771-.917-1.171s-.5-.422-.994-.416a.581.581,0,0,0-.135.018.5.5,0,0,0-.516.269c-.249.432-.572.806-.861,1.212A5.961,5.961,0,0,0,39.8,9.3a.627.627,0,0,0-.181,1.014.62.62,0,0,0,.158.168c.489,1.2,1.094,2.345,1.562,3.552a18.634,18.634,0,0,1,1.1,4.014,12.752,12.752,0,0,1-1.583,7.962c-2.209,4.022-6.226,8.012-11.057,8.323-4.673.3-9.327-2.54-11.931-6.293a12.747,12.747,0,0,1-.756-13.682,18.979,18.979,0,0,1,6.132-6.014,23.651,23.651,0,0,1,8.08-3.272.375.375,0,0,0,.286-.4.5.5,0,0,0,.041-.034c.292-.279.2-.6.167-.956a9.7,9.7,0,0,0-.2-1.3A9.343,9.343,0,0,0,31.328.845.515.515,0,0,0,31.34.752l0-.106a.449.449,0,0,0-.328-.431,14.689,14.689,0,0,0-2.89-.2,17.1,17.1,0,0,0-2.828.4A20.777,20.777,0,0,0,20.163,2.4,20.686,20.686,0,0,0,12.345,9.3c-3.661,5.733-2.881,13.025.2,18.835a20.976,20.976,0,0,0,1.786,2.809,6.779,6.779,0,0,0-.931.916c-.594.672-1.181,1.352-1.753,2.042-.87,1.051-1.774,2.084-2.6,3.174a4.732,4.732,0,0,0-2.707-.318c-1.626.293-2.78,1.721-3.778,2.928-.6.724-1.15,1.486-1.7,2.247-.2.281-.394.569-.574.864-.053.088-.117.175-.161.267s-.134.187-.018.106a.243.243,0,0,0,.121.448c.292.032.612-.321.794-.5.47-.467.873-1.007,1.3-1.51a18.01,18.01,0,0,1,3.181-3.258c1.627-1.125,3.712-.168,4.848,1.236a4.971,4.971,0,0,1,1.077,2.075.187.187,0,0,0-.361.06,6.482,6.482,0,0,0,.147,1.394c-.03.053-.06.107-.092.16-.018.029-.037.057-.054.086,0-.012,0-.025-.007-.037a9.627,9.627,0,0,1-.143-1.5.2.2,0,0,0-.39,0,11.7,11.7,0,0,0,.078,1.559c.023.182.039.38.079.569-.058.087-.115.174-.174.26q-.229.335-.463.666c-.305-.76-.157-1.687-.429-2.463-.074-.212-.409-.124-.34.094.283.889.032,1.959.47,2.788q-.188.261-.38.519c-.053-.235-.1-.472-.152-.71a7.969,7.969,0,0,1-.439-2.22c.014-.232-.333-.224-.357,0A8.763,8.763,0,0,0,8.8,45.306c.058.331.1.682.2,1.016q-.25.328-.507.651c-.045-.206-.086-.412-.137-.616a11.8,11.8,0,0,1-.423-2.411.168.168,0,0,0-.336,0,11.011,11.011,0,0,0,.315,2.434c.074.332.125.7.206,1.059-.094.115-.187.23-.282.343-.085-.358-.168-.716-.246-1.076A11.109,11.109,0,0,1,7.3,44.582a.178.178,0,0,0-.357,0,12.354,12.354,0,0,0,.2,2.1c.076.458.171.911.274,1.364.013.058.025.118.037.179q-.2.234-.407.464c-.068-.322-.143-.643-.2-.964-.145-.858-.324-1.7-.522-2.55-.048-.206-.359-.118-.316.087.19.9.318,1.812.479,2.72.068.383.119.833.225,1.252a.679.679,0,0,0,.184.54,1.919,1.919,0,0,0,.146.266.092.092,0,0,0,.17-.046c0-.007,0-.014,0-.021a.612.612,0,0,0,.616-.172,30.837,30.837,0,0,0,3.655-4.611,12.2,12.2,0,0,0,1.072-1.726,3.977,3.977,0,0,0-.417-3.6l-.026-.042c.774-.925,1.588-1.818,2.4-2.712.573-.633,1.16-1.266,1.7-1.927.209-.256.422-.51.627-.769.048-.061.095-.113.14-.177.084-.118.155-.153.032-.092a.257.257,0,0,0,.136-.224,17.391,17.391,0,0,0,1.75,1.3A19.476,19.476,0,0,0,24.131,37.6a6,6,0,0,0-.177,1.526c-.022.88-.04,1.761-.036,2.641.006,1.363-.03,2.736.041,4.1a4.631,4.631,0,0,0-2.125,1.324c-1.144,1.271-1.172,3.029-1.176,4.655,0,.979.064,1.955.132,2.931.026.374.066.744.123,1.114.017.11.024.227.051.335.023.09.011.189.042.078a.243.243,0,0,0,.353.271c.279-.185.3-.66.322-.954.06-.663.024-1.338.031-2a16.153,16.153,0,0,1,.412-4.7c.508-1.579,2.265-2.133,3.81-2.029-.45.57-.946,1.307-.577,1.383a.076.076,0,0,0,.094-.072,2.62,2.62,0,0,1,.524-.911c.086-.124.176-.247.266-.371a4.959,4.959,0,0,1,.564.1l.144.037c-.231.268-.489.511-.728.775s-.647.669-.529,1.033a.114.114,0,0,0,.164.067c.184-.1.225-.263.332-.433a5.418,5.418,0,0,1,.493-.639c.2-.234.41-.463.6-.709a5.889,5.889,0,0,1,.59.213,12.391,12.391,0,0,1-.94,1.151c-.266.319-.646.728-.59,1.17a.1.1,0,0,0,.17.07,2.349,2.349,0,0,0,.378-.548,6.35,6.35,0,0,1,.538-.708,7.835,7.835,0,0,0,.754-.989,3.147,3.147,0,0,1,.653.446c-.39.514-.807,1-1.2,1.513a3.251,3.251,0,0,0-.887,1.489.123.123,0,0,0,.184.106,2.05,2.05,0,0,0,.49-.62c.223-.337.466-.66.715-.978.322-.411.651-.817.963-1.235a2.29,2.29,0,0,1,.242.361,1.787,1.787,0,0,1,.129.321c-.41.55-.863,1.067-1.288,1.607a3.878,3.878,0,0,0-1.1,2.03.107.107,0,0,0,.18.075A5.575,5.575,0,0,0,27.92,51.6a13.206,13.206,0,0,1,.814-1.125c.279-.353.565-.7.838-1.058.038.28.052.565.078.822.006.057.01.114.016.172a21.131,21.131,0,0,0-1.427,1.739c-.391.519-1.219,1.288-1.176,1.987a.12.12,0,0,0,.2.084,3.665,3.665,0,0,0,.6-.828c.222-.321.463-.63.7-.944.372-.5.749-1,1.158-1.465.033.389.06.778.084,1.167-.419.572-.917,1.077-1.38,1.615-.371.432-.989,1.049-.993,1.645a.178.178,0,0,0,.3.125,4.588,4.588,0,0,0,.547-.844,10.334,10.334,0,0,1,.734-.924c.278-.322.561-.638.827-.969q.028.592.042,1.184c-.234.282-.482.552-.728.834a3.962,3.962,0,0,0-.719,1.09.133.133,0,0,0,.128.168c.5-.063.678-.641.968-.978.121-.142.242-.281.36-.421,0,.564,0,1.128-.026,1.691-.032.867,1.242.833,1.327,0a30.228,30.228,0,0,0-.169-5.951,9.31,9.31,0,0,0-.313-2.042,4,4,0,0,0-2.378-2.255c-.083-.033-.168-.064-.253-.094,0-1.205.051-2.411.1-3.615.033-.855.079-1.718.071-2.573,0-.308,0-.617-.009-.925,0-.1,0-.194-.01-.289-.016-.214.02-.223-.058-.049a.318.318,0,0,0,0-.259,19.553,19.553,0,0,0,9.818-2.117,21.08,21.08,0,0,0,7.928-7.168A16.784,16.784,0,0,0,48.89,18.035M10.065,37.629c.262-.307.517-.62.771-.935.05.429.145.855.2,1.283.021.173.04.356.072.537a6.718,6.718,0,0,0-1.042-.886m1.385,4.093a2.591,2.591,0,0,1,.035.368,3.39,3.39,0,0,1-.035-.368m.144-3.051a14.134,14.134,0,0,1-.46-2.349q.249-.313.5-.626c.04.181.083.363.118.547a3.263,3.263,0,0,0,.461,1.663.168.168,0,0,0,.031.028q-.326.366-.645.737m.874-.993c-.058-.279-.177-.54-.222-.826-.039-.245-.055-.472-.117-.714-.07-.271-.153-.537-.212-.807q.2-.26.41-.518c.056.466.151.932.248,1.383a3.273,3.273,0,0,0,.305,1.025q-.207.227-.412.456m3.358-3.458a23.7,23.7,0,0,0-1.886,1.858q-.37.393-.736.791c-.074-.265-.185-.532-.249-.776a11.918,11.918,0,0,1-.337-1.647q.472-.594.933-1.2a.154.154,0,0,0,0,.021A10.844,10.844,0,0,1,13.7,34.89c.033.272.087.74.429.771a.1.1,0,0,0,.1-.1,1.415,1.415,0,0,0-.13-.451,3.518,3.518,0,0,1-.1-.7,5.559,5.559,0,0,0-.149-1.226.149.149,0,0,0-.176-.106c.162-.212.324-.423.484-.636a7.839,7.839,0,0,0,.622-.927,18.316,18.316,0,0,0,2.006,2.1c-.357.016-.739.415-.964.606m9.093,4.9a7.331,7.331,0,0,0-.158-1.357q.819.206,1.652.34c-.34.394-.715.76-1.051,1.157-.129.153-.276.325-.411.51q-.015-.325-.032-.65m.1,2.641q-.014-.648-.04-1.3a4.072,4.072,0,0,1,.235-.445,7.692,7.692,0,0,1,.685-.882c.281-.323.566-.644.823-.987q.317.046.635.082c-.5.648-.915,1.348-1.351,2.039-.225.356-.416.729-.624,1.095a4.663,4.663,0,0,1-.361.517c0-.041,0-.082,0-.123m1.91,3.956a6.87,6.87,0,0,0-1.833-.08c0-.075,0-.15,0-.224.215-.288.4-.611.6-.889a7.166,7.166,0,0,1,1.32-1.478c-.044.89-.075,1.781-.086,2.671m.141-3.7c-.014.235-.026.471-.039.707a6.121,6.121,0,0,0-1.482,1.361c-.143.175-.3.361-.456.557q0-.356-.014-.713c.265-.326.57-.611.852-.922.392-.432.771-.88,1.159-1.319q-.01.164-.02.328m.259-2.69c-.1.615-.163,1.238-.207,1.862-.117.12-.226.251-.341.363-.406.4-.772.832-1.161,1.247-.152.162-.352.35-.557.555q-.014-.461-.027-.921c.537-.317.818-1.184,1.1-1.666.422-.729.85-1.479,1.338-2.175a4.714,4.714,0,0,0-.143.735M45.757,26.875A20.09,20.09,0,0,1,42.678,31,20,20,0,0,1,38.883,34.2,18.766,18.766,0,0,1,29.877,37,17.706,17.706,0,0,1,14.6,29.119c-3.232-4.938-4.872-11.764-2.313-17.34A17.523,17.523,0,0,1,18.552,4.7a19.519,19.519,0,0,1,9.573-3.573c.763-.046,1.525-.081,2.288-.057,0,.075,0,.151,0,.228a.188.188,0,0,0-.023.091q0,.551-.005,1.1a1.691,1.691,0,0,0,.089.871.12.12,0,0,0,.1.059,3.919,3.919,0,0,0,.127.919A19.9,19.9,0,0,0,23.33,7.1l-.172.106c-.1-.55-.276-1.09-.364-1.649a14.187,14.187,0,0,1-.215-1.832.172.172,0,0,0-.344,0A15.978,15.978,0,0,0,22.4,5.756c.051.4.058,1.353.427,1.659q-.549.349-1.086.728l-.015-.084a.049.049,0,0,0-.03-.036A12.418,12.418,0,0,1,21.3,5a.17.17,0,0,0-.34,0,11.794,11.794,0,0,0,.115,2.417,2.947,2.947,0,0,0,.243,1.029q-.339.25-.669.513a.131.131,0,0,0,0-.032,8.43,8.43,0,0,0-.4-1.428,9.324,9.324,0,0,1-.247-1.756.153.153,0,0,0-.307,0,8.624,8.624,0,0,0,.129,1.778,3.043,3.043,0,0,0,.549,1.519.146.146,0,0,0,.113.044c-.427.344-.842.7-1.241,1.077a5.278,5.278,0,0,1-.3-1.013,12.715,12.715,0,0,1-.106-1.6.162.162,0,0,0-.323,0,12.03,12.03,0,0,0,.055,1.8A3.149,3.149,0,0,0,18.9,10.5q-.45.442-.869.909c-.062-.218-.138-.433-.2-.662a7.92,7.92,0,0,1-.161-1.826.143.143,0,0,0-.286,0,9.95,9.95,0,0,0,.053,1.71c.059.391.195.758.274,1.142-.192.226-.379.455-.558.689-.052.067-.1.136-.15.2-.027-.1-.059-.193-.081-.266-.177-.593-.186-1.215-.307-1.822-.039-.2-.33-.111-.3.083a17.113,17.113,0,0,0,.227,1.8,3.185,3.185,0,0,0,.146.649c-.117.174-.231.349-.338.527a5.105,5.105,0,0,1-.173-.7,5.916,5.916,0,0,0-.2-1.408c-.064-.178-.346-.106-.288.079a7.373,7.373,0,0,1,.149,1.5,8.033,8.033,0,0,0,.211,1.059q-.278.512-.507,1.043c-.018-.112-.045-.224-.068-.338a8.753,8.753,0,0,1-.238-1.389.145.145,0,0,0-.29,0,6.562,6.562,0,0,0,.151,1.157,4.023,4.023,0,0,0,.226,1.109q-.128.334-.238.674a2.31,2.31,0,0,0-.117-.408,5.473,5.473,0,0,1-.191-1.365.11.11,0,0,0-.22,0,4.868,4.868,0,0,0,.156,1.469c.056.162.036.511.241.572a.086.086,0,0,0,.047,0,13.943,13.943,0,0,0,1.045,10.431A15.933,15.933,0,0,0,27.89,35.492l.155.016c.044.188.078.378.109.568a1.283,1.283,0,0,0,.131.583.076.076,0,0,0,.129,0,.757.757,0,0,0,.029-.578,2.808,2.808,0,0,0-.167-.552q.333.027.662.034c0,.16.011.32.029.479a.972.972,0,0,0,.216.647.136.136,0,0,0,.226-.132,4.276,4.276,0,0,1-.152-.992q.31,0,.617-.024c-.037.439-.055.977.279,1.176a.142.142,0,0,0,.193-.193,2.146,2.146,0,0,1-.162-1.009q.325-.032.646-.082a1.75,1.75,0,0,0,.15,1.068c.082.129.233.23.37.113a.179.179,0,0,0,.03-.262.075.075,0,0,0-.081-.018,1.376,1.376,0,0,1-.146-.543c-.006-.138,0-.276,0-.414q.362-.068.719-.159c-.022.47.008.995.355,1.2.144.087.429.005.374-.206-.026-.1-.072-.1-.127-.089a1.631,1.631,0,0,1-.245-.684c-.01-.106-.013-.212-.014-.318q.373-.107.739-.239a1.3,1.3,0,0,0,.507,1.251c.122.066.317-.047.257-.2a1.465,1.465,0,0,0-.092-.211.088.088,0,0,0-.11-.035,1.6,1.6,0,0,1-.248-.925q.462-.18.91-.4c.007.1.018.2.032.306.04.286.123.836.472.9a.134.134,0,0,0,.163-.156.51.51,0,0,0-.042-.141c-.006-.02-.012-.041-.019-.061a.07.07,0,0,0-.033-.04c-.017-.032-.035-.065-.052-.1a2.719,2.719,0,0,1-.177-.581c-.019-.091-.034-.183-.047-.275q.5-.255.981-.551c.006.519.05,1.082.448,1.29a.17.17,0,0,0,.231-.231,1.822,1.822,0,0,0-.083-.164.066.066,0,0,0-.032-.028,2.914,2.914,0,0,1-.243-1.07q.524-.34,1.023-.723c.006.107.013.214.026.321.033.278.087.652.388.758.193.068.279-.179.179-.307-.017-.021-.048-.105-.058-.124a.08.08,0,0,0-.081-.038,2.4,2.4,0,0,1-.112-.632c-.009-.076-.016-.153-.022-.23q.317-.256.624-.527a1.6,1.6,0,0,0,.338.863c.123.152.382-.012.324-.189q-.077.089-.014.013a.1.1,0,0,0,0-.135.241.241,0,0,0-.089-.064,2.057,2.057,0,0,1-.227-.791q.339-.316.661-.648c.02.072.041.144.066.214.085.243.257.755.582.717a.107.107,0,0,0,.1-.076c.051-.255-.219-.506-.321-.732a2.839,2.839,0,0,1-.148-.416q.27-.29.528-.59l.013.031c.129.288.421.911.815.839a.119.119,0,0,0,.087-.114c.008-.292-.373-.574-.511-.82a2.791,2.791,0,0,1-.129-.261q.265-.322.515-.653c.1.159.178.326.259.495a2.778,2.778,0,0,0,.393.807.14.14,0,0,0,.237-.1,2.172,2.172,0,0,0-.37-.923,3.957,3.957,0,0,0-.339-.521q.242-.329.469-.665l.093-.141c.186.437.325.913.763,1.139a.188.188,0,0,0,.256-.256c-.03-.055-.053-.109-.085-.163a.088.088,0,0,0-.11-.035,6.878,6.878,0,0,1-.623-.995q.229-.36.441-.73c.08.123.163.242.244.356s.529.725.7.368a.135.135,0,0,0-.038-.172c-.011-.017-.023-.036-.034-.051a1.55,1.55,0,0,0-.107-.112,4.963,4.963,0,0,1-.323-.382c-.083-.109-.172-.224-.255-.344q.249-.456.47-.924c.04.056.08.113.123.167.143.18.6.63.78.232a.123.123,0,0,0-.031-.166c-.035-.022-.14,0-.128,0a.588.588,0,0,1-.335-.229,3.2,3.2,0,0,1-.26-.333q.252-.565.459-1.146a1.686,1.686,0,0,0,.628.711.145.145,0,0,0,.147,0c.225-.166-.2-.434-.295-.564-.126-.169-.23-.354-.349-.528q.174-.534.307-1.079a4.747,4.747,0,0,0,.49.681c.136.116.372-.034.262-.2-.127-.2-.273-.388-.419-.57a1.886,1.886,0,0,0-.251-.267q.1-.483.174-.974c.128.136.285.324.481.311a.09.09,0,0,0,.086-.113c-.061-.221-.338-.433-.518-.583q.051-.451.07-.908a.882.882,0,0,0,.311.435.1.1,0,0,0,.149-.061,1.118,1.118,0,0,0-.252-.664q-.091-.157-.2-.3c0-.147,0-.294-.009-.442-.136-3.451-1.7-6.442-3.035-9.539a.442.442,0,0,0-.141-.171,5.638,5.638,0,0,0,.512-.486c.31-.344.569-.729.871-1.079a7.8,7.8,0,0,0,.548-.624c1.907,2.854,3.922,5.622,4.791,9.008a14.575,14.575,0,0,1-1.59,10.552" transform="translate(0 0)" fill="#005fa6" stroke="#005fa6" stroke-width="0.2"/>
      </g>
    </g>
  </g>
</svg>
