<svg xmlns="http://www.w3.org/2000/svg" xmlns:xlink="http://www.w3.org/1999/xlink" width="66" height="71" viewBox="0 0 66 71">
  <defs>
    <clipPath id="clip-path">
      <rect id="Rectangle_1450" data-name="Rectangle 1450" width="46.836" height="52.467" fill="#005fa6" stroke="#005fa6" stroke-width="0.2"/>
    </clipPath>
  </defs>
  <g id="Group_3398" data-name="Group 3398" transform="translate(0 7.118)">
    <ellipse id="Ellipse_10" data-name="Ellipse 10" cx="33" cy="31.941" rx="33" ry="31.941" fill="#f4f7f8"/>
  </g>
  <g id="Group_3404" data-name="Group 3404" transform="translate(9.582)">
    <g id="Group_3403" data-name="Group 3403" clip-path="url(#clip-path)">
      <path id="Path_11572" data-name="Path 11572" d="M11.357,49.935a.166.166,0,0,0,.116-.014c-.054.016.042-.032.074-.077.068-.1.123-.206.192-.3a7.367,7.367,0,0,1,.629-.772c.156-.166-.087-.422-.244-.256a7.955,7.955,0,0,0-.555.666c-.11.146-.345.385-.33.592a.177.177,0,0,0,.119.163m-.572-6.192c.235-.245.478-.483.724-.714.55-.515,1.018-1.109,1.53-1.665.13-.141-.073-.355-.206-.216-.573.6-1.121,1.2-1.725,1.769-.421.394-1.107.892-1.172,1.525-.01.1.11.123.169.073a10,10,0,0,0,.679-.772m1.339,6.509a3.04,3.04,0,0,0-.263.347,1.77,1.77,0,0,0-.107.169.285.285,0,0,0-.025.2.125.125,0,0,0,.152.091c.129-.029.19-.148.263-.255a2.522,2.522,0,0,1,.224-.3c.155-.167-.089-.423-.244-.256M10.372,47.3a4.886,4.886,0,0,0,1.008-1.2,6.787,6.787,0,0,1,1.221-1.23c.161-.119.009-.4-.156-.28a6.934,6.934,0,0,0-1.246,1.2,4.827,4.827,0,0,0-1,1.366.12.12,0,0,0,.172.138m29-34.343c.129-.193-.173-.376-.3-.185a10.971,10.971,0,0,1-1.246,1.4,9.1,9.1,0,0,0-.886,1.162c-.04.06.028.159.1.13.5-.21.731-.707,1.092-1.089a10.963,10.963,0,0,0,1.246-1.415M38.153,42.129c-.756,1.176-1.394,2.417-2.044,3.658-.568,1.084-1,2.211-1.472,3.34-.029.07.034.161.108.114a2.372,2.372,0,0,0,.694-1.081c.3-.684.567-1.367.914-2.028.676-1.288,1.324-2.592,2.086-3.827a.168.168,0,0,0-.286-.175M16.9,24.086a9.246,9.246,0,0,0-1.819,1.473c-.569.549-1.166,1.081-1.71,1.657A22.616,22.616,0,0,0,11.7,29.175c-.384.513-1.069,1.255-1.064,1.944,0,.068.079.127.138.083a2.609,2.609,0,0,0,.584-.816c.221-.366.462-.718.716-1.059a22.891,22.891,0,0,1,1.55-1.843,30.872,30.872,0,0,1,3.364-3.235c.09-.072.014-.222-.091-.163M42.184,28.2c.328-.13.559-.486.8-.733.152-.153.277-.341.43-.5s.334-.323.5-.492c.122-.127-.064-.321-.188-.2a15.461,15.461,0,0,0-1.633,1.794c-.042.058.028.15.091.125M20.714,32.218c-.133.274-.265.548-.377.832-.083.211-.229.475-.138.7a.057.057,0,0,0,.09.012c.154-.144.179-.44.253-.638.1-.273.224-.537.346-.8.056-.121-.115-.228-.174-.107M46.829,9.208a10.191,10.191,0,0,0-1.538-5.922A8.027,8.027,0,0,0,40.724.407,15.2,15.2,0,0,0,35.077.144,44.449,44.449,0,0,0,29.3,1.471a.169.169,0,0,0-.215-.1,12,12,0,0,1-3.9.757A19.711,19.711,0,0,1,21.363,1.9C18.888,1.535,16.443.944,13.976.523,9.986-.158,5.494.135,2.509,3.337A9.377,9.377,0,0,0,.019,9.253a13.4,13.4,0,0,0,.256,3.338c.136.7.356,1.375.523,2.066A50.426,50.426,0,0,1,1.655,20.3q.193,1.557.374,3.116c0,.007,0,.013,0,.02C2.644,28.659,3.193,33.888,3.9,39.1a70.687,70.687,0,0,0,1.207,7.129,8.158,8.158,0,0,0,5.32,6.052,5.843,5.843,0,0,0,5.666-1.713,11.452,11.452,0,0,0,2.752-5.1A31.841,31.841,0,0,0,19.8,39.4a11.039,11.039,0,0,1,.853-3.809,6.121,6.121,0,0,1,2.222-2.521,11.3,11.3,0,0,1,1.138-.667,2.211,2.211,0,0,1,1.217.281,4.212,4.212,0,0,1,1.695,2.2A37.225,37.225,0,0,1,28.87,41.2a21,21,0,0,0,1.942,5.718,8.411,8.411,0,0,0,3.856,3.638,6.119,6.119,0,0,0,5.217-.22,6.785,6.785,0,0,0,2.858-3.694,27.58,27.58,0,0,0,1.135-6.667c.616-5.486,1.246-10.97,1.839-16.459A116.14,116.14,0,0,0,46.829,9.208M10.2,46c.588-.092,1.129-.881,1.488-1.325.424-.523.815-1.075,1.263-1.576-.009.084-.018.168-.026.253-.087.89-.159,1.781-.206,2.674a.148.148,0,0,0-.178.035,14.278,14.278,0,0,0-1.285,1.462c-.279.38-.729.94-.656,1.449a.128.128,0,0,0,.216.06,2.721,2.721,0,0,0,.337-.655,5.365,5.365,0,0,1,.478-.749A14.262,14.262,0,0,1,12.7,46.386q-.023.514-.034,1.028a21.058,21.058,0,0,0,.16,3.76,4.235,4.235,0,0,1-2.031-.041,8.692,8.692,0,0,1-.983-4.364c0-1.413.105-2.828.23-4.238.015-.019.028-.039.044-.058a8.018,8.018,0,0,1,.877-.884A16.277,16.277,0,0,0,12.748,39.9c.1-.125-.066-.308-.176-.184a23.885,23.885,0,0,1-2.046,1.8c-.128.115-.277.247-.427.393q.049-.537.1-1.073a2.992,2.992,0,0,1,.266-.324c.364-.381.764-.721,1.139-1.089a30.92,30.92,0,0,0,2.244-2.245,55.031,55.031,0,0,0-.851,5.5.15.15,0,0,0-.181.038c-.478.51-.885,1.086-1.327,1.63a10.11,10.11,0,0,1-.684.774,4.207,4.207,0,0,0-.719.71A.11.11,0,0,0,10.2,46M14.151,34.92a3.313,3.313,0,0,0-1.17.858c-.54.541-1.056,1.115-1.612,1.637-.325.305-.657.6-.962.925q.05-.691.087-1.383c.019-.024.038-.049.058-.072a5.807,5.807,0,0,1,.6-.607c.451-.4.933-.752,1.382-1.152a17.578,17.578,0,0,0,2.579-2.6,38.723,38.723,0,0,0-1.1,3.875c-.029.126-.055.253-.083.379a.1.1,0,0,0-.12.036,28.91,28.91,0,0,1-2.646,2.525c-.307.28-.621.553-.913.85q.053-.6.1-1.206c.07-.091.139-.18.211-.262a11.95,11.95,0,0,1,.88-.889c.482-.447.918-.948,1.366-1.433a4.661,4.661,0,0,1,1.4-1.265c.125-.054.076-.268-.057-.218m-3.628,1.406q.017-.4.028-.807l0,0c.3-.353.616-.7.93-1.044.58-.634,1.172-1.257,1.75-1.893.539-.592,1.02-1.225,1.612-1.76a8.842,8.842,0,0,0,.882-.86,3.024,3.024,0,0,1,.745-.748,28.754,28.754,0,0,0-1.188,2.83.066.066,0,0,0-.061.028,19.7,19.7,0,0,1-3.061,2.886c-.446.385-.928.722-1.365,1.119-.083.076-.178.161-.274.252M25.79,31.919c-.069-.038-.139-.074-.211-.106,0-.012-.007-.024-.011-.036l.012-.061h0c.116-.044.233-.088.35-.13a1.294,1.294,0,0,0-.14.334m6.279,14.848A17.077,17.077,0,0,1,30.08,41.4c-.238-.969-.475-1.932-.745-2.884l0-.017c.051-.2.116-.388.176-.581a.157.157,0,1,0-.3-.087c-.013.037-.027.078-.043.119q-.072-.241-.149-.481l0-.01c.1-.252.187-.506.3-.754.087-.2-.184-.372-.283-.173-.067.134-.129.269-.19.406q-.1-.3-.211-.6c.006-.022.012-.044.019-.066a3.618,3.618,0,0,1,.376-.732.151.151,0,0,0-.258-.158c-.107.159-.217.32-.314.487-.072-.186-.147-.372-.224-.557l-.078-.184a2.86,2.86,0,0,1,.49-.8c.14-.158-.08-.391-.226-.237a3.576,3.576,0,0,0-.454.612q-.054-.118-.11-.235c.193-.437.474-.828.642-1.278.063-.17-.209-.292-.283-.125a10.205,10.205,0,0,1-.6.933c-.1-.181-.2-.358-.306-.528,0,0,0-.008,0-.012a3.624,3.624,0,0,1,.171-.351c.166-.352.37-.683.531-1.039.081-.179-.162-.336-.258-.158-.215.4-.512.756-.722,1.157-.082-.11-.166-.216-.255-.318a.093.093,0,0,0-.044-.072l-.011,0a4.634,4.634,0,0,1,.748-1.37.164.164,0,0,0-.28-.171,7.3,7.3,0,0,0-.832,1.2q-.1-.087-.207-.167c0-.005,0-.01,0-.015.067-.536.49-.887.682-1.372.067-.168-.209-.292-.283-.125a2.391,2.391,0,0,1-.3.472.443.443,0,0,0-.469-.491,4.529,4.529,0,0,0,.3-.728.144.144,0,1,0-.278-.08,10.832,10.832,0,0,1-.493.966c-.268.1-.538.2-.806.318a7.012,7.012,0,0,1,.453-.688c.094-.131-.116-.3-.217-.176a5.205,5.205,0,0,0-.741,1.086c-.329.151-.654.313-.971.491a2.721,2.721,0,0,1,.516-.9c.108-.123-.063-.3-.175-.184a3.113,3.113,0,0,0-.736,1.317,9.4,9.4,0,0,0-1.01.714c.137-.375.3-.738.468-1.1.069-.152-.142-.285-.217-.133-.188.378-.375.758-.534,1.151a3.834,3.834,0,0,0-.2.508,6.82,6.82,0,0,0-.909,1.063c-1.355,1.978-1.391,4.4-1.688,6.719-.461,3.6-1.344,8.264-4.885,9.912-.127.059-.254.11-.381.156.055-1.049.046-2.1.106-3.151.065-1.137.175-2.273.294-3.405.214-2.025.511-4.036.918-6.028A32.449,32.449,0,0,1,18.6,27.58c1.562-2.488,4.922-6.36,7.795-3.438a8.518,8.518,0,0,1,1.36,2.013,17.153,17.153,0,0,1,1.16,2.742,61.132,61.132,0,0,1,1.6,6.018c.535,2.419,1.1,4.831,1.548,7.269.368,1.994.741,3.986,1.138,5.974a8.182,8.182,0,0,1-1.131-1.39m5.633,2.6a.518.518,0,0,0-.258.464q-.158.012-.317.014a5.579,5.579,0,0,0,.43-.919c.158-.376.329-.743.507-1.106-.109.519-.238,1.03-.362,1.546m.547-2.6c-.324.583-.655,1.166-.935,1.774-.195.422-.44.846-.6,1.291a5,5,0,0,1-.563-.067c-.12-.022-.237-.049-.353-.08.159-.313.283-.653.44-.962.257-.508.545-1,.841-1.483.453-.739.918-1.471,1.347-2.225-.039.586-.1,1.171-.18,1.753m.222-2.528c-.543.987-1.19,1.9-1.785,2.853-.3.481-.591.97-.851,1.477a5.763,5.763,0,0,0-.442.992A5.527,5.527,0,0,1,34.253,49q-.06-.452-.121-.9c.252-.2.353-.763.458-1.008.364-.845.825-1.624,1.259-2.428.423-.786.815-1.587,1.273-2.353a15.3,15.3,0,0,0,1.227-2.176c.065-.165-.2-.285-.276-.122a17.047,17.047,0,0,1-1.244,2.015c-.453.73-.859,1.491-1.261,2.253-.385.729-.81,1.428-1.162,2.179-.125.268-.251.537-.351.817-.008.022-.016.05-.024.081q-.091-.662-.188-1.322l.017-.046c.161-.426.338-.845.523-1.26.351-.784.737-1.548,1.093-2.329a39.559,39.559,0,0,1,2.482-4.645.144.144,0,0,0-.245-.15A32.9,32.9,0,0,0,35.1,42.266c-.358.781-.746,1.546-1.1,2.331q-.143.322-.278.649-.085-.558-.174-1.115c.476-.288.571-1.191.73-1.671a23.681,23.681,0,0,1,1.238-2.9c.425-.872.832-1.753,1.254-2.627a9.474,9.474,0,0,1,1.26-2.23c.13-.147-.076-.366-.211-.221A7.873,7.873,0,0,0,36.67,36.33c-.454.892-.89,1.791-1.329,2.691-.412.846-.84,1.676-1.177,2.559-.251.659-.384,1.436-.689,2.083q-.119-.717-.249-1.433-.078-.427-.16-.852a.147.147,0,0,0,.2-.051,22.142,22.142,0,0,0,.878-2.308c.3-.717.623-1.422.939-2.13s.663-1.429,1.008-2.136.79-1.325,1.123-2.026c.075-.157-.145-.3-.227-.139-.358.688-.83,1.3-1.191,1.985-.392.745-.755,1.508-1.1,2.276-.334.735-.679,1.465-.982,2.215a8.879,8.879,0,0,0-.7,2.04q-.194-.989-.406-1.974l.017-.047a24.943,24.943,0,0,1,1.284-2.7c.479-.91.922-1.84,1.38-2.762.471-.946,1.059-1.843,1.466-2.821.066-.16-.155-.3-.227-.139-.36.815-.883,1.529-1.294,2.314-.395.753-.768,1.519-1.155,2.276-.4.776-.818,1.537-1.2,2.32-.144.293-.286.589-.414.891q-.169-.777-.341-1.554a1.634,1.634,0,0,0,.14-.322c.123-.314.246-.628.372-.94.249-.618.483-1.24.769-1.841.354-.742.707-1.483,1.075-2.218a4.357,4.357,0,0,1,.93-1.626c.114-.087.009-.286-.113-.2a3.423,3.423,0,0,0-.932,1.356c-.387.747-.79,1.482-1.16,2.239-.335.686-.609,1.383-.9,2.091-.11.269-.22.538-.326.809l0,.006q-.1-.464-.2-.928c-.03-.137-.061-.275-.091-.412a11.278,11.278,0,0,1,.48-1.282,14.2,14.2,0,0,0,.63-1.328,17.32,17.32,0,0,1,.731-1.683c.254-.506.575-.97.821-1.48.065-.136-.125-.255-.2-.12-.274.526-.637.993-.911,1.519a16.647,16.647,0,0,0-.715,1.6c-.22.558-.528,1.058-.778,1.6-.07.152-.149.316-.217.485q-.209-.924-.436-1.843a6.064,6.064,0,0,0,.468-1.193c.184-.5.395-.991.6-1.486a6.973,6.973,0,0,1,1.238-2.382.1.1,0,0,0-.135-.141,6.364,6.364,0,0,0-1.328,2.3c-.178.429-.372.849-.541,1.282-.13.334-.316.707-.432,1.081q-.194-.76-.407-1.514a1.52,1.52,0,0,0,.34-.643c.139-.382.3-.75.46-1.124a11.207,11.207,0,0,1,1.093-2.2c.116-.165-.145-.319-.261-.16a11.181,11.181,0,0,0-1.126,2.181c-.134.307-.287.606-.408.919-.071.182-.161.367-.235.555-.094-.32-.191-.64-.292-.958q-.056-.177-.115-.354a3.751,3.751,0,0,0,.34-.751c.164-.373.352-.733.541-1.092.364-.694.751-1.374,1.084-2.085.078-.166-.155-.313-.239-.147-.377.75-.828,1.452-1.239,2.181-.2.352-.386.713-.55,1.085-.04.092-.083.183-.12.275-.117-.333-.242-.665-.375-.994a5.336,5.336,0,0,0,.3-.7,6.938,6.938,0,0,1,.446-.915,14.615,14.615,0,0,0,1.13-1.756c.069-.163-.154-.308-.233-.143a17.46,17.46,0,0,1-1.254,1.771,6.782,6.782,0,0,0-.618,1.2q-.164-.368-.346-.726c.036-.1.065-.2.1-.3a5.637,5.637,0,0,1,.409-.88,8.486,8.486,0,0,0,.851-1.434c.062-.178-.2-.247-.267-.077a16.826,16.826,0,0,1-1.034,1.585,6.325,6.325,0,0,0-.312.642q-.136-.242-.283-.477c.017-.056.028-.115.045-.185a3.745,3.745,0,0,1,.282-.769,7.5,7.5,0,0,1,.724-1.169c.093-.127-.112-.292-.212-.171a6.851,6.851,0,0,0-.876,1.279,3.514,3.514,0,0,0-.25.583c-.151-.215-.309-.424-.476-.624a3.568,3.568,0,0,1,.214-.569,4.291,4.291,0,0,1,.834-1.153c.12-.114-.055-.29-.176-.184a4.649,4.649,0,0,0-1.005,1.288c-.049.091-.1.192-.153.3a5.45,5.45,0,0,0-.535-.486,4.222,4.222,0,0,1,.194-.415,5.572,5.572,0,0,1,.666-.979c.114-.13-.064-.319-.186-.195a5.445,5.445,0,0,0-.825,1.089c-.048.085-.1.179-.151.278a4.726,4.726,0,0,0-.559-.327c.049-.13.093-.262.146-.37.173-.346.377-.661.576-.99a.126.126,0,0,0-.214-.131,8.974,8.974,0,0,0-.645.948c-.061.114-.137.25-.2.393a4.186,4.186,0,0,0-.412-.138c.187-.418.622-.846.556-1.32a.108.108,0,0,0-.211-.039c-.148.468-.488.831-.644,1.288a3.9,3.9,0,0,0-1.865.087,8.648,8.648,0,0,0-4.151,3.237,22.251,22.251,0,0,0-2.26,3.658.059.059,0,0,0-.058-.008c-.607.233-1.017.863-1.51,1.279a19.947,19.947,0,0,0-1.845,1.829c-.62.674-1.252,1.336-1.874,2.008-.221.239-.47.484-.715.739,0-.148,0-.3,0-.443,0-.347-.007-.692-.02-1.036a1.894,1.894,0,0,1,.254-.378c.244-.281.525-.518.783-.782.663-.677,1.248-1.44,1.912-2.12s1.364-1.376,2.073-2.023c.419-.382.854-.747,1.3-1.088.342-.258.612-.663,1.048-.749.062-.012.047-.116-.015-.115a1.612,1.612,0,0,0-.937.422c-.412.315-.839.606-1.238.941-.867.728-1.686,1.543-2.486,2.35-.718.724-1.347,1.557-2.086,2.253-.172.161-.422.376-.647.62-.064-1.014-.183-2.018-.346-3.02.539-.534.993-1.2,1.5-1.757.538-.591,1.088-1.172,1.657-1.731.6-.59,1.217-1.165,1.791-1.784a5.675,5.675,0,0,1,1.616-1.439c.163-.077.021-.324-.14-.251a5.448,5.448,0,0,0-1.619,1.373c-.586.621-1.221,1.189-1.832,1.783-.592.576-1.165,1.176-1.725,1.787a12.431,12.431,0,0,0-1.329,1.567q-.092-.527-.2-1.053-.05-.247-.1-.494c.023-.033.047-.065.073-.1a7.179,7.179,0,0,1,.759-.785,19.424,19.424,0,0,0,1.469-1.4c1.2-1.345,2.537-2.535,3.837-3.767.124-.118-.059-.308-.183-.192-1.371,1.281-2.8,2.494-4.061,3.9-.459.512-1.015.913-1.512,1.382-.144.136-.318.3-.483.478q-.13-.605-.264-1.209l.067-.1c.228-.337.463-.668.711-.989.509-.658,1.092-1.22,1.658-1.82.6-.636,1.2-1.268,1.833-1.872a7.321,7.321,0,0,1,1.762-1.562c.156-.068.093-.338-.072-.273a5.637,5.637,0,0,0-1.53,1.213c-.721.645-1.4,1.34-2.075,2.037-.6.616-1.211,1.2-1.748,1.873-.251.317-.491.644-.722.977q-.126-.574-.249-1.147a7.853,7.853,0,0,1,.68-.9c.448-.519.937-1,1.411-1.494,1.2-1.24,2.434-2.434,3.677-3.621a.144.144,0,0,0-.2-.208c-1.321,1.232-2.65,2.456-3.91,3.757-.483.5-.985.982-1.429,1.52-.107.13-.227.273-.341.424-.11-.531-.215-1.064-.311-1.6a8.5,8.5,0,0,1,.7-.927c.494-.574,1.03-1.108,1.549-1.657q.845-.9,1.683-1.8a8.46,8.46,0,0,1,1.676-1.666.144.144,0,0,0-.14-.251,8.028,8.028,0,0,0-1.672,1.557q-.942.964-1.878,1.935C10,20,9.424,20.557,8.91,21.176c-.116.139-.245.293-.372.456q-.1-.62-.185-1.243c.017-.027.033-.053.051-.079a9.735,9.735,0,0,1,.73-.922c.443-.513.863-1.055,1.32-1.553.493-.538,1.089-.96,1.581-1.492a9.677,9.677,0,0,1,1.517-1.621c.133-.091.011-.314-.125-.225a8.1,8.1,0,0,0-1.493,1.522c-.534.6-1.226,1.035-1.772,1.631-.505.553-.99,1.14-1.478,1.711-.123.144-.263.3-.4.469-.053-.48-.095-.962-.121-1.446.023-.045.046-.089.07-.131a8.183,8.183,0,0,1,.7-.989c.419-.515.877-.992,1.327-1.475A34.275,34.275,0,0,1,13.3,12.672c.108-.09-.036-.288-.148-.2a31.342,31.342,0,0,0-3.29,3.215A17.986,17.986,0,0,0,8.38,17.367c-.072.1-.156.2-.243.32q0-.179-.006-.359c0-.427,0-.87.02-1.32.112-.15.23-.295.353-.435.419-.478.874-.932,1.326-1.376.527-.517,1.085-1.013,1.627-1.513a8.87,8.87,0,0,0,1.429-1.352c.066-.1-.088-.223-.158-.128a4.257,4.257,0,0,1-.848.747c-.277.222-.546.465-.815.7-.574.5-1.156,1.006-1.7,1.542-.4.393-.81.774-1.179,1.2q.027-.379.069-.761c.077-.152.15-.3.227-.422a18.7,18.7,0,0,1,1.187-1.7,14.1,14.1,0,0,1,2.76-2.74c.09-.065.008-.218-.087-.156a12.737,12.737,0,0,0-2.9,2.656c-.37.454-.72.928-1.046,1.417q.057-.318.131-.632a4.333,4.333,0,0,1,.6-1.017c.359-.437.765-.829,1.16-1.23.271-.275.509-.57.76-.864.276-.325.654-.836,1.089-.9.085-.012.064-.158-.02-.156-.847.024-1.439,1.108-2,1.655-.4.393-.817.776-1.187,1.2A6.689,6.689,0,0,1,9.988,9.883a4.6,4.6,0,0,1,3.907-1.641,16.314,16.314,0,0,1,2.819.593c.939.225,1.87.486,2.814.689a15.265,15.265,0,0,0,4.479.3c-.09.1-.182.2-.271.3-.161.184-.436.465-.348.739a.086.086,0,0,0,.127.054.738.738,0,0,0,.23-.3,4.666,4.666,0,0,1,.358-.486,3.453,3.453,0,0,0,.243-.341c.279-.028.559-.063.841-.106.2-.03.394-.063.59-.1-.06.067-.119.135-.173.207a3.542,3.542,0,0,0-.742,1.115.087.087,0,0,0,.1.109c.361-.115.628-.675.843-.972.135-.185.293-.364.443-.548.434-.085.867-.179,1.3-.276-.109.108-.217.208-.312.3a2.941,2.941,0,0,0-.9,1.267.179.179,0,0,0,.256.207.58.58,0,0,0,.141-.078.1.1,0,0,0,0-.16l0,0A10.04,10.04,0,0,1,28.07,9.105c.55-.126,1.1-.255,1.65-.373-.111.118-.217.242-.317.368-.241.3-.693.745-.7,1.158a.112.112,0,0,0,.139.111c.338-.132.552-.622.764-.907A5.858,5.858,0,0,1,30.34,8.6l.288-.056c.319-.061.644-.118.973-.168-.269.324-.506.67-.8.989-.188.2-.676.641-.558.979a.135.135,0,0,0,.124.1c.093,0,.13-.1.178-.167.155-.208.293-.423.467-.618.379-.426.659-.917,1.033-1.344.4-.052.8-.091,1.2-.112q-.365.388-.7.8a3.673,3.673,0,0,0-.79,1.128.1.1,0,0,0,.148.119,3.408,3.408,0,0,0,.948-1.041c.266-.344.528-.689.808-1.02a9.83,9.83,0,0,1,1.3.06c-.257.287-.545.544-.827.812a3.5,3.5,0,0,0-.984,1.362.094.094,0,0,0,.135.109c.508-.317.823-.936,1.253-1.355a9.116,9.116,0,0,0,.818-.871c.175.029.349.062.521.1.133.032.262.071.39.112a9.217,9.217,0,0,1-.907.971,3.069,3.069,0,0,0-.933,1.314.107.107,0,0,0,.153.123c.472-.27.8-.9,1.18-1.3a7.032,7.032,0,0,0,.832-.987,4.978,4.978,0,0,1,.8.409,14.164,14.164,0,0,1-1.166,1.5,2.825,2.825,0,0,0-.79,1.347.108.108,0,0,0,.162.1,8.479,8.479,0,0,0,1.095-1.391,11.88,11.88,0,0,0,.99-1.356A5.235,5.235,0,0,1,38.4,9.9a9.087,9.087,0,0,0-1.078,1.3,5.654,5.654,0,0,0-.974,1.536.107.107,0,0,0,.153.123,3.947,3.947,0,0,0,.989-1.274,9.505,9.505,0,0,1,1.128-1.438,5.945,5.945,0,0,1,.518.738.174.174,0,0,0-.065.056,19.826,19.826,0,0,1-1.469,1.778,3.5,3.5,0,0,0-1.064,1.467c-.016.078.071.177.145.117a9.636,9.636,0,0,0,1.341-1.487c.432-.541.884-1.061,1.28-1.633q.078.149.15.3a8.592,8.592,0,0,1,.69,2.472.183.183,0,0,0-.04.031c-.552.571-1.154,1.118-1.67,1.724-.28.329-.771.73-.794,1.2a.1.1,0,0,0,.149.09,6.887,6.887,0,0,0,1.039-1.146c.444-.5.909-.974,1.367-1.458a13.265,13.265,0,0,1,.053,1.518,8.335,8.335,0,0,1-1.077,1.371,6.328,6.328,0,0,0-1.236,1.41.1.1,0,0,0,.128.134,6.007,6.007,0,0,0,1.476-1.384,10.017,10.017,0,0,0,.679-.834q-.012.186-.028.37c-.027.307-.067.61-.116.91a.2.2,0,0,0-.1.076q-.457.635-.96,1.231a5,5,0,0,0-.8,1.038.1.1,0,0,0,.135.142,3.819,3.819,0,0,0,1.039-1.023q.281-.337.546-.687c-.136.639-.306,1.269-.482,1.9q-.162.186-.331.366a4.839,4.839,0,0,0-.906,1.044.1.1,0,0,0,.133.139,3.563,3.563,0,0,0,.892-.8c-.116.411-.231.824-.337,1.24a.14.14,0,0,0-.062.039,5,5,0,0,0-.785,1.134c-.037.071.051.145.107.087.209-.217.4-.452.6-.682a25.629,25.629,0,0,0-.771,5.751c-.014,2.06.152,4.115.275,6.169.12,2,.193,4.017.229,6.025.018,1.049.025,2.1-.019,3.156m7.251-31.5c-.035.669-.1,1.336-.165,2-.212,2.275-.452,4.546-.695,6.817a7.442,7.442,0,0,0-2.2,2.177c-.034.055.033.126.086.09a7.7,7.7,0,0,0,1.156-1.11,10.8,10.8,0,0,1,.928-.868v0q-.054.5-.108,1a7.665,7.665,0,0,1-1.159,1.132,4.892,4.892,0,0,0-1.1,1.383c-.03.072.037.172.113.119a10.937,10.937,0,0,0,1.454-1.5c.2-.208.44-.4.641-.628l-.1.972c-.349.379-.732.715-1.107,1.066a3.244,3.244,0,0,0-.917,1.148.088.088,0,0,0,.127.1A9.519,9.519,0,0,0,43.749,25.6c.258-.253.515-.507.76-.773q-.148,1.367-.3,2.734c-.262.207-.542.391-.784.625-.287.276-.584.549-.866.83a.094.094,0,0,0,.062.158c.4.055.689-.343.928-.616a5.85,5.85,0,0,1,.614-.579q-.057.513-.113,1.026a5.506,5.506,0,0,0-1.875,1.863A.093.093,0,0,0,42.3,31a5.794,5.794,0,0,0,1.1-1c.189-.177.392-.335.594-.494q-.068.615-.137,1.23h0a3.814,3.814,0,0,1-.888.93,1.806,1.806,0,0,0-.7.875.079.079,0,0,0,.114.092,9.2,9.2,0,0,0,.946-.812,5.9,5.9,0,0,0,.455-.428q-.063.564-.127,1.127a.121.121,0,0,0-.121.038,4.576,4.576,0,0,0-.793.837.072.072,0,0,0,.1.1,4.245,4.245,0,0,0,.778-.623q-.09.8-.18,1.6c-.178.173-.387.323-.556.5a4.163,4.163,0,0,0-.783.936.072.072,0,0,0,.1.1,4.549,4.549,0,0,0,.956-.888c.075-.078.157-.155.24-.233q-.048.418-.1.837a3.733,3.733,0,0,1-.692.854c-.211.2-.518.4-.614.7a.085.085,0,0,0,.078.107c.322-.039.593-.359.809-.588.12-.127.235-.259.342-.4q-.049.43-.1.859a.127.127,0,0,0-.067.065,3.744,3.744,0,0,1-.5.746c-.191.226-.449.394-.629.625a.079.079,0,0,0,.052.132c.3.017.571-.3.753-.517a4.723,4.723,0,0,0,.319-.42q-.04.348-.079.7c-.015.131-.031.262-.046.393a.169.169,0,0,0-.169.07,3.88,3.88,0,0,1-.563.624c-.178.157-.449.265-.572.477a.1.1,0,0,0,.056.144c.269.061.525-.182.718-.35a3.931,3.931,0,0,0,.474-.5q-.052.435-.1.87a.17.17,0,0,0-.043.02,4.658,4.658,0,0,0-.714.6,2.055,2.055,0,0,0-.571.687c-.025.068.047.117.1.107a1.356,1.356,0,0,0,.645-.474,5.89,5.89,0,0,1,.524-.484l-.055.449q-.049.4-.1.792c-.005.042-.018.16,0-.035-.006.051-.011.1-.017.152a.2.2,0,0,0-.2.192c-.033.648-.889.86-1.1,1.422a.1.1,0,0,0,.115.121,2.611,2.611,0,0,0,.873-.631,2.394,2.394,0,0,0,.221-.246q-.067.537-.167,1.068A8.969,8.969,0,0,1,40.458,48.4a4.289,4.289,0,0,1-1.733,1.166,15.979,15.979,0,0,0,.575-2.328,28.172,28.172,0,0,0,.268-3.114c.069-2.107-.065-4.211-.193-6.313-.13-2.128-.41-4.241-.576-6.367a18.411,18.411,0,0,1,.378-6.541c.593-2.012,1.432-3.921,1.837-5.994a15.1,15.1,0,0,0,.051-5.959A7.781,7.781,0,0,0,38.4,8.366a7.417,7.417,0,0,0-4.753-1.284c-3.905.041-7.607,1.881-11.525,1.675a15.842,15.842,0,0,1-2.967-.518c-.986-.244-1.987-.462-2.962-.747a7,7,0,0,0-5.473.27C8.29,9.1,7.413,12.136,7.117,14.8a30.784,30.784,0,0,0,.911,10.209c.471,2.064.992,4.121,1.285,6.223a29.837,29.837,0,0,1,.2,5L9.5,36.26a.163.163,0,0,0,.007.144c-.016.5-.038.991-.063,1.483-.114,2.25-.308,4.495-.376,6.747a14.8,14.8,0,0,0,.456,5.224,5.686,5.686,0,0,0,.436.973,6,6,0,0,1-1.679-1.184,8.528,8.528,0,0,1-.763-.867c.016-.033.032-.065.049-.094.134-.227.27-.451.386-.689.095-.194-.184-.366-.28-.171-.112.227-.242.442-.371.659q-.2-.287-.377-.591c.166-.335.4-.626.561-.963.091-.185-.173-.348-.267-.164-.136.266-.338.505-.488.769-.025-.048-.05-.1-.074-.145s-.043-.095-.065-.142l-.009-.019L6.575,47.2q-.073-.2-.137-.41a1.763,1.763,0,0,1,.1-.254,4.272,4.272,0,0,1,.655-.919c.137-.151-.078-.377-.219-.229a4.99,4.99,0,0,0-.683.888q-.114-.413-.211-.832c.024-.051.048-.1.075-.146a6.044,6.044,0,0,1,.771-1.022c.152-.164-.086-.413-.239-.251a6.63,6.63,0,0,0-.721.912q-.088-.414-.166-.831c.071-.143.122-.3.182-.445a2.472,2.472,0,0,1,.573-.933c.161-.147-.073-.39-.234-.245a2.467,2.467,0,0,0-.578.878c-.017.039-.035.08-.054.121q-.1-.585-.187-1.172c.081-.158.142-.338.222-.475a5.006,5.006,0,0,1,.634-.858c.132-.143-.075-.361-.208-.219a5.392,5.392,0,0,0-.66.87l-.073.116c-.056-.379-.11-.757-.166-1.133a7.063,7.063,0,0,1,.831-1.37c.143-.137-.067-.353-.211-.221a3.376,3.376,0,0,0-.652.9c-.018.032-.036.064-.054.1q-.09-.619-.176-1.239c.106-.143.222-.279.335-.417a2.515,2.515,0,0,0,.626-1.147.069.069,0,1,0-.132-.038,3.623,3.623,0,0,1-.884,1.21q-.089-.65-.175-1.3a4.375,4.375,0,0,0,.639-.8c.322-.463.626-.937.975-1.378.138-.175-.094-.428-.242-.253-.315.373-.6.77-.886,1.167-.173.239-.375.472-.558.717q-.082-.629-.161-1.259a4.254,4.254,0,0,1,.443-.69,9,9,0,0,0,.855-1.083.146.146,0,0,0-.248-.152c-.247.381-.763.811-1.131,1.281q-.039-.313-.077-.626c.25-.265.471-.571.7-.847a5.671,5.671,0,0,0,.767-1.1c.1-.191-.178-.36-.276-.169a6.4,6.4,0,0,1-.916,1.233c-.113.13-.23.26-.337.4q-.06-.491-.118-.982l.011-.008a2.148,2.148,0,0,0,.314-.441,4.157,4.157,0,0,1,.44-.531,3.472,3.472,0,0,0,.708-.939c.09-.207-.2-.39-.3-.181a4.511,4.511,0,0,1-.88,1.063,2.521,2.521,0,0,0-.364.471q-.076-.644-.151-1.289a2.58,2.58,0,0,1,.366-.486c.261-.286.553-.537.82-.816.133-.139-.071-.352-.206-.216a14.536,14.536,0,0,0-1.037,1.024q-.062-.537-.124-1.075c.126-.166.235-.355.345-.516a12.189,12.189,0,0,0,.674-1.085c.09-.167-.151-.315-.245-.15A11.8,11.8,0,0,1,3.9,28.381c-.052.073-.111.147-.17.222q-.088-.764-.175-1.528c.032-.061.066-.121.1-.178a4.629,4.629,0,0,1,1.184-1.268c.135-.1.011-.324-.129-.231A4.959,4.959,0,0,0,3.5,26.582l-.12-1.051a4.1,4.1,0,0,1,.274-.405A3.1,3.1,0,0,0,4.414,23.9a.1.1,0,1,0-.191-.055,4.179,4.179,0,0,1-.9,1.232q-.057-.5-.115-1l.041-.064a8.169,8.169,0,0,1,1.084-1.478c.152-.142-.068-.365-.221-.232a6.209,6.209,0,0,0-.97,1.2q-.07-.6-.14-1.191l-.011-.089c.243-.356.5-.705.717-1.077a.153.153,0,0,0-.261-.16c-.161.255-.338.5-.516.738l-.081-.687c.1-.172.2-.346.306-.5A5.382,5.382,0,0,0,3.8,19.371c.054-.148-.185-.256-.246-.109a6.267,6.267,0,0,1-.768,1.224l0,0q-.07-.585-.144-1.169l.085-.107a3.448,3.448,0,0,0,.743-1.305c.021-.085-.106-.15-.141-.062a4,4,0,0,1-.737,1.072c-.149-1.162-.314-2.321-.515-3.472-.154-.88-.416-1.71-.619-2.578a10.573,10.573,0,0,1,.221-6.231,8.232,8.232,0,0,1,4.3-4.42,12.347,12.347,0,0,1,5.858-.825c.187.013.373.03.56.047l-.019.027a1.136,1.136,0,0,0-.308.684A.076.076,0,0,0,12.2,2.2a4.231,4.231,0,0,0,.514-.688l.031-.044q.342.037.684.083c-.072.076-.145.151-.217.227-.164.174-.407.393-.409.655a.08.08,0,0,0,.119.072,1,1,0,0,0,.295-.3c.107-.13.221-.252.327-.382.063-.076.123-.153.18-.232q.339.048.678.1c-.04.071-.082.143-.128.212-.209.315-.531.62-.466,1.035a.089.089,0,0,0,.15.042,7.248,7.248,0,0,0,.575-.857,2.645,2.645,0,0,0,.195-.378q.478.08.956.168c-.155.222-.367.42-.506.625a4.185,4.185,0,0,0-.545,1.217c-.02.078.068.16.137.111.431-.308.518-.854.816-1.275A5.412,5.412,0,0,0,16,1.978l.8.153a9.825,9.825,0,0,1-.809,1.161c-.212.261-.483.541-.345.908a.09.09,0,0,0,.164.022c.42-.683.943-1.31,1.309-2.03l.958.182a.153.153,0,0,0-.09.074c-.211.364-.45.709-.669,1.068a1.952,1.952,0,0,0-.377.948.08.08,0,0,0,.135.059,4.586,4.586,0,0,0,.58-.876c.209-.339.419-.677.607-1.03a.163.163,0,0,0-.051-.218c.423.079.846.155,1.27.225-.23.305-.47.6-.674.929s-.465.757-.3,1.152a.09.09,0,0,0,.158,0c.212-.392.321-.812.57-1.192.187-.286.4-.555.594-.833.347.055.694.105,1.042.15-.133.218-.272.433-.412.648a2.276,2.276,0,0,0-.519,1.083c0,.087.106.165.179.107a3.572,3.572,0,0,0,.667-.99c.163-.265.326-.53.477-.8q.594.067,1.19.1c-.121.174-.235.351-.343.527a2.384,2.384,0,0,0-.335.71.435.435,0,0,0,.1.413.134.134,0,0,0,.227-.1c-.006.114.014,0,.037-.065s.039-.152.067-.226a4.37,4.37,0,0,1,.345-.687c.109-.185.223-.371.344-.551q.573.023,1.148.01c-.4.524-1.029,1.208-.674,1.644a.128.128,0,0,0,.186,0c.121-.121.114-.26.17-.42a2.354,2.354,0,0,1,.354-.6A5,5,0,0,0,24.518,3c.375-.02.75-.052,1.127-.1l.152,0a7.154,7.154,0,0,0-.557.752c-.109.189-.373.517-.285.754a.2.2,0,0,0,.238.142l.023-.005a.152.152,0,0,0,.108-.148.079.079,0,0,0,.007.027A1.207,1.207,0,0,0,25.4,4.24c.07-.14.143-.281.218-.419.184-.335.446-.616.644-.942.449-.023.9-.073,1.344-.141-.319.446-.829.837-.926,1.38-.031.175.135.338.3.239a.354.354,0,0,0,.183-.25.108.108,0,0,0,0-.031,4.942,4.942,0,0,1,.381-.6,4.5,4.5,0,0,0,.5-.75.21.21,0,0,0,.018-.06c.454-.08.907-.176,1.358-.278a.218.218,0,0,0-.039.045c-.353.559-.935.931-1.156,1.584-.053.158.12.358.277.29a.505.505,0,0,0,.317-.392.112.112,0,0,0-.01-.081c.257-.429.652-.763.9-1.2a.192.192,0,0,0-.12-.289c.516-.119,1.029-.245,1.539-.364a9.328,9.328,0,0,0-1.1,1.344c-.152.163,0,.5.226.408a.587.587,0,0,0,.056-.025h0l0,0a.331.331,0,0,0,.132-.116c.4-.4.539-1.061,1.039-1.369A.2.2,0,0,0,31.5,1.9l.015,0q.564-.128,1.132-.244c-.508.426-1.381,1.447-.783,1.61a.172.172,0,0,0,.175-.049,1.1,1.1,0,0,0,.123-.3,2.144,2.144,0,0,1,.271-.445,1.923,1.923,0,0,1,.62-.629.19.19,0,0,0,.06-.279q.66-.126,1.325-.223c-.252.405-.648.717-.881,1.131-.106.189.109.427.292.306a2.859,2.859,0,0,0,.7-.805,3,3,0,0,0,.368-.7q.563-.07,1.127-.111-.233.306-.46.615c-.16.219.171.448.348.282a4.066,4.066,0,0,0,.668-.928q.551-.022,1.1-.008a2.335,2.335,0,0,0-.478.666.209.209,0,0,0,.357.219,8.828,8.828,0,0,1,.652-.861c.343.021.687.056,1.029.1-.1.277-.234.656-.026.875a.1.1,0,0,0,.14,0,.749.749,0,0,0,.169-.389c.033-.143.07-.283.11-.423A8.688,8.688,0,0,1,42.94,2.55a6.4,6.4,0,0,1,2.712,4.81,31.477,31.477,0,0,1,.07,5.384" transform="translate(0.001 0.001)" fill="#005fa6" stroke="#005fa6" stroke-width="0.2"/>
    </g>
  </g>
</svg>
