<svg xmlns="http://www.w3.org/2000/svg" xmlns:xlink="http://www.w3.org/1999/xlink" width="66" height="68.047" viewBox="0 0 66 68.047">
  <defs>
    <clipPath id="clip-path">
      <rect id="Rectangle_1372" data-name="Rectangle 1372" width="47.913" height="51.75" fill="#005fa6" stroke="#005fa6" stroke-width="0.2"/>
    </clipPath>
  </defs>
  <g id="Group_3311" data-name="Group 3311" transform="translate(-156 -1156.953)">
    <circle id="Ellipse_10" data-name="Ellipse 10" cx="33" cy="33" r="33" transform="translate(156 1159)" fill="#f4f7f8"/>
    <g id="Group_3305" data-name="Group 3305" transform="translate(161.94 1154.063)">
      <g id="Group_3304" data-name="Group 3304" transform="translate(2.675 2.889)" clip-path="url(#clip-path)">
        <path id="Path_11540" data-name="Path 11540" d="M19.082,37.818a5.548,5.548,0,0,1-.455.875c-.113.224-.231.5-.058.71a.143.143,0,0,0,.2,0,.49.49,0,0,0,.121-.3,1.583,1.583,0,0,1,.173-.426,3.478,3.478,0,0,0,.344-.768.169.169,0,0,0-.325-.09M32.47,42.424a8.524,8.524,0,0,1-.322,1.075c-.132.355-.338.709-.439,1.072a2.955,2.955,0,0,0-.1.833h0a.165.165,0,0,0,.209.162c.292-.1.244-.559.29-.8.146-.761.525-1.481.68-2.252.041-.206-.27-.3-.318-.088M35.412,5.241l-.144.152a.782.782,0,0,0-.126.186.091.091,0,0,0,.123.123.789.789,0,0,0,.186-.126l.152-.144c.126-.12-.071-.317-.191-.191m-16.764-2.4c-.1.311-1.772,2.371-.7,2.466a.12.12,0,0,0,.118-.118c.012-.192-.1-.332-.048-.533A2.263,2.263,0,0,1,18.354,4a4.41,4.41,0,0,0,.623-1.064.171.171,0,0,0-.329-.091M34.193,4.716a3.88,3.88,0,0,1-.55.883c-.122.2-.3.527-.064.7a.113.113,0,0,0,.115,0c.116-.07.112-.147.147-.271a1.41,1.41,0,0,1,.232-.428,2.566,2.566,0,0,0,.445-.793.169.169,0,0,0-.325-.09M16.257,2.206a4.232,4.232,0,0,0-.915,1.319,2.267,2.267,0,0,0-.251,1.558c.035.089.183.142.233.031.178-.4.151-.861.295-1.277a4.011,4.011,0,0,1,.855-1.414c.134-.145-.077-.358-.217-.217M43.035,25.848a20.407,20.407,0,0,0,2.109-2.24c.176-.179-.1-.456-.276-.275a20.584,20.584,0,0,0-1.951,2.4c-.049.068.05.169.118.118m-22.5,12.26c-.147.385-.843,1.143-.495,1.554a.1.1,0,0,0,.146,0,.527.527,0,0,0,.127-.288,2.208,2.208,0,0,1,.181-.472,5.62,5.62,0,0,0,.348-.709c.069-.2-.235-.273-.307-.085M42.493,7.085a5.949,5.949,0,0,1,.668-1.534A9.575,9.575,0,0,1,44.255,4.3a.159.159,0,0,0-.225-.225c-.737.724-1.994,1.852-1.692,3.012a.081.081,0,0,0,.155,0m-3.181-5.25c-.128.229-.3.43-.423.661a.111.111,0,0,0,0,.114.1.1,0,0,0,.1.056.111.111,0,0,0,.1-.056c.125-.23.278-.443.39-.68.051-.108-.1-.2-.162-.095M12.1,24.527a2.18,2.18,0,0,0-.462.847c-.056.167-.1.337-.17.5-.054.134-.118.213-.089.357a.1.1,0,0,0,.122.069c.232-.063.288-.387.348-.59a2.45,2.45,0,0,1,.441-.994c.115-.129-.07-.318-.191-.191M28.872,37.719c-.047.665-.588,1.186-.77,1.813a.219.219,0,0,0,.267.267c.227-.085.256-.254.326-.471a.087.087,0,0,0-.025-.093,4.313,4.313,0,0,0,.52-1.516c.006-.207-.3-.2-.319,0m-1.714.247c-.2.509-.8,1.085-.622,1.677a.2.2,0,0,0,.392-.053,1.267,1.267,0,0,1,.166-.386.091.091,0,0,0-.123-.123l-.009,0c.114-.359.381-.716.489-1.038.063-.189-.222-.258-.293-.081m-1.587,0a16.213,16.213,0,0,0-.765,1.714.206.206,0,0,0,.3.229.263.263,0,0,0,.155-.325c.177-.525.48-1,.612-1.536a.156.156,0,0,0-.3-.083M8.741,23.82a5.917,5.917,0,0,0-.483.891,1.339,1.339,0,0,0-.2.8.11.11,0,0,0,.182.048,2.652,2.652,0,0,0,.347-.789,5.844,5.844,0,0,1,.436-.789c.115-.177-.167-.34-.282-.165m-1.129-2a18.19,18.19,0,0,0-.937,1.6,4.228,4.228,0,0,0-.641,1.493.113.113,0,0,0,.192.079A6.173,6.173,0,0,0,6.979,23.5a15.174,15.174,0,0,1,.87-1.54c.1-.149-.139-.284-.236-.138m2.852,2.62c-.135.386-.532.937-.374,1.359.024.065.128.1.164.021.1-.2.134-.429.22-.636s.2-.438.279-.665c.065-.182-.226-.261-.289-.08M47.2,5.611a7.44,7.44,0,0,0-3.055-3.69C40.93-.113,37.032.046,33.432.694c-2,.361-3.991.814-5.981,1.233a18.063,18.063,0,0,1-4.825.433c-1.326-.3-2.644-.642-3.963-.979C14.388.287,9.7-.967,5.515,1.142a9.994,9.994,0,0,0-4.03,3.809A11.319,11.319,0,0,0,0,10.845a38.349,38.349,0,0,0,.841,6.94,23.771,23.771,0,0,0,1.492,5.423,7.086,7.086,0,0,0,3.956,3.84,9.27,9.27,0,0,0,1.315.406,5.1,5.1,0,0,0-.2,1.513,2.79,2.79,0,0,0,.873,1.59,6.221,6.221,0,0,0,1.17.892,7.828,7.828,0,0,0-.748,3.61,4.513,4.513,0,0,0,1.867,3.378,7.88,7.88,0,0,0,1.423.84,5.92,5.92,0,0,0-.17,3.24,4.869,4.869,0,0,0,1.912,2.692,8.751,8.751,0,0,0,2.8,1.287c0,.085.008.165.014.233a4.6,4.6,0,0,0,.536,1.778,5.9,5.9,0,0,0,3.674,2.441,18.738,18.738,0,0,0,5.287.8,7.1,7.1,0,0,0,4.673-1.6,5.294,5.294,0,0,0,1.4-2.105,2.793,2.793,0,0,0,.139-1.269l.283-.036A5.5,5.5,0,0,0,35.764,45.4a4.917,4.917,0,0,0,.814-5.354,6.152,6.152,0,0,0,1.768-.714,4.79,4.79,0,0,0,2.274-3.767,6.943,6.943,0,0,0-.279-2.2,8.813,8.813,0,0,0-.556-1.616,3.656,3.656,0,0,0,1.1-.774,4.682,4.682,0,0,0,1.056-3.506,6.761,6.761,0,0,0,.951-.1c.173-.009.346-.019.519-.032a1.265,1.265,0,0,0,.13-.017c-.039.012.038,0,.114,0a.583.583,0,0,0,.571-.383,5.407,5.407,0,0,0,2.55-3.7,30.914,30.914,0,0,0,.776-5.936c.162-2.043.252-4.093.34-6.141A13.72,13.72,0,0,0,47.2,5.611M29.77,2.686c-.158.251-.318.5-.48.751-.751-.057-1.5-.145-2.24-.25.911-.139,1.817-.317,2.72-.5M8.395,28.9a6.166,6.166,0,0,1-.187-1.325c.328.057.659.1.992.133a6.8,6.8,0,0,0-.7,1.434,1.682,1.682,0,0,1-.109-.242m.832,1.035a3.356,3.356,0,0,1-.408-.363.472.472,0,0,0,.011-.056.086.086,0,0,0-.04-.074,8.98,8.98,0,0,1,.743-1.706c.206.016.412.028.619.037a9.919,9.919,0,0,1-.574,1.335c-.116.272-.246.546-.35.827M9.975,36l-.035.092a3.023,3.023,0,0,1-.175-.448,3.865,3.865,0,0,1-.145-.8c.089-.25.192-.5.292-.741a20.91,20.91,0,0,0,.84-2.026c.2.078.4.15.606.215.1.031.194.059.292.087-.389.8-.8,1.584-1.167,2.393-.181.4-.354.812-.508,1.226M9.63,33.93c.065-.731.243-1.462.365-2.183.175.087.354.166.534.241-.271.656-.613,1.293-.9,1.942m3.324,8.69c-.011-.025-.024-.049-.035-.075a6.759,6.759,0,0,1-.27-2.984c.356.142.718.27,1.081.393-.123.455-.294.9-.424,1.352-.124.436-.232.877-.351,1.314m.817,1.139a4.016,4.016,0,0,1-.6-.738c.164-.57.292-1.149.447-1.722.114-.422.273-.837.346-1.265l.445.148c.09.03.18.059.27.086a.117.117,0,0,0,0,.011,23.691,23.691,0,0,0-.691,2.388c-.073.338-.162.714-.213,1.091m4.269,3.723c-.023.106-.05.218-.072.331a2.992,2.992,0,0,1-.294-.675c-.039-.13-.08-.26-.123-.389q.32.071.642.133c-.056.2-.109.4-.153.6m1.066.578a3.8,3.8,0,0,0-.051.853c-.111-.074-.22-.151-.326-.236a3.412,3.412,0,0,1-.439-.421c.074-.3.068-.635.126-.922q.041-.2.078-.4c.3.055.59.108.882.159-.09.32-.2.636-.27.963m1.833.416c-.06.408-.115.806-.148,1.208a7.113,7.113,0,0,1-1.349-.54,4.65,4.65,0,0,1,.067-1.248c.062-.246.127-.494.182-.744l.4.071q.529.095,1.063.17c-.073.361-.165.721-.218,1.083m9.92-.719a3.935,3.935,0,0,1-.871,1.3,11.353,11.353,0,0,0,.49-1.839c.005-.2-.291-.194-.3,0-.048.763-.585,1.39-.621,2.159a.2.2,0,0,0,.007.06,4.222,4.222,0,0,1-.889.507.745.745,0,0,0,.023-.258c.076-.433.232-.846.337-1.276a.15.15,0,0,0-.289-.08A7.672,7.672,0,0,0,28.26,50.1s0,0,0,0a6.494,6.494,0,0,1-.833.213,1.622,1.622,0,0,0,.1-.17.091.091,0,0,0-.123-.123,3,3,0,0,0-.288.2,4.979,4.979,0,0,0,.2-.983.159.159,0,0,0-.319,0c-.031.413-.261.776-.32,1.184-.106.01-.212.019-.317.026-.2.012-.4.018-.6.02l.021-.038a.079.079,0,0,0-.108-.108c-.048.026-.1.056-.155.088-.027-.291.2-.58.212-.883.007-.208-.31-.206-.322,0a3.034,3.034,0,0,1-.221.639.725.725,0,0,0-.025.292c-.364-.015-.726-.046-1.088-.09a10.166,10.166,0,0,1,.211-1.23.161.161,0,0,0-.311-.086,10.325,10.325,0,0,0-.292,1.263c-.385-.056-.769-.125-1.151-.2.107-.612.2-1.226.316-1.837.037-.2-.27-.294-.315-.087-.13.614-.248,1.23-.372,1.844l-.012,0c-.313-.069-.629-.141-.942-.223.028-.442.066-.881.095-1.326a10.534,10.534,0,0,1,.152-1.043,22.528,22.528,0,0,0,2.689.191,29.979,29.979,0,0,0,4.21-.375c.874-.117,1.75-.217,2.626-.321,0,.014,0,.028,0,.043a1.778,1.778,0,0,1-.132.787m-7.71-1.621c-.05.043-.018-.019,0,0M33.4,45.3a.2.2,0,0,0,.022-.1c0-.05,0-.1.005-.148a1.971,1.971,0,0,0,.014-.212,7.726,7.726,0,0,1,1.054-3.014.159.159,0,0,0-.275-.161A7.372,7.372,0,0,0,32.989,45.2a.189.189,0,0,0,.1.179c-.263.059-.53.1-.794.136-.569.073-1.139.139-1.709.206a.461.461,0,0,0-.022-.115.1.1,0,0,0-.038-.054,8.481,8.481,0,0,1,.535-1.6c.068-.2-.246-.284-.318-.088-.137.372-.312.729-.45,1.1a2.162,2.162,0,0,0-.2.816q-.488.057-.976.119a.1.1,0,0,0-.016-.032,2.612,2.612,0,0,1,.357-1.157c.113-.184-.171-.347-.288-.168a3.058,3.058,0,0,0-.474,1.411l-.88.121a.069.069,0,0,0-.015-.056,3.694,3.694,0,0,1,.355-.879c.107-.177-.162-.33-.275-.161a4.857,4.857,0,0,0-.533,1.159c-.375.05-.751.1-1.127.134l.007-.014a.1.1,0,0,0-.128-.128c-.027.013-.053.027-.079.042.007-.419.1-.831.091-1.257a.109.109,0,0,0-.217,0c-.044.479-.248.934-.26,1.408-.23.017-.459.032-.689.039q-.234.008-.468.01c.057-.087.11-.177.16-.263a.085.085,0,0,0-.115-.115l-.111.065c.079-.325.209-.639.309-.957.064-.2-.239-.277-.311-.086a5.9,5.9,0,0,0-.477,1.353q-.317-.006-.634-.022a.467.467,0,0,0,.066-.111.1.1,0,0,0-.1-.126.528.528,0,0,0-.115.017,1.644,1.644,0,0,1,.056-.5,5.972,5.972,0,0,0,.2-1c0-.188-.274-.183-.289,0-.037.469-.314.912-.37,1.384a.692.692,0,0,0,.02.3q-.452-.034-.9-.086c.017-.048.031-.1.042-.14.017-.067-.062-.143-.127-.1q-.054.036-.105.077l-.043.02,0-.006a.786.786,0,0,1,.056-.492,6.88,6.88,0,0,1,.424-1.025c.091-.187-.185-.353-.282-.165-.13.253-.255.51-.37.77a2.165,2.165,0,0,0-.266.866.559.559,0,0,0,.017.106c-.355-.051-.71-.108-1.064-.167a2.01,2.01,0,0,0,.011-.44,11.235,11.235,0,0,1,.519-1.732.15.15,0,0,0-.289-.08,12.926,12.926,0,0,0-.631,1.779,1.319,1.319,0,0,0-.006.406c-.478-.084-.955-.174-1.431-.266a.446.446,0,0,0-.019-.048,6.717,6.717,0,0,1,.51-1.645c.064-.162-.216-.282-.284-.12a7.03,7.03,0,0,0-.6,1.737c-.3-.06-.607-.124-.909-.2a4,4,0,0,1,.623-2.682c.1-.163-.152-.308-.256-.149a7.165,7.165,0,0,0-.812,2.716,8.913,8.913,0,0,1-1-.339,5.6,5.6,0,0,1,.042-.905,9.744,9.744,0,0,1,.559-2.633c.059-.136-.133-.257-.2-.119a13.117,13.117,0,0,0-.83,3.46,5.764,5.764,0,0,1-.97-.6c.056-.508.08-1.026.18-1.527.151-.756.336-1.5.535-2.247,0,0,0,0,0-.007a19.9,19.9,0,0,0,4.2.683,55.631,55.631,0,0,0,10.007.033c1.659-.183,3.321-.365,4.975-.592.465-.064.941-.122,1.417-.2a7.812,7.812,0,0,1,.2.76.156.156,0,0,0-.2.11c-.342,1.172-1.24,2.213-1.2,3.481a.2.2,0,0,0,.2.217A3.866,3.866,0,0,1,33.4,45.3M35.289,43.6c-.026.089.091.126.14.059a3.329,3.329,0,0,0,.183-.282,2.954,2.954,0,0,1-.564.964,2.687,2.687,0,0,1-.344.327.268.268,0,0,0,.007-.04,16.835,16.835,0,0,1,1.046-3.218,5.21,5.21,0,0,1,.054.736c-.168.488-.38.959-.523,1.455m4.06-8.318a6.172,6.172,0,0,0-.757,1.7c-.031.079.087.142.141.082a3.2,3.2,0,0,0,.523-1.034,3.479,3.479,0,0,1-1.307,2.018,3.613,3.613,0,0,1-.406.265c.043-.142.071-.289.112-.432q.124-.433.266-.862a11.4,11.4,0,0,1,.757-1.8.173.173,0,0,0-.3-.174,11.841,11.841,0,0,0-.836,1.782,4.636,4.636,0,0,0-.476,1.711,6.132,6.132,0,0,1-.942.292c.01-.019.02-.037.032-.055a.09.09,0,0,0-.065-.131,10.422,10.422,0,0,1,1.268-3.58.148.148,0,0,0-.256-.149,9.94,9.94,0,0,0-1.51,4.024c-.359.064-.719.113-1.07.163a21.752,21.752,0,0,1,1.254-3.317c.083-.172-.171-.324-.259-.151a15.106,15.106,0,0,0-1.461,3.534q-.4.056-.808.107c.011-.021.022-.043.032-.065a.093.093,0,0,0-.105-.135,14.353,14.353,0,0,0,.746-2.5c0-.189-.282-.187-.292,0-.057,1-.841,1.773-.924,2.769-.429.051-.858.1-1.288.147a.1.1,0,0,0,.005-.011,7.416,7.416,0,0,1,.375-1.2c.18-.408.405-.8.552-1.226.069-.2-.242-.281-.314-.087-.1.262-1.253,2.255-.827,2.55q-.55.061-1.1.124a.244.244,0,0,0,0-.04c0-.017,0-.033,0-.05a.09.09,0,0,1,.012-.039.1.1,0,0,0,0-.105,5.1,5.1,0,0,1,.641-1.583c.1-.212-.207-.4-.32-.187a4.637,4.637,0,0,0-.782,1.965.217.217,0,0,0,.014.089,49.879,49.879,0,0,1-5.935.3.2.2,0,0,0,.027-.1h0a3.063,3.063,0,0,1,.765-1.9c.144-.158-.084-.389-.236-.236a3.25,3.25,0,0,0-.962,2.133.221.221,0,0,0,.02.1q-.9-.013-1.8-.054a.158.158,0,0,0,.028-.006.494.494,0,0,0,.312-.281.086.086,0,0,0-.084-.127c.166-.439.377-.845.587-1.271.1-.193-.19-.364-.291-.17a6.873,6.873,0,0,0-.755,1.618.209.209,0,0,0,.126.233q-.325-.015-.651-.034c-1.259-.073-2.529-.132-3.778-.32a.336.336,0,0,1,.068-.04c.079-.036.041-.139-.021-.164a.414.414,0,0,0-.075-.023c.125-.509.459-.935.631-1.433.066-.189-.226-.263-.3-.082-.218.56-.708,1.048-.76,1.666l-.073-.012c-.347-.063-.7-.139-1.043-.223.071-.187.164-.362.224-.552.173-.549.366-1.1.5-1.663a.144.144,0,0,0-.278-.077,18.849,18.849,0,0,1-.8,2.039,1.338,1.338,0,0,0-.055.15c-.479-.128-.955-.274-1.421-.437a4.559,4.559,0,0,1,.3-.872c.161-.416.378-.814.522-1.237.057-.168-.2-.235-.264-.073a13.267,13.267,0,0,0-.924,2.047c-.193-.072-.384-.145-.572-.222-.1-.042-.207-.088-.311-.135.019-.107.033-.216.061-.323a8.3,8.3,0,0,1,.31-.91,4.58,4.58,0,0,0,.4-1.573.128.128,0,0,0-.255,0,5.709,5.709,0,0,1-.6,1.806,4.139,4.139,0,0,0-.281.824,6.827,6.827,0,0,1-.619-.359,3.2,3.2,0,0,0,.581-1.379,11.969,11.969,0,0,1,.68-2.294.075.075,0,0,0-.129-.076,8.879,8.879,0,0,0-.734,1.98,9.856,9.856,0,0,1-.359,1.044c-.075.177-.219.355-.3.54a4.2,4.2,0,0,1-.955-.954c.028-.1.056-.192.089-.284.182-.521.4-1.028.619-1.533.332-.759.675-1.511.976-2.283a34.969,34.969,0,0,0,6.8.774,82.434,82.434,0,0,0,9.43.075c1.558-.072,3.122-.153,4.672-.334,1.523-.178,3.026-.49,4.554-.633a9.994,9.994,0,0,0,1.311-.2,16.457,16.457,0,0,1,.693,2.879c0,.092,0,.183,0,.273m.484-5.088-.042.034a5.13,5.13,0,0,1,.154-.718,11.728,11.728,0,0,1,.609-1.343c.1-.2-.2-.384-.307-.18-.345.663-1.052,1.718-.886,2.537a4.672,4.672,0,0,1-1.611.467c.018-.065-.029-.158-.109-.126l-.026.011a7.554,7.554,0,0,1,.927-1.7c.107-.207-.2-.39-.314-.183-.367.673-1.007,1.262-1.051,2.066l-.185.02c-.214.023-.427.05-.64.078a.813.813,0,0,1,0-.291,2.237,2.237,0,0,1,.247-.52,6.035,6.035,0,0,0,.512-.929c.074-.207-.247-.288-.325-.09-.183.461-.56.831-.759,1.288a1.139,1.139,0,0,0-.065.595c-.32.046-.639.1-.958.146a.182.182,0,0,0,.079-.142c.014-.572.472-.977.723-1.465.1-.2-.193-.377-.3-.178-.188.338-1.239,1.423-.678,1.792a.154.154,0,0,0,.034.016c-.626.1-1.253.2-1.882.276a.156.156,0,0,0,.033-.035.128.128,0,0,0,.007-.166c.112-.308.4-.579.507-.883.078-.218-.262-.305-.343-.095-.162.42-.544.693-.594,1.158a.316.316,0,0,0,0,.04.212.212,0,0,0,0,.026q-.641.071-1.285.122c.113-.384.361-.735.49-1.111.071-.208-.249-.289-.325-.09a10.409,10.409,0,0,0-.571,1.232c-.566.041-1.133.075-1.7.1,0-.012.007-.024.011-.036a.549.549,0,0,1,.308-.375c.2-.077.118-.393-.089-.322a.889.889,0,0,0-.548.545c-.028.068-.051.139-.075.208l-.205.011c-.2.01-.4.018-.595.027.056-.134.115-.267.178-.4.094-.2-.194-.373-.3-.174s-.2.392-.289.593q-.536.022-1.072.038a3.417,3.417,0,0,1,.478-.568.169.169,0,0,0-.239-.239,3.243,3.243,0,0,0-.683.818q-.511.013-1.022.02c.028-.065.056-.129.087-.189.1-.2.207-.388.3-.586s-.192-.372-.3-.174-.237.414-.355.622c-.056.1-.134.214-.186.332q-.607.005-1.213,0c.051-.1.1-.205.149-.286a1.964,1.964,0,0,1,.544-.725.169.169,0,0,0-.17-.291,2.441,2.441,0,0,0-.772.927,2.1,2.1,0,0,0-.167.372q-.571-.006-1.141-.021c.005,0,.014-.007.035-.033a1.509,1.509,0,0,0,.233-.408,7.924,7.924,0,0,1,.587-.9c.107-.164-.149-.306-.259-.151a7.485,7.485,0,0,0-.674.96c-.075.151-.3.339-.282.525q-.532-.016-1.063-.04c.05-.1.1-.192.15-.279a3.616,3.616,0,0,1,.377-.553c.129-.142-.075-.35-.212-.212a3.974,3.974,0,0,0-.436.576,2.7,2.7,0,0,0-.286.45q-.52-.026-1.039-.059a3.087,3.087,0,0,1,.155-.314c.183-.3.379-.593.533-.912.074-.155-.147-.29-.233-.136-.181.325-.407.617-.618.922-.084.122-.2.262-.28.412l-1.51-.1a2.123,2.123,0,0,1,.111-.236c.281-.5.625-.963.941-1.443.092-.14-.129-.265-.223-.131-.29.415-.615.8-.9,1.223a4.888,4.888,0,0,0-.356.559l-.265-.017-.784-.049a5.685,5.685,0,0,1,.258-.54,8.024,8.024,0,0,0,.568-1.073c.06-.148-.195-.257-.26-.11a8.02,8.02,0,0,1-.669,1.119,5.969,5.969,0,0,0-.36.57q-.463-.036-.925-.087a.111.111,0,0,0-.062-.044,15.889,15.889,0,0,1,1.108-1.993.139.139,0,0,0-.239-.14,15.608,15.608,0,0,0-1.29,2.115c-.2-.028-.4-.058-.6-.094q-.194-.035-.389-.076l.011-.024c.12-.242.254-.476.385-.712.277-.5.565-.993.814-1.507.071-.146-.141-.274-.22-.129-.284.526-.618,1.019-.935,1.525a4.882,4.882,0,0,0-.46.755c-.276-.066-.55-.142-.819-.23,0,0,0-.007.007-.011a1.82,1.82,0,0,0,.058-.241,5.406,5.406,0,0,1,.329-.794c.205-.442.464-.875.624-1.336.058-.168-.2-.235-.264-.073-.224.587-.622,1.106-.887,1.676a2,2,0,0,0-.221.656,7.9,7.9,0,0,1-.732-.314c.007-.05.013-.1.023-.156a4.388,4.388,0,0,1,.22-.752,5.99,5.99,0,0,1,.686-1.3c.094-.134-.122-.253-.217-.127a5.979,5.979,0,0,0-.754,1.346,4.156,4.156,0,0,0-.275.822q-.194-.108-.381-.229l-.176-.117a7.726,7.726,0,0,0,.5-1.171,5.76,5.76,0,0,0,.421-1.173c.557.015,1.113.009,1.661-.01,1.741-.06,3.473-.168,5.216-.2,5-.082,10-.115,15-.146q3.568-.022,7.135-.039c.318,0,.636,0,.955,0q.153.02.306.034a3.52,3.52,0,0,1-.847,2.768m6.544-18.4a8.719,8.719,0,0,0-1.832,2.292c-.323.5-.7.958-1.018,1.46-.335.528-.663,1.053-1.037,1.555-.059.079.061.15.127.1a5.138,5.138,0,0,0,1.018-1.216c.324-.494.673-.968,1-1.456a11.774,11.774,0,0,1,1.72-2.341c-.042.791-.1,1.581-.14,2.366a.179.179,0,0,0-.034.026,17.8,17.8,0,0,0-1.867,2.331c-.592.839-1.269,1.636-1.83,2.493-.045.069.046.163.115.115a7.913,7.913,0,0,0,1.851-2.151,21.757,21.757,0,0,1,1.736-2.3c-.044.788-.089,1.577-.142,2.367a23.044,23.044,0,0,0-1.67,1.991,21.371,21.371,0,0,0-1.763,2.276.1.1,0,0,0,.141.141,7.051,7.051,0,0,0,1.772-1.944c.479-.635.954-1.272,1.478-1.869-.056.785-.119,1.568-.2,2.349q-.019.194-.044.386A12.34,12.34,0,0,1,44.514,22.3,9.3,9.3,0,0,0,43.051,24c-.044.079.05.194.133.133a11.634,11.634,0,0,0,1.7-1.7c.268-.3.527-.6.77-.918-.1.592-.235,1.178-.369,1.768a4.21,4.21,0,0,1-.991,2.021,3.254,3.254,0,0,1-1.019.713c-.139-.009-.277-.017-.416-.023-.65-.031-1.306,0-1.957,0q-3.155.014-6.309.032l-3.267.019c.013-.018.025-.035.039-.051.072-.085.15-.165.229-.244a.161.161,0,0,0-.228-.228,2.285,2.285,0,0,0-.258.3,1.017,1.017,0,0,0-.133.23l-1.589.011a1.309,1.309,0,0,0,.125-.218.9.9,0,0,0,.1-.348c.009-.193-.292-.193-.3,0a.608.608,0,0,1-.085.243,1.7,1.7,0,0,0-.163.275.135.135,0,0,0,0,.05l-1.35.01a4.047,4.047,0,0,1,.46-.78c.1-.194-.191-.366-.294-.172-.09.169-.592.7-.464.954l-2.013.017a1.281,1.281,0,0,0,.195-.6.161.161,0,0,0-.322,0,1.406,1.406,0,0,1-.243.588s0,.009-.005.013l-1.643.015a2.066,2.066,0,0,1,.441-.642c.147-.153-.084-.385-.233-.233a2.5,2.5,0,0,0-.475.663,1.061,1.061,0,0,0-.081.216l-1.741.02a3.12,3.12,0,0,1,.1-.307,5.792,5.792,0,0,1,.439-.825c.113-.179-.165-.338-.282-.165a5.854,5.854,0,0,0-.494.884,4.147,4.147,0,0,0-.181.418l-1.474.017-.516.007a1.342,1.342,0,0,1,.331-.7c.144-.156-.085-.387-.233-.233a1.821,1.821,0,0,0-.4.695.737.737,0,0,0-.033.238q-.947.012-1.893.031a2.249,2.249,0,0,1,.122-.278c.135-.266.3-.514.437-.781.087-.174-.168-.326-.262-.153-.188.348-.434.662-.591,1.027a.926.926,0,0,0-.052.193c-.552.013-1.1.028-1.655.05h-.027c.1-.412.425-.765.446-1.194.009-.192-.279-.187-.3,0-.015.166-.444.806-.514,1.211-.418.021-.844.047-1.273.072,0,0,0-.007,0-.01a1.358,1.358,0,0,1,.142-.631c.095-.246.216-.48.327-.719.073-.155-.148-.291-.233-.136a6.862,6.862,0,0,0-.5,1,.744.744,0,0,0-.018.512c-2.5.141-5.122.184-7.244-1.248a4.634,4.634,0,0,1-.954-.869,5.342,5.342,0,0,0,.507-1.264,9.8,9.8,0,0,1,.826-1.585c.1-.163-.153-.311-.259-.151a9.995,9.995,0,0,0-.834,1.532,4.211,4.211,0,0,0-.436,1.219,7.312,7.312,0,0,1-.79-1.368,7.709,7.709,0,0,0,.461-1.209,14.867,14.867,0,0,1,.7-1.32.146.146,0,0,0-.252-.148,13.817,13.817,0,0,0-.8,1.447,4.785,4.785,0,0,0-.316.756,15.679,15.679,0,0,1-.5-1.512c-.012-.044-.024-.089-.036-.133.014-.047.029-.093.046-.138a10.244,10.244,0,0,1,.487-1.028,7.929,7.929,0,0,0,.8-1.872.135.135,0,0,0-.26-.072,9.653,9.653,0,0,1-1,2.1c-.065.12-.145.261-.224.412-.16-.623-.3-1.253-.436-1.885q.217-.529.477-1.038a8.143,8.143,0,0,1,1.267-1.906c.117-.125-.067-.31-.188-.188a8.049,8.049,0,0,0-1.323,1.861q-.185.341-.351.693-.109-.551-.206-1.1a12.886,12.886,0,0,0,.6-1.188c.342-.662.682-1.325,1.067-1.965a.148.148,0,0,0-.256-.15c-.383.606-.726,1.234-1.069,1.863-.15.275-.3.551-.452.825q-.084-.5-.163-1.007c-.029-.187-.057-.377-.085-.568a5.677,5.677,0,0,0,.436-1,10.5,10.5,0,0,1,.654-1.187A12.941,12.941,0,0,1,4.223,9.888a.127.127,0,0,0-.18-.18,13.292,13.292,0,0,0-1.682,2.015,9.543,9.543,0,0,0-.718,1.242c-.069.144-.152.3-.223.469-.051-.408-.095-.82-.126-1.234a.112.112,0,0,0,.056-.044c.2-.32.261-.7.477-1.024.239-.358.53-.677.775-1.031A18.324,18.324,0,0,1,4.36,7.867.118.118,0,0,0,4.193,7.7a23.412,23.412,0,0,0-2.039,2.429,7.706,7.706,0,0,0-.907,1.194q-.016-.536,0-1.069a17.326,17.326,0,0,0,1.11-1.731c.48-.755.951-1.516,1.444-2.263.086-.131-.118-.243-.207-.121C3.066,6.863,2.559,7.6,2.063,8.349c-.227.342-.5.692-.748,1.051a9.752,9.752,0,0,1,.222-1.262l.033-.062A12.708,12.708,0,0,1,2.338,6.77a10.769,10.769,0,0,1,1.414-2.1c.062-.053-.022-.165-.089-.115A7.719,7.719,0,0,0,2.242,6.416c-.087.123-.173.245-.259.367A9.187,9.187,0,0,1,4.275,3.519,8.139,8.139,0,0,1,5.762,2.447l-.084.17a1.181,1.181,0,0,0-.171.417c0,.061.073.081.112.046a1.252,1.252,0,0,0,.234-.4l.194-.385a8.529,8.529,0,0,1,1.321-.541c-.088.16-.168.325-.256.486a7.079,7.079,0,0,1-.443.619.064.064,0,0,0,.072.094c.508-.148.683-.886.934-1.29A9.989,9.989,0,0,1,8.8,1.419c-.142.221-.308.423-.464.637-.135.185-.361.478-.265.715.02.049.082.094.135.055.2-.147.262-.451.407-.657a6.654,6.654,0,0,0,.526-.794v0a12.49,12.49,0,0,1,1.313-.091c-.289.508-.969,1.384-.67,1.959a.123.123,0,0,0,.21,0,6.956,6.956,0,0,0,.281-.93c.135-.318.311-.617.462-.928a.149.149,0,0,0,.011-.1c.544,0,1.091.033,1.638.088a6.714,6.714,0,0,0-.8,1.221c-.187.36-.628,1.125-.362,1.518a.123.123,0,0,0,.191.025,1.463,1.463,0,0,0,.18-.565,4.951,4.951,0,0,1,.327-.859,5.943,5.943,0,0,1,.827-1.3c.5.06,1.007.139,1.5.231a5.486,5.486,0,0,0-.869,1.318c-.172.358-.536,1.052-.3,1.439a.127.127,0,0,0,.217,0,1.67,1.67,0,0,0,.164-.6,4.609,4.609,0,0,1,.281-.789A4.945,4.945,0,0,1,14.6,1.7c.508.1,1.01.214,1.5.334,1.6.392,3.21.809,4.824,1.187-.523.782-1.767,2.745-.984,2.93a.1.1,0,0,0,.126-.1,5.28,5.28,0,0,1,1.223-2.749q.893.206,1.789.39c-.3.544-.566,1.1-.829,1.669-.162.352-.735.982-.364,1.362a.138.138,0,0,0,.229-.06,7.765,7.765,0,0,1,.564-1.377,10.063,10.063,0,0,1,.733-1.527q.756.149,1.515.276a16.922,16.922,0,0,0-.953,1.549c-.215.408-.746,1.286-.357,1.712a.132.132,0,0,0,.206-.026,3.464,3.464,0,0,0,.191-.711,5.869,5.869,0,0,1,.465-1.052c.259-.484.552-.948.851-1.407q.711.111,1.426.195c-.241.408-.45.836-.693,1.249-.195.331-.374.663-.561,1a1.229,1.229,0,0,0-.232.995.175.175,0,0,0,.315.041c.164-.311.241-.656.413-.972.164-.3.322-.6.483-.907.24-.45.443-.92.7-1.357q.729.076,1.462.118A13.482,13.482,0,0,0,27.362,7c-.1.273.288.387.436.184a1.162,1.162,0,0,0,.208-.373.125.125,0,0,0-.013-.1,21.351,21.351,0,0,1,1.145-2.224q.478.019.958.021.339,0,.669-.017a7.888,7.888,0,0,0-1.379,2.655.233.233,0,0,0,.337.259.98.98,0,0,0,.4-.435A.1.1,0,0,0,30,6.828a18.411,18.411,0,0,1,1.316-2.382,8.036,8.036,0,0,0,1.427-.289,7.13,7.13,0,0,0-1.178,2.275c-.026.12.058.28.2.265.238-.025.417-.2.259-.407a8.407,8.407,0,0,1,1.033-2.023.149.149,0,0,0-.036-.2c.116-.04.231-.082.347-.128a.3.3,0,0,0-.161-.585c-.441.063-.886.1-1.333.126.063-.118.125-.237.185-.357.1-.2-.192-.371-.3-.174s-.208.368-.322.548c-.565.015-1.132,0-1.7-.029q.23-.385.457-.771a.179.179,0,0,0,.026-.1l.6-.123c3.361-.683,6.95-1.486,10.319-.427a8.379,8.379,0,0,1-.7,1.118.174.174,0,0,0,0,.174c.154.307.446-.213.512-.317a5.089,5.089,0,0,0,.467-.883,9.554,9.554,0,0,1,1.189.5l-.009.01c-.378.482-1.466,1.464-1.128,2.159a.089.089,0,0,0,.152,0c.2-.317.259-.7.473-1.027s.484-.64.724-.961a.113.113,0,0,0,.022-.058A6.6,6.6,0,0,1,44.981,4.54a5.754,5.754,0,0,1,.475.745c-.745,1.4-1.974,2.481-2.674,3.9-.036.072.057.158.118.091a18.7,18.7,0,0,0,2.706-3.693,7.471,7.471,0,0,1,.405,1.07c-1.3,1.62-2.154,3.583-3.37,5.268-.049.069.055.138.112.086,1.51-1.354,2.214-3.324,3.363-4.965A10.137,10.137,0,0,1,46.37,8.6c-.642.923-1.256,1.862-1.928,2.765-.77,1.035-1.414,2.188-2.1,3.28-.054.086.064.166.135.1a17.1,17.1,0,0,0,2.23-3.136c.592-.821,1.14-1.668,1.7-2.512.037.892.017,1.789-.025,2.687M31.78,6.3c-.035.032-.01,0-.009-.012l.009.012" transform="translate(0 0)" fill="#005fa6" stroke="#005fa6" stroke-width="0.2"/>
      </g>
    </g>
  </g>
</svg>
