<svg xmlns="http://www.w3.org/2000/svg" xmlns:xlink="http://www.w3.org/1999/xlink" width="644" height="398" viewBox="0 0 644 398">
  <defs>
    <clipPath id="clip-path">
      <path id="Path_12321" data-name="Path 12321" d="M705.175,540.317H2l62.055-61.771,1.216-10.682,31.308-9.905L60.324,413.447V23.324L754.836,75.209,613.265,439.883l27.9,2.911L639.5,463.941l-.032,7.048Z" transform="translate(-2 -23.324)" fill="none"/>
    </clipPath>
    <clipPath id="clip-Ambulance">
      <rect width="644" height="398"/>
    </clipPath>
  </defs>
  <g id="Ambulance" clip-path="url(#clip-Ambulance)">
    <g id="Group_3490" data-name="Group 3490" transform="translate(-41.56 -105.936)">
      <g id="vybavenie_ambulancie" data-name="vybavenie ambulancie" transform="translate(2 23.324)">
        <g id="Group_3486" data-name="Group 3486">
          <g id="Group_3485" data-name="Group 3485" clip-path="url(#clip-path)">
            <g id="Group_3484" data-name="Group 3484" transform="translate(-63.885 133.659)">
              <path id="Path_12223" data-name="Path 12223" d="M152.751,376.092l34.09-.276-.316-13.943-34.446,13.943Z" transform="translate(97.272 -77.158)" fill="#6d6d84"/>
              <path id="Path_12225" data-name="Path 12225" d="M822.109,360.3c-42.927.148-85.856.554-128.782.982s-85.855.945-128.781,1.54c-24.006.332-48.061.307-72.055,1.178-.634.023-.608,1.125.035,1.128,21.581.1,43.187-.55,64.766-.839q31.994-.428,63.989-.788,64.186-.712,128.373-1.163,36.145-.252,72.29-.462C822.95,361.866,823.129,360.3,822.109,360.3Z" transform="translate(177.427 -77.53)" fill="#1d1d1b"/>
              <path id="Path_12227" data-name="Path 12227" d="M186.966,363.425a.9.9,0,0,0-.162.056q-16.611,7.7-33.8,14.037c-11.456,4.2-23.138,7.647-34.706,11.508-.305.1-.15.61.163.54,11.8-2.65,23.364-6.637,34.719-10.753q17.189-6.228,33.883-13.741C187.039,364.524,187,363.975,186.966,363.425Z" transform="translate(89.268 -76.792)" fill="#1d1d1b"/>
              <path id="Path_12228" data-name="Path 12228" d="M570.985,253.586,538.02,336.649,521.5,390.287,369.142,395.5l10.507-64.947,17.164-71.995Z" transform="translate(148.452 -102.691)" fill="#dadada"/>
              <path id="Path_12229" data-name="Path 12229" d="M401.512,389.283l12.421-115.128,100.807,1.527s-20.775,59.477-25.064,74.069l-8.863,38.062Z" transform="translate(156.084 -97.841)" fill="#6d6d84"/>
              <path id="Path_12230" data-name="Path 12230" d="M191.885,325l256.408-37.725,29.082-124.582,6.154-30.879s-37.8,6.59-79.667,11.421c-49.577,4.493-102.4,9.541-109.415,9.541-33.463,2.624-109.007,11.746-114.387,13.81-1.038-1.32-2.21.617-2.21.617l-27.038,48.177,1.738,7.329,12.553-1.932,7.92,98.623Z" transform="translate(96.973 -131.403)" fill="#6d6d84"/>
              <path id="Path_12231" data-name="Path 12231" d="M299.726,227.083l11.614.528,61.627-12,78.639-17.768L441.469,250.36l-.476,3.125-73.189,9.1-64.564,6.33-8.55-8.55Z" transform="translate(130.897 -115.834)" fill="#dadada"/>
              <path id="Path_12232" data-name="Path 12232" d="M173.394,399.981s3.473-23.073.384-44.216l-6.2-67.5,20.355,7.071L444.34,257.611l-9.491,39.806-9.736,44.933-8.445,52.2-131.029,3.215Z" transform="translate(100.926 -101.742)" fill="#dadada"/>
              <path id="Path_12233" data-name="Path 12233" d="M195.776,362.341l-.594-32.863-2.574-35.04,39.188-4.616,60.192-7.658L280.7,314.718l-10.566,38.743-39.519,5.812-34.842,4.11Z" transform="translate(106.828 -95.952)" fill="#6d6d84"/>
              <path id="Path_12234" data-name="Path 12234" d="M198.653,357.324l-1.012-21.635L196.453,295.5l37.446-2.729V302.6l-2,22.444-.692,27.571Z" transform="translate(107.735 -93.451)" fill="#8c9caf"/>
              <path id="Path_12235" data-name="Path 12235" d="M227.3,354.088V349.9l.552-31.547,1.231-24.405,45.217-7.4-11.284,38.141L255.5,350.223Z" transform="translate(115.009 -94.92)" fill="#8c9caf"/>
              <path id="Path_12236" data-name="Path 12236" d="M312.435,391.663l2.9-28.507,9.573-80.573,60.182-8.909-8.711,46.133-11.086,70.958Z" transform="translate(135.081 -97.954)" fill="#8c9caf"/>
              <path id="Path_12237" data-name="Path 12237" d="M308.589,392.9l3.17-43.555,1.3-15.882,4.24-27.671,3.959-25.34,76.217-13.679-8.908,41-7.325,31.345-12.472,53.279H366.2l.088-4.563,9.97-56.234,7.162-40.389L386,275.3l-45.335,6.929-14.848,1.98-7.721,62.36-4.751,46.72Z" transform="translate(134.174 -99.582)" fill="#6d6d84"/>
              <path id="Path_12238" data-name="Path 12238" d="M339.2,354.808l-2.579-3.761,1.164-7.125,4.582-19.007,4.057-13.858,3.663-1.98-2.027,6.961-5.686,29.836Z" transform="translate(140.784 -89.607)" fill="#6d6d84"/>
              <path id="Path_12239" data-name="Path 12239" d="M396.448,390.637l2.044-6.254,4.215-45.03,9.756-68.464,4.538.97,47.99-1.5,45.987-1.954h12.611L509.07,315.5l-16.1,57.543-3.577,15.867-7.385.26,2.78-14.016,10.373-37.462,10.507-31,10.267-29.652-42.65.755-33.633-1.359-24.523-.924-12.42,115.128Z" transform="translate(154.89 -99.196)" fill="#a5a5aa"/>
              <path id="Path_12240" data-name="Path 12240" d="M391.534,263l3.61-15.85,23.015-2.369,1.4-8.687,156.513-1.352-10.369,23.283-74.481,2.851-42.258.876Z" transform="translate(153.732 -107.133)" fill="#a5a5aa"/>
              <path id="Path_12241" data-name="Path 12241" d="M213.354,282.748c0-.4.693-44.147.693-44.147l4.454-.891-1.484,13.165-1.089,31.873Z" transform="translate(111.719 -106.434)" fill="#a5a5aa"/>
              <path id="Path_12242" data-name="Path 12242" d="M254.284,273.1l2.574-23.063,4.321-24.5,3.5-1.04L255.6,273.1Z" transform="translate(121.37 -109.55)" fill="#a5a5aa"/>
              <path id="Path_12243" data-name="Path 12243" d="M301.955,204.547l7.35-8.961,5.073-10.261,57.056-9.453,67.846-11.129,15.567-2.5h1.408L435.82,180.864s-66.4,12.507-75.746,14.026S301.955,204.547,301.955,204.547Z" transform="translate(132.61 -124.228)" fill="#a5a5aa"/>
              <path id="Path_12244" data-name="Path 12244" d="M301.955,206.242v-2.761l1.37-8.245s3.662-4.058,4.651-6.137,5.544-11.383,5.544-11.383l49.986-6.435,55.431-9.205,37.811-7.024-.494,8.658-39.593,6.384-53.649,8.711L315.1,187.218l-.725-.2-8.772,14.77Z" transform="translate(132.61 -125.924)" fill="#dadada"/>
              <path id="Path_12245" data-name="Path 12245" d="M303.668,261.981l4.5-20.021,2.772-15.441.4-4.487-11.614-.528-4.454,29.436-.581,3.843,8.55,8.55Z" transform="translate(130.897 -110.255)" fill="#a5a5aa"/>
              <path id="Path_12246" data-name="Path 12246" d="M172.609,248.03l-1.683-14.65-1.386-10.987,17.025-11.878.99-.1,41.771-6.434,44.246-7.523-7.622,43.256-6.787,44.345-18.737,4.16h-3.28l.1-9.6-.418-23.212-1.859-11.928-39.1,5.741-8.216.792-1.485-.495Z" transform="translate(101.389 -116.16)" fill="#a5a5aa"/>
              <path id="Path_12247" data-name="Path 12247" d="M323.005,223.775a23.7,23.7,0,0,0,.994-3.37l1.286-12.275.594-6.335,36.029-5.716-2.871,20.959-16.582,3.167Z" transform="translate(137.574 -116.25)" fill="#8c9caf"/>
              <path id="Path_12248" data-name="Path 12248" d="M358.534,216.929v-3.7l1.828-17.915,29.3-3.663-2.574,14.155-1.369,4.979-17.932,3.507Z" transform="translate(145.951 -117.293)" fill="#8c9caf"/>
              <path id="Path_12249" data-name="Path 12249" d="M320.872,225.853l4.091-24.68,10.358-1.346L402.566,188.5l-1.931,21.663-6.037,1.364,3.943-18.144v-.99l-29.3,3.662-1.828,21.084-7.872,1.683,2.871-20.959L340.141,201.4l-13.759,2.183-2.277,22.466Z" transform="translate(137.071 -118.036)" fill="#a5a5aa"/>
              <path id="Path_12250" data-name="Path 12250" d="M173.565,241.707l-.824-11.945-.957-10.624,12.076-7.194V232.79l.594,9.51Z" transform="translate(101.918 -112.509)" fill="#8c9caf"/>
              <path id="Path_12251" data-name="Path 12251" d="M186.234,245.434c.34-.352-.456-12.174-.456-12.174v-21.2l24.606-4.223,11.353-2.886,5.1,27.13,1.125,6.7L201.65,243.95Z" transform="translate(105.217 -114.158)" fill="#8c9caf"/>
              <path id="Path_12252" data-name="Path 12252" d="M228.568,239.144l-2.621-9.58-3.542-23.084,31.675-6.335-3.741,22.672-1.469,12.756Z" transform="translate(113.854 -115.292)" fill="#8c9caf"/>
              <path id="Path_12253" data-name="Path 12253" d="M368.5,170.79q27.488-4.074,54.843-8.992,15.343-2.755,30.641-5.755c.625-.122.467-1.1-.163-.98q-27.266,5.368-54.674,9.973t-54.921,8.492q-7.606,1.073-15.219,2.085c-5.082.675-10.2,1.221-15.254,2.065a.218.218,0,0,0-.429.02l-.007.056a.122.122,0,0,0-.026.21,26.2,26.2,0,0,0-.007,4.293,27.091,27.091,0,0,0,.331,4.77.079.079,0,0,0,0,.1v0a38,38,0,0,0-2.02,3.882c-.85,1.634-1.751,3.241-2.721,4.808A72.665,72.665,0,0,1,302.7,204.3c-.442.528.418,1.152.859.631a67.269,67.269,0,0,0,6.34-8.857c.854-1.42,1.665-2.869,2.4-4.352a22.089,22.089,0,0,0,1.752-4.032.24.24,0,0,0,.042,0c18.18-2.871,36.291-6.225,54.444-9.265s36.32-6.036,54.492-8.984q15.317-2.484,30.644-4.923a.544.544,0,0,0-.178-1.073q-27.255,4.434-54.5,8.909-27.242,4.523-54.46,9.176c-10.028,1.708-20.083,3.318-30.08,5.2a.155.155,0,0,0-.022-.042,29.9,29.9,0,0,0-.158-4.142,28.036,28.036,0,0,0-.455-4.585c9.074-.691,18.143-2.117,27.16-3.314Q354.756,172.815,368.5,170.79Z" transform="translate(132.757 -125.924)" fill="#1d1d1b"/>
              <path id="Path_12254" data-name="Path 12254" d="M456.46,164.262l-.023,0c.017-.363,0-.735.016-1.112q.046-1.485.084-2.971c.044-1.932.153-3.88.043-5.811-.021-.377-.6-.331-.644.019-.26,1.955-.29,3.95-.392,5.918-.046.912-.085,1.824-.126,2.736a13.986,13.986,0,0,0-.07,1.619,14.992,14.992,0,0,0-1.861,1.52c-1.11.949-2.155,1.971-3.19,3a70.631,70.631,0,0,1-6.574,6c-2.079,1.608-4.165,3.192-6.2,4.858-.355.289-2.255,1.484-2.384,2.273q-25.019,4.9-50.1,9.47-26.241,4.773-52.546,9.2-7.389,1.238-14.781,2.446c-5,.817-10.04,1.5-14.994,2.546a.248.248,0,0,0,.08.488c4.436-.466,8.846-1.264,13.25-1.967s8.815-1.419,13.22-2.139q13.217-2.163,26.419-4.423,26.289-4.5,52.51-9.392,13.513-2.521,27.006-5.151a3.706,3.706,0,0,1,1.6-1.4l-.049.01c-.143.1-.162.075-.032.006l-.192.037c.138-.127.276-.258.415-.378.6-.509,1.2-1.006,1.809-1.508,2.063-1.714,4.22-3.3,6.306-4.984a74.01,74.01,0,0,0,5.854-5.525c.942-.945,1.895-1.881,2.9-2.76.493-.431,1.185-.849,1.783-1.316a.312.312,0,0,0,.5,0,2.368,2.368,0,0,0,.26-.712,2.431,2.431,0,0,0,.243-.353A.157.157,0,0,0,456.46,164.262Z" transform="translate(132.744 -126.146)" fill="#1d1d1b"/>
              <path id="Path_12255" data-name="Path 12255" d="M312.746,173.884c-1.891,3.809-3.684,7.647-5.872,11.3q-1.551,2.591-3.282,5.063a.306.306,0,0,0-.526.053,34.739,34.739,0,0,0-.85,5.374c-.117.886-.23,1.771-.345,2.657a9.967,9.967,0,0,0-.219,2.753.314.314,0,0,0,.6.062,9.159,9.159,0,0,0,.461-2.5c.125-.959.252-1.918.373-2.878.166-1.309.414-2.653.51-3.987a64.81,64.81,0,0,0,9.466-17.773A.168.168,0,0,0,312.746,173.884Z" transform="translate(132.529 -121.507)" fill="#1d1d1b"/>
              <path id="Path_12256" data-name="Path 12256" d="M435.708,242.422c-4.375.408-8.733,1.136-13.088,1.718s-8.722,1.158-13.086,1.715q-12.978,1.659-25.971,3.2-26.1,3.107-52.244,5.781-7.242.742-14.49,1.448c-4.975.484-9.981.834-14.934,1.511-.4.054-.282.618.1.6,8.774-.4,17.559-1.51,26.3-2.368q13.024-1.277,26.035-2.667,26.135-2.794,52.212-6.1,7.226-.908,14.448-1.841c4.956-.64,9.964-1.138,14.881-2.022A.5.5,0,0,0,435.708,242.422Z" transform="translate(132.538 -105.324)" fill="#1d1d1b"/>
              <path id="Path_12257" data-name="Path 12257" d="M451.676,197.96a.177.177,0,0,1,0-.022.529.529,0,0,0-.655-.573q-27.034,6.451-54.214,12.269-27.167,5.858-54.444,11.2-15.3,3-30.628,5.844a.467.467,0,0,0-.308.193.432.432,0,0,0-.285-.157,40.339,40.339,0,0,0-5.535-.056,51.362,51.362,0,0,0-5.217.106.369.369,0,0,0-.168.061c.021-.2.037-.4.054-.6a5.6,5.6,0,0,1-1.22.019c-.172.818-.175,1.772-.279,2.485q-.324,2.237-.649,4.474-.662,4.588-1.317,9.174-.643,4.475-1.275,8.951a72.648,72.648,0,0,0-1.138,9.192c0,.274.353.451.529.282q.823.766,1.625,1.552c2.143,2.108,4.06,4.412,6.132,6.584a.358.358,0,0,0,.556-.451,50.936,50.936,0,0,0-6.1-6.867c-.624-.615-1.262-1.215-1.9-1.81.613-2.5.843-5.173,1.226-7.7q.678-4.471,1.335-8.946.643-4.36,1.288-8.722c.344-2.323.791-4.671,1.073-7.016a.375.375,0,0,0,.263.146,54.619,54.619,0,0,0,5.529.1,46.474,46.474,0,0,0,4.839-.02,27.239,27.239,0,0,0-.529,4.327c-.169,1.7-.4,3.4-.678,5.091-.538,3.317-1.226,6.605-1.912,9.892l-2.095,10.028q-.512,2.451-1.023,4.9a27.836,27.836,0,0,0-1.017,5.358.482.482,0,0,0,.923.225,24.62,24.62,0,0,0,1.1-4.795q.526-2.564,1.061-5.126l2.124-10.252c.7-3.363,1.4-6.725,1.936-10.117.255-1.618.472-3.243.633-4.873a15.046,15.046,0,0,0,.019-4.755.407.407,0,0,0,.106-.087.438.438,0,0,0,.465.184q27.342-4.977,54.566-10.578,27.23-5.556,54.351-11.626,15.015-3.361,30-6.838a40.05,40.05,0,0,0-1.186,5.6q-.669,3.35-1.332,6.7-1.285,6.479-2.567,12.958l-2.559,12.958-1.324,6.7c-.437,2.218-1.034,4.462-1.277,6.708-.059.549.808.8.971.237.6-2.074.892-4.265,1.31-6.383l1.32-6.7,2.6-13.183q1.3-6.592,2.589-13.185.658-3.351,1.311-6.7A29.31,29.31,0,0,0,451.676,197.96Z" transform="translate(130.827 -115.951)" fill="#1d1d1b"/>
              <path id="Path_12258" data-name="Path 12258" d="M411.236,176.756q-3.04,12.935-6.081,25.871L403.8,208.4a5.616,5.616,0,0,1,1.179-.1l.367.007q3.772-16.057,7.546-32.114A5.115,5.115,0,0,1,411.236,176.756Z" transform="translate(156.623 -120.939)" fill="#1d1d1b"/>
              <path id="Path_12259" data-name="Path 12259" d="M421.422,131.89c-2.533,10.66-4.8,21.385-7.208,32.079a3.257,3.257,0,0,1,1.51.157q1.045-4.536,2.065-9.078c1.705-7.638,3.452-15.31,4.6-23.056C422.479,131.359,421.562,131.3,421.422,131.89Z" transform="translate(159.079 -131.481)" fill="#1d1d1b"/>
              <path id="Path_12260" data-name="Path 12260" d="M399.851,243.969l-5.725,24.354-5.31,22.591c-1.807,7.688-4,15.394-5.271,23.189a.49.49,0,0,0,.074.356c-.467,1.7-.793,3.476-1.172,5.168q-.836,3.732-1.614,7.474-1.627,7.769-3.159,15.557-3,15.287-5.662,30.638-.754,4.343-1.483,8.693a79.273,79.273,0,0,0-1.387,9c-.028.581.884.889,1.058.258a71.8,71.8,0,0,0,1.307-7.386q.626-3.77,1.273-7.536,1.34-7.822,2.769-15.629,2.8-15.324,5.924-30.587c.586-2.879,1.195-5.755,1.773-8.636.477-2.374,1.122-4.815,1.452-7.244,2.009-6.531,3.3-13.323,4.865-19.973l4.831-20.565,6.974-29.676A4.567,4.567,0,0,1,399.851,243.969Z" transform="translate(148.452 -104.958)" fill="#1d1d1b"/>
              <path id="Path_12261" data-name="Path 12261" d="M403.018,188.546a.368.368,0,0,0-.587-.252.4.4,0,0,0-.166-.035,49.14,49.14,0,0,0-7.2,1.087l-7.636,1.3q-7.635,1.3-15.271,2.6-2.182.374-4.364.745a.577.577,0,0,0-1.138.032c-.007.056-.014.11-.021.166q-12.362,2.115-24.724,4.221c-5.517.939-11.066,1.773-16.537,2.957.022-.183.047-.365.069-.546.057-.47-.638-.53-.723-.077-.049.267-.1.534-.145.8a.194.194,0,0,0-.058.32c-1.569,8.507-2.85,17.079-4.136,25.64a8.736,8.736,0,0,1,1.251-.6c1.32-8.343,2.642-16.691,3.681-25.065,10.028-1.17,20-3.148,29.962-4.786q5.615-.925,11.232-1.843c-.592,4.769-1.007,9.565-1.546,14.34-.33,2.931-.723,5.861-1.091,8.791a5.6,5.6,0,0,1,1.007-.072c.085,0,.284.023.525.054.325-2.878.6-5.762.914-8.632.528-4.884,1.11-9.781,1.431-14.685q8.9-1.459,17.806-2.921l8.525-1.4a62.46,62.46,0,0,0,8.052-1.426c-.322,2.373-.365,4.812-.615,7.192-.278,2.627-.624,5.248-1.054,7.855q-.569,3.455-1.324,6.877l.177-.1c.471-.274.943-.545,1.421-.806q.6-2.9,1.046-5.833c.4-2.611.722-5.235.945-7.867A46.26,46.26,0,0,0,403.018,188.546Z" transform="translate(136.956 -118.101)" fill="#1d1d1b"/>
              <path id="Path_12262" data-name="Path 12262" d="M264.332,224.175a26.253,26.253,0,0,0-2.988.956.365.365,0,0,0,.209.69,20.326,20.326,0,0,0,2.193-.425q-.317,1.583-.629,3.171a.686.686,0,0,1,.058.523q-.289,1.071-.586,2.142-.565,2.884-1.12,5.769a.527.527,0,0,1,0,.261c-.168.713-.318,1.434-.52,2.138l.058-.015q-.856,4.484-1.694,8.972a.47.47,0,0,1,.046.323c-.067.335-.145.669-.221,1a5.3,5.3,0,0,1-.142.622.487.487,0,0,1-.072.141q-.543,2.918-1.08,5.837a47.558,47.558,0,0,1-1.207,7.081.449.449,0,0,1-.148.26q-.567,3.085-1.136,6.168c-.135.73,1.013.847,1.148.12q.764-4.106,1.536-8.209l.082-.015a12.107,12.107,0,0,1,.336-1.532l-.132.027q.825-4.375,1.651-8.749a89.858,89.858,0,0,1,2.7-14.043l-.061.015q1.179-6.325,2.326-12.654A.527.527,0,0,0,264.332,224.175Z" transform="translate(121.62 -109.629)" fill="#1d1d1b"/>
              <path id="Path_12263" data-name="Path 12263" d="M474.3,132.816c-38.248,5.8-76.745,9.718-115.259,13.245-38.33,3.511-76.7,6.662-114.954,10.952q-16.01,1.794-31.986,3.887c-10.675,1.409-21.452,2.677-32.011,4.812a2.01,2.01,0,0,0-.45-.69.253.253,0,0,0-.392.009c-.871,1.057-.334,3.049-.268,4.318.1,1.932.219,3.862.332,5.792q.159,2.753.32,5.5a28.878,28.878,0,0,0,.571,6.045.552.552,0,0,0,.807.35,28.027,28.027,0,0,0,6.975,0,35.933,35.933,0,0,0,4.883-.729c-.019.273-.035.546-.051.821a.493.493,0,0,0-.193.122c-2.467,2.486-4.672,5.284-6.976,7.924q-3.717,4.256-7.431,8.512-3.609,4.149-7.207,8.308c-2.252,2.6-4.637,5.163-6.7,7.923-1.688.213-3.377.62-5.041.935-1.909.361-3.826.7-5.7,1.217,4.35-5.52,8.337-11.343,12.554-16.962,2.24-2.984,4.478-5.973,6.752-8.932q1.75-2.278,3.517-4.54a28.706,28.706,0,0,0,3.167-4.236c.225-.436-.4-.843-.748-.547a26.721,26.721,0,0,0-3.368,4.087q-1.765,2.265-3.511,4.545c-2.269,2.963-4.525,5.937-6.731,8.948-4.11,5.613-8.337,11.239-11.977,17.181-.213-.612-.433-1.218-.627-1.82-.5-1.555-.985-3.124-1.558-4.655a.646.646,0,0,0,.419-.292q7.632-11.348,14.446-23.217,3.238-5.65,6.278-11.409a128.6,128.6,0,0,0,6.171-12.5.565.565,0,0,0-.086-.561c.1.114-.125-.2-.19-.2l-.189-.007a.564.564,0,0,0-.514.227c-2.169,3.74-3.963,7.715-5.984,11.537q-3.281,6.21-6.784,12.3-6.751,11.732-14.325,22.962a.72.72,0,0,0-.131.415.47.47,0,0,0-.3.555c.4,1.625.914,3.225,1.406,4.823a35.457,35.457,0,0,0,1.7,5.168.579.579,0,0,0,1.095-.332,13.956,13.956,0,0,0-.505-2.039h.017c1.965-.178,3.908-.54,5.849-.882,1.442-.253,2.93-.45,4.377-.754a.216.216,0,0,0,.331.042c.054-.051.105-.1.158-.153l.038-.01c1.833,27.125,4.092,54.224,6.211,81.327s4.441,54.206,6.319,81.331c.53,7.663.959,15.336,1.118,23.017.158,7.656-.18,15.266-.386,22.913a.647.647,0,0,0,1.286.135A170.627,170.627,0,0,0,179.44,409c-.094-6.631-.394-13.258-.8-19.878-.838-13.574-2.017-27.128-3.085-40.685q-3.231-41.033-6.463-82.064c-1.211-15.28-2.392-30.562-3.758-45.829a.376.376,0,0,0-.061-.685c2.082-2.1,4-4.393,5.958-6.593q3.761-4.221,7.5-8.46,3.65-4.119,7.276-8.258c2.224-2.525,4.6-4.984,6.726-7.605-.079,2.072-.1,4.152-.184,6.212q-.206,5.164-.4,10.327c-.127,3.344-.256,6.688-.36,10.033a78.859,78.859,0,0,0-.117,10.122c.026.276.416.231.461-.014.007-.046.014-.091.021-.137a.271.271,0,0,0,.284.153c11.066-1.212,22.088-3.174,33.083-4.907q4.043-.636,8.085-1.277c.908,7.2,1.975,14.385,2.984,21.573.8,5.667,1.422,11.421,2.459,17.069q-4.69.675-9.377,1.353l-24.051,3.485c-1.955.283-3.911.561-5.865.856l-2.929.446c-1.033.157-2.512.7-3.516.535a1.822,1.822,0,0,1-.21-.048.664.664,0,0,0-.6-.59l-.154-.02a5.588,5.588,0,0,1-.066-2.169c.019-.88.037-1.76.051-2.64q.046-3.081.1-6.163c.138-9.014.585-18.1.313-27.111-.012-.436-.737-.407-.765.022-.56,8.563-.433,17.223-.6,25.8q-.057,2.933-.114,5.866a56.43,56.43,0,0,0-.093,6.235c-4.411-.607-8.985-1.467-13.419-1.091A118.3,118.3,0,0,0,176.564,251c-.5-4.415-.75-9.14-1.97-13.423l-.007-.014c2.848-1.562,5.421-3.649,8.1-5.476q2.091-1.425,4.2-2.82a35.874,35.874,0,0,0,4.428-2.967.519.519,0,0,0-.538-.872,24.781,24.781,0,0,0-3.959,2.422c-1.485.979-2.963,1.971-4.422,2.991a56.665,56.665,0,0,0-8.224,6.341,1.972,1.972,0,0,1-.264.416c.009,4.317.895,8.727,1.37,13.016q.358,3.227.669,6.458c.225,2.331.268,4.744.72,7.04.114.577,1.062.607,1.079-.032,0-.168,0-.336.007-.5,4.514.781,9.118.835,13.62,1.764-.309,10.242-.038,20.526.007,30.771q.07,15.625.14,31.249.141,31.251.337,62.5l.094,17.264c.032,5.8-.124,11.632.146,17.426.031.662,1.148.629,1.172-.035.179-5.147-.02-10.324-.052-15.473q-.05-7.889-.1-15.777-.1-15.626-.2-31.254-.2-31.257-.428-62.513c-.082-11.248.089-22.543-.367-33.785a1.687,1.687,0,0,0,.388.133,6.8,6.8,0,0,0,2.143-.193l3.819-.519c13.612-1.849,27.207-3.841,40.8-5.809.087.44.174.879.267,1.317.051.693.111,1.388.175,2.081-.672.166-1.345.33-2.016.5-1.4.351-2.871.646-4.3,1.043.019-.4.032-.793.049-1.19a3.473,3.473,0,0,0,1.044-.5.363.363,0,0,0-.188-.635,3.19,3.19,0,0,0-.908-.031.244.244,0,0,0-.357.044c-.61.1-1.218.3-1.8.444-.675.168-1.327.346-1.971.566l0-.043c-.024-.283-.425-.234-.471.014-.014.072-.025.145-.037.216-.158.062-.318.121-.475.192-.232.1-.2.529.084.523.093,0,.184-.011.277-.015a92.126,92.126,0,0,0-.565,10.022q-.213,5.63-.3,11.264-.187,11.118.016,22.239a.622.622,0,0,0,.892.534c9.286-1.609,18.461-3.8,27.6-6.11q6.753-1.707,13.466-3.566c4.506-1.247,9.151-2.346,13.544-3.947a.678.678,0,0,0-.388-1.282c-1.137.274-2.269.58-3.4.9a42.332,42.332,0,0,0,.462-4.519c.215-1.909.416-3.821.636-5.73l.022,0a4.654,4.654,0,0,1,.04-.784,11.347,11.347,0,0,1,.266-1.933q.549-4.54,1.173-9.069l.048-.01a5.844,5.844,0,0,1,.266-1.221.58.58,0,0,1,.037-.089l-.167.048c.436-3.015.938-6.021,1.452-9.025a16.032,16.032,0,0,1,.323-1.814l-.012,0c.366-2.133.729-4.266,1.069-6.4l.122-.028c.093-.589.177-1.18.271-1.77-.039,0-.079.009-.12.015.208-1.361.407-2.724.585-4.088.048-.371-.555-.536-.655-.159q-.586,2.217-1.079,4.467c-1.408.323-2.825.811-4.134,1.126l-7.217,1.741-1.8.435c.02-.116.037-.234.057-.35l.419-.059a5.913,5.913,0,0,1,.049-1.036.683.683,0,0,1-.02-.274l-.229.033q1.813-10.965,3.723-21.913c1.17-6.687,2.532-13.359,3.524-20.073.082-.551-.728-.609-.843-.089-2.584,11.713-4.349,23.663-6.343,35.488q-.569,3.372-1.125,6.745l-.1.014a5.133,5.133,0,0,1-.153,1.765q-5.654,1.362-11.306,2.731-7.072,1.718-14.14,3.442-1.945.478-3.889.953c-.117-.975-.25-1.948-.413-2.913-.056-.075-.105-.154-.156-.232-.488-6.188-1.523-12.367-2.343-18.5-.96-7.192-1.866-14.4-2.928-21.574q11.825-1.878,23.637-3.841,9.339-1.564,18.671-3.186a.559.559,0,0,0-.183-1.1q-32.934,5.824-65.976,10.994c-6.235.973-12.5,1.815-18.7,2.976a.266.266,0,0,0-.142.074,86.868,86.868,0,0,0,.63-9.538c.174-3.438.324-6.878.475-10.319q.219-5.012.435-10.026c.131-3.087.394-6.207.407-9.3q.391-.117.781-.25c.434-.151.175-.739-.217-.716-.189.011-.378.026-.567.041v-.1c-.011-.727-1.083-.889-1.158-.121-.01.109-.017.219-.027.327-1.731.184-3.454.46-5.183.651-2.163.24-4.354.311-6.5.659a27.216,27.216,0,0,0-.13-5.2q-.176-2.894-.353-5.788c-.112-1.834-.219-3.668-.337-5.5a24.605,24.605,0,0,0-.172-3.63c9.524-1.079,19-2.668,28.5-3.931q14.229-1.891,28.492-3.51c19.216-2.2,38.466-4.085,57.726-5.855,38.337-3.523,76.714-6.609,115-10.676,21.56-2.29,43.088-4.907,64.535-8.093A.745.745,0,0,0,474.3,132.816ZM228.917,307.12q-.224-11.085-.073-22.172.078-5.487.24-10.974c.1-3.358.431-6.8.252-10.168a23.56,23.56,0,0,0,2.329-.358c.384-.075.781-.136,1.17-.217l-.133.89a2.612,2.612,0,0,1,.025.492.527.527,0,0,1,.007.25c-.014.069-.028.14-.043.21-.023.23-.051.458-.054.683a.507.507,0,0,1-.171.356c-.011.047-.021.094-.032.141a.5.5,0,0,1-.026.077c-.271,2.17-.492,4.35-.68,6.534a5.152,5.152,0,0,1-.183,2.254c-.234,3.01-.428,6.023-.633,9.023q-.373,5.459-.657,10.922a91.7,91.7,0,0,0-.4,10.8c.046.67,1.059.587,1.144-.035.472-3.486.318-7.155.461-10.681a85.082,85.082,0,0,0,9.922-2.4q.039,5.226-.091,10.449a.561.561,0,0,0,.64.6q1.744-.317,3.491-.628C239.922,304.487,234.412,305.771,228.917,307.12Zm3.127-23.071a83.169,83.169,0,0,0,9.079-1.993q.195,4.682.247,9.366a71.09,71.09,0,0,0-9.878,3.03Q231.73,289.248,232.044,284.049Zm27.788-7.841-14.36,3.589c-1.1.276-2.216.538-3.334.8q-.208-4.41-.555-8.81c1.49-.4,2.972-.8,4.444-1.155q7.641-1.865,15.277-3.739,3.563-.875,7.138-1.723-.745,4.631-1.469,9.262Q263.4,275.316,259.832,276.208Zm6.949-.549q-.5,3.229-1,6.458c-.177,1.154-.347,2.31-.523,3.464q-2.412.545-4.821,1.106-7.328,1.717-14.613,3.613c-1.111.292-2.237.571-3.369.851q-.063-4.69-.263-9.378c1.35-.357,2.7-.713,4.035-1.043l14.081-3.47Q263.543,276.464,266.781,275.659Zm-3.421,22.683c-.012.088-.026.175-.038.263l-.163.044c-.007-.027-.019-.052-.028-.078a.545.545,0,0,1-.1.037l-.517.147a8.883,8.883,0,0,1-1.866.612,8.257,8.257,0,0,1-2.124.311c-1.982.458-4.064.677-5.968,1.029q-5.077.94-10.153,1.875.111-5.075.062-10.15c1.185-.335,2.367-.662,3.547-.964q7.431-1.9,14.9-3.638,2.069-.48,4.141-.943-.842,5.589-1.66,11.183A.541.541,0,0,1,263.36,298.342Zm15.272-9.393a27.9,27.9,0,0,0-.463,5.351c-2.878.851-5.743,1.78-8.621,2.589q-2.56.721-5.127,1.417.851-5.832,1.733-11.66,4.727-1.053,9.469-2.033c1.2-.246,2.395-.476,3.6-.7C279.011,285.591,278.807,287.268,278.632,288.949Zm.76-6.425c-1.424.306-2.844.615-4.259.911q-4.4.918-8.779,1.9.754-4.975,1.526-9.949l6.5-1.614,6.432-1.6Q280.045,277.343,279.392,282.524ZM281,270.948l-6.8,1.689-6.123,1.52q.723-4.627,1.462-9.251c4.291-1.021,8.585-2.038,12.865-3.1C281.9,264.857,281.456,267.913,281,270.948Zm-10.142-14.228,2.313-.549,6.933-1.646,3.754-.891.022,0c-.441,2.147-.834,4.308-1.2,6.473-4.307,1.062-8.6,2.168-12.9,3.277Q270.315,260.049,270.855,256.721Zm-25.711,6.069q7.083-1.648,14.158-3.33,5.235-1.235,10.467-2.481-.549,3.342-1.087,6.686-3.939,1.016-7.881,2.009-7.487,1.876-14.972,3.764c-1.432.361-2.889.694-4.352,1.029-.017-.2-.032-.4-.048-.6-.171-2.018-.325-4.055-.538-6.084Zm-4.086,17.75c0,.1.009.2.012.3a88.4,88.4,0,0,0-8.979,2.454c.2-3.161.456-6.321.7-9.483,2.6-.423,5.194-1.074,7.769-1.756Q240.863,276.3,241.059,280.539Zm-.693-11.091c.033.418.062.835.094,1.253-2.557.589-5.117,1.212-7.584,2.022.182-2.395.349-4.79.475-7.186,1.639-.3,3.28-.769,4.858-1.132.547-.126,1.1-.256,1.644-.383C240.03,265.832,240.222,267.64,240.366,269.448Z" transform="translate(96.743 -131.169)" fill="#1d1d1b"/>
              <path id="Path_12264" data-name="Path 12264" d="M184.591,211.9l.028-.023a.311.311,0,0,0-.319-.524.458.458,0,0,0-.693.326,59.7,59.7,0,0,0-5.445,3.349c-2.056,1.3-4.254,2.532-6.185,4.027-.023-.135-.04-.272-.066-.405a.286.286,0,0,0-.564.016c-.388,3.974.282,8.25.648,12.213.336,3.657.393,7.823,1.479,11.385a.254.254,0,0,0,.084.255c.046.145.091.29.141.433a.256.256,0,0,0,.484-.078c0-.079,0-.159.006-.238a90.968,90.968,0,0,0,9.953.2c.017,0,.031-.007.048-.009.01.088.017.177.028.266.035.277.5.274.5-.016-.017-5.2-.347-10.4-.392-15.608S184.564,217.086,184.591,211.9ZM174.2,242.046c.023-3.6-.872-7.379-1.228-10.935-.37-3.69-.324-7.554-.865-11.238a66.367,66.367,0,0,0,6.008-3.665c1.786-1.13,3.706-2.186,5.414-3.465-.3,4.98-.184,10.037-.1,15.015.079,4.739.161,9.517.667,14.234A89,89,0,0,0,174.2,242.046Z" transform="translate(101.787 -112.663)" fill="#1d1d1b"/>
              <path id="Path_12265" data-name="Path 12265" d="M186.2,227.259c.049-2.85.125-5.7.2-8.545.074-2.675.571-5.678.057-8.307a.473.473,0,0,0-.932.027c-.64,2.651-.237,5.827-.217,8.554.022,2.991.078,5.981.147,8.971.13,5.564-.229,11.28.389,16.815a.261.261,0,0,0,.514-.015C186.663,238.958,186.1,233.073,186.2,227.259Z" transform="translate(105.072 -112.962)" fill="#1d1d1b"/>
              <path id="Path_12266" data-name="Path 12266" d="M224.757,222.662c-.979-5.619-1.707-11.267-2.541-16.906a.432.432,0,0,0-.025-.07.561.561,0,0,0-.279-1.078c-5.947.594-11.936,2.1-17.811,3.2-5.929,1.11-11.906,2.076-17.748,3.583a.1.1,0,0,0,.032.2c6-.594,11.943-1.745,17.888-2.741,5.656-.949,11.535-1.592,17.114-2.956v0c.55,5.8,1.5,11.574,2.515,17.3.911,5.135,1.626,10.66,3.324,15.628a.515.515,0,0,0-.174,0c-6.866,1.186-13.691,2.559-20.586,3.59-3.317.5-6.642.942-9.969,1.363-3.229.409-6.961.327-10.038,1.385-.3.1-.188.546.094.577,3.222.363,6.894-.6,10.1-1.031,3.324-.442,6.642-.928,9.959-1.427,6.877-1.037,13.8-2.038,20.6-3.481a.479.479,0,0,0,.3-.187c.11.2.426.068.4-.158C227.352,233.841,225.725,228.228,224.757,222.662Z" transform="translate(105.334 -114.24)" fill="#1d1d1b"/>
              <path id="Path_12267" data-name="Path 12267" d="M254.243,199.615c-5.34,1.351-10.723,2.538-16.123,3.616q-3.98.8-7.976,1.511c-2.742.492-5.577.809-8.26,1.572-.277.079-.334.572.016.564.09,0,.18-.01.271-.012a45.47,45.47,0,0,0,.792,7.742q.612,4.226,1.408,8.424,1.59,8.4,3.919,16.625a.549.549,0,0,0,.884.255,19.9,19.9,0,0,0,5.146-.762l5.434-1.037q2.718-.517,5.434-1.045a11.6,11.6,0,0,0,2.962-.551.48.48,0,0,0,.848-.243q.775-8.983,2.217-17.889.7-4.3,1.537-8.586c.581-2.96,1.571-6.063,1.684-9.082C255.121,200.54,254.938,199.44,254.243,199.615Zm-2.357,9.509q-.91,4.415-1.636,8.866-1.39,8.62-2.133,17.323a.5.5,0,0,0-.288.1l-.079.056a.405.405,0,0,0-.154.2,13.2,13.2,0,0,1-1.715.257l-2.287.442q-2.573.5-5.145,1l-4.858.953a18.978,18.978,0,0,0-4.357,1.034q-2.241-8.019-3.831-16.2-.782-4.056-1.4-8.139c-.4-2.7-.556-5.525-1.216-8.176a69.162,69.162,0,0,0,7.233-1.047q4-.682,7.983-1.462c5.36-1.052,10.687-2.249,16-3.511C252.872,203.368,252.447,206.411,251.887,209.124Z" transform="translate(113.677 -115.421)" fill="#1d1d1b"/>
              <path id="Path_12268" data-name="Path 12268" d="M248.371,203.981c-3.922.547-7.834,1.775-11.708,2.616-3.9.848-7.884,1.489-11.729,2.574a.168.168,0,0,0,.054.331,114.709,114.709,0,0,0,12.067-2.326,99.514,99.514,0,0,0,11.457-2.727C248.784,204.355,248.639,203.943,248.371,203.981Z" transform="translate(114.418 -114.387)" fill="#1d1d1b"/>
              <path id="Path_12269" data-name="Path 12269" d="M244.883,207.016c-3.262.5-6.5,1.408-9.729,2.095s-6.569,1.163-9.738,2.1a.182.182,0,0,0,.059.358,81.475,81.475,0,0,0,10.088-1.783,97.142,97.142,0,0,0,9.5-2.163C245.422,207.515,245.233,206.962,244.883,207.016Z" transform="translate(114.529 -113.672)" fill="#1d1d1b"/>
              <path id="Path_12270" data-name="Path 12270" d="M247.092,210.006c-3.618.239-7.291,1.356-10.833,2.111-3.417.729-6.913,1.309-10.245,2.371-.184.059-.079.327.094.309,3.647-.374,7.257-1.3,10.846-2.035,3.39-.693,7.014-1.129,10.274-2.306C247.5,210.358,247.342,209.989,247.092,210.006Z" transform="translate(114.682 -112.966)" fill="#1d1d1b"/>
              <path id="Path_12271" data-name="Path 12271" d="M247.653,213.519a86.447,86.447,0,0,0-10.643,1.893,80.925,80.925,0,0,0-10.016,2.313c-.177.059-.078.319.091.3,3.47-.383,6.909-1.256,10.335-1.924,3.408-.666,7-1.022,10.336-1.958A.317.317,0,0,0,247.653,213.519Z" transform="translate(114.914 -112.138)" fill="#1d1d1b"/>
              <path id="Path_12272" data-name="Path 12272" d="M245.163,217.1a79.225,79.225,0,0,0-9.157,1.886,50,50,0,0,0-8.537,2.218c-.145.061-.066.256.075.247,3.065-.208,6.16-1.19,9.156-1.848,2.858-.628,5.848-1.041,8.639-1.92C245.688,217.569,245.49,217.063,245.163,217.1Z" transform="translate(115.029 -111.295)" fill="#1d1d1b"/>
              <path id="Path_12273" data-name="Path 12273" d="M246.52,220.6a43.644,43.644,0,0,0-9.4,1.173,48.755,48.755,0,0,0-9.184,2.313.206.206,0,0,0,.119.389c3.088-.423,6.137-1.291,9.207-1.854s6.254-.762,9.275-1.532C246.785,221.029,246.817,220.615,246.52,220.6Z" transform="translate(115.129 -110.47)" fill="#1d1d1b"/>
              <path id="Path_12274" data-name="Path 12274" d="M241.843,223.952a46.024,46.024,0,0,0-6.751,1.345c-2.071.487-4.16.97-6.18,1.642-.255.085-.114.462.131.432,2.274-.268,4.53-.767,6.767-1.247a43.714,43.714,0,0,0,6.217-1.563C242.388,224.427,242.185,223.924,241.843,223.952Z" transform="translate(115.356 -109.678)" fill="#1d1d1b"/>
              <path id="Path_12275" data-name="Path 12275" d="M239.72,226.905a77.8,77.8,0,0,0-10.112,1.9.233.233,0,0,0,.077.46,78.178,78.178,0,0,0,10.145-1.7A.331.331,0,0,0,239.72,226.905Z" transform="translate(115.508 -108.982)" fill="#1d1d1b"/>
              <path id="Path_12276" data-name="Path 12276" d="M362.131,195.79c-6.083,1.068-12.192,1.988-18.291,2.963s-12.25,1.721-18.3,2.92a.342.342,0,0,0-.15.6,29.317,29.317,0,0,0-.55,4.685c-.183,1.839-.36,3.678-.559,5.515-.188,1.74-.391,3.479-.6,5.216a55.013,55.013,0,0,0-.682,5.792c0,.337.519.535.627.153.965-3.416,1.125-7.254,1.534-10.776.213-1.835.416-3.673.586-5.512a25.961,25.961,0,0,0,.3-5.056c5.987-.743,11.948-1.914,17.9-2.861s11.914-1.945,17.887-2.808a31.174,31.174,0,0,0-.826,4.448q-.428,2.64-.827,5.283c-.534,3.508-1.217,7.048-1.522,10.583a.382.382,0,0,0,.76.08c.671-3.389,1.023-6.866,1.542-10.283.253-1.665.512-3.327.765-4.991a32.468,32.468,0,0,0,.685-5.24A.4.4,0,0,0,362.131,195.79Z" transform="translate(137.574 -116.32)" fill="#1d1d1b"/>
              <path id="Path_12277" data-name="Path 12277" d="M390.042,191.571a.438.438,0,0,0-.441-.22q-7.5.819-14.979,1.8c-2.444.321-4.889.648-7.328,1-2.14.31-4.632.387-6.693,1.132,0-.04,0-.078,0-.116-.015-.222-.393-.268-.446-.047-.777,3.169-.776,6.642-1.066,9.889-.31,3.473-.7,6.946-.928,10.425a.415.415,0,0,0,.824.087c.387-3.465.615-6.953.922-10.426a80.979,80.979,0,0,0,.727-9.2c2.217.116,4.635-.542,6.814-.848,2.441-.342,4.883-.682,7.327-1q7.365-.968,14.749-1.772c-.838,2.823-1.259,5.832-1.878,8.7q-.51,2.362-1.063,4.716a35.331,35.331,0,0,0-1.132,4.979.318.318,0,0,0,.609.148,26.749,26.749,0,0,0,1.3-4.645q.562-2.269,1.081-4.546a57.716,57.716,0,0,0,1.78-9.782A.286.286,0,0,0,390.042,191.571Z" transform="translate(145.861 -117.366)" fill="#1d1d1b"/>
              <path id="Path_12278" data-name="Path 12278" d="M291.926,281.495c-25.712,4.118-51.524,7.579-77.389,10.57-7.2.832-14.436,1.471-21.611,2.484-.007-.042-.014-.085-.021-.127-.083-.487-.75-.344-.734.121.2,5.714.906,11.425,1.335,17.127q.632,8.41,1.076,16.834.893,17.2.9,34.443c0,.785,1.226.918,1.222.129v-.012a59.389,59.389,0,0,0,6.784-.477q3.8-.33,7.6-.686,7.6-.712,15.183-1.54,15.317-1.665,30.587-3.721,8.581-1.153,17.143-2.433a.62.62,0,0,0-.2-1.222q-30.026,4.6-60.256,7.605-4.234.426-8.469.822a81.893,81.893,0,0,0-8.376.835c-.056-11.121-.332-22.239-.907-33.346q-.443-8.57-1.112-17.124c-.433-5.476-.76-11.031-1.629-16.463,12.925-.87,25.846-2.689,38.7-4.261q19.386-2.369,38.731-5.065,10.664-1.49,21.32-3.031c-2.614,5.03-4.445,10.519-6.384,15.837-1.981,5.436-3.825,10.921-5.57,16.436q-5.222,16.513-9.141,33.4c-.226.973,1.321,1.125,1.546.162q3.958-16.939,9.176-33.549,2.571-8.139,5.434-16.184c1.924-5.445,4.25-10.8,5.826-16.357a.369.369,0,0,0,0-.2A.723.723,0,0,0,291.926,281.495Z" transform="translate(106.725 -96.113)" fill="#1d1d1b"/>
              <path id="Path_12279" data-name="Path 12279" d="M281.87,286.2c-21.977,4.139-44.3,6.819-66.535,9.069-6.117.619-12.329.893-18.421,1.734,0-.5,0-.995,0-1.492a.584.584,0,1,0-1.162.035c.416,5.283.426,10.629.625,15.926.194,5.115.365,10.231.545,15.346s.36,10.231.539,15.346c.09,2.558.174,5.116.273,7.673a73.285,73.285,0,0,0,.435,8.24.3.3,0,0,0,.6-.019,71.5,71.5,0,0,0-.119-7.954c-.072-2.5-.162-5-.245-7.5q-.254-7.676-.509-15.351c-.169-5.117-.348-10.235-.505-15.352-.145-4.67-.43-9.366-.475-14.045,5.316-.111,10.675-.792,15.963-1.284q8.325-.773,16.631-1.719,16.759-1.9,33.439-4.406c6.144-.913,12.266-1.953,18.4-2.91-.846,1.992-1.362,4.192-2,6.233q-1.149,3.691-2.285,7.385-2.243,7.246-4.483,14.49c-3.018,9.75-5.932,19.541-9.073,29.252-.242.75.918,1.194,1.136.446,2.876-9.9,5.985-19.742,8.985-29.607l4.5-14.8c.751-2.467,1.509-4.931,2.25-7.4a55.614,55.614,0,0,0,1.759-6.132A.62.62,0,0,0,281.87,286.2Z" transform="translate(107.569 -95.003)" fill="#1d1d1b"/>
              <path id="Path_12280" data-name="Path 12280" d="M262.833,337.278c-10.745,1.212-21.458,2.9-32.174,4.354L214.721,343.8c-5.386.732-10.89,1.211-16.221,2.273a.461.461,0,0,0,.151.91c5.325-.382,10.662-1.356,15.954-2.063l16.239-2.168c10.719-1.431,21.5-2.64,32.18-4.313A.587.587,0,0,0,262.833,337.278Z" transform="translate(108.129 -82.959)" fill="#1d1d1b"/>
              <path id="Path_12281" data-name="Path 12281" d="M227.951,293.226a.211.211,0,0,0-.4-.042,33.976,33.976,0,0,0-.775,6.505q-.313,3.527-.581,7.061-.528,7.064-.914,14.14-.769,14.151-.959,28.323c-.007.523.807.613.814.085q.193-14.169.954-28.323.384-7.075.912-14.141.252-3.385.525-6.77A39.1,39.1,0,0,0,227.951,293.226Z" transform="translate(114.305 -93.385)" fill="#1d1d1b"/>
              <path id="Path_12282" data-name="Path 12282" d="M228.5,293.72c-.8,18.856-1.141,37.741-1.75,56.6-.019.578.884.676.9.1.494-18.872,1.259-37.75,1.564-56.624C229.225,293.341,228.525,293.255,228.5,293.72Z" transform="translate(114.879 -93.301)" fill="#1d1d1b"/>
              <path id="Path_12283" data-name="Path 12283" d="M462.446,389.926c-9.918.13-19.837.373-29.755.64a.685.685,0,0,1-.494.184c-.079,0-.158-.006-.237-.014a10.518,10.518,0,0,1-1.091-.121l-.916.025c-.489.086-.985.151-1.483.2a.456.456,0,0,1-.406-.148q-9.9.272-19.795.533l-10.691.273c.29-.66.517-1.352.758-2.029a.738.738,0,0,0,.127-.272l.054-.226a7.762,7.762,0,0,0,.662-2.776q10.983-45.873,21.148-91.936c1.938-8.807,4.058-17.616,5.557-26.511.083-.019.167-.035.251-.053a.587.587,0,0,0-.193-1.158c-4.97.67-9.916,1.738-14.854,2.62q-7.57,1.351-15.14,2.709-14.848,2.662-29.695,5.327c-5.5.987-11.023,1.9-16.5,3.021a.285.285,0,0,0-.452.093l-.214.043a.421.421,0,0,0,0,.826c-1.586,6.791-2.453,13.8-3.494,20.69q-1.666,11.042-3.1,22.117-2.838,21.855-4.782,43.815-1.114,12.586-1.93,25.2a.64.64,0,0,0,0,.1q-44.132,1.157-88.265,2.379-14.952.415-29.9.861c-4.407.132-8.817.241-13.227.372.012-.047.022-.1.033-.143-.353-.048-.706-.1-1.06-.137.006.1.011.206.021.31-4.854.148-9.706.329-14.551.608a2.89,2.89,0,0,1,.022.492.705.705,0,0,1,.211-.078,5.048,5.048,0,0,1,2.548.164c16.608-.04,33.243-.782,49.839-1.225q26.788-.714,53.574-1.4,49.343-1.268,98.689-2.434a.8.8,0,0,1,.507-.163c.4,0,.793,0,1.19.012a.511.511,0,0,1,.285.1l.865-.02a.3.3,0,0,0,.261-.006l5.355-.127c20.1-.471,40.214-.745,60.308-1.415C463.227,391.22,463.2,389.916,462.446,389.926Zm-107.764,2.668q-6.38.165-12.761.336,3.822-42.5,9.3-84.824c1.011-7.814,2.4-15.657,3.034-23.513a54.51,54.51,0,0,0,6.74-.8q3.789-.515,7.577-1.043,7.723-1.075,15.434-2.213,5.129-.762,10.253-1.565c-1.246,7.063-2.107,14.2-3.1,21.3q-1.561,11.157-3.155,22.31-3.188,22.3-6.515,44.588-1.854,12.418-3.726,24.833Q366.222,392.3,354.682,392.594Zm39.333-1-15.131.387q6.788-44.281,12.961-88.652c1.137-8.143,2.432-16.3,3.217-24.481q2.03-.317,4.058-.634c4.968-.786,10.025-1.4,14.948-2.441-1.87,7.168-3.166,14.494-4.574,21.762q-2.236,11.55-4.315,23.128-4.108,22.863-7.558,45.84Q395.726,379.03,394.014,391.589Zm2.5-.064-1.277.033q6.223-45.4,14.768-90.437c1.613-8.521,3.541-17.018,4.811-25.6a.654.654,0,0,0-.528-1.13c-5.048.617-10.073,1.672-15.094,2.488s-10.069,1.608-15.107,2.388-10.079,1.545-15.124,2.286q-3.783.554-7.57,1.09a62.035,62.035,0,0,0-7.187,1.092.438.438,0,0,0-.756.216c-1.447,7.032-2.148,14.272-3.078,21.387q-1.383,10.562-2.661,21.138-2.575,21.3-4.728,42.645-1.2,11.914-2.274,23.84l-3.779.1q2.857-44.11,9.251-87.888c1.176-8.014,2.8-16.032,3.642-24.089,9.838-1.464,19.623-3.382,29.418-5.1q14.857-2.608,29.712-5.225c5.345-.943,10.76-1.713,16.074-2.831-1.975,7.512-3.512,15.148-5.2,22.729q-2.667,12-5.388,23.985-5.374,23.683-10.9,47.329-3.179,13.55-6.427,27.085a.558.558,0,0,0,.041.409A18.735,18.735,0,0,0,396.517,391.525Z" transform="translate(105.938 -99.639)" fill="#1d1d1b"/>
              <path id="Path_12284" data-name="Path 12284" d="M349.9,308.508a4.865,4.865,0,0,0-1.98.989,22.859,22.859,0,0,0-2.03,1.546.245.245,0,0,0-.1.205,76.313,76.313,0,0,0-2.758,9.59c-.807,3.085-1.593,6.175-2.326,9.28q-1.118,4.731-2.085,9.5a85.4,85.4,0,0,0-1.742,10.137c-.022.279.423.418.5.122.817-3.057,1.27-6.23,1.909-9.33q1.01-4.9,2.177-9.776c.792-3.3,1.634-6.583,2.559-9.846.887-3.134,2.093-6.285,2.753-9.469a.439.439,0,0,0,0-.205,16.409,16.409,0,0,0,1.726-.8,4.869,4.869,0,0,0,1.807-1.268A.434.434,0,0,0,349.9,308.508Z" transform="translate(140.847 -89.741)" fill="#1d1d1b"/>
              <path id="Path_12285" data-name="Path 12285" d="M349.385,310.263c-1.129,3.9-1.763,7.941-2.588,11.909q-1.26,6.069-2.688,12.1-1.477,6.241-3.115,12.443c-.539,2.042-1.055,4.1-1.663,6.12-.067.221-.168.465-.257.712-.2-.374-.455-.733-.649-1.063a13.922,13.922,0,0,0-1.18-1.83c-.272-.334-.727,0-.6.373a15.252,15.252,0,0,0,.98,2.122,4.246,4.246,0,0,0,1.094,1.686.382.382,0,0,0,.371.049.987.987,0,0,0,.319.246.5.5,0,0,0,.5-.078.937.937,0,0,0,.376-.475.46.46,0,0,0-.211-.562.389.389,0,0,0,.021-.073,2.06,2.06,0,0,0,.146-.445c.147-.456.261-.926.389-1.388q.386-1.388.763-2.779.754-2.781,1.473-5.572,1.385-5.372,2.619-10.781,1.253-5.478,2.37-10.985a91.254,91.254,0,0,0,1.924-11.637C349.786,310.143,349.451,310.037,349.385,310.263Z" transform="translate(140.784 -89.357)" fill="#1d1d1b"/>
              <path id="Path_12286" data-name="Path 12286" d="M566.2,252.464q-33.961,2.006-67.956,3.406-34.352,1.414-68.724,2.208c-12.629.292-25.268.348-37.893.746-.649.021-.623,1.149.035,1.153,11.382.063,22.779-.285,34.158-.531q16.872-.367,33.739-.881,34.158-1.042,68.291-2.693,18.559-.9,37.111-1.975c-1.932,3.683-3.379,7.653-4.957,11.487q-2.747,6.666-5.407,13.369-5.331,13.4-10.4,26.9-10.045,26.725-19.078,53.817c-3.4,10.213-6.735,20.455-9.88,30.75-.271.884,1.066,1.416,1.343.528,11.359-36.351,23.773-72.329,37.69-107.785q2.951-7.517,5.974-15c1.871-4.655,4.086-9.3,5.555-14.105l.628-.036C567.3,253.763,567.071,252.412,566.2,252.464Z" transform="translate(153.642 -102.956)" fill="#1d1d1b"/>
              <path id="Path_12287" data-name="Path 12287" d="M567.559,234.226q-29.974.669-59.957.994-29.976.3-59.955.257-8.31-.011-16.621-.049c-5.567-.025-11.179-.245-16.739.015-.447.02-.418.756.023.783,4.921.309,9.9.187,14.827.213q7.569.043,15.137.062,14.839.039,29.679,0,29.828-.089,59.652-.491,16.913-.221,33.825-.547C568.217,235.442,568.354,234.207,567.559,234.226Z" transform="translate(159.021 -107.256)" fill="#1d1d1b"/>
              <path id="Path_12288" data-name="Path 12288" d="M542.859,233.747a86.549,86.549,0,0,0-5.44,10.376c-.844,1.735-1.677,3.476-2.486,5.227a41.257,41.257,0,0,0-2.51,5.845c-.172.6.661,1.2,1.043.575a47.184,47.184,0,0,0,2.407-5.12q1.255-2.766,2.548-5.514c1.72-3.638,3.789-7.192,5.263-10.934A.477.477,0,0,0,542.859,233.747Z" transform="translate(186.946 -107.415)" fill="#1d1d1b"/>
              <path id="Path_12289" data-name="Path 12289" d="M522.636,236.119a85.949,85.949,0,0,0-4.713,8.543c-1.367,2.8-3.16,5.906-3.722,8.994a.544.544,0,0,0,.973.376c1.677-2.594,2.622-5.812,3.948-8.607,1.407-2.967,2.945-5.871,4.454-8.788C523.854,236.095,522.963,235.606,522.636,236.119Z" transform="translate(182.653 -106.86)" fill="#1d1d1b"/>
              <path id="Path_12290" data-name="Path 12290" d="M497.2,238.34a.169.169,0,0,0-.271-.1c-1.089.791-1.5,2.488-2.034,3.676-.719,1.6-1.42,3.2-2.114,4.808-1.288,2.984-3.033,6.144-3.648,9.351-.088.456.581.682.83.321,1.856-2.685,2.883-6.157,4.108-9.167.622-1.53,1.243-3.062,1.844-4.6C496.414,241.343,497.411,239.74,497.2,238.34Z" transform="translate(176.742 -106.318)" fill="#1d1d1b"/>
              <path id="Path_12291" data-name="Path 12291" d="M462.241,239.21c-.633,2.61-1.08,5.261-1.694,7.877-.608,2.589-1.482,5.138-1.918,7.762-.075.454.554.539.735.179a33,33,0,0,0,2.379-7.54,43.526,43.526,0,0,0,1.248-8.2A.377.377,0,0,0,462.241,239.21Z" transform="translate(169.55 -106.157)" fill="#1d1d1b"/>
              <path id="Path_12292" data-name="Path 12292" d="M438.54,238.737a81.68,81.68,0,0,0-3.4,8.5,54.91,54.91,0,0,0-2.7,8.24c-.069.346.487.573.662.257a56.664,56.664,0,0,0,3.372-8.292,80.7,80.7,0,0,0,2.839-8.515C439.424,238.455,438.727,238.367,438.54,238.737Z" transform="translate(163.375 -106.246)" fill="#1d1d1b"/>
              <path id="Path_12293" data-name="Path 12293" d="M417.366,238.983c-.378.171-.507.651-.64.991-.424,1.088-.793,2.195-1.173,3.3a117.222,117.222,0,0,0-3.98,12.648c-.1.458.6.582.771.189a90.436,90.436,0,0,0,2.987-8.539c.454-1.389.888-2.784,1.324-4.179q.348-1.118.678-2.239c.092-.316.2-1.364.461-1.587a.2.2,0,0,0,.209.337l.156-.049a.229.229,0,0,0,.136-.188A.629.629,0,0,0,417.366,238.983Z" transform="translate(158.454 -106.152)" fill="#1d1d1b"/>
              <path id="Path_12294" data-name="Path 12294" d="M403.194,284.513c-.023,0-.027.037,0,.037S403.218,284.513,403.194,284.513Z" transform="translate(156.476 -95.399)" fill="#1d1d1b"/>
              <path id="Path_12295" data-name="Path 12295" d="M524.206,266.864a13.61,13.61,0,0,0-1.6,1.448c-6.97.047-13.976.711-20.94,1.021q-10.813.48-21.631.842-21.862.729-43.738.958c-7.788.083-15.706-.282-23.473.363.015-.234.031-.467.043-.7a.41.41,0,0,0-.814-.087c-1.563,7.575-2.317,15.342-3.343,23.007s-2.008,15.36-3.01,23.04q-2.966,22.745-5.933,45.491c-1.13,8.658-2.432,17.317-3.318,26a.75.75,0,0,0,1.49.157c1.207-7.646,2.059-15.361,3.051-23.036s1.986-15.363,2.978-23.044l5.881-45.5c1.065-8.24,2.411-16.54,2.945-24.839,7.048.61,14.254.245,21.32.183q10.824-.1,21.645-.319,21.415-.436,42.82-1.343,5.926-.25,11.851-.53c3.716-.176,7.472-.239,11.183-.566-.649.758-1.273,1.536-1.9,2.261-1.294,1.487-2.538,2.992-3.767,4.519-13.123.224-26.228.7-39.359.7q-19.851,0-39.7-.7c-3.752-.131-7.5-.261-11.254-.415-3.555-.147-7.133-.439-10.694-.405a.531.531,0,0,0-.982.2c-.667,3.6-.949,7.3-1.352,10.94s-.822,7.3-1.209,10.955q-1.164,10.961-2.312,21.922-2.28,21.627-4.525,43.255l-1.3,12.444c-.413,3.952-1.2,8.062-1.059,12.037a.629.629,0,0,0,1.2.125c.848-3.39.938-7.04,1.3-10.513q.577-5.481,1.152-10.961l2.3-21.923q2.271-21.627,4.519-43.256c.433-4.149.84-8.3,1.249-12.448.394-3.982.938-7.993,1.074-11.995,6.394.809,12.972.848,19.4,1.131q9.912.437,19.836.641,19.992.441,39.99.156c7.063-.1,14.152-.152,21.209-.5a.28.28,0,0,0,.1,0c-3.173,7.395-5.777,15.061-8.428,22.654q-4.017,11.511-7.731,23.124-7.337,22.952-13.474,46.265-1.754,6.657-3.406,13.34c-1.059,4.287-2.342,8.613-3.033,12.976a.444.444,0,0,0,.851.208c1.18-3.821,1.915-7.808,2.868-11.692q1.437-5.85,2.95-11.682,3.027-11.661,6.356-23.243,6.7-23.3,14.608-46.222c2.963-8.585,6.272-17.063,9.1-25.692a.337.337,0,0,0,.01-.075l.121-.006c.55-.028.682-.732.42-1.11,1.179-1.2,2.341-2.4,3.48-3.648.923-1.011,1.969-2.027,2.909-3.1-3.087,7.507-5.389,15.439-7.853,23.161q-3.85,12.071-7.506,24.205-7.209,23.992-13.68,48.2-3.685,13.791-7.116,27.649c-.226.912,1.149,1.463,1.378.54q12.182-48.909,27.258-97.029,2.089-6.675,4.2-13.343c1.464-4.627,3.089-9.239,4.278-13.945a.355.355,0,0,0-.166-.4,12.789,12.789,0,0,0,.877-1.28A.417.417,0,0,0,524.206,266.864Z" transform="translate(154.89 -99.582)" fill="#1d1d1b"/>
              <path id="Path_12296" data-name="Path 12296" d="M495.194,289.412a48.257,48.257,0,0,0-7.671-.263l-7.391-.109-15.373-.224q-15.078-.221-30.157-.416-4.288-.059-8.576-.1a72.58,72.58,0,0,0-8.361.066c-.273.028-.243.435.015.471a66.934,66.934,0,0,0,7.667.289c2.463.046,4.926.094,7.389.131l15.373.23q15.078.226,30.156.432l8.574.12c2.737.038,5.66.368,8.374-.038A.3.3,0,0,0,495.194,289.412Z" transform="translate(159.848 -94.527)" fill="#1d1d1b"/>
              <path id="Path_12297" data-name="Path 12297" d="M489.785,315.183c-3.139-.314-6.372-.177-9.527-.235l-9.532-.176-18.469-.34q-9.235-.169-18.47-.334c-6.163-.1-12.375-.434-18.534-.125-.179.01-.164.3.01.314,6.312.551,12.71.435,19.042.562q9.235.185,18.469.341l18.47.336,9.532.173c2.992.054,6.042.288,9.027.1C490.159,315.779,490.127,315.218,489.785,315.183Z" transform="translate(159.294 -88.482)" fill="#1d1d1b"/>
              <path id="Path_12298" data-name="Path 12298" d="M468.1,341.293c-4.326-.163-8.752.361-13.071.607l-13.858.787c-9.114.518-18.316.746-27.387,1.771-.22.025-.216.4.012.4,8.967-.012,17.969-.807,26.92-1.316l13.564-.771c4.574-.26,9.3-.229,13.836-.921C468.42,341.8,468.42,341.305,468.1,341.293Z" transform="translate(158.94 -82.018)" fill="#1d1d1b"/>
              <path id="Path_12299" data-name="Path 12299" d="M107.332,375.944S88.259,350.257,86.449,346.7,61.67,297.518,61.734,272.754c0-19.934,4.184-25.393,12.086-31.929,1.843-15.542,7.242-31.452,13.05-39.859,14.781,5.939,29.452,11.053,29.452,11.053s5.556-20.969,6.782-23.335c4.7,1.08,4.7,1.08,6.55,2.928,1.008-1.378-1.122-6.129.934-6.129s1.343,4.728,1.343,4.728a56.662,56.662,0,0,0,2.641-8.66C158.8,199.976,165.9,212.03,165.9,212.03s11.516,20.048,9.632,23.167c-2.873,3.119-8.807,16.891-8.807,16.891s3.967-2.352,6.256-.063,9.048,44.493,12.935,62.119c-8.5,2.048-14.275,15.1-15.078,21.572s-6.623,26.359-11.054,30.791-11.241,3.7-15.912,2.716c3.691,3.69,3.1,4.689,2.128,7.565s-15.214,5.483-15.214,5.483l-8.709-.76Z" transform="translate(75.97 -119.676)" fill="#a5a5aa"/>
              <path id="Path_12300" data-name="Path 12300" d="M90.3,418.694l7.137-21.508,4.351-23.046s-.193-34.383-4.058-44.052a72.177,72.177,0,0,0,1.584-11.676L87.845,307.569l-.2-2.311,12.268,8.08-2.867-38.6,6.912,22.46,14.743-21.341-2.413,10L104.5,302.446l1.8,33.3,9.014-10.1-.9-18.143,3.421-2.276,4.444,13.468,11.383-6.65-.732-20.224-5.977-25.288,9.339,19.664L146.5,271.7l-3.756,15.82-2.708,7.779,1.41,15.807,9.214-.488,9.828-23.865.767-8.066,1.4,13.727-9.9,23.325-1.131,1.477-10.88-2.149-28.338,27.125,7.912,41.92,9.942,34.224Z" transform="translate(82.08 -99.639)" fill="#dadada"/>
              <path id="Path_12301" data-name="Path 12301" d="M186.989,313.863c-2.853-13.293-5.761-26.576-8.61-39.871-1.372-6.4-2.348-13.057-4.188-19.338-.517-1.763-1.44-3.579-3.312-4.176a3.79,3.79,0,0,0-2.364-.011,29.1,29.1,0,0,1,8.653-14.283.949.949,0,0,0,.257-1.08,103.858,103.858,0,0,0-42.841-53.526.892.892,0,0,0-1.4.618l-.78,4.863a6.206,6.206,0,0,0-1.808-1.548.9.9,0,0,0-1.233.189,4.8,4.8,0,0,0-.913,3.458,16.242,16.242,0,0,0-4.422-1,.911.911,0,0,0-.916.556,81.407,81.407,0,0,0-6.782,23.335q-14.318-5.993-28.647-11.951a.931.931,0,0,0-1.078.311,72.79,72.79,0,0,0-12.778,40.446c-1.637-.083-2.756,1.2-3.744,2.362a33.212,33.212,0,0,0-6.3,11.672c-2.755,8.835-2.453,18.476-1.089,27.532,3.14,20.851,10.914,41.447,20.911,59.933a195.219,195.219,0,0,0,20.458,30.617.693.693,0,0,0,1.076-.871A205.11,205.11,0,0,1,75.6,321.756a198.418,198.418,0,0,1-8.994-27.909c-2.1-8.66-3.673-17.559-3.258-26.505a44.758,44.758,0,0,1,2.767-13.989,31.748,31.748,0,0,1,3.125-6.117,30.176,30.176,0,0,1,2.064-2.763,13.316,13.316,0,0,1,.963-1.095,1.777,1.777,0,0,1,1.226-.733,1.159,1.159,0,0,0,.351.063c.127.824,1.369,1.277,1.678.292a2.148,2.148,0,0,0,.051-.23h0v-.021a1.7,1.7,0,0,0,0-.742A70.956,70.956,0,0,1,87.69,202.093q14.52,6.084,29.062,12.108a.922.922,0,0,0,1.241-.755,79.135,79.135,0,0,1,6.488-23.461,14.871,14.871,0,0,1,5.185,1.656c.87.461,1.425-.735,1.008-1.378a2.888,2.888,0,0,1-.3-2.761,4.438,4.438,0,0,1,1.566,2.737.885.885,0,0,0,1.746-.052q.515-3.218,1.029-6.437a102.4,102.4,0,0,1,40.822,51.477,29.034,29.034,0,0,0-8.807,16.891.708.708,0,0,0,1.267.489c1.018-1.644,3.073-.835,3.994.442a9.285,9.285,0,0,1,1.26,3.526c.588,2.682,1.138,5.371,1.707,8.056l3.5,16.5c2.286,10.788,4.517,21.588,6.8,32.378a22.03,22.03,0,0,0-11.209,10.586c-1.515,3.107-2.236,6.652-3.2,9.957-1.084,3.715-2.159,7.432-3.255,11.144-1.728,5.85-3.24,12.09-6.66,17.233-3.643,5.481-9.771,8.46-16.1,6.221a5.054,5.054,0,0,0-.934-.366l-.044-.018v.006c-.078-.021-.153-.045-.234-.063-1.021-.234-1.314,1.348-.421,1.731.355.153.712.29,1.07.414a4.276,4.276,0,0,1,1.479,4.312c-.491,2.627-3.091,4.026-5.462,4.656-4.591,1.22-9.477.278-13.84,2.485-1.049.531-.3,2.21.754,1.67,5.787-2.97,13.841-.11,18.676-5.266a6.77,6.77,0,0,0,1.186-7.187,14.872,14.872,0,0,0,12.731-4.483c3.888-4,5.889-9.475,7.486-14.706,2.271-7.439,4.407-14.925,6.621-22.381,1.992-6.705,5.939-12.091,12.622-14.712A.82.82,0,0,0,186.989,313.863Z" transform="translate(75.957 -119.706)" fill="#1d1d1b"/>
              <path id="Path_12302" data-name="Path 12302" d="M99.8,310.169a44.172,44.172,0,0,0-5.575-5.107c-2.075-1.8-4.144-3.615-6.3-5.309-.319-.25-.8.232-.5.524,1.819,1.749,3.73,3.4,5.628,5.063a47.687,47.687,0,0,0,6.345,5.256C99.67,310.762,100.025,310.447,99.8,310.169Z" transform="translate(82.004 -91.822)" fill="#1d1d1b"/>
              <path id="Path_12303" data-name="Path 12303" d="M100.566,305.2c-1.611-1.644-4-2.656-5.992-3.767-2.248-1.251-4.517-2.433-6.826-3.56-.386-.188-.713.418-.362.656,2.106,1.426,4.239,2.794,6.421,4.1,1.919,1.152,4.026,2.752,6.209,3.319C100.422,306.062,100.946,305.59,100.566,305.2Z" transform="translate(81.983 -92.256)" fill="#1d1d1b"/>
              <path id="Path_12304" data-name="Path 12304" d="M97.746,299.8q-.343-4.44-.7-8.878c-.462-5.866-.607-11.915-1.667-17.709-.061-.325-.588-.335-.6.017-.214,5.685.468,11.477.837,17.148q.274,4.254.551,8.511a66.846,66.846,0,0,0,.751,9.259c.148.71,1.274.744,1.324-.038A60.22,60.22,0,0,0,97.746,299.8Z" transform="translate(83.752 -98.12)" fill="#1d1d1b"/>
              <path id="Path_12305" data-name="Path 12305" d="M116.487,274.1c-3.025,3.156-5.341,7.242-7.809,10.843-2.371,3.463-4.7,6.949-6.934,10.5-.387-1.708-.825-3.4-1.277-5.1-.3-1.126-.594-2.254-.9-3.379a10.6,10.6,0,0,0-.807-2.755c-.782-1.256-2.433-.24-1.338.7a.4.4,0,0,0,.478-.007c.566,2.126,2.441,8.407,3.35,11.315-.091.147-.187.293-.278.44a.34.34,0,0,0,.546.405c.089.274.157.478.2.582a.248.248,0,0,0,.47-.142c-.067-.344-.142-.685-.215-1.027,2.7-3.5,5.3-7.08,7.858-10.694,2.521-3.56,5.566-7.16,7.473-11.092C117.517,274.242,116.847,273.724,116.487,274.1Z" transform="translate(84.298 -97.885)" fill="#1d1d1b"/>
              <path id="Path_12306" data-name="Path 12306" d="M113.044,280c-2.488,2.615-4.287,6.337-6.211,9.385-1.9,3-3.62,6.039-5.282,9.16-.1.179.185.315.3.167,2.306-2.973,4.472-5.986,6.556-9.131,1.89-2.852,4.376-5.837,5.667-9.011C114.349,279.9,113.478,279.544,113.044,280Z" transform="translate(85.353 -96.511)" fill="#1d1d1b"/>
              <path id="Path_12307" data-name="Path 12307" d="M103.513,317.135l-.423-7.311c-.269-4.679-.251-9.576-1.071-14.193a.361.361,0,0,0-.712.021c-.31,4.482.193,9.14.413,13.623l.34,6.935c.115,2.346-.078,5.025.552,7.287a.541.541,0,0,0,1.066-.031A29.3,29.3,0,0,0,103.513,317.135Z" transform="translate(85.277 -92.846)" fill="#1d1d1b"/>
              <path id="Path_12308" data-name="Path 12308" d="M157.71,276.567c-.229-.426-1.021-.545-1.173.03a24.375,24.375,0,0,0-.83,6.75.433.433,0,0,0-.57.215c-1.691,4.066-2.894,8.328-4.618,12.392-1.656,3.906-3.547,7.7-5.576,11.421a70.533,70.533,0,0,0-7.735.189,58.111,58.111,0,0,1-.741-6.863c-.112-2.509.218-5.033.052-7.527a.6.6,0,0,0-.063-.241c.557-2.491.969-5.019,1.569-7.5.743-3.075,2.291-6.3,2.543-9.443a.542.542,0,0,0-.969-.376c-1.634,2.478-2.154,5.982-2.816,8.846a51.088,51.088,0,0,0-1.431,8.649.717.717,0,0,0-.035.1,28.011,28.011,0,0,0-.282,7.349,58.476,58.476,0,0,0,.876,7.873.727.727,0,0,0,.816.585,63.626,63.626,0,0,1,8.559-.2.715.715,0,0,0,.655-.289,114.058,114.058,0,0,0,5.8-12.095,69.659,69.659,0,0,0,4.03-11.771c.019.259.037.519.064.781.084.808,1.322.6,1.246-.208a23.223,23.223,0,0,1,.242-6.33c.992,3.043.628,6.3-.11,9.45a69.507,69.507,0,0,1-3.722,11.176c-1.489,3.517-3.055,6.992-4.846,10.368A26.235,26.235,0,0,1,147,312.891c-.876,1.227-1.684,1.186-3.124,1.217a35.141,35.141,0,0,1-6.087-.577c.157-1.127-1.144-1.882-1.765-.554a.584.584,0,0,0,.2.676l.1.075a2.914,2.914,0,0,0-1.185.849l-.858.795c-.572.531-1.146,1.059-1.714,1.593-1.235,1.155-2.457,2.325-3.684,3.489q-3.54,3.357-7.08,6.713c-4.386,4.158-9.189,8.2-13.2,12.741a.469.469,0,0,0-.913.2,207.278,207.278,0,0,0,3.478,22.605q1.109,5.609,2.417,11.176.61,2.6,1.264,5.185.371,1.477.753,2.954a15.711,15.711,0,0,1,.587,1.976.87.87,0,0,0-.283.489l-.038.215a.7.7,0,0,0,.287.648l.147.1a.75.75,0,0,0,.1.053,10.983,10.983,0,0,0,.554,2.169q.371,1.22.732,2.443.691,2.352,1.345,4.715,1.255,4.545,2.362,9.129t2.056,9.2q.458,2.215.882,4.439.213,1.11.416,2.224.135.741.267,1.484a1.089,1.089,0,0,0,.065.623l-.1.038a.61.61,0,0,0-.34.635c.047,1.618,1.892.887,1.978-.41.122-1.835-.714-4.137-1.074-5.943q-.664-3.329-1.4-6.642c-1.862-8.344-4.176-16.542-6.608-24.733.36-.963-.248-2.1-.513-3.083q-.8-2.945-1.525-5.908-1.459-5.923-2.694-11.9c-1.565-7.575-2.693-15.213-3.98-22.835,3.528-2.715,6.679-6.059,9.93-9.1q4.988-4.66,9.942-9.362c1.608-1.518,3.223-3.028,4.821-4.556,1.27-1.214,3.135-2.47,4.051-3.978a18.309,18.309,0,0,0,6.274,1.133,8.052,8.052,0,0,0,3.07-.162c.577-.288.811-.921,1.131-1.477a97.675,97.675,0,0,0,6.16-12.688,95.654,95.654,0,0,0,4.347-12.949C159.453,284.176,159.62,280.131,157.71,276.567Z" transform="translate(86.804 -97.549)" fill="#1d1d1b"/>
              <path id="Path_12309" data-name="Path 12309" d="M126.68,300.7c-.073-2.863.31-6.282-.524-9.051a.26.26,0,0,0,.042-.236c-.965-3.668-2.238-7.247-3.144-10.934-.853-3.468-1.1-7.242-2.2-10.615-.174-.533-1.047-.363-1.073.173-.168,3.581,1.069,7.591,1.995,11.028a51.954,51.954,0,0,0,3.585,10.048.353.353,0,0,0-.154.209c-.767,2.915-.075,6.432.077,9.42a77.386,77.386,0,0,0,.809,10.594.3.3,0,0,0,.588-.019A77.465,77.465,0,0,0,126.68,300.7Z" transform="translate(89.652 -98.93)" fill="#1d1d1b"/>
              <path id="Path_12310" data-name="Path 12310" d="M129.079,286.486c2.038-3.892,4.092-7.514,7.227-10.649.683-.682-.272-1.864-.949-1.173-3.066,3.125-5.807,6.937-6.945,11.226-1.028-2.652-2.318-5.241-3.3-7.9-1.22-3.291-2.233-6.646-3.365-9.967-.129-.378-.749-.185-.669.2a75.438,75.438,0,0,0,2.874,9.888c1.179,3.351,2.325,7.033,4.178,10.072a.526.526,0,0,0,.959-.432c-.112-.345-.234-.687-.358-1.029A.408.408,0,0,0,129.079,286.486Z" transform="translate(89.959 -99.335)" fill="#1d1d1b"/>
              <path id="Path_12311" data-name="Path 12311" d="M125.177,304.431a27.723,27.723,0,0,1-8.658,5.982c-.813-2.792-1.653-5.583-2.558-8.345-.261-.8-1.607-.391-1.414.429a13.089,13.089,0,0,1-.446,6.548.613.613,0,0,0,1.141.447,10.527,10.527,0,0,0,.683-2.341q.708,2.3,1.447,4.591a.747.747,0,0,0,.982.371,28.691,28.691,0,0,0,9.32-7.316C125.94,304.492,125.444,304.149,125.177,304.431Z" transform="translate(87.839 -91.361)" fill="#1d1d1b"/>
              <path id="Path_12312" data-name="Path 12312" d="M113.094,312.6c-.185-2.234-1.565-4.265-.973-6.547.1-.367-.416-.593-.565-.221-1.363,3.419,1.567,6.893-.926,10.051-1.289,1.632-2.742,3.155-4.113,4.718-1.463,1.67-3.259,3.3-4.345,5.242a.5.5,0,0,0,.719.686,32.093,32.093,0,0,0,4.47-4.839c1.508-1.733,3.187-3.409,4.544-5.263A5.521,5.521,0,0,0,113.094,312.6Z" transform="translate(85.487 -90.418)" fill="#1d1d1b"/>
              <path id="Path_12313" data-name="Path 12313" d="M101.416,339.538a168.561,168.561,0,0,0-3.311-24,.44.44,0,0,0-.868.143c.539,7.794,2.055,15.518,2.684,23.314a123.858,123.858,0,0,1-.1,23.516,218.748,218.748,0,0,1-4.14,22.315,210.766,210.766,0,0,1-5.875,22.394c-.292.866,1.033,1.389,1.325.519a209.381,209.381,0,0,0,5.812-22.027c1.666-7.627,3.45-15.283,4.351-23.046A117.123,117.123,0,0,0,101.416,339.538Z" transform="translate(82.579 -88.166)" fill="#1d1d1b"/>
              <path id="Path_12314" data-name="Path 12314" d="M-20.539,387.35c-1.479,1.479-3.223,12.416-3.223,12.416l7.28-.2,156.637-8.052,144.5-4.168,141.1-1.9H533.45l203.51,3.959,98.719,4.487,60.446,3.2L882.4,388.878l-77.418-3.432L641.035,380.11l-139.249-2.186L363.462,377l-162.068,3.11L88.948,383.336Z" transform="translate(55.811 -73.592)" fill="#dadada"/>
              <path id="Path_12315" data-name="Path 12315" d="M-49.7,391.3c1.32,0,34.843-14.524,34.843-14.524l38.538,3.175,84.334-1.241,131.323-3.539L394,371.735l158.915-4.722L624.6,363.7l122.561-1.451,40.258-.015,67.415-.366v28.741l-126.39-5.124-122.212-3.956-133.213-.15-184.063-.646-96.081,2.788L65.4,387.021Z" transform="translate(49.696 -77.158)" fill="#a5a5aa"/>
              <path id="Path_12316" data-name="Path 12316" d="M-3.667,463.9c2.376-2.375,41-69.366,41-69.366l99.236-4.174,94.177-3.962,193.316-4.1,227.766,2.719L799.882,390.8l84.354,43.974s-57.411,61.965-61.965,61.965S234.985,480.3,234.985,480.3Z" transform="translate(60.549 -72.342)" fill="#6d6d84"/>
              <path id="Path_12317" data-name="Path 12317" d="M626.093,360.842c-3.515,1.693-6.84,3.919-10.2,5.9q-4.742,2.792-9.485,5.583c-6.293,3.721-13.078,7.145-18.869,11.609a.366.366,0,0,0,.379.615c6.89-2.972,13.354-7.368,19.824-11.169q4.745-2.786,9.485-5.582c3.2-1.882,6.568-3.622,9.6-5.762C627.483,361.568,626.808,360.5,626.093,360.842Z" transform="translate(199.915 -77.417)" fill="#1d1d1b"/>
              <path id="Path_12318" data-name="Path 12318" d="M893.287,398.685Q812,394.262,730.612,391.652c-.023-.615-.037-1.228-.016-1.831.04-1.125.056-2.283.093-3.438q77.293,2.819,154.536,6.82c1.362.068,1.6-2.043.222-2.117q-77.278-4.208-154.654-6.827c.035-.5.077-.989.134-1.472.057-.35-.479-.4-.544-.058-.1.509-.19,1.01-.285,1.506q-42.433-1.453-84.879-2.481c.224-2.238.234-4.551.4-6.718.274-3.553.668-7.121.761-10.683a.39.39,0,0,0-.775-.08c-.483,3.528-.669,7.112-.97,10.66-.187,2.192-.565,4.514-.7,6.791q-44.918-1.1-89.839-1.763a.513.513,0,0,0-.608-.163.692.692,0,0,0-.3-.409c-3.337-2.237-6.831-4.278-10.36-6.2a74.717,74.717,0,0,0-10.892-5.272q11.958-.18,23.912-.473,23.875-.595,47.736-1.6c9.168-.388,18.348-.724,27.5-1.432.446-.035.431-.809-.023-.8-15.906.437-31.8,1.4-47.7,1.961q-24.513.86-49.038,1.3c-8.9.164-17.987-.238-26.855.585a.254.254,0,0,0,.015.5c7.745.6,15.672.126,23.449-.019a.411.411,0,0,0,.088.643c3.449,2.126,7.223,3.773,10.761,5.755,3.177,1.781,6.278,3.673,9.377,5.581q-9.026-.133-18.05-.26-65.253-.849-130.511-.746c-.073-.038-.146-.074-.217-.112a48.267,48.267,0,0,1-4.616-2.842,66.743,66.743,0,0,1-8.2-6.9c-.306-.3-.806.072-.529.428a37.973,37.973,0,0,0,7.976,7.5c.861.615,1.808,1.289,2.8,1.936q-51.006.1-102.008.784c-2.21-2.664-4.668-5.167-7.116-7.585a.284.284,0,0,0-.441.358c1.723,2.452,3.51,4.925,5.438,7.253q-37.4.508-74.79,1.33,2.519-.821,5.033-1.661,2.968-.988,5.927-2c1.216-.413,2.484-.777,3.716-1.217,5.167-.066,10.34-.166,15.472-.58a.59.59,0,0,0-.035-1.164c-4.107-.146-8.229-.074-12.35.046a.425.425,0,0,0-.5-.429,14.62,14.62,0,0,0-2.311.514c-2.308.075-4.614.153-6.915.208l-21.7.5-43.8,1.013q-43.608,1.01-87.213,2.056c-16.217.393-32.434.713-48.637,1.479-.255.012-.245.453.014.453,29.178.067,58.38-.887,87.552-1.527l87.2-1.911,24.462-.536q2.08-.045,4.166-.068-2.43.825-4.858,1.662c-3.072,1.064-6.141,2.127-9.191,3.246q-17.276.387-34.549.84-49.514,1.309-99.037,3.046c.585-.163,1.169-.325,1.752-.491,4.339-1.231,9.113-2.1,13.212-4.01a.541.541,0,0,0-.309-1.022c-4.671.582-9.382,2.469-13.9,3.78-2.342.681-4.834,1.274-7.273,1.986q-44.82,1.685-89.6,4.105c-.949.052-.692,1.49.241,1.453q41.641-1.679,83.275-3.2a.4.4,0,0,0,.347.541,45.9,45.9,0,0,0-1.21,6.414c-.052.473-.245,1.417-.332,2.375q-45.185,2.208-90.327,5.083c-.572.037-.42.911.146.88q45.078-2.478,90.162-4.611a1.644,1.644,0,0,0,.638,1.378.456.456,0,0,0,.529-.153l.138-.169a.418.418,0,0,0-.088-.58l-.114-.073a.431.431,0,0,0-.069-.032l.258-.2.027-.234q70.347-3.307,140.729-5.593c.012.062.023.125.04.187a.332.332,0,0,0,.587.14,3.372,3.372,0,0,0,.217-.355q41.276-1.311,82.569-2.2v.012c-.058.676,1.037,1.011,1.216.3.027-.111.051-.224.078-.335q20.75-.437,41.505-.76,31.6-.482,63.206-.716c.015.035.026.072.043.106a.406.406,0,0,0,.74-.019c.011-.032.018-.063.028-.094q74.781-.554,149.567.264a10.691,10.691,0,0,0,.162,1.372.609.609,0,0,0,1.2-.035c.08-.435.132-.877.172-1.321q45.565.51,91.123,1.532a.556.556,0,0,0,.908.02q24.007.543,48.01,1.225,18.129.519,36.252,1.134a12.912,12.912,0,0,0,.389,3.752.51.51,0,0,0,1.006-.03,18.9,18.9,0,0,0,.1-3.673q81.254,2.764,162.443,7.086C894.127,400.3,894.3,398.74,893.287,398.685ZM212.239,387.606a30.843,30.843,0,0,0-.748,3.725q-16.086.5-32.171,1.065Q125.139,394.3,70.964,396.89c0-.229,0-.456.017-.667q.12-1.7.32-3.389c.189-1.59.393-3.185.643-4.77a26.088,26.088,0,0,0,2.564-.571q69.316-2.5,138.644-4.256C212.815,384.686,212.524,386.145,212.239,387.606Zm84.19-5.9c-.442,2.458-1,4.953-1.315,7.444q-41.1.858-82.186,2.133c.23-.918.306-1.9.473-2.813.321-1.75.643-3.5.886-5.264q41.079-1,82.172-1.609A.7.7,0,0,0,296.429,381.709Zm105.607,5.916c.049-.58.047-1.165.1-1.766a20.614,20.614,0,0,1,.7-3.863c.229-.817-1-1.316-1.244-.487-.531,1.776-1.238,4.13-.965,6.127q-52.042.41-104.077,1.488c.475-2.346.762-4.754,1.122-7.107.061.065.12.135.182.2a.778.778,0,0,0,1.346-.654q20.211-.284,40.426-.462,31.737-.269,63.479-.313a12.791,12.791,0,0,0,3.135,1.05.467.467,0,0,0,.323-.835c-.106-.077-.216-.147-.325-.219q73.192-.087,146.385,1.023a22.831,22.831,0,0,0-1.265,6.028q-8.362-.087-16.723-.161Q468.336,387.113,402.036,387.625Zm241.809,1.7q-45.43-.981-90.86-1.466c.041-.712.079-1.422.171-2.123.172-1.307.4-2.615.7-3.905q45.02.691,90.032,1.853c.007.429.028.855.065,1.277a.321.321,0,0,0,.027.087A33.416,33.416,0,0,0,643.845,389.321Zm85.467.735c-.02.5-.049,1.02-.075,1.552q-42.045-1.357-84.1-2.259a43.563,43.563,0,0,0-.216-5.43c.012-.072.026-.142.038-.214q21.8.567,43.595,1.243,20.587.639,41.167,1.4A30.359,30.359,0,0,0,729.312,390.057Z" transform="translate(56.426 -76.748)" fill="#1d1d1b"/>
              <path id="Path_12319" data-name="Path 12319" d="M508.491,365.273c-10.235-.535-20.57.106-30.813.339q-15.028.343-30.056.707-30.452.738-60.9,1.569-60.615,1.657-121.211,3.894-16.991.651-33.983,1.273c-11.573.434-23.193.648-34.739,1.555-.351.027-.339.624.019.625,10.056.046,20.127-.467,30.178-.8q15.03-.5,30.059-.959c20.308-.615,40.618-1.151,60.925-1.754q61.166-1.817,122.338-3.368,17.006-.421,34.011-.811c11.372-.262,22.879-.021,34.208-1.095A.6.6,0,0,0,508.491,365.273Z" transform="translate(107.753 -76.406)"/>
              <path id="Path_12320" data-name="Path 12320" d="M715.3,361.433c-13.66-.353-27.347-.115-41.011-.058s-27.35.138-41.024.245q-41.029.319-82.055,1.008c-15.283.241-30.628.2-45.892,1.027-.477.026-.456.838.025.845,13.654.219,27.343-.276,41-.481q20.313-.3,40.625-.536,41.022-.467,82.046-.641c15.384-.073,30.791.137,46.17-.276C715.887,362.547,716.043,361.453,715.3,361.433Z" transform="translate(180.478 -77.307)"/>
            </g>
          </g>
        </g>
      </g>
      <g id="mato" transform="translate(341.629 357.694)">
        <g id="Group_3489" data-name="Group 3489">
          <g id="Group_3487" data-name="Group 3487">
            <path id="Path_12322" data-name="Path 12322" d="M278.035,293.9c-.044.011-.088.02-.131.03l-.016.078.1-.061Z" transform="translate(-276.578 -293.897)" fill="#1d1d1b"/>
            <path id="Path_12323" data-name="Path 12323" d="M278.221,318.793s-1.1-2.359-1.279-11.134,1.45-12.139,1.45-12.139a106.253,106.253,0,0,1,18.11-.749,160.994,160.994,0,0,1,17.971,2.4s-.969,16.518-1.883,20.813a8.073,8.073,0,0,1-2.346.543s-15.661,1.514-18.266,1.217C289.51,319.747,279.135,320.055,278.221,318.793Z" transform="translate(-276.805 -293.723)" fill="#fff"/>
            <path id="Path_12324" data-name="Path 12324" d="M314.885,297.279l-.243-.062v-.037a.361.361,0,0,1-.146.03.74.74,0,0,1-.462-.142c-.892-.21-1.793-.389-2.69-.567q-1.787-.354-3.587-.646-3.555-.578-7.145-.911a106.819,106.819,0,0,0-14.45-.357q-2.019.087-4.032.255-1.029.087-2.055.193c-.53.056-1.073.088-1.6.187l.018-.1c-.21.068-.421.136-.629.214q-.219,1.238-.392,2.484-.391,2.832-.545,5.69a67.724,67.724,0,0,0,.332,11.315,41.835,41.835,0,0,0,1.136,6.312.083.083,0,0,0,.163-.027q-.137-1.038-.285-2.075a11.5,11.5,0,0,0,2.748.611c1.013.117,2.038.175,3.055.234q3.181.185,6.369.205a124.237,124.237,0,0,0,12.7-.576q1.789-.174,3.57-.4.868-.111,1.735-.235a16.027,16.027,0,0,0,1.814-.305.243.243,0,0,0-.079-.479c-.538.032-1.07.137-1.6.216q-.754.111-1.51.215-1.579.213-3.162.391-3.123.345-6.26.531a122.5,122.5,0,0,1-12.638.091,34.921,34.921,0,0,1-6.519-.64l-.056-.054c-.014-.012-.037,0-.023.02l.02.02-.192-.047c-.153-1.1-.305-2.2-.426-3.3-.206-1.865-.34-3.741-.4-5.617a70.156,70.156,0,0,1,.534-11.251q.2-1.555.467-3.1c.471-.016.94-.087,1.411-.133q.875-.087,1.75-.159,1.8-.148,3.6-.24,3.637-.182,7.28-.11a104.439,104.439,0,0,1,14.342,1.278q2,.317,3.979.711c1.144.227,2.279.5,3.419.743-.04.723-.075,1.447-.112,2.17-.093,1.767-.216,3.533-.351,5.3q-.4,5.274-1.127,10.517-.2,1.472-.431,2.94c-.153.99-.367,1.981-.462,2.978-.031.318.486.471.567.138.215-.869.326-1.767.462-2.651s.263-1.751.384-2.627q.365-2.63.649-5.272c.381-3.537.652-7.082.793-10.638.036-.918.064-1.839.074-2.758l.127.027C315.042,297.822,315.161,297.352,314.885,297.279Z" transform="translate(-276.828 -293.758)" fill="#1d1d1b"/>
          </g>
          <g id="Group_3488" data-name="Group 3488" transform="translate(4.449 2.836)">
            <path id="Path_12325" data-name="Path 12325" d="M284.594,303.9a2.686,2.686,0,0,0-.509.824,9.266,9.266,0,0,0-.376.927c-.106.3-.2.608-.283.916-.026.089-.047.179-.064.269a.426.426,0,0,0-.147.01,4.783,4.783,0,0,1-1.536.238c0-.3-.009-.6-.011-.893a6.976,6.976,0,0,0-.109-1.353.528.528,0,0,0-.811.073c-.007.211-.007.424,0,.635,0,.075,0,.151.006.226-.025.105-.047.211-.069.315a12.989,12.989,0,0,0-.255,1.336.618.618,0,0,0,.811.643,3.82,3.82,0,0,0,2.281-.2.562.562,0,0,0,.13-.089.248.248,0,0,0,.09-.1.541.541,0,0,0,.069-.142c.12-.241.251-.475.353-.724.116-.282.241-.559.358-.84s.241-.557.348-.843a3.312,3.312,0,0,0,.288-.919C285.181,303.935,284.822,303.679,284.594,303.9Z" transform="translate(-280.428 -294.394)" fill="#0b70b2"/>
            <path id="Path_12326" data-name="Path 12326" d="M288.4,305.116a.461.461,0,0,0-.524-.494,2.411,2.411,0,0,0-.507.116.294.294,0,0,0-.119-.117,2.278,2.278,0,0,0-1.5-.129,1.72,1.72,0,0,0-1.2.546c-.268.407-.082.974-.032,1.427a10.443,10.443,0,0,0,.271,1.513.4.4,0,0,0,.453.325,15.513,15.513,0,0,1,2.809-.243.37.37,0,0,0,.394-.418C288.424,306.8,288.408,305.957,288.4,305.116Zm-2.946,2.346c-.077-.284-.137-.571-.185-.86-.046-.271-.151-.718.016-.9a1.337,1.337,0,0,1,.748-.325c.258-.062.524-.125.791-.168a.354.354,0,0,0,.341.45c.129,0,.26,0,.388-.007.053.552.1,1.106.145,1.658A10.041,10.041,0,0,0,285.457,307.462Z" transform="translate(-279.489 -294.25)" fill="#0b70b2"/>
            <path id="Path_12327" data-name="Path 12327" d="M290.665,303.932a.847.847,0,0,0-.376.044c-.042.009-.041.012,0,.011l-.157,0a.692.692,0,0,0-.33.169,3.121,3.121,0,0,0-.585.645c-.027.038-.052.078-.077.117a.536.536,0,0,0-.091-.083.419.419,0,0,0-.489.011c-.259.164-.277.6-.319.88a4.9,4.9,0,0,0,0,.96c.015.282.057.564.1.843s.1.7.368.87a.365.365,0,0,0,.434-.01,1.072,1.072,0,0,0,.238-.847c0-.3.006-.594,0-.89V306.6a4.072,4.072,0,0,1,.762-1.106c.131-.146.284-.3.425-.434a.76.76,0,0,0,.2-.268l.033-.13a1.33,1.33,0,0,0,.151-.358A.342.342,0,0,0,290.665,303.932Z" transform="translate(-278.591 -294.369)" fill="#0b70b2"/>
            <path id="Path_12328" data-name="Path 12328" d="M295.742,305.66c-.016-.4-.024-.807-.042-1.21a2.155,2.155,0,0,0-.26-1.189.319.319,0,0,0-.5.011,1.219,1.219,0,0,0-.243.588c-.033.14-.061.276-.083.414-.045-.021-.089-.042-.133-.061a2.38,2.38,0,0,0-2.019.126A3.879,3.879,0,0,0,291,305.887a1.842,1.842,0,0,0,.01,2.189,2.3,2.3,0,0,0,1.167.624,2.708,2.708,0,0,0,.662.052.835.835,0,0,0,.7-.2.3.3,0,0,0-.063-.413,1.5,1.5,0,0,0-.73-.181c-.488-.215-1.277-.344-1.128-1.021a2.541,2.541,0,0,1,.969-1.436,1.833,1.833,0,0,1,.688-.294.99.99,0,0,1,.33-.03c.07,0,.14.014.21.023l.073.012.043.012a2.312,2.312,0,0,1,.371.14c-.011,0,.085.054.1.062s.125.1.129.1c0,.073-.006.146-.007.219a12.77,12.77,0,0,0,.028,1.341,5.864,5.864,0,0,0,.069.625l.012.089a.583.583,0,0,0,.121.268c-.038-.031-.036-.006.009.075.019.067.04.132.062.2a.43.43,0,0,0,.36.261c.04,0,.08,0,.12,0a.454.454,0,0,0,.369-.393,3.762,3.762,0,0,0,.1-.617c.006-.21.01-.418.007-.628C295.773,306.523,295.76,306.092,295.742,305.66Z" transform="translate(-278.02 -294.553)" fill="#3bb7ea"/>
            <path id="Path_12329" data-name="Path 12329" d="M299.548,305.039c-.137-.109-.259-.063-.411-.093a.969.969,0,0,1-.358-.229,2.533,2.533,0,0,0-.4-.276,2.139,2.139,0,0,0-.947-.235,3.969,3.969,0,0,0-2.16.764.407.407,0,0,0-.115.482.38.38,0,0,0,.132.158l-.017.119a.313.313,0,0,0-.049.336c-.037.26-.073.519-.1.78-.054.493.059.984.589,1.132a4.393,4.393,0,0,0,1.5.038,5.759,5.759,0,0,0,.794-.126,1.391,1.391,0,0,0,.463-.157q.167-.106.33-.219c.315-.221.036-.638-.277-.618a2.88,2.88,0,0,0-.666.091c-.19.056-.383.1-.577.14-.221.048-.442.091-.666.121a2.929,2.929,0,0,0-.535.052.062.062,0,0,1-.04,0l-.016-.046c-.028-.1-.017-.012-.031-.121a1.862,1.862,0,0,1,.04-.487,3.377,3.377,0,0,0,1.221.235,3.041,3.041,0,0,0,1.951-.617,1.186,1.186,0,0,0,.528-.822A.507.507,0,0,0,299.548,305.039Zm-2.019.853a3.018,3.018,0,0,1-.989-.043c-.135-.025-.269-.059-.4-.094l.057-.47v0a2.065,2.065,0,0,1,1.347-.352,2.108,2.108,0,0,1,.835.334,3.245,3.245,0,0,0,.323.174c-.1.067-.21.132-.32.189A2.631,2.631,0,0,1,297.529,305.891Z" transform="translate(-276.967 -294.302)" fill="#3bb7ea"/>
            <path id="Path_12330" data-name="Path 12330" d="M303.163,306.025a2.163,2.163,0,0,0-.67-1.684,1.758,1.758,0,0,0-1.781-.028,2.73,2.73,0,0,0-.5.274.6.6,0,0,0-.741-.027c-.486.387-.326,1.227-.3,1.762a5.074,5.074,0,0,0,.294,1.773.329.329,0,0,0,.6-.016,6.362,6.362,0,0,0,.169-1.568c.009-.251.02-.5.036-.75,0-.047,0-.089.007-.13a3.061,3.061,0,0,1,.706-.371c.246-.1.719-.26.917-.057.262.268.226.822.237,1.169.016.513-.015,1.027-.047,1.537a.513.513,0,0,0,.206.47.549.549,0,0,0,.518.054.51.51,0,0,0,.3-.417A10.413,10.413,0,0,0,303.163,306.025Z" transform="translate(-276.02 -294.332)" fill="#3bb7ea"/>
            <path id="Path_12331" data-name="Path 12331" d="M305.643,306.926a1.366,1.366,0,0,0-.514.069c-.147.054-.292.12-.44.177-.114.044-.229.087-.344.127v-.02c-.006-.175,0-.352,0-.528.012-.369.046-.739.075-1.107a4.7,4.7,0,0,0,.521-.176,1.876,1.876,0,0,0,.559-.388.37.37,0,0,0-.1-.624,1.4,1.4,0,0,0-.633-.122,1.745,1.745,0,0,0-.271.054,2.031,2.031,0,0,0-.138-1.129.321.321,0,0,0-.541-.057,1.776,1.776,0,0,0-.336.939c-.032.2-.062.392-.089.587a1.927,1.927,0,0,0-.387.13.349.349,0,0,0-.126.531.868.868,0,0,0,.392.274,10.926,10.926,0,0,0-.115,1.359,2.688,2.688,0,0,0,.125.992.745.745,0,0,0,.958.481c.285-.1.572-.205.856-.311.135-.049.269-.1.4-.156a1.282,1.282,0,0,0,.47-.357A.472.472,0,0,0,305.643,306.926Z" transform="translate(-275.151 -294.568)" fill="#3bb7ea"/>
            <path id="Path_12332" data-name="Path 12332" d="M290.2,311.715a.43.43,0,0,0-.481-.114,11.847,11.847,0,0,1-1.836.279,1.262,1.262,0,0,1-.811-.038c-.245-.131-.222-.542-.167-.776a2.655,2.655,0,0,1,.058-.352c.036-.083.1-.11.182-.152a2.8,2.8,0,0,1,.7-.257,2.661,2.661,0,0,1,.739-.07c.146.007.29.027.437.033s.29-.02.434-.009a.328.328,0,0,0,.226-.586,1.913,1.913,0,0,0-.513-.314,2.123,2.123,0,0,0-.555-.1,3.438,3.438,0,0,0-1.146.109,2.954,2.954,0,0,0-1.073.519.909.909,0,0,0-.172,1.158,2.347,2.347,0,0,1,.167.617,1.415,1.415,0,0,0,.157.478,1.122,1.122,0,0,0,.889.513,6.955,6.955,0,0,0,1.288-.1,5.983,5.983,0,0,0,1.23-.183.424.424,0,0,0,.337-.357A.351.351,0,0,0,290.2,311.715Z" transform="translate(-279.092 -293.113)" fill="#0b70b2"/>
            <path id="Path_12333" data-name="Path 12333" d="M290.637,309.224a1.871,1.871,0,0,0-.116-.473.332.332,0,0,0-.566-.059,1.631,1.631,0,0,0-.23.438c-.046.158-.08.334-.11.5a7.5,7.5,0,0,0-.072.928c-.017.324-.012.645,0,.97s.07.634.105.954a.351.351,0,0,0,.693-.02c.028-.309.1-.609.125-.918s.061-.617.085-.926c.023-.292.075-.588.084-.881C290.637,309.566,290.644,309.389,290.637,309.224Z" transform="translate(-278.282 -293.276)" fill="#0b70b2"/>
            <path id="Path_12334" data-name="Path 12334" d="M291.209,309.707a.369.369,0,0,0-.446.011c-.194.146-.2.334-.248.552a2.816,2.816,0,0,0-.062.713,8.77,8.77,0,0,0,.156,1.343c.083.46.838.475.851-.026.012-.433.046-.864.043-1.3C291.5,310.593,291.539,310,291.209,309.707Z" transform="translate(-278.065 -293.022)" fill="#0b70b2"/>
            <path id="Path_12335" data-name="Path 12335" d="M291.063,308.611a.335.335,0,0,0-.357.289.327.327,0,0,0,.289.357.335.335,0,0,0,.357-.289A.327.327,0,0,0,291.063,308.611Z" transform="translate(-278.005 -293.264)" fill="#0b70b2"/>
            <path id="Path_12336" data-name="Path 12336" d="M295.23,312.046a3.77,3.77,0,0,0-.4-1.766,1.227,1.227,0,0,0-1.553-.654,1.775,1.775,0,0,0-.823.607c-.012-.023-.026-.046-.041-.069a.411.411,0,0,0-.641.015c-.274.293-.224.859-.214,1.232a2.6,2.6,0,0,0,.175,1.194.347.347,0,0,0,.629-.016,3.444,3.444,0,0,0,.167-1.186c.011-.135.028-.277.038-.418v0a1.567,1.567,0,0,1,.943-.732c.484-.11.681.389.761.786a4.512,4.512,0,0,1-.01,1.383c-.048.468-.241,1.257.169,1.6a.31.31,0,0,0,.316.033c.323-.162.4-.6.44-.928A6.748,6.748,0,0,0,295.23,312.046Z" transform="translate(-277.805 -293.044)" fill="#0b70b2"/>
            <path id="Path_12337" data-name="Path 12337" d="M295.854,310.955a3.191,3.191,0,0,0-.222-1.215.417.417,0,0,0-.787.126,4.2,4.2,0,0,0,.036,1.249,4.507,4.507,0,0,0,.094.578.858.858,0,0,0,.25.56.342.342,0,0,0,.468-.072c.158-.167.13-.391.156-.6A3.5,3.5,0,0,0,295.854,310.955Z" transform="translate(-277.038 -293.054)" fill="#0b70b2"/>
            <path id="Path_12338" data-name="Path 12338" d="M295.942,308.759a.251.251,0,0,0-.021-.131.259.259,0,0,0-.053-.119.394.394,0,0,0-.129-.146.512.512,0,0,0-.135-.074.406.406,0,0,0-.205-.031.389.389,0,0,0-.2.042.439.439,0,0,0-.163.119.385.385,0,0,0-.112.169l0,.011a.53.53,0,0,0-.028.281.475.475,0,0,0,.1.231.369.369,0,0,0,.147.119.378.378,0,0,0,.185.063h.044c.009,0,.02.007.121-.009a.572.572,0,0,0,.136-.041l.017,0,.111-.069.09-.094a.388.388,0,0,0,.08-.183A.262.262,0,0,0,295.942,308.759Z" transform="translate(-277.02 -293.348)" fill="#0b70b2"/>
            <path id="Path_12339" data-name="Path 12339" d="M299.6,311.7a.382.382,0,0,0-.106-.236.538.538,0,0,0-.6-.143c-.55.179-1.06.439-1.6.66-.141.058-.237.11-.337-.021a.841.841,0,0,1-.087-.607,1.443,1.443,0,0,1,.714-1.053,2.61,2.61,0,0,1,1.588-.15.345.345,0,0,0,.073-.686,2.97,2.97,0,0,0-2.17.156,2.365,2.365,0,0,0-1.155,1.781c-.078.738.3,1.635,1.152,1.655a3.167,3.167,0,0,0,1.131-.321,7.6,7.6,0,0,0,1.1-.491A.536.536,0,0,0,299.6,311.7Z" transform="translate(-276.776 -293.093)" fill="#0b70b2"/>
            <path id="Path_12340" data-name="Path 12340" d="M290.294,300.74a1.908,1.908,0,0,0-.727,1.93,2.26,2.26,0,0,1-.131,1.155c-.069.163-.352.67-.622.769.488-1.078.559-2.7-.627-3.285-.154-.075-.24.145-.135.243a1.723,1.723,0,0,1,.274.331.181.181,0,0,0-.182-.032,1.792,1.792,0,0,0-.882,1.193,4.173,4.173,0,0,0-.173,1.039c-.028-.046-.056-.09-.08-.135a2.575,2.575,0,0,1-.325-.861,6.628,6.628,0,0,1,.335-2.006,3.79,3.79,0,0,0-.25-2.043c-.205-.513-.591-1.133-.419-1.705.215-.714,1.353-.251,1.854-.294a.258.258,0,0,0,.157-.413,1.85,1.85,0,0,0-2.176-.157,1.593,1.593,0,0,0-.41,1.852,7.137,7.137,0,0,1,.648,2.2c-.008.8-.4,1.542-.367,2.346a2.322,2.322,0,0,0,.371,1.133,2.439,2.439,0,0,0,.759.84.127.127,0,0,0,.208-.009.12.12,0,0,0,.03-.09c.137-.475.122-.98.269-1.455a3.067,3.067,0,0,1,.248-.608c.117-.206.3-.372.413-.575a.19.19,0,0,0,.021-.146,2.134,2.134,0,0,1,.276.953,6.092,6.092,0,0,1-.393,1.762.24.24,0,0,0,.131.3.889.889,0,0,0,.985-.337,2.285,2.285,0,0,0,.575-1.1,9.044,9.044,0,0,0-.028-1.383,1.545,1.545,0,0,1,.629-1.106C290.758,300.888,290.508,300.6,290.294,300.74Z" transform="translate(-279.195 -296.192)" fill="#0b70b2"/>
            <path id="Path_12341" data-name="Path 12341" d="M290.735,297.184c-.125-.434-.687-.606-1.089-.6a1.584,1.584,0,0,0-1.223.671.144.144,0,0,0,.174.214,2.494,2.494,0,0,1,1-.436,1.226,1.226,0,0,1,.488.09c.161.058.3.164.463.213C290.636,297.365,290.767,297.3,290.735,297.184Z" transform="translate(-278.549 -296.099)" fill="#0276cc"/>
            <path id="Path_12342" data-name="Path 12342" d="M302.347,303.066a4.621,4.621,0,0,0-.63-.405,6.071,6.071,0,0,0-.7-.393c-.455-.225-.913-.435-1.378-.638-.94-.408-1.89-.79-2.858-1.125a20.758,20.758,0,0,0-5.963-1.239,10.106,10.106,0,0,0-1.641.045,3.287,3.287,0,0,0-1.523.493c-.073.053-.011.158.068.15.494-.048.97-.143,1.469-.145a12.938,12.938,0,0,1,1.435.083,20.561,20.561,0,0,1,2.847.5,38.319,38.319,0,0,1,5.57,1.946c.517.219,1.031.446,1.551.657a6.011,6.011,0,0,0,.765.287,5.825,5.825,0,0,0,.816.23A.252.252,0,0,0,302.347,303.066Z" transform="translate(-278.733 -295.471)" fill="#3bb7ea"/>
            <path id="Path_12343" data-name="Path 12343" d="M298.8,300.246a1.451,1.451,0,0,0-.486-.384c-.182-.111-.362-.219-.549-.321-.357-.2-.724-.382-1.091-.561a8.891,8.891,0,0,0-2.273-.791,11.462,11.462,0,0,0-5.22.562.178.178,0,0,0,.058.351,13.283,13.283,0,0,1,5.079-.209,9.369,9.369,0,0,1,2.128.882c.355.187.7.388,1.059.567a2.213,2.213,0,0,0,1.126.349A.279.279,0,0,0,298.8,300.246Z" transform="translate(-278.398 -295.749)" fill="#0b70b2"/>
          </g>
        </g>
      </g>
    </g>
  </g>
</svg>
